<?xml version="1.0" encoding="utf-8" standalone="no"?>
<!DOCTYPE svg PUBLIC "-//W3C//DTD SVG 1.1//EN"
  "http://www.w3.org/Graphics/SVG/1.1/DTD/svg11.dtd">
<svg xmlns:xlink="http://www.w3.org/1999/xlink" width="399.42pt" height="270.546375pt" viewBox="0 0 399.42 270.546375" xmlns="http://www.w3.org/2000/svg" version="1.1">
 <metadata>
  <rdf:RDF xmlns:dc="http://purl.org/dc/elements/1.1/" xmlns:cc="http://creativecommons.org/ns#" xmlns:rdf="http://www.w3.org/1999/02/22-rdf-syntax-ns#">
   <cc:Work>
    <dc:type rdf:resource="http://purl.org/dc/dcmitype/StillImage"/>
    <dc:date>2026-06-01T15:43:21.243531</dc:date>
    <dc:format>image/svg+xml</dc:format>
    <dc:creator>
     <cc:Agent>
      <dc:title>Matplotlib v3.10.8, https://matplotlib.org/</dc:title>
     </cc:Agent>
    </dc:creator>
   </cc:Work>
  </rdf:RDF>
 </metadata>
 <defs>
  <style type="text/css">*{stroke-linejoin: round; stroke-linecap: butt}</style>
 </defs>
 <g id="figure_1">
  <g id="patch_1">
   <path d="M 0 270.546375 
L 399.42 270.546375 
L 399.42 0 
L 0 0 
L 0 270.546375 
z
" style="fill: none"/>
  </g>
  <g id="axes_1">
   <g id="patch_2">
    <path d="M 57.42 232.990125 
L 392.22 232.990125 
L 392.22 11.230125 
L 57.42 11.230125 
L 57.42 232.990125 
z
" style="fill: none"/>
   </g>
   <g id="FillBetweenPolyCollection_1">
    <defs>
     <path id="ma8a635b618" d="M 327.122828 -259.31625 
L 327.122828 -37.55625 
L 328.140766 -37.55625 
L 329.158705 -37.55625 
L 330.176643 -37.55625 
L 331.194582 -37.55625 
L 332.212521 -37.55625 
L 333.230459 -37.55625 
L 334.248398 -37.55625 
L 335.266336 -37.55625 
L 336.284275 -37.55625 
L 337.302213 -37.55625 
L 338.320152 -37.55625 
L 339.338091 -37.55625 
L 340.356029 -37.55625 
L 341.373968 -37.55625 
L 342.391906 -37.55625 
L 343.409845 -37.55625 
L 344.427784 -37.55625 
L 345.445722 -37.55625 
L 346.463661 -37.55625 
L 347.481599 -37.55625 
L 348.499538 -37.55625 
L 349.517476 -37.55625 
L 350.535415 -37.55625 
L 351.553354 -37.55625 
L 352.571292 -37.55625 
L 353.589231 -37.55625 
L 354.607169 -37.55625 
L 355.625108 -37.55625 
L 356.643047 -37.55625 
L 357.660985 -37.55625 
L 358.678924 -37.55625 
L 359.696862 -37.55625 
L 360.714801 -37.55625 
L 361.732739 -37.55625 
L 362.750678 -37.55625 
L 363.768617 -37.55625 
L 364.786555 -37.55625 
L 365.804494 -37.55625 
L 366.822432 -37.55625 
L 367.840371 -37.55625 
L 368.85831 -37.55625 
L 369.876248 -37.55625 
L 370.894187 -37.55625 
L 371.912125 -37.55625 
L 372.930064 -37.55625 
L 373.948002 -37.55625 
L 374.965941 -37.55625 
L 375.98388 -37.55625 
L 377.001818 -37.55625 
L 377.001818 -259.31625 
L 377.001818 -259.31625 
L 375.98388 -259.31625 
L 374.965941 -259.31625 
L 373.948002 -259.31625 
L 372.930064 -259.31625 
L 371.912125 -259.31625 
L 370.894187 -259.31625 
L 369.876248 -259.31625 
L 368.85831 -259.31625 
L 367.840371 -259.31625 
L 366.822432 -259.31625 
L 365.804494 -259.31625 
L 364.786555 -259.31625 
L 363.768617 -259.31625 
L 362.750678 -259.31625 
L 361.732739 -259.31625 
L 360.714801 -259.31625 
L 359.696862 -259.31625 
L 358.678924 -259.31625 
L 357.660985 -259.31625 
L 356.643047 -259.31625 
L 355.625108 -259.31625 
L 354.607169 -259.31625 
L 353.589231 -259.31625 
L 352.571292 -259.31625 
L 351.553354 -259.31625 
L 350.535415 -259.31625 
L 349.517476 -259.31625 
L 348.499538 -259.31625 
L 347.481599 -259.31625 
L 346.463661 -259.31625 
L 345.445722 -259.31625 
L 344.427784 -259.31625 
L 343.409845 -259.31625 
L 342.391906 -259.31625 
L 341.373968 -259.31625 
L 340.356029 -259.31625 
L 339.338091 -259.31625 
L 338.320152 -259.31625 
L 337.302213 -259.31625 
L 336.284275 -259.31625 
L 335.266336 -259.31625 
L 334.248398 -259.31625 
L 333.230459 -259.31625 
L 332.212521 -259.31625 
L 331.194582 -259.31625 
L 330.176643 -259.31625 
L 329.158705 -259.31625 
L 328.140766 -259.31625 
L 327.122828 -259.31625 
z
" style="stroke: #2ca02c; stroke-opacity: 0.3"/>
    </defs>
    <g clip-path="url(#p3974aa1130)">
     <use xlink:href="#ma8a635b618" x="0" y="270.546375" style="fill: #2ca02c; fill-opacity: 0.3; stroke: #2ca02c; stroke-opacity: 0.3"/>
    </g>
   </g>
   <g id="FillBetweenPolyCollection_2">
    <defs>
     <path id="m0ede0f3b52" d="M 123.535111 -259.31625 
L 123.535111 -37.55625 
L 124.55305 -37.55625 
L 125.570988 -37.55625 
L 126.588927 -37.55625 
L 127.606865 -37.55625 
L 128.624804 -37.55625 
L 129.642742 -37.55625 
L 130.660681 -37.55625 
L 131.67862 -37.55625 
L 132.696558 -37.55625 
L 133.714497 -37.55625 
L 134.732435 -37.55625 
L 135.750374 -37.55625 
L 136.768313 -37.55625 
L 137.786251 -37.55625 
L 138.80419 -37.55625 
L 139.822128 -37.55625 
L 140.840067 -37.55625 
L 141.858005 -37.55625 
L 142.875944 -37.55625 
L 143.893883 -37.55625 
L 144.911821 -37.55625 
L 145.92976 -37.55625 
L 146.947698 -37.55625 
L 147.965637 -37.55625 
L 148.983576 -37.55625 
L 150.001514 -37.55625 
L 151.019453 -37.55625 
L 152.037391 -37.55625 
L 153.05533 -37.55625 
L 154.073268 -37.55625 
L 155.091207 -37.55625 
L 156.109146 -37.55625 
L 157.127084 -37.55625 
L 158.145023 -37.55625 
L 159.162961 -37.55625 
L 160.1809 -37.55625 
L 161.198839 -37.55625 
L 162.216777 -37.55625 
L 163.234716 -37.55625 
L 164.252654 -37.55625 
L 165.270593 -37.55625 
L 166.288531 -37.55625 
L 167.30647 -37.55625 
L 168.324409 -37.55625 
L 169.342347 -37.55625 
L 170.360286 -37.55625 
L 171.378224 -37.55625 
L 172.396163 -37.55625 
L 173.414102 -37.55625 
L 173.414102 -259.31625 
L 173.414102 -259.31625 
L 172.396163 -259.31625 
L 171.378224 -259.31625 
L 170.360286 -259.31625 
L 169.342347 -259.31625 
L 168.324409 -259.31625 
L 167.30647 -259.31625 
L 166.288531 -259.31625 
L 165.270593 -259.31625 
L 164.252654 -259.31625 
L 163.234716 -259.31625 
L 162.216777 -259.31625 
L 161.198839 -259.31625 
L 160.1809 -259.31625 
L 159.162961 -259.31625 
L 158.145023 -259.31625 
L 157.127084 -259.31625 
L 156.109146 -259.31625 
L 155.091207 -259.31625 
L 154.073268 -259.31625 
L 153.05533 -259.31625 
L 152.037391 -259.31625 
L 151.019453 -259.31625 
L 150.001514 -259.31625 
L 148.983576 -259.31625 
L 147.965637 -259.31625 
L 146.947698 -259.31625 
L 145.92976 -259.31625 
L 144.911821 -259.31625 
L 143.893883 -259.31625 
L 142.875944 -259.31625 
L 141.858005 -259.31625 
L 140.840067 -259.31625 
L 139.822128 -259.31625 
L 138.80419 -259.31625 
L 137.786251 -259.31625 
L 136.768313 -259.31625 
L 135.750374 -259.31625 
L 134.732435 -259.31625 
L 133.714497 -259.31625 
L 132.696558 -259.31625 
L 131.67862 -259.31625 
L 130.660681 -259.31625 
L 129.642742 -259.31625 
L 128.624804 -259.31625 
L 127.606865 -259.31625 
L 126.588927 -259.31625 
L 125.570988 -259.31625 
L 124.55305 -259.31625 
L 123.535111 -259.31625 
z
" style="stroke: #adff2f; stroke-opacity: 0.5"/>
    </defs>
    <g clip-path="url(#p3974aa1130)">
     <use xlink:href="#m0ede0f3b52" x="0" y="270.546375" style="fill: #adff2f; fill-opacity: 0.5; stroke: #adff2f; stroke-opacity: 0.5"/>
    </g>
   </g>
   <g id="matplotlib.axis_1">
    <g id="xtick_1">
     <g id="line2d_1">
      <defs>
       <path id="m0282620afa" d="M 0 0 
L 0 3.5 
" style="stroke: #000000; stroke-width: 0.8"/>
      </defs>
      <g>
       <use xlink:href="#m0282620afa" x="72.638182" y="232.990125" style="stroke: #000000; stroke-width: 0.8"/>
      </g>
     </g>
     <g id="text_1">
      <text style="font-size: 10px; font-family: 'DejaVu Sans', 'Bitstream Vera Sans', 'Computer Modern Sans Serif', 'Lucida Grande', 'Verdana', 'Geneva', 'Lucid', 'Arial', 'Helvetica', 'Avant Garde', sans-serif; text-anchor: middle" x="72.638182" y="247.588562" transform="rotate(-0 72.638182 247.588562)">0</text>
     </g>
    </g>
    <g id="xtick_2">
     <g id="line2d_2">
      <g>
       <use xlink:href="#m0282620afa" x="123.535111" y="232.990125" style="stroke: #000000; stroke-width: 0.8"/>
      </g>
     </g>
     <g id="text_2">
      <text style="font-size: 10px; font-family: 'DejaVu Sans', 'Bitstream Vera Sans', 'Computer Modern Sans Serif', 'Lucida Grande', 'Verdana', 'Geneva', 'Lucid', 'Arial', 'Helvetica', 'Avant Garde', sans-serif; text-anchor: middle" x="123.535111" y="247.588562" transform="rotate(-0 123.535111 247.588562)">50</text>
     </g>
    </g>
    <g id="xtick_3">
     <g id="line2d_3">
      <g>
       <use xlink:href="#m0282620afa" x="174.43204" y="232.990125" style="stroke: #000000; stroke-width: 0.8"/>
      </g>
     </g>
     <g id="text_3">
      <text style="font-size: 10px; font-family: 'DejaVu Sans', 'Bitstream Vera Sans', 'Computer Modern Sans Serif', 'Lucida Grande', 'Verdana', 'Geneva', 'Lucid', 'Arial', 'Helvetica', 'Avant Garde', sans-serif; text-anchor: middle" x="174.43204" y="247.588562" transform="rotate(-0 174.43204 247.588562)">100</text>
     </g>
    </g>
    <g id="xtick_4">
     <g id="line2d_4">
      <g>
       <use xlink:href="#m0282620afa" x="225.328969" y="232.990125" style="stroke: #000000; stroke-width: 0.8"/>
      </g>
     </g>
     <g id="text_4">
      <text style="font-size: 10px; font-family: 'DejaVu Sans', 'Bitstream Vera Sans', 'Computer Modern Sans Serif', 'Lucida Grande', 'Verdana', 'Geneva', 'Lucid', 'Arial', 'Helvetica', 'Avant Garde', sans-serif; text-anchor: middle" x="225.328969" y="247.588562" transform="rotate(-0 225.328969 247.588562)">150</text>
     </g>
    </g>
    <g id="xtick_5">
     <g id="line2d_5">
      <g>
       <use xlink:href="#m0282620afa" x="276.225898" y="232.990125" style="stroke: #000000; stroke-width: 0.8"/>
      </g>
     </g>
     <g id="text_5">
      <text style="font-size: 10px; font-family: 'DejaVu Sans', 'Bitstream Vera Sans', 'Computer Modern Sans Serif', 'Lucida Grande', 'Verdana', 'Geneva', 'Lucid', 'Arial', 'Helvetica', 'Avant Garde', sans-serif; text-anchor: middle" x="276.225898" y="247.588562" transform="rotate(-0 276.225898 247.588562)">200</text>
     </g>
    </g>
    <g id="xtick_6">
     <g id="line2d_6">
      <g>
       <use xlink:href="#m0282620afa" x="327.122828" y="232.990125" style="stroke: #000000; stroke-width: 0.8"/>
      </g>
     </g>
     <g id="text_6">
      <text style="font-size: 10px; font-family: 'DejaVu Sans', 'Bitstream Vera Sans', 'Computer Modern Sans Serif', 'Lucida Grande', 'Verdana', 'Geneva', 'Lucid', 'Arial', 'Helvetica', 'Avant Garde', sans-serif; text-anchor: middle" x="327.122828" y="247.588562" transform="rotate(-0 327.122828 247.588562)">250</text>
     </g>
    </g>
    <g id="xtick_7">
     <g id="line2d_7">
      <g>
       <use xlink:href="#m0282620afa" x="378.019757" y="232.990125" style="stroke: #000000; stroke-width: 0.8"/>
      </g>
     </g>
     <g id="text_7">
      <text style="font-size: 10px; font-family: 'DejaVu Sans', 'Bitstream Vera Sans', 'Computer Modern Sans Serif', 'Lucida Grande', 'Verdana', 'Geneva', 'Lucid', 'Arial', 'Helvetica', 'Avant Garde', sans-serif; text-anchor: middle" x="378.019757" y="247.588562" transform="rotate(-0 378.019757 247.588562)">300</text>
     </g>
    </g>
    <g id="text_8">
     <text style="font-size: 10px; font-family: 'DejaVu Sans', 'Bitstream Vera Sans', 'Computer Modern Sans Serif', 'Lucida Grande', 'Verdana', 'Geneva', 'Lucid', 'Arial', 'Helvetica', 'Avant Garde', sans-serif; text-anchor: middle" x="224.82" y="261.266687" transform="rotate(-0 224.82 261.266687)">time steps</text>
    </g>
   </g>
   <g id="matplotlib.axis_2">
    <g id="ytick_1">
     <g id="line2d_8">
      <defs>
       <path id="mf880731e6c" d="M 0 0 
L -3.5 0 
" style="stroke: #000000; stroke-width: 0.8"/>
      </defs>
      <g>
       <use xlink:href="#mf880731e6c" x="57.42" y="232.990125" style="stroke: #000000; stroke-width: 0.8"/>
      </g>
     </g>
     <g id="text_9">
      <text style="font-size: 10px; font-family: 'DejaVu Sans', 'Bitstream Vera Sans', 'Computer Modern Sans Serif', 'Lucida Grande', 'Verdana', 'Geneva', 'Lucid', 'Arial', 'Helvetica', 'Avant Garde', sans-serif; text-anchor: end" x="50.42" y="236.789344" transform="rotate(-0 50.42 236.789344)">−1.00</text>
     </g>
    </g>
    <g id="ytick_2">
     <g id="line2d_9">
      <g>
       <use xlink:href="#mf880731e6c" x="57.42" y="205.270125" style="stroke: #000000; stroke-width: 0.8"/>
      </g>
     </g>
     <g id="text_10">
      <text style="font-size: 10px; font-family: 'DejaVu Sans', 'Bitstream Vera Sans', 'Computer Modern Sans Serif', 'Lucida Grande', 'Verdana', 'Geneva', 'Lucid', 'Arial', 'Helvetica', 'Avant Garde', sans-serif; text-anchor: end" x="50.42" y="209.069344" transform="rotate(-0 50.42 209.069344)">−0.75</text>
     </g>
    </g>
    <g id="ytick_3">
     <g id="line2d_10">
      <g>
       <use xlink:href="#mf880731e6c" x="57.42" y="177.550125" style="stroke: #000000; stroke-width: 0.8"/>
      </g>
     </g>
     <g id="text_11">
      <text style="font-size: 10px; font-family: 'DejaVu Sans', 'Bitstream Vera Sans', 'Computer Modern Sans Serif', 'Lucida Grande', 'Verdana', 'Geneva', 'Lucid', 'Arial', 'Helvetica', 'Avant Garde', sans-serif; text-anchor: end" x="50.42" y="181.349344" transform="rotate(-0 50.42 181.349344)">−0.50</text>
     </g>
    </g>
    <g id="ytick_4">
     <g id="line2d_11">
      <g>
       <use xlink:href="#mf880731e6c" x="57.42" y="149.830125" style="stroke: #000000; stroke-width: 0.8"/>
      </g>
     </g>
     <g id="text_12">
      <text style="font-size: 10px; font-family: 'DejaVu Sans', 'Bitstream Vera Sans', 'Computer Modern Sans Serif', 'Lucida Grande', 'Verdana', 'Geneva', 'Lucid', 'Arial', 'Helvetica', 'Avant Garde', sans-serif; text-anchor: end" x="50.42" y="153.629344" transform="rotate(-0 50.42 153.629344)">−0.25</text>
     </g>
    </g>
    <g id="ytick_5">
     <g id="line2d_12">
      <g>
       <use xlink:href="#mf880731e6c" x="57.42" y="122.110125" style="stroke: #000000; stroke-width: 0.8"/>
      </g>
     </g>
     <g id="text_13">
      <text style="font-size: 10px; font-family: 'DejaVu Sans', 'Bitstream Vera Sans', 'Computer Modern Sans Serif', 'Lucida Grande', 'Verdana', 'Geneva', 'Lucid', 'Arial', 'Helvetica', 'Avant Garde', sans-serif; text-anchor: end" x="50.42" y="125.909344" transform="rotate(-0 50.42 125.909344)">0.00</text>
     </g>
    </g>
    <g id="ytick_6">
     <g id="line2d_13">
      <g>
       <use xlink:href="#mf880731e6c" x="57.42" y="94.390125" style="stroke: #000000; stroke-width: 0.8"/>
      </g>
     </g>
     <g id="text_14">
      <text style="font-size: 10px; font-family: 'DejaVu Sans', 'Bitstream Vera Sans', 'Computer Modern Sans Serif', 'Lucida Grande', 'Verdana', 'Geneva', 'Lucid', 'Arial', 'Helvetica', 'Avant Garde', sans-serif; text-anchor: end" x="50.42" y="98.189344" transform="rotate(-0 50.42 98.189344)">0.25</text>
     </g>
    </g>
    <g id="ytick_7">
     <g id="line2d_14">
      <g>
       <use xlink:href="#mf880731e6c" x="57.42" y="66.670125" style="stroke: #000000; stroke-width: 0.8"/>
      </g>
     </g>
     <g id="text_15">
      <text style="font-size: 10px; font-family: 'DejaVu Sans', 'Bitstream Vera Sans', 'Computer Modern Sans Serif', 'Lucida Grande', 'Verdana', 'Geneva', 'Lucid', 'Arial', 'Helvetica', 'Avant Garde', sans-serif; text-anchor: end" x="50.42" y="70.469344" transform="rotate(-0 50.42 70.469344)">0.50</text>
     </g>
    </g>
    <g id="ytick_8">
     <g id="line2d_15">
      <g>
       <use xlink:href="#mf880731e6c" x="57.42" y="38.950125" style="stroke: #000000; stroke-width: 0.8"/>
      </g>
     </g>
     <g id="text_16">
      <text style="font-size: 10px; font-family: 'DejaVu Sans', 'Bitstream Vera Sans', 'Computer Modern Sans Serif', 'Lucida Grande', 'Verdana', 'Geneva', 'Lucid', 'Arial', 'Helvetica', 'Avant Garde', sans-serif; text-anchor: end" x="50.42" y="42.749344" transform="rotate(-0 50.42 42.749344)">0.75</text>
     </g>
    </g>
    <g id="ytick_9">
     <g id="line2d_16">
      <g>
       <use xlink:href="#mf880731e6c" x="57.42" y="11.230125" style="stroke: #000000; stroke-width: 0.8"/>
      </g>
     </g>
     <g id="text_17">
      <text style="font-size: 10px; font-family: 'DejaVu Sans', 'Bitstream Vera Sans', 'Computer Modern Sans Serif', 'Lucida Grande', 'Verdana', 'Geneva', 'Lucid', 'Arial', 'Helvetica', 'Avant Garde', sans-serif; text-anchor: end" x="50.42" y="15.029344" transform="rotate(-0 50.42 15.029344)">1.00</text>
     </g>
    </g>
    <g id="text_18">
     <text style="font-size: 10px; font-family: 'DejaVu Sans', 'Bitstream Vera Sans', 'Computer Modern Sans Serif', 'Lucida Grande', 'Verdana', 'Geneva', 'Lucid', 'Arial', 'Helvetica', 'Avant Garde', sans-serif; text-anchor: middle" x="21.695" y="122.110125" transform="rotate(-90 21.695 122.110125)">activation</text>
    </g>
   </g>
   <g id="line2d_17">
    <path d="M 72.638182 149.12018 
L 76.709936 140.04366 
L 80.78169 131.44967 
L 82.817568 127.521056 
L 84.853445 123.98223 
L 86.889322 120.928179 
L 88.925199 118.433592 
L 90.961076 116.548931 
L 91.979015 115.843847 
L 92.996953 115.298016 
L 94.014892 114.910071 
L 95.032831 114.676928 
L 96.050769 114.59384 
L 97.068708 114.654488 
L 98.086646 114.851096 
L 99.104585 115.174575 
L 101.140462 116.16026 
L 103.176339 117.519402 
L 105.212216 119.151005 
L 109.283971 122.82051 
L 113.355725 126.401149 
L 115.391602 127.958546 
L 117.427479 129.277876 
L 119.463357 130.312199 
L 121.499234 131.026221 
L 123.535111 131.395865 
L 125.570988 131.408058 
L 127.606865 131.060799 
L 129.642742 130.363459 
L 131.67862 129.33708 
L 133.714497 128.014388 
L 135.750374 126.439182 
L 138.80419 123.72174 
L 148.983576 114.131767 
L 151.019453 112.548823 
L 153.05533 111.178532 
L 155.091207 110.047341 
L 157.127084 109.174534 
L 159.162961 108.573738 
L 161.198839 108.254381 
L 163.234716 108.222822 
L 165.270593 108.482919 
L 167.30647 109.035926 
L 169.342347 109.879674 
L 171.378224 111.00713 
L 173.414102 112.404576 
L 175.449979 114.049782 
L 178.503794 116.909215 
L 182.575549 121.207779 
L 188.68318 127.754482 
L 191.736996 130.650477 
L 193.772873 132.334811 
L 195.80875 133.784599 
L 197.844628 134.977304 
L 199.880505 135.897253 
L 201.916382 136.53372 
L 203.952259 136.879128 
L 205.988136 136.927692 
L 208.024013 136.674773 
L 210.059891 136.117065 
L 212.095768 135.253682 
L 214.131645 134.08805 
L 216.167522 132.630381 
L 218.203399 130.90025 
L 220.239276 128.928657 
L 223.293092 125.616395 
L 233.472478 114.017223 
L 235.508355 112.066451 
L 237.544232 110.351921 
L 239.580109 108.901567 
L 241.615987 107.734222 
L 243.651864 106.861915 
L 245.687741 106.292328 
L 247.723618 106.030916 
L 249.759495 106.082345 
L 251.795372 106.451025 
L 253.83125 107.140624 
L 255.867127 108.152542 
L 257.903004 109.483441 
L 259.938881 111.122172 
L 261.974758 113.046655 
L 264.010635 115.221539 
L 267.064451 118.841786 
L 276.225898 130.110944 
L 278.261776 132.253946 
L 280.297653 134.149977 
L 282.33353 135.768188 
L 284.369407 137.088613 
L 286.405284 138.099527 
L 288.441161 138.794474 
L 290.477039 139.169573 
L 292.512916 139.221526 
L 294.548793 138.946598 
L 296.58467 138.340709 
L 298.620547 137.400673 
L 300.656424 136.126572 
L 302.692302 134.525026 
L 304.728179 132.612853 
L 306.764056 130.420311 
L 309.817872 126.709547 
L 314.907565 119.960858 
L 318.979319 114.754035 
L 321.015196 112.412071 
L 323.051073 110.316233 
L 325.08695 108.502881 
L 327.122828 106.995494 
L 329.158705 105.807345 
L 331.194582 104.944816 
L 333.230459 104.410658 
L 335.266336 104.206623 
L 337.302213 104.335123 
L 339.338091 104.799759 
L 341.373968 105.60462 
L 343.409845 106.752346 
L 345.445722 108.241052 
L 347.481599 110.060465 
L 349.517476 112.187967 
L 351.553354 114.585561 
L 354.607169 118.56512 
L 362.750678 129.5968 
L 364.786555 132.02481 
L 366.822432 134.196763 
L 368.85831 136.07553 
L 370.894187 137.637803 
L 372.930064 138.871199 
L 374.965941 139.770645 
L 377.001818 140.334824 
L 377.001818 140.334824 
" clip-path="url(#p3974aa1130)" style="fill: none; stroke: #000000; stroke-width: 1.5; stroke-linecap: square"/>
   </g>
   <g id="line2d_18">
    <path d="M 72.638182 61.251286 
L 74.674059 72.98975 
L 76.709936 83.050479 
L 78.745813 91.564005 
L 80.78169 98.677452 
L 82.817568 104.541779 
L 84.853445 109.306425 
L 86.889322 113.117385 
L 88.925199 116.116126 
L 90.961076 118.438103 
L 92.996953 120.210606 
L 95.032831 121.550246 
L 97.068708 122.560527 
L 99.104585 123.329954 
L 102.158401 124.186505 
L 106.230155 125.027971 
L 112.337787 126.020617 
L 117.427479 126.633298 
L 121.499234 126.881924 
L 124.55305 126.871939 
L 127.606865 126.665242 
L 130.660681 126.250428 
L 133.714497 125.630601 
L 136.768313 124.823516 
L 140.840067 123.513067 
L 155.091207 118.560069 
L 158.145023 117.81948 
L 161.198839 117.301906 
L 164.252654 117.034149 
L 167.30647 117.028712 
L 170.360286 117.284692 
L 173.414102 117.789456 
L 176.467917 118.52026 
L 180.539672 119.789741 
L 185.629365 121.703818 
L 194.790812 125.255411 
L 197.844628 126.229212 
L 200.898443 127.002708 
L 203.952259 127.534729 
L 207.006075 127.798598 
L 210.059891 127.782598 
L 213.113706 127.488846 
L 216.167522 126.931245 
L 219.221338 126.133533 
L 222.275154 125.128362 
L 226.346908 123.539185 
L 239.580109 118.037349 
L 242.633925 117.092559 
L 245.687741 116.392747 
L 248.741557 115.973044 
L 251.795372 115.852059 
L 254.849188 116.032586 
L 257.903004 116.503852 
L 260.95682 117.244244 
L 264.010635 118.223194 
L 268.08239 119.830264 
L 273.172083 122.148822 
L 280.297653 125.413336 
L 283.351469 126.613392 
L 286.405284 127.596544 
L 289.4591 128.311666 
L 292.512916 128.724506 
L 295.566732 128.818687 
L 298.620547 128.59452 
L 301.674363 128.066173 
L 304.728179 127.258423 
L 307.781995 126.204535 
L 311.853749 124.489908 
L 316.943442 122.033444 
L 324.069012 118.597095 
L 327.122828 117.340486 
L 330.176643 116.314705 
L 333.230459 115.572073 
L 336.284275 115.146942 
L 338.320152 115.048309 
L 341.373968 115.17805 
L 344.427784 115.629435 
L 347.481599 116.378942 
L 350.535415 117.394356 
L 353.589231 118.635661 
L 357.660985 120.55566 
L 369.876248 126.583014 
L 372.930064 127.742305 
L 375.98388 128.626546 
L 377.001818 128.852349 
L 377.001818 128.852349 
" clip-path="url(#p3974aa1130)" style="fill: none; stroke: #000000; stroke-width: 1.5; stroke-linecap: square"/>
   </g>
   <g id="line2d_19">
    <path d="M 72.638182 68.421129 
L 74.674059 78.634045 
L 76.709936 86.815026 
L 77.727875 90.215901 
L 78.745813 93.211747 
L 79.763752 95.847847 
L 81.799629 100.222439 
L 83.835506 103.682847 
L 85.871383 106.521348 
L 87.907261 108.967892 
L 90.961076 112.259708 
L 99.104585 120.782627 
L 104.194278 126.475683 
L 112.337787 135.693279 
L 115.391602 138.876381 
L 118.445418 141.731523 
L 120.481295 143.393507 
L 122.517172 144.821181 
L 124.55305 145.979893 
L 126.588927 146.835798 
L 128.624804 147.356236 
L 130.660681 147.510374 
L 132.696558 147.270301 
L 134.732435 146.612654 
L 136.768313 145.520819 
L 138.80419 143.987565 
L 140.840067 142.0178 
L 142.875944 139.630944 
L 144.911821 136.862332 
L 146.947698 133.763162 
L 150.001514 128.640621 
L 160.1809 110.748083 
L 162.216777 107.614819 
L 164.252654 104.787563 
L 166.288531 102.319392 
L 168.324409 100.257037 
L 170.360286 98.641806 
L 172.396163 97.510238 
L 173.414102 97.135975 
L 174.43204 96.894172 
L 175.449979 96.787947 
L 176.467917 96.819977 
L 177.485856 96.992415 
L 178.503794 97.306799 
L 179.521733 97.76395 
L 180.539672 98.363863 
L 181.55761 99.105596 
L 183.593487 101.005474 
L 185.629365 103.433825 
L 187.665242 106.341401 
L 189.701119 109.659912 
L 192.754935 115.2199 
L 202.93432 134.791054 
L 204.970198 138.210174 
L 207.006075 141.293472 
L 209.041952 143.98657 
L 211.077829 146.24232 
L 213.113706 148.019177 
L 215.149583 149.279961 
L 216.167522 149.706258 
L 217.185461 149.991358 
L 218.203399 150.131793 
L 219.221338 150.124469 
L 220.239276 149.96676 
L 221.257215 149.656615 
L 222.275154 149.192682 
L 223.293092 148.574442 
L 224.311031 147.802351 
L 226.346908 145.804128 
L 228.382785 143.225979 
L 230.418662 140.118033 
L 232.454539 136.552638 
L 235.508355 130.551303 
L 240.598048 119.71512 
L 244.669802 111.27057 
L 247.723618 105.552523 
L 249.759495 102.167755 
L 251.795372 99.190923 
L 253.83125 96.669378 
L 255.867127 94.644599 
L 257.903004 93.154008 
L 258.920943 92.619897 
L 259.938881 92.232021 
L 260.95682 91.994201 
L 261.974758 91.909989 
L 262.992697 91.982579 
L 264.010635 92.2147 
L 265.028574 92.608484 
L 266.046513 93.165309 
L 267.064451 93.885638 
L 268.08239 94.768846 
L 270.118267 97.014998 
L 272.154144 99.871336 
L 274.190021 103.280489 
L 276.225898 107.160493 
L 279.279714 113.634855 
L 289.4591 136.128287 
L 291.494977 140.017991 
L 293.530854 143.524344 
L 295.566732 146.594198 
L 297.602609 149.182517 
L 299.638486 151.249769 
L 300.656424 152.07661 
L 301.674363 152.759812 
L 302.692302 153.295183 
L 303.71024 153.678654 
L 304.728179 153.906314 
L 305.746117 153.974476 
L 306.764056 153.87977 
L 307.781995 153.619262 
L 308.799933 153.19061 
L 309.817872 152.592232 
L 310.83581 151.823498 
L 311.853749 150.884924 
L 312.871687 149.778362 
L 314.907565 147.076346 
L 316.943442 143.764415 
L 318.979319 139.916932 
L 321.015196 135.633198 
L 324.069012 128.650512 
L 331.194582 111.958399 
L 334.248398 105.52718 
L 336.284275 101.688846 
L 338.320152 98.278507 
L 340.356029 95.34358 
L 342.391906 92.924653 
L 344.427784 91.058196 
L 345.445722 90.342926 
L 346.463661 89.778552 
L 347.481599 89.369176 
L 348.499538 89.118797 
L 349.517476 89.031246 
L 350.535415 89.110094 
L 351.553354 89.358523 
L 352.571292 89.779172 
L 353.589231 90.373954 
L 354.607169 91.143845 
L 355.625108 92.088675 
L 356.643047 93.206914 
L 358.678924 95.94959 
L 360.714801 99.326162 
L 362.750678 103.261849 
L 364.786555 107.655056 
L 367.840371 114.832944 
L 374.965941 132.038316 
L 377.001818 136.550224 
L 377.001818 136.550224 
" clip-path="url(#p3974aa1130)" style="fill: none; stroke: #000000; stroke-width: 1.5; stroke-linecap: square"/>
   </g>
   <g id="line2d_20">
    <path d="M 72.638182 110.032627 
L 73.65612 110.910541 
L 74.674059 112.08813 
L 76.709936 115.064297 
L 80.78169 121.51489 
L 82.817568 124.075684 
L 83.835506 125.058924 
L 84.853445 125.817509 
L 85.871383 126.341053 
L 86.889322 126.625755 
L 87.907261 126.673501 
L 88.925199 126.49097 
L 89.943138 126.08878 
L 90.961076 125.480681 
L 91.979015 124.682815 
L 94.014892 122.590412 
L 96.050769 119.965321 
L 98.086646 116.965384 
L 102.158401 110.436204 
L 106.230155 104.055045 
L 108.266032 101.180235 
L 110.301909 98.624043 
L 112.337787 96.451088 
L 114.373664 94.715238 
L 116.409541 93.461523 
L 117.427479 93.027491 
L 118.445418 92.727577 
L 119.463357 92.565441 
L 120.481295 92.544304 
L 121.499234 92.666916 
L 122.517172 92.935496 
L 123.535111 93.351657 
L 124.55305 93.916317 
L 125.570988 94.629597 
L 126.588927 95.490719 
L 128.624804 97.648229 
L 130.660681 100.360783 
L 132.696558 103.58051 
L 134.732435 107.239307 
L 137.786251 113.357579 
L 143.893883 126.553802 
L 146.947698 132.903787 
L 150.001514 138.663602 
L 152.037391 142.051778 
L 154.073268 145.008595 
L 156.109146 147.484598 
L 158.145023 149.437286 
L 159.162961 150.205509 
L 160.1809 150.829145 
L 161.198839 151.304084 
L 162.216777 151.626438 
L 163.234716 151.79258 
L 164.252654 151.799196 
L 165.270593 151.643378 
L 166.288531 151.322734 
L 167.30647 150.835523 
L 168.324409 150.180803 
L 169.342347 149.358601 
L 170.360286 148.370073 
L 172.396163 145.905242 
L 174.43204 142.823588 
L 176.467917 139.187622 
L 178.503794 135.084728 
L 181.55761 128.296443 
L 189.701119 109.462651 
L 192.754935 103.233532 
L 194.790812 99.574413 
L 196.826689 96.382516 
L 198.862566 93.70757 
L 200.898443 91.591921 
L 201.916382 90.755775 
L 202.93432 90.073422 
L 203.952259 89.549218 
L 204.970198 89.187406 
L 205.988136 88.99209 
L 207.006075 88.967175 
L 208.024013 89.116267 
L 209.041952 89.442548 
L 210.059891 89.948608 
L 211.077829 90.636255 
L 212.095768 91.506309 
L 213.113706 92.55838 
L 214.131645 93.790654 
L 216.167522 96.780301 
L 218.203399 100.425851 
L 220.239276 104.647484 
L 222.275154 109.336901 
L 225.328969 116.95895 
L 231.436601 132.55278 
L 234.490417 139.654976 
L 236.526294 143.903743 
L 238.562171 147.681748 
L 240.598048 150.935211 
L 242.633925 153.620555 
L 244.669802 155.700295 
L 245.687741 156.502139 
L 246.70568 157.139569 
L 247.723618 157.60828 
L 248.741557 157.90395 
L 249.759495 158.022299 
L 250.777434 157.959163 
L 251.795372 157.710632 
L 252.813311 157.273214 
L 253.83125 156.644052 
L 254.849188 155.821162 
L 255.867127 154.803698 
L 256.885065 153.59222 
L 258.920943 150.598027 
L 260.95682 146.880167 
L 262.992697 142.514583 
L 265.028574 137.611011 
L 268.08239 129.552634 
L 275.20796 110.182513 
L 278.261776 102.757797 
L 280.297653 98.354025 
L 282.33353 94.46376 
L 284.369407 91.135608 
L 286.405284 88.408348 
L 288.441161 86.315722 
L 289.4591 85.517561 
L 290.477039 84.890373 
L 291.494977 84.438466 
L 292.512916 84.166269 
L 293.530854 84.078278 
L 294.548793 84.178955 
L 295.566732 84.472579 
L 296.58467 84.963045 
L 297.602609 85.653622 
L 298.620547 86.546667 
L 299.638486 87.643326 
L 300.656424 88.943215 
L 302.692302 92.141737 
L 304.728179 96.09826 
L 306.764056 100.730818 
L 308.799933 105.920361 
L 311.853749 114.418232 
L 318.979319 134.682939 
L 322.033135 142.388262 
L 324.069012 146.942946 
L 326.104889 150.958051 
L 328.140766 154.388241 
L 330.176643 157.198039 
L 332.212521 159.356513 
L 333.230459 160.181974 
L 334.248398 160.832902 
L 335.266336 161.305022 
L 336.284275 161.593845 
L 337.302213 161.694718 
L 338.320152 161.602925 
L 339.338091 161.313844 
L 340.356029 160.82316 
L 341.373968 160.127123 
L 342.391906 159.222856 
L 343.409845 158.108689 
L 344.427784 156.784507 
L 345.445722 155.252091 
L 347.481599 151.580881 
L 349.517476 147.156864 
L 351.553354 142.083019 
L 354.607169 133.567705 
L 363.768617 106.865423 
L 365.804494 101.661671 
L 367.840371 96.950584 
L 369.876248 92.792624 
L 371.912125 89.231815 
L 373.948002 86.301751 
L 375.98388 84.031337 
L 377.001818 83.152463 
L 377.001818 83.152463 
" clip-path="url(#p3974aa1130)" style="fill: none; stroke: #000000; stroke-width: 1.5; stroke-linecap: square"/>
   </g>
   <g id="line2d_21">
    <path d="M 72.638182 117.74721 
L 73.65612 118.183501 
L 75.691998 119.571076 
L 77.727875 120.952577 
L 79.763752 121.947882 
L 81.799629 122.508447 
L 83.835506 122.752758 
L 89.943138 123.204414 
L 91.979015 123.624585 
L 94.014892 124.234012 
L 97.068708 125.430456 
L 104.194278 128.476241 
L 106.230155 129.133079 
L 108.266032 129.607505 
L 110.301909 129.871094 
L 112.337787 129.907935 
L 114.373664 129.713899 
L 116.409541 129.295338 
L 118.445418 128.667328 
L 120.481295 127.851598 
L 123.535111 126.334211 
L 126.588927 124.552137 
L 131.67862 121.269594 
L 136.768313 118.001102 
L 139.822128 116.2397 
L 142.875944 114.747015 
L 144.911821 113.945301 
L 146.947698 113.325041 
L 148.983576 112.90442 
L 151.019453 112.69616 
L 153.05533 112.706529 
L 155.091207 112.934719 
L 157.127084 113.372787 
L 159.162961 114.006324 
L 161.198839 114.815825 
L 164.252654 116.309828 
L 167.30647 118.067504 
L 171.378224 120.687047 
L 181.55761 127.485492 
L 184.611426 129.228359 
L 187.665242 130.652733 
L 189.701119 131.376952 
L 191.736996 131.89225 
L 193.772873 132.180491 
L 195.80875 132.230966 
L 197.844628 132.041497 
L 199.880505 131.618778 
L 201.916382 130.977726 
L 203.952259 130.139786 
L 207.006075 128.570032 
L 210.059891 126.705114 
L 214.131645 123.903795 
L 226.346908 115.170279 
L 229.400724 113.433252 
L 231.436601 112.493948 
L 233.472478 111.765754 
L 235.508355 111.273981 
L 237.544232 111.036696 
L 239.580109 111.062967 
L 241.615987 111.351709 
L 243.651864 111.891545 
L 245.687741 112.661968 
L 247.723618 113.635781 
L 250.777434 115.41074 
L 253.83125 117.472927 
L 257.903004 120.518313 
L 269.100328 129.136279 
L 272.154144 131.069414 
L 274.190021 132.138759 
L 276.225898 132.992299 
L 278.261776 133.600698 
L 280.297653 133.941683 
L 282.33353 134.002167 
L 284.369407 133.779927 
L 286.405284 133.284298 
L 288.441161 132.535467 
L 290.477039 131.562155 
L 293.530854 129.755296 
L 296.58467 127.633282 
L 300.656424 124.479982 
L 312.871687 114.631366 
L 315.925503 112.618926 
L 317.96138 111.508982 
L 319.997258 110.626433 
L 322.033135 110.001896 
L 324.069012 109.658551 
L 326.104889 109.609819 
L 328.140766 109.85749 
L 330.176643 110.390889 
L 332.212521 111.187607 
L 334.248398 112.216052 
L 337.302213 114.112534 
L 340.356029 116.325039 
L 344.427784 119.593664 
L 356.643047 129.774502 
L 359.696862 131.866241 
L 361.732739 133.025119 
L 363.768617 133.951823 
L 365.804494 134.614231 
L 367.840371 134.987655 
L 369.876248 135.057329 
L 371.912125 134.820496 
L 373.948002 134.287498 
L 375.98388 133.481226 
L 377.001818 132.985615 
L 377.001818 132.985615 
" clip-path="url(#p3974aa1130)" style="fill: none; stroke: #000000; stroke-width: 1.5; stroke-linecap: square"/>
   </g>
   <g id="line2d_22">
    <path d="M 72.638182 122.110125 
L 74.674059 127.157395 
L 75.691998 129.254029 
L 76.709936 131.00365 
L 77.727875 132.384841 
L 78.745813 133.392284 
L 79.763752 134.033469 
L 80.78169 134.325671 
L 81.799629 134.293264 
L 82.817568 133.965371 
L 83.835506 133.373889 
L 84.853445 132.551871 
L 85.871383 131.532258 
L 87.907261 129.026117 
L 89.943138 126.088019 
L 99.104585 112.019227 
L 101.140462 109.383724 
L 103.176339 107.091666 
L 105.212216 105.192605 
L 107.248094 103.725243 
L 109.283971 102.718583 
L 110.301909 102.394665 
L 111.319848 102.192871 
L 112.337787 102.114468 
L 113.355725 102.160234 
L 114.373664 102.330441 
L 115.391602 102.624843 
L 116.409541 103.042637 
L 118.445418 104.242154 
L 120.481295 105.909693 
L 122.517172 108.013846 
L 124.55305 110.50968 
L 126.588927 113.338267 
L 129.642742 118.044763 
L 138.80419 132.784315 
L 140.840067 135.651201 
L 142.875944 138.223611 
L 144.911821 140.454917 
L 146.947698 142.308771 
L 148.983576 143.757205 
L 151.019453 144.778425 
L 153.05533 145.35476 
L 154.073268 145.471327 
L 155.091207 145.471221 
L 156.109146 145.35292 
L 157.127084 145.115085 
L 158.145023 144.756628 
L 160.1809 143.675267 
L 162.216777 142.108762 
L 164.252654 140.068013 
L 166.288531 137.578846 
L 168.324409 134.685011 
L 170.360286 131.44918 
L 173.414102 126.132988 
L 181.55761 111.562933 
L 183.593487 108.338002 
L 185.629365 105.429969 
L 187.665242 102.890334 
L 189.701119 100.758344 
L 191.736996 99.06349 
L 193.772873 97.828459 
L 194.790812 97.389311 
L 195.80875 97.071948 
L 196.826689 96.878433 
L 197.844628 96.810776 
L 198.862566 96.870928 
L 199.880505 97.060742 
L 200.898443 97.381899 
L 201.916382 97.835812 
L 202.93432 98.423497 
L 204.970198 100.001319 
L 207.006075 102.109424 
L 209.041952 104.724961 
L 211.077829 107.803848 
L 213.113706 111.278919 
L 216.167522 117.035636 
L 224.311031 132.947913 
L 226.346908 136.480545 
L 228.382785 139.669683 
L 230.418662 142.461299 
L 232.454539 144.816071 
L 234.490417 146.706153 
L 236.526294 148.111376 
L 237.544232 148.627034 
L 238.562171 149.015527 
L 239.580109 149.274955 
L 240.598048 149.403358 
L 241.615987 149.398714 
L 242.633925 149.258958 
L 243.651864 148.982049 
L 244.669802 148.566065 
L 245.687741 148.00935 
L 246.70568 147.310674 
L 248.741557 145.485896 
L 250.777434 143.098387 
L 252.813311 140.174955 
L 254.849188 136.767487 
L 256.885065 132.954452 
L 259.938881 126.702902 
L 267.064451 111.776745 
L 269.100328 107.943491 
L 271.136206 104.465731 
L 273.172083 101.401813 
L 275.20796 98.792771 
L 277.243837 96.665963 
L 279.279714 95.039499 
L 281.315591 93.926763 
L 282.33353 93.566922 
L 283.351469 93.340335 
L 284.369407 93.248885 
L 285.387346 93.294631 
L 286.405284 93.479771 
L 287.423223 93.806572 
L 288.441161 94.277236 
L 289.4591 94.893746 
L 290.477039 95.657652 
L 292.512916 97.630282 
L 294.548793 100.189672 
L 296.58467 103.307949 
L 298.620547 106.929233 
L 300.656424 110.968209 
L 303.71024 117.561769 
L 309.817872 131.048075 
L 312.871687 137.114377 
L 314.907565 140.694636 
L 316.943442 143.835099 
L 318.979319 146.498044 
L 321.015196 148.659965 
L 323.051073 150.306573 
L 324.069012 150.933442 
L 325.08695 151.427767 
L 326.104889 151.788223 
L 327.122828 152.013271 
L 328.140766 152.101114 
L 329.158705 152.049682 
L 330.176643 151.856673 
L 331.194582 151.51963 
L 332.212521 151.036075 
L 333.230459 150.40369 
L 334.248398 149.620536 
L 335.266336 148.685317 
L 337.302213 146.358405 
L 339.338091 143.43612 
L 341.373968 139.958768 
L 343.409845 135.998149 
L 346.463661 129.381765 
L 354.607169 110.966557 
L 356.643047 106.878931 
L 358.678924 103.188766 
L 360.714801 99.952433 
L 362.750678 97.206663 
L 364.786555 94.973137 
L 366.822432 93.263859 
L 367.840371 92.608261 
L 368.85831 92.086573 
L 369.876248 91.699881 
L 370.894187 91.449532 
L 371.912125 91.337191 
L 372.930064 91.364864 
L 373.948002 91.534871 
L 374.965941 91.849777 
L 375.98388 92.312258 
L 377.001818 92.924928 
L 377.001818 92.924928 
" clip-path="url(#p3974aa1130)" style="fill: none; stroke: #808080; stroke-width: 1.5; stroke-linecap: square"/>
   </g>
   <g id="line2d_23">
    <path d="M 72.638182 122.110125 
L 73.65612 117.20775 
L 74.674059 113.497027 
L 75.691998 110.803272 
L 76.709936 108.950532 
L 77.727875 107.769562 
L 78.745813 107.104147 
L 79.763752 106.815304 
L 80.78169 106.783481 
L 82.817568 107.112111 
L 84.853445 107.518093 
L 86.889322 107.68831 
L 88.925199 107.505755 
L 90.961076 106.987577 
L 94.014892 105.807298 
L 97.068708 104.568761 
L 99.104585 103.948537 
L 101.140462 103.635314 
L 103.176339 103.723563 
L 104.194278 103.94024 
L 105.212216 104.280165 
L 106.230155 104.74731 
L 107.248094 105.343932 
L 109.283971 106.926337 
L 111.319848 109.013222 
L 113.355725 111.567448 
L 115.391602 114.532449 
L 117.427479 117.836485 
L 120.481295 123.246265 
L 128.624804 138.199864 
L 131.67862 143.17149 
L 133.714497 146.079989 
L 135.750374 148.582546 
L 137.786251 150.615473 
L 139.822128 152.120956 
L 140.840067 152.659704 
L 141.858005 153.04816 
L 142.875944 153.281351 
L 143.893883 153.355003 
L 144.911821 153.265627 
L 145.92976 153.010622 
L 146.947698 152.588372 
L 147.965637 151.998341 
L 148.983576 151.241161 
L 150.001514 150.318706 
L 152.037391 147.991958 
L 154.073268 145.05924 
L 156.109146 141.582035 
L 158.145023 137.639707 
L 161.198839 131.06067 
L 166.288531 119.190749 
L 170.360286 109.821407 
L 173.414102 103.376532 
L 175.449979 99.519774 
L 177.485856 96.106652 
L 179.521733 93.209453 
L 181.55761 90.894677 
L 182.575549 89.974754 
L 183.593487 89.222396 
L 184.611426 88.643873 
L 185.629365 88.244822 
L 186.647303 88.030148 
L 187.665242 88.003905 
L 188.68318 88.169175 
L 189.701119 88.527932 
L 190.719057 89.080917 
L 191.736996 89.827508 
L 192.754935 90.765621 
L 193.772873 91.89163 
L 195.80875 94.684894 
L 197.844628 98.14677 
L 199.880505 102.193515 
L 201.916382 106.722568 
L 204.970198 114.166344 
L 214.131645 137.416735 
L 217.185461 144.25186 
L 219.221338 148.283424 
L 221.257215 151.802606 
L 223.293092 154.73696 
L 225.328969 157.019737 
L 226.346908 157.897609 
L 227.364846 158.590482 
L 228.382785 159.092057 
L 229.400724 159.396715 
L 230.418662 159.499636 
L 231.436601 159.396955 
L 232.454539 159.085917 
L 233.472478 158.565041 
L 234.490417 157.834286 
L 235.508355 156.89519 
L 236.526294 155.750992 
L 237.544232 154.406709 
L 239.580109 151.146987 
L 241.615987 147.19158 
L 243.651864 142.640915 
L 245.687741 137.61411 
L 248.741557 129.466725 
L 256.885065 107.239767 
L 259.938881 99.808133 
L 261.974758 95.386121 
L 264.010635 91.484693 
L 266.046513 88.178319 
L 268.08239 85.536255 
L 269.100328 84.484559 
L 270.118267 83.622473 
L 271.136206 82.956978 
L 272.154144 82.4945 
L 273.172083 82.240783 
L 274.190021 82.200737 
L 275.20796 82.378267 
L 276.225898 82.776079 
L 277.243837 83.395487 
L 278.261776 84.236223 
L 279.279714 85.296269 
L 280.297653 86.571722 
L 281.315591 88.056716 
L 283.351469 91.621938 
L 285.387346 95.906371 
L 287.423223 100.798115 
L 290.477039 108.98571 
L 295.566732 123.729194 
L 299.638486 135.329135 
L 302.692302 143.324832 
L 304.728179 148.142253 
L 306.764056 152.451649 
L 308.799933 156.176432 
L 310.83581 159.245118 
L 311.853749 160.512335 
L 312.871687 161.590802 
L 313.889626 162.472941 
L 314.907565 163.151588 
L 315.925503 163.620096 
L 316.943442 163.872474 
L 317.96138 163.903545 
L 318.979319 163.709148 
L 319.997258 163.286345 
L 321.015196 162.633644 
L 322.033135 161.751216 
L 323.051073 160.641083 
L 324.069012 159.307277 
L 325.08695 157.755929 
L 327.122828 154.03577 
L 329.158705 149.57103 
L 331.194582 144.480124 
L 334.248398 135.974322 
L 339.338091 120.701552 
L 343.409845 108.714824 
L 346.463661 100.458386 
L 348.499538 95.481388 
L 350.535415 91.023529 
L 352.571292 87.161153 
L 354.607169 83.965718 
L 355.625108 82.639294 
L 356.643047 81.504523 
L 357.660985 80.56914 
L 358.678924 79.840515 
L 359.696862 79.325556 
L 360.714801 79.030577 
L 361.732739 78.961125 
L 362.750678 79.12178 
L 363.768617 79.515925 
L 364.786555 80.145509 
L 365.804494 81.010809 
L 366.822432 82.110214 
L 367.840371 83.440044 
L 368.85831 84.994431 
L 370.894187 88.742239 
L 372.930064 93.263031 
L 374.965941 98.436267 
L 377.001818 104.120303 
L 377.001818 104.120303 
" clip-path="url(#p3974aa1130)" style="fill: none; stroke: #808080; stroke-width: 1.5; stroke-linecap: square"/>
   </g>
   <g id="line2d_24">
    <path d="M 72.638182 122.110125 
L 73.65612 119.380198 
L 74.674059 117.672306 
L 75.691998 116.770642 
L 76.709936 116.483023 
L 77.727875 116.646254 
L 78.745813 117.127466 
L 79.763752 117.822705 
L 81.799629 119.565286 
L 86.889322 124.449832 
L 90.961076 128.58173 
L 94.014892 131.99021 
L 103.176339 142.625643 
L 105.212216 144.456498 
L 107.248094 145.848012 
L 108.266032 146.347237 
L 109.283971 146.700453 
L 110.301909 146.89786 
L 111.319848 146.930933 
L 112.337787 146.792534 
L 113.355725 146.477003 
L 114.373664 145.980258 
L 115.391602 145.299892 
L 116.409541 144.435247 
L 117.427479 143.387492 
L 118.445418 142.159661 
L 120.481295 139.185341 
L 122.517172 135.573809 
L 124.55305 131.413963 
L 127.606865 124.394892 
L 132.696558 111.722396 
L 135.750374 104.280161 
L 138.80419 97.468305 
L 140.840067 93.4513 
L 142.875944 89.957109 
L 144.911821 87.061655 
L 145.92976 85.859539 
L 146.947698 84.831362 
L 147.965637 83.984177 
L 148.983576 83.324581 
L 150.001514 82.8587 
L 151.019453 82.592152 
L 152.037391 82.529979 
L 153.05533 82.67655 
L 154.073268 83.035437 
L 155.091207 83.609263 
L 156.109146 84.399531 
L 157.127084 85.406443 
L 158.145023 86.628716 
L 159.162961 88.063412 
L 161.198839 91.549203 
L 163.234716 95.802672 
L 165.270593 100.731607 
L 167.30647 106.215603 
L 170.360286 115.167365 
L 177.485856 136.710431 
L 180.539672 145.049434 
L 182.575549 150.014495 
L 184.611426 154.398208 
L 186.647303 158.124967 
L 188.68318 161.129609 
L 189.701119 162.342937 
L 190.719057 163.354653 
L 191.736996 164.158446 
L 192.754935 164.74831 
L 193.772873 165.118582 
L 194.790812 165.264011 
L 195.80875 165.17987 
L 196.826689 164.862107 
L 197.844628 164.307537 
L 198.862566 163.514066 
L 199.880505 162.480929 
L 200.898443 161.208947 
L 201.916382 159.700762 
L 202.93432 157.961055 
L 204.970198 153.816913 
L 207.006075 148.859348 
L 209.041952 143.206952 
L 212.095768 133.756829 
L 222.275154 100.81497 
L 224.311031 95.123655 
L 226.346908 90.007957 
L 228.382785 85.550288 
L 230.418662 81.819804 
L 232.454539 78.876317 
L 233.472478 77.716732 
L 234.490417 76.773859 
L 235.508355 76.053942 
L 236.526294 75.56305 
L 237.544232 75.307028 
L 238.562171 75.291395 
L 239.580109 75.521183 
L 240.598048 76.000736 
L 241.615987 76.733448 
L 242.633925 77.72148 
L 243.651864 78.965439 
L 244.669802 80.464068 
L 245.687741 82.213949 
L 247.723618 86.441554 
L 249.759495 91.570081 
L 251.795372 97.479487 
L 253.83125 104.013218 
L 256.885065 114.582107 
L 262.992697 136.122148 
L 266.046513 145.950497 
L 268.08239 151.850295 
L 270.118267 157.115314 
L 272.154144 161.669013 
L 274.190021 165.447865 
L 275.20796 167.029248 
L 276.225898 168.396588 
L 277.243837 169.543567 
L 278.261776 170.463931 
L 279.279714 171.151448 
L 280.297653 171.599924 
L 281.315591 171.803267 
L 282.33353 171.755609 
L 283.351469 171.451498 
L 284.369407 170.886147 
L 285.387346 170.055736 
L 286.405284 168.957764 
L 287.423223 167.591423 
L 288.441161 165.957967 
L 289.4591 164.061065 
L 291.494977 159.505291 
L 293.530854 154.010254 
L 295.566732 147.708368 
L 298.620547 137.125898 
L 308.799933 100.157959 
L 310.83581 93.762419 
L 312.871687 87.994607 
L 314.907565 82.935669 
L 316.943442 78.65103 
L 318.979319 75.195796 
L 319.997258 73.794907 
L 321.015196 72.619967 
L 322.033135 71.677109 
L 323.051073 70.972553 
L 324.069012 70.512602 
L 325.08695 70.303582 
L 326.104889 70.351708 
L 327.122828 70.662885 
L 328.140766 71.242433 
L 329.158705 72.094756 
L 330.176643 73.222953 
L 331.194582 74.628395 
L 332.212521 76.310307 
L 333.230459 78.265365 
L 335.266336 82.967011 
L 337.302213 88.645837 
L 339.338091 95.164362 
L 342.391906 106.114967 
L 352.571292 144.315018 
L 354.607169 150.914247 
L 356.643047 156.867587 
L 358.678924 162.095145 
L 360.714801 166.533479 
L 362.750678 170.129746 
L 363.768617 171.597073 
L 364.786555 172.836016 
L 365.804494 173.840583 
L 366.822432 174.604616 
L 367.840371 175.121774 
L 368.85831 175.385584 
L 369.876248 175.389562 
L 370.894187 175.127405 
L 371.912125 174.593262 
L 372.930064 173.78208 
L 373.948002 172.69001 
L 374.965941 171.314853 
L 375.98388 169.656525 
L 377.001818 167.717499 
L 377.001818 167.717499 
" clip-path="url(#p3974aa1130)" style="fill: none; stroke: #808080; stroke-width: 1.5; stroke-linecap: square"/>
   </g>
   <g id="line2d_25">
    <path d="M 72.638182 122.110125 
L 73.65612 119.030909 
L 74.674059 116.379734 
L 75.691998 114.200199 
L 76.709936 112.509484 
L 77.727875 111.30412 
L 78.745813 110.564793 
L 79.763752 110.260446 
L 80.78169 110.351837 
L 81.799629 110.794605 
L 82.817568 111.541851 
L 83.835506 112.546258 
L 85.871383 115.144687 
L 87.907261 118.255443 
L 95.032831 129.755145 
L 97.068708 132.616952 
L 99.104585 135.150406 
L 101.140462 137.323213 
L 103.176339 139.118369 
L 105.212216 140.529017 
L 107.248094 141.554797 
L 109.283971 142.199251 
L 111.319848 142.468007 
L 113.355725 142.367621 
L 115.391602 141.905127 
L 117.427479 141.088345 
L 119.463357 139.926975 
L 121.499234 138.43433 
L 123.535111 136.629426 
L 125.570988 134.538967 
L 128.624804 130.948751 
L 131.67862 126.958721 
L 140.840067 114.647476 
L 143.893883 111.121615 
L 145.92976 109.081186 
L 147.965637 107.332248 
L 150.001514 105.904677 
L 152.037391 104.82327 
L 154.073268 104.109049 
L 156.109146 103.780146 
L 158.145023 103.851889 
L 160.1809 104.335886 
L 162.216777 105.23807 
L 164.252654 106.55599 
L 166.288531 108.275838 
L 168.324409 110.369957 
L 170.360286 112.795516 
L 173.414102 116.925657 
L 177.485856 122.959281 
L 181.55761 128.993631 
L 184.611426 133.148565 
L 186.647303 135.622797 
L 188.68318 137.803572 
L 190.719057 139.653706 
L 192.754935 141.144425 
L 194.790812 142.253077 
L 196.826689 142.960886 
L 198.862566 143.251313 
L 200.898443 143.109475 
L 202.93432 142.522977 
L 204.970198 141.484182 
L 207.006075 139.99364 
L 209.041952 138.064005 
L 211.077829 135.723488 
L 213.113706 133.017871 
L 216.167522 128.41737 
L 220.239276 121.707998 
L 224.311031 115.013039 
L 227.364846 110.411383 
L 229.400724 107.671717 
L 231.436601 105.253516 
L 233.472478 103.1936 
L 235.508355 101.519052 
L 237.544232 100.250236 
L 239.580109 99.403823 
L 241.615987 98.995193 
L 242.633925 98.959819 
L 243.651864 99.039599 
L 244.669802 99.236338 
L 245.687741 99.551669 
L 246.70568 99.986939 
L 248.741557 101.220407 
L 250.777434 102.93625 
L 252.813311 105.119788 
L 254.849188 107.738085 
L 256.885065 110.737904 
L 259.938881 115.789198 
L 270.118267 133.518016 
L 272.154144 136.542149 
L 274.190021 139.233559 
L 276.225898 141.55272 
L 278.261776 143.471752 
L 280.297653 144.970924 
L 282.33353 146.034919 
L 284.369407 146.649596 
L 285.387346 146.783803 
L 286.405284 146.799938 
L 287.423223 146.695939 
L 288.441161 146.469773 
L 289.4591 146.119536 
L 290.477039 145.643598 
L 292.512916 144.310464 
L 294.548793 142.469349 
L 296.58467 140.134916 
L 298.620547 137.342186 
L 300.656424 134.148745 
L 303.71024 128.785132 
L 312.871687 111.809982 
L 314.907565 108.494186 
L 316.943442 105.507908 
L 318.979319 102.896573 
L 321.015196 100.691578 
L 323.051073 98.913921 
L 325.08695 97.578418 
L 327.122828 96.697743 
L 328.140766 96.432129 
L 329.158705 96.285502 
L 330.176643 96.259944 
L 331.194582 96.357657 
L 332.212521 96.580881 
L 333.230459 96.93178 
L 334.248398 97.412288 
L 335.266336 98.023928 
L 337.302213 99.643429 
L 339.338091 101.786494 
L 341.373968 104.430114 
L 343.409845 107.527918 
L 345.445722 111.009302 
L 348.499538 116.745014 
L 355.625108 130.587155 
L 358.678924 135.871851 
L 360.714801 138.982391 
L 362.750678 141.706491 
L 364.786555 144.013047 
L 366.822432 145.882074 
L 368.85831 147.300135 
L 370.894187 148.255911 
L 371.912125 148.5566 
L 372.930064 148.736739 
L 373.948002 148.794242 
L 374.965941 148.726838 
L 375.98388 148.532147 
L 377.001818 148.207797 
L 377.001818 148.207797 
" clip-path="url(#p3974aa1130)" style="fill: none; stroke: #808080; stroke-width: 1.5; stroke-linecap: square"/>
   </g>
   <g id="line2d_26">
    <path d="M 72.638182 122.110125 
L 73.65612 126.669941 
L 74.674059 130.454265 
L 75.691998 133.564611 
L 76.709936 136.085039 
L 77.727875 138.085967 
L 78.745813 139.627513 
L 79.763752 140.762234 
L 80.78169 141.53725 
L 81.799629 141.99579 
L 82.817568 142.178239 
L 83.835506 142.122758 
L 84.853445 141.865588 
L 85.871383 141.4411 
L 87.907261 140.217616 
L 90.961076 137.862599 
L 95.032831 134.63118 
L 97.068708 133.209741 
L 99.104585 131.977082 
L 101.140462 130.934018 
L 104.194278 129.667903 
L 108.266032 128.307793 
L 113.355725 126.611771 
L 116.409541 125.388644 
L 119.463357 123.949852 
L 123.535111 121.727956 
L 133.714497 115.828024 
L 136.768313 114.391212 
L 138.80419 113.613036 
L 140.840067 113.007507 
L 142.875944 112.59504 
L 144.911821 112.391562 
L 146.947698 112.40797 
L 148.983576 112.649655 
L 151.019453 113.116107 
L 153.05533 113.80066 
L 155.091207 114.690401 
L 157.127084 115.766304 
L 160.1809 117.673727 
L 164.252654 120.598954 
L 172.396163 126.674872 
L 175.449979 128.670018 
L 178.503794 130.354913 
L 180.539672 131.266184 
L 182.575549 131.984329 
L 184.611426 132.492515 
L 186.647303 132.777201 
L 188.68318 132.828616 
L 190.719057 132.641346 
L 192.754935 132.214935 
L 194.790812 131.554418 
L 196.826689 130.670728 
L 198.862566 129.5809 
L 201.916382 127.611729 
L 204.970198 125.332996 
L 211.077829 120.346133 
L 215.149583 117.123953 
L 218.203399 114.962221 
L 221.257215 113.128663 
L 223.293092 112.129646 
L 225.328969 111.333997 
L 227.364846 110.759793 
L 229.400724 110.422046 
L 231.436601 110.332137 
L 233.472478 110.497106 
L 235.508355 110.918911 
L 237.544232 111.593749 
L 239.580109 112.511527 
L 241.615987 113.655513 
L 243.651864 115.002257 
L 246.70568 117.335592 
L 250.777434 120.833527 
L 257.903004 127.073704 
L 260.95682 129.447594 
L 264.010635 131.482497 
L 266.046513 132.60767 
L 268.08239 133.521777 
L 270.118267 134.205575 
L 272.154144 134.642662 
L 274.190021 134.820022 
L 276.225898 134.728793 
L 278.261776 134.365109 
L 280.297653 133.730893 
L 282.33353 132.834516 
L 284.369407 131.691278 
L 286.405284 130.323651 
L 289.4591 127.91792 
L 292.512916 125.201218 
L 302.692302 115.821457 
L 305.746117 113.448074 
L 307.781995 112.081729 
L 309.817872 110.917023 
L 311.853749 109.975561 
L 313.889626 109.276406 
L 315.925503 108.835881 
L 317.96138 108.666963 
L 319.997258 108.778442 
L 322.033135 109.173996 
L 324.069012 109.851341 
L 326.104889 110.801517 
L 328.140766 112.008373 
L 330.176643 113.448273 
L 333.230459 115.975246 
L 336.284275 118.822667 
L 346.463661 128.612545 
L 349.517476 131.081349 
L 351.553354 132.502497 
L 353.589231 133.715045 
L 355.625108 134.697494 
L 357.660985 135.430784 
L 359.696862 135.898459 
L 361.732739 136.087273 
L 363.768617 135.988082 
L 365.804494 135.596825 
L 367.840371 134.915437 
L 369.876248 133.952604 
L 371.912125 132.72434 
L 373.948002 131.254331 
L 377.001818 128.666662 
L 377.001818 128.666662 
" clip-path="url(#p3974aa1130)" style="fill: none; stroke: #808080; stroke-width: 1.5; stroke-linecap: square"/>
   </g>
   <g id="line2d_27">
    <path d="M 72.638182 122.110125 
L 73.65612 123.380651 
L 74.674059 124.394653 
L 75.691998 125.20631 
L 76.709936 125.854209 
L 78.745813 126.76112 
L 80.78169 127.259928 
L 82.817568 127.443078 
L 84.853445 127.386984 
L 87.907261 127.010289 
L 108.266032 123.542681 
L 111.319848 122.722004 
L 114.373664 121.699603 
L 118.445418 120.056585 
L 130.660681 114.760154 
L 133.714497 113.832297 
L 135.750374 113.392228 
L 137.786251 113.116256 
L 139.822128 113.017364 
L 141.858005 113.103391 
L 143.893883 113.376847 
L 145.92976 113.834967 
L 147.965637 114.469958 
L 151.019453 115.725767 
L 154.073268 117.291815 
L 158.145023 119.729353 
L 169.342347 126.752394 
L 172.396163 128.290416 
L 175.449979 129.504988 
L 177.485856 130.104093 
L 179.521733 130.518495 
L 181.55761 130.738848 
L 183.593487 130.760104 
L 185.629365 130.581643 
L 187.665242 130.207276 
L 189.701119 129.645097 
L 191.736996 128.907196 
L 194.790812 127.506161 
L 197.844628 125.812374 
L 201.916382 123.239705 
L 211.077829 117.263152 
L 214.131645 115.576262 
L 217.185461 114.196137 
L 219.221338 113.482584 
L 221.257215 112.95435 
L 223.293092 112.624237 
L 225.328969 112.500776 
L 227.364846 112.587948 
L 229.400724 112.885019 
L 231.436601 113.386562 
L 233.472478 114.082662 
L 235.508355 114.959292 
L 238.562171 116.573088 
L 241.615987 118.479178 
L 245.687741 121.321766 
L 253.83125 127.107145 
L 256.885065 128.97525 
L 259.938881 130.523652 
L 261.974758 131.338793 
L 264.010635 131.958055 
L 266.046513 132.367046 
L 268.08239 132.55583 
L 270.118267 132.51925 
L 272.154144 132.257167 
L 274.190021 131.774497 
L 276.225898 131.081011 
L 278.261776 130.19092 
L 281.315591 128.527734 
L 284.369407 126.538923 
L 288.441161 123.538162 
L 297.602609 116.591962 
L 300.656424 114.628587 
L 302.692302 113.508819 
L 304.728179 112.569611 
L 306.764056 111.831549 
L 308.799933 111.310984 
L 310.83581 111.01975 
L 312.871687 110.964821 
L 314.907565 111.147996 
L 316.943442 111.565758 
L 318.979319 112.209394 
L 321.015196 113.065389 
L 323.051073 114.11601 
L 326.104889 116.009318 
L 329.158705 118.206921 
L 333.230459 121.437674 
L 340.356029 127.146855 
L 343.409845 129.300264 
L 346.463661 131.1175 
L 348.499538 132.097869 
L 350.535415 132.868318 
L 352.571292 133.41231 
L 354.607169 133.717945 
L 356.643047 133.778311 
L 358.678924 133.591818 
L 360.714801 133.162362 
L 362.750678 132.499207 
L 364.786555 131.616548 
L 366.822432 130.532872 
L 369.876248 128.579631 
L 372.930064 126.311705 
L 377.001818 122.974567 
L 377.001818 122.974567 
" clip-path="url(#p3974aa1130)" style="fill: none; stroke: #808080; stroke-width: 1.5; stroke-linecap: square"/>
   </g>
   <g id="line2d_28">
    <path d="M 72.638182 122.110125 
L 73.65612 122.627146 
L 74.674059 122.753567 
L 75.691998 122.521999 
L 76.709936 121.967657 
L 77.727875 121.12848 
L 78.745813 120.044786 
L 80.78169 117.312705 
L 83.835506 112.43694 
L 86.889322 107.552012 
L 88.925199 104.705829 
L 90.961076 102.397467 
L 91.979015 101.483894 
L 92.996953 100.74514 
L 94.014892 100.188364 
L 95.032831 99.818017 
L 96.050769 99.636011 
L 97.068708 99.641885 
L 98.086646 99.832961 
L 99.104585 100.204501 
L 100.122524 100.749869 
L 101.140462 101.460701 
L 103.176339 103.337743 
L 105.212216 105.741262 
L 107.248094 108.561901 
L 110.301909 113.317661 
L 117.427479 124.880131 
L 120.481295 129.257787 
L 122.517172 131.802414 
L 124.55305 133.987768 
L 126.588927 135.773182 
L 128.624804 137.126071 
L 130.660681 138.020893 
L 131.67862 138.290382 
L 132.696558 138.43885 
L 133.714497 138.465093 
L 134.732435 138.368447 
L 135.750374 138.148847 
L 136.768313 137.806893 
L 138.80419 136.762065 
L 140.840067 135.254555 
L 142.875944 133.319188 
L 144.911821 131.005396 
L 146.947698 128.376055 
L 150.001514 124.003437 
L 159.162961 110.349163 
L 161.198839 107.685179 
L 163.234716 105.288881 
L 165.270593 103.208062 
L 167.30647 101.484676 
L 169.342347 100.156028 
L 171.378224 99.255686 
L 172.396163 98.975683 
L 173.414102 98.813753 
L 174.43204 98.773007 
L 175.449979 98.856191 
L 176.467917 99.065604 
L 177.485856 99.402994 
L 178.503794 99.869449 
L 179.521733 100.465272 
L 181.55761 102.041616 
L 183.593487 104.114492 
L 185.629365 106.647618 
L 187.665242 109.585276 
L 190.719057 114.58588 
L 194.790812 121.886676 
L 199.880505 130.971864 
L 202.93432 135.903062 
L 204.970198 138.836666 
L 207.006075 141.427464 
L 209.041952 143.633022 
L 211.077829 145.416546 
L 213.113706 146.745065 
L 214.131645 147.229112 
L 215.149583 147.588179 
L 216.167522 147.818822 
L 217.185461 147.917799 
L 218.203399 147.882141 
L 219.221338 147.709243 
L 220.239276 147.396983 
L 221.257215 146.943861 
L 222.275154 146.349149 
L 223.293092 145.613045 
L 225.328969 143.722978 
L 227.364846 141.299065 
L 229.400724 138.388721 
L 231.436601 135.061388 
L 234.490417 129.485386 
L 244.669802 109.99551 
L 246.70568 106.616392 
L 248.741557 103.569263 
L 250.777434 100.900448 
L 252.813311 98.648819 
L 254.849188 96.848294 
L 256.885065 95.530056 
L 257.903004 95.06117 
L 258.920943 94.724001 
L 259.938881 94.522119 
L 260.95682 94.458955 
L 261.974758 94.537704 
L 262.992697 94.761212 
L 264.010635 95.131822 
L 265.028574 95.651215 
L 266.046513 96.320218 
L 267.064451 97.138621 
L 269.100328 99.216541 
L 271.136206 101.856327 
L 273.172083 105.00452 
L 275.20796 108.58326 
L 278.261776 114.540534 
L 287.423223 133.165781 
L 289.4591 136.8324 
L 291.494977 140.170699 
L 293.530854 143.131913 
L 295.566732 145.676096 
L 297.602609 147.769199 
L 299.638486 149.380305 
L 300.656424 149.995747 
L 301.674363 150.479448 
L 302.692302 150.827638 
L 303.71024 151.03656 
L 304.728179 151.10254 
L 305.746117 151.022085 
L 306.764056 150.792016 
L 307.781995 150.409636 
L 308.799933 149.87292 
L 309.817872 149.180721 
L 310.83581 148.33299 
L 312.871687 146.177411 
L 314.907565 143.434801 
L 316.943442 140.160748 
L 318.979319 136.437376 
L 322.033135 130.24093 
L 331.194582 110.91724 
L 333.230459 107.120919 
L 335.266336 103.663888 
L 337.302213 100.594087 
L 339.338091 97.950311 
L 341.373968 95.765425 
L 343.409845 94.06943 
L 344.427784 93.413984 
L 345.445722 92.891921 
L 346.463661 92.507095 
L 347.481599 92.263406 
L 348.499538 92.16474 
L 349.517476 92.214865 
L 350.535415 92.417298 
L 351.553354 92.775123 
L 352.571292 93.290799 
L 353.589231 93.965924 
L 354.607169 94.801011 
L 355.625108 95.795251 
L 357.660985 98.250151 
L 359.696862 101.290978 
L 361.732739 104.849082 
L 363.768617 108.829222 
L 366.822432 115.336472 
L 373.948002 130.895721 
L 377.001818 136.883506 
L 377.001818 136.883506 
" clip-path="url(#p3974aa1130)" style="fill: none; stroke: #808080; stroke-width: 1.5; stroke-linecap: square"/>
   </g>
   <g id="line2d_29">
    <path d="M 72.638182 122.110125 
L 73.65612 117.6876 
L 74.674059 114.444473 
L 75.691998 112.187609 
L 76.709936 110.737636 
L 77.727875 109.933812 
L 78.745813 109.63637 
L 79.763752 109.726887 
L 80.78169 110.10732 
L 81.799629 110.698241 
L 83.835506 112.273988 
L 87.907261 116.016241 
L 103.176339 130.176371 
L 107.248094 133.846691 
L 110.301909 136.310058 
L 112.337787 137.72973 
L 114.373664 138.920067 
L 116.409541 139.840793 
L 118.445418 140.456161 
L 120.481295 140.735781 
L 122.517172 140.655392 
L 124.55305 140.197768 
L 126.588927 139.353878 
L 128.624804 138.124345 
L 130.660681 136.521044 
L 132.696558 134.568555 
L 134.732435 132.305015 
L 137.786251 128.442413 
L 141.858005 122.774578 
L 146.947698 115.711977 
L 150.001514 111.919921 
L 152.037391 109.702563 
L 154.073268 107.787863 
L 156.109146 106.212175 
L 158.145023 105.003917 
L 160.1809 104.184628 
L 162.216777 103.769919 
L 164.252654 103.770091 
L 166.288531 104.190274 
L 168.324409 105.02995 
L 170.360286 106.281823 
L 172.396163 107.930122 
L 174.43204 109.948641 
L 176.467917 112.299015 
L 178.503794 114.929885 
L 181.55761 119.259906 
L 189.701119 131.206895 
L 192.754935 135.105989 
L 194.790812 137.36122 
L 196.826689 139.28973 
L 198.862566 140.857628 
L 200.898443 142.038632 
L 202.93432 142.812696 
L 204.970198 143.164847 
L 207.006075 143.084422 
L 209.041952 142.564898 
L 211.077829 141.604454 
L 213.113706 140.207373 
L 215.149583 138.38625 
L 217.185461 136.1647 
L 219.221338 133.579971 
L 221.257215 130.684568 
L 224.311031 125.910327 
L 232.454539 112.685963 
L 235.508355 108.35147 
L 237.544232 105.834471 
L 239.580109 103.669853 
L 241.615987 101.892499 
L 243.651864 100.528868 
L 245.687741 99.598804 
L 247.723618 99.117096 
L 248.741557 99.047897 
L 249.759495 99.094577 
L 250.777434 99.257951 
L 251.795372 99.538603 
L 253.83125 100.452704 
L 255.867127 101.835267 
L 257.903004 103.677161 
L 259.938881 105.958522 
L 261.974758 108.645298 
L 264.010635 111.686565 
L 267.064451 116.758784 
L 276.225898 132.749901 
L 278.261776 135.870979 
L 280.297653 138.67515 
L 282.33353 141.113133 
L 284.369407 143.147448 
L 286.405284 144.750274 
L 288.441161 145.901217 
L 290.477039 146.585322 
L 291.494977 146.748739 
L 292.512916 146.791557 
L 293.530854 146.712862 
L 294.548793 146.51192 
L 295.566732 146.188192 
L 296.58467 145.741373 
L 298.620547 144.478777 
L 300.656424 142.729037 
L 302.692302 140.506405 
L 304.728179 137.838523 
L 306.764056 134.770219 
L 309.817872 129.562639 
L 313.889626 121.962157 
L 317.96138 114.370086 
L 321.015196 109.152332 
L 323.051073 106.047564 
L 325.08695 103.309185 
L 327.122828 100.979433 
L 329.158705 99.089233 
L 331.194582 97.660792 
L 333.230459 96.710009 
L 334.248398 96.417476 
L 335.266336 96.248432 
L 336.284275 96.203865 
L 337.302213 96.28462 
L 338.320152 96.4914 
L 339.338091 96.824744 
L 340.356029 97.28499 
L 342.391906 98.58618 
L 344.427784 100.390919 
L 346.463661 102.686011 
L 348.499538 105.444636 
L 350.535415 108.622009 
L 352.571292 112.152672 
L 355.625108 117.918996 
L 362.750678 131.703036 
L 365.804494 136.922279 
L 367.840371 139.974914 
L 369.876248 142.625891 
L 371.912125 144.838882 
L 373.948002 146.588071 
L 375.98388 147.85537 
L 377.001818 148.304166 
L 377.001818 148.304166 
" clip-path="url(#p3974aa1130)" style="fill: none; stroke: #808080; stroke-width: 1.5; stroke-linecap: square"/>
   </g>
   <g id="line2d_30">
    <path d="M 72.638182 122.110125 
L 76.709936 122.185279 
L 79.763752 122.44504 
L 87.907261 123.429393 
L 89.943138 123.372643 
L 91.979015 123.046351 
L 94.014892 122.403822 
L 96.050769 121.424602 
L 98.086646 120.115449 
L 100.122524 118.508209 
L 102.158401 116.655488 
L 105.212216 113.567147 
L 111.319848 107.255238 
L 113.355725 105.396622 
L 115.391602 103.775857 
L 117.427479 102.450283 
L 119.463357 101.468571 
L 121.499234 100.870634 
L 123.535111 100.687563 
L 125.570988 100.941367 
L 127.606865 101.644382 
L 129.642742 102.798338 
L 131.67862 104.393199 
L 133.714497 106.406027 
L 135.750374 108.800249 
L 137.786251 111.525671 
L 140.840067 116.094638 
L 145.92976 124.348456 
L 150.001514 130.782586 
L 153.05533 135.103204 
L 155.091207 137.621323 
L 157.127084 139.788282 
L 159.162961 141.56173 
L 161.198839 142.90777 
L 163.234716 143.800184 
L 164.252654 144.070016 
L 165.270593 144.219754 
L 166.288531 144.248029 
L 167.30647 144.153889 
L 168.324409 143.93682 
L 169.342347 143.596777 
L 171.378224 142.550167 
L 173.414102 141.024749 
L 175.449979 139.041925 
L 177.485856 136.635558 
L 179.521733 133.853145 
L 181.55761 130.755895 
L 184.611426 125.683378 
L 192.754935 111.722751 
L 195.80875 107.144382 
L 197.844628 104.485629 
L 199.880505 102.204224 
L 201.916382 100.342712 
L 203.952259 98.934801 
L 205.988136 98.006495 
L 207.006075 97.728474 
L 208.024013 97.577125 
L 209.041952 97.553929 
L 210.059891 97.659995 
L 211.077829 97.896046 
L 212.095768 98.262382 
L 213.113706 98.758837 
L 215.149583 100.138726 
L 217.185461 102.0225 
L 219.221338 104.384834 
L 221.257215 107.185987 
L 223.293092 110.370443 
L 226.346908 115.706573 
L 231.436601 125.342273 
L 235.508355 132.84485 
L 238.562171 137.880575 
L 240.598048 140.819326 
L 242.633925 143.356808 
L 244.669802 145.448459 
L 246.70568 147.059447 
L 248.741557 148.163152 
L 249.759495 148.518342 
L 250.777434 148.739737 
L 251.795372 148.825746 
L 252.813311 148.775108 
L 253.83125 148.586901 
L 254.849188 148.260574 
L 255.867127 147.795985 
L 256.885065 147.193467 
L 258.920943 145.578835 
L 260.95682 143.432089 
L 262.992697 140.782098 
L 265.028574 137.673942 
L 267.064451 134.170387 
L 270.118267 128.35248 
L 280.297653 108.185244 
L 282.33353 104.748076 
L 284.369407 101.694428 
L 286.405284 99.078407 
L 288.441161 96.942415 
L 290.477039 95.318857 
L 291.494977 94.707094 
L 292.512916 94.232 
L 293.530854 93.895617 
L 294.548793 93.699661 
L 295.566732 93.645548 
L 296.58467 93.734397 
L 297.602609 93.967018 
L 298.620547 94.34388 
L 299.638486 94.865061 
L 300.656424 95.530169 
L 302.692302 97.287713 
L 304.728179 99.600277 
L 306.764056 102.437341 
L 308.799933 105.750918 
L 310.83581 109.473885 
L 313.889626 115.634465 
L 323.051073 134.885844 
L 325.08695 138.644884 
L 327.122828 142.028844 
L 329.158705 144.977335 
L 331.194582 147.443087 
L 333.230459 149.390142 
L 335.266336 150.791764 
L 336.284275 151.281692 
L 337.302213 151.628386 
L 338.320152 151.830248 
L 339.338091 151.885952 
L 340.356029 151.794444 
L 341.373968 151.554943 
L 342.391906 151.166981 
L 343.409845 150.630451 
L 344.427784 149.94569 
L 345.445722 149.113572 
L 347.481599 147.014153 
L 349.517476 144.354547 
L 351.553354 141.17355 
L 353.589231 137.529361 
L 356.643047 131.371295 
L 360.714801 122.411203 
L 364.786555 113.440698 
L 367.840371 107.233924 
L 369.876248 103.515298 
L 371.912125 100.214735 
L 373.948002 97.386674 
L 375.98388 95.072698 
L 377.001818 94.118504 
L 377.001818 94.118504 
" clip-path="url(#p3974aa1130)" style="fill: none; stroke: #808080; stroke-width: 1.5; stroke-linecap: square"/>
   </g>
   <g id="line2d_31">
    <path d="M 72.638182 122.110125 
L 73.65612 118.674044 
L 74.674059 116.082423 
L 75.691998 114.234846 
L 76.709936 113.034878 
L 77.727875 112.390821 
L 78.745813 112.216412 
L 79.763752 112.431417 
L 80.78169 112.962079 
L 81.799629 113.741417 
L 83.835506 115.81278 
L 87.907261 120.750029 
L 90.961076 124.215302 
L 92.996953 126.17896 
L 95.032831 127.819992 
L 97.068708 129.147165 
L 99.104585 130.196119 
L 101.140462 131.017056 
L 104.194278 131.939492 
L 108.266032 132.836787 
L 113.355725 133.722584 
L 117.427479 134.260183 
L 120.481295 134.475226 
L 123.535111 134.436114 
L 125.570988 134.228776 
L 127.606865 133.853761 
L 129.642742 133.297959 
L 131.67862 132.554894 
L 133.714497 131.625027 
L 135.750374 130.515582 
L 138.80419 128.545673 
L 141.858005 126.271172 
L 145.92976 122.922911 
L 153.05533 116.946162 
L 156.109146 114.660749 
L 159.162961 112.718878 
L 161.198839 111.669543 
L 163.234716 110.848824 
L 165.270593 110.278792 
L 167.30647 109.975481 
L 169.342347 109.948228 
L 171.378224 110.199279 
L 173.414102 110.723731 
L 175.449979 111.509855 
L 177.485856 112.539745 
L 179.521733 113.790199 
L 182.575549 116.018267 
L 185.629365 118.573214 
L 190.719057 123.229464 
L 195.80875 127.853097 
L 198.862566 130.347141 
L 200.898443 131.810554 
L 202.93432 133.07225 
L 204.970198 134.100259 
L 207.006075 134.867626 
L 209.041952 135.353428 
L 211.077829 135.543666 
L 213.113706 135.431916 
L 215.149583 135.019641 
L 217.185461 134.316073 
L 219.221338 133.337641 
L 221.257215 132.107018 
L 223.293092 130.651956 
L 226.346908 128.118661 
L 229.400724 125.271068 
L 241.615987 113.444584 
L 243.651864 111.827721 
L 245.687741 110.421942 
L 247.723618 109.262211 
L 249.759495 108.378345 
L 251.795372 107.793878 
L 253.83125 107.52504 
L 255.867127 107.579953 
L 257.903004 107.958181 
L 259.938881 108.650755 
L 261.974758 109.640746 
L 264.010635 110.904336 
L 266.046513 112.412185 
L 269.100328 115.05796 
L 272.154144 118.053024 
L 277.243837 123.452539 
L 282.33353 128.77608 
L 285.387346 131.640987 
L 287.423223 133.321882 
L 289.4591 134.772361 
L 291.494977 135.956729 
L 293.530854 136.84489 
L 295.566732 137.413532 
L 297.602609 137.647195 
L 299.638486 137.539107 
L 301.674363 137.091623 
L 303.71024 136.316116 
L 305.746117 135.232251 
L 307.781995 133.866701 
L 309.817872 132.251553 
L 312.871687 129.440081 
L 315.925503 126.279371 
L 322.033135 119.474403 
L 326.104889 115.062735 
L 329.158705 112.082937 
L 331.194582 110.337695 
L 333.230459 108.833876 
L 335.266336 107.60802 
L 337.302213 106.690861 
L 339.338091 106.106101 
L 341.373968 105.869287 
L 343.409845 105.986934 
L 345.445722 106.456039 
L 347.481599 107.264194 
L 349.517476 108.390377 
L 351.553354 109.806352 
L 353.589231 111.478424 
L 356.643047 114.384257 
L 359.696862 117.646604 
L 365.804494 124.666319 
L 369.876248 129.223006 
L 372.930064 132.308272 
L 374.965941 134.120485 
L 377.001818 135.687403 
L 377.001818 135.687403 
" clip-path="url(#p3974aa1130)" style="fill: none; stroke: #808080; stroke-width: 1.5; stroke-linecap: square"/>
   </g>
   <g id="line2d_32">
    <path d="M 72.638182 122.110125 
L 73.65612 121.841474 
L 74.674059 121.330447 
L 76.709936 119.942483 
L 80.78169 117.031045 
L 82.817568 115.846248 
L 84.853445 114.920165 
L 86.889322 114.262839 
L 88.925199 113.862281 
L 90.961076 113.687964 
L 94.014892 113.744663 
L 102.158401 114.241788 
L 104.194278 114.120037 
L 106.230155 113.822158 
L 108.266032 113.338338 
L 110.301909 112.6759 
L 113.355725 111.400113 
L 117.427479 109.378983 
L 121.499234 107.354313 
L 124.55305 106.084378 
L 126.588927 105.447895 
L 128.624804 105.029915 
L 130.660681 104.867456 
L 132.696558 104.991121 
L 134.732435 105.424179 
L 136.768313 106.181485 
L 138.80419 107.26826 
L 140.840067 108.678914 
L 142.875944 110.396163 
L 144.911821 112.390797 
L 147.965637 115.811514 
L 152.037391 120.890649 
L 158.145023 128.621402 
L 161.198839 132.098871 
L 163.234716 134.154352 
L 165.270593 135.949928 
L 167.30647 137.449776 
L 169.342347 138.623681 
L 171.378224 139.446622 
L 173.414102 139.898483 
L 175.449979 139.964111 
L 177.485856 139.633863 
L 179.521733 138.904717 
L 181.55761 137.781858 
L 183.593487 136.280409 
L 185.629365 134.426876 
L 187.665242 132.259786 
L 190.719057 128.533368 
L 194.790812 123.007531 
L 200.898443 114.64598 
L 203.952259 110.905901 
L 205.988136 108.700106 
L 208.024013 106.774855 
L 210.059891 105.166125 
L 212.095768 103.904113 
L 214.131645 103.013952 
L 216.167522 102.516254 
L 218.203399 102.427254 
L 220.239276 102.758318 
L 222.275154 103.514695 
L 224.311031 104.693572 
L 226.346908 106.281786 
L 228.382785 108.253752 
L 230.418662 110.570293 
L 232.454539 113.178899 
L 235.508355 117.497179 
L 244.669802 131.029541 
L 247.723618 134.944758 
L 249.759495 137.223703 
L 251.795372 139.18901 
L 253.83125 140.806622 
L 255.867127 142.048268 
L 257.903004 142.890503 
L 259.938881 143.314002 
L 261.974758 143.303374 
L 264.010635 142.847803 
L 266.046513 141.942631 
L 268.08239 140.591795 
L 270.118267 138.810633 
L 272.154144 136.62835 
L 274.190021 134.089272 
L 276.225898 131.252299 
L 279.279714 126.59591 
L 287.423223 113.741791 
L 290.477039 109.477703 
L 292.512916 106.967306 
L 294.548793 104.774775 
L 296.58467 102.936105 
L 298.620547 101.480875 
L 300.656424 100.433458 
L 302.692302 99.814082 
L 303.71024 99.670267 
L 304.728179 99.639458 
L 305.746117 99.723166 
L 306.764056 99.922607 
L 307.781995 100.238631 
L 309.817872 101.221499 
L 311.853749 102.667874 
L 313.889626 104.561862 
L 315.925503 106.87273 
L 317.96138 109.553444 
L 321.015196 114.127178 
L 325.08695 120.839793 
L 330.176643 129.260252 
L 333.230459 133.863749 
L 335.266336 136.614875 
L 337.302213 139.05478 
L 339.338091 141.144274 
L 341.373968 142.851424 
L 343.409845 144.15021 
L 345.445722 145.019178 
L 347.481599 145.440382 
L 348.499538 145.478299 
L 349.517476 145.39896 
L 350.535415 145.201083 
L 351.553354 144.883726 
L 353.589231 143.888998 
L 355.625108 142.417579 
L 357.660985 140.484337 
L 359.696862 138.119456 
L 361.732739 135.370238 
L 363.768617 132.300653 
L 366.822432 127.268247 
L 374.965941 113.425644 
L 377.001818 110.308687 
L 377.001818 110.308687 
" clip-path="url(#p3974aa1130)" style="fill: none; stroke: #adff2f; stroke-width: 1.5; stroke-linecap: square"/>
   </g>
   <g id="line2d_33">
    <path d="M 72.638182 122.110125 
L 73.65612 122.91815 
L 74.674059 123.306608 
L 75.691998 123.371932 
L 76.709936 123.202753 
L 78.745813 122.471537 
L 80.78169 121.641023 
L 82.817568 121.09039 
L 83.835506 120.999955 
L 84.853445 121.059355 
L 85.871383 121.279585 
L 86.889322 121.665308 
L 87.907261 122.215596 
L 88.925199 122.924672 
L 90.961076 124.776365 
L 92.996953 127.105523 
L 96.050769 131.170057 
L 101.140462 138.158468 
L 103.176339 140.61561 
L 105.212216 142.708961 
L 107.248094 144.354321 
L 108.266032 144.988409 
L 109.283971 145.488247 
L 110.301909 145.848886 
L 111.319848 146.066464 
L 112.337787 146.138152 
L 113.355725 146.062111 
L 114.373664 145.837449 
L 115.391602 145.464192 
L 116.409541 144.943261 
L 117.427479 144.276453 
L 119.463357 142.516762 
L 121.499234 140.216961 
L 123.535111 137.423034 
L 125.570988 134.195265 
L 127.606865 130.60799 
L 130.660681 124.747035 
L 137.786251 110.633815 
L 140.840067 105.251239 
L 142.875944 102.118441 
L 144.911821 99.435365 
L 146.947698 97.259275 
L 148.983576 95.633384 
L 150.001514 95.036599 
L 151.019453 94.587598 
L 152.037391 94.288224 
L 153.05533 94.139636 
L 154.073268 94.142351 
L 155.091207 94.296273 
L 156.109146 94.600727 
L 157.127084 95.054482 
L 158.145023 95.655766 
L 159.162961 96.402273 
L 161.198839 98.31904 
L 163.234716 100.7753 
L 165.270593 103.731786 
L 167.30647 107.138047 
L 169.342347 110.930931 
L 172.396163 117.173276 
L 181.55761 136.702557 
L 183.593487 140.504329 
L 185.629365 143.894234 
L 187.665242 146.795459 
L 189.701119 149.146974 
L 190.719057 150.101852 
L 191.736996 150.90352 
L 192.754935 151.548632 
L 193.772873 152.034681 
L 194.790812 152.359941 
L 195.80875 152.523417 
L 196.826689 152.524788 
L 197.844628 152.36436 
L 198.862566 152.043018 
L 199.880505 151.562194 
L 200.898443 150.923833 
L 201.916382 150.130382 
L 203.952259 148.090486 
L 205.988136 145.472307 
L 208.024013 142.314943 
L 210.059891 138.668677 
L 212.095768 134.597261 
L 215.149583 127.870466 
L 225.328969 104.505987 
L 227.364846 100.548705 
L 229.400724 97.074227 
L 231.436601 94.157221 
L 233.472478 91.854401 
L 234.490417 90.946305 
L 235.508355 90.205338 
L 236.526294 89.63404 
L 237.544232 89.23411 
L 238.562171 89.006474 
L 239.580109 88.951356 
L 240.598048 89.068337 
L 241.615987 89.356412 
L 242.633925 89.814043 
L 243.651864 90.439197 
L 244.669802 91.229368 
L 245.687741 92.181596 
L 247.723618 94.558059 
L 249.759495 97.535163 
L 251.795372 101.070038 
L 253.83125 105.10779 
L 255.867127 109.578522 
L 258.920943 116.900714 
L 268.08239 139.56432 
L 270.118267 143.918981 
L 272.154144 147.779741 
L 274.190021 151.064197 
L 276.225898 153.709688 
L 277.243837 154.778436 
L 278.261776 155.672384 
L 279.279714 156.388686 
L 280.297653 156.925408 
L 281.315591 157.281446 
L 282.33353 157.456454 
L 283.351469 157.450766 
L 284.369407 157.265325 
L 285.387346 156.901623 
L 286.405284 156.36165 
L 287.423223 155.647851 
L 288.441161 154.763098 
L 289.4591 153.710686 
L 291.494977 151.118212 
L 293.530854 147.905969 
L 295.566732 144.118892 
L 297.602609 139.814395 
L 299.638486 135.065917 
L 302.692302 127.317831 
L 310.83581 105.966482 
L 312.871687 101.210199 
L 314.907565 96.932796 
L 316.943442 93.227268 
L 318.979319 90.165476 
L 319.997258 88.892791 
L 321.015196 87.7988 
L 322.033135 86.887037 
L 323.051073 86.160029 
L 324.069012 85.619385 
L 325.08695 85.265879 
L 326.104889 85.099538 
L 327.122828 85.11972 
L 328.140766 85.325188 
L 329.158705 85.714176 
L 330.176643 86.284446 
L 331.194582 87.03333 
L 332.212521 87.957761 
L 333.230459 89.054284 
L 335.266336 91.747773 
L 337.302213 95.077538 
L 339.338091 98.998256 
L 341.373968 103.452151 
L 343.409845 108.36501 
L 346.463661 116.383796 
L 354.607169 138.505781 
L 356.643047 143.439546 
L 358.678924 147.880173 
L 360.714801 151.73231 
L 362.750678 154.922761 
L 363.768617 156.252856 
L 364.786555 157.39963 
L 365.804494 158.359579 
L 366.822432 159.130227 
L 367.840371 159.71004 
L 368.85831 160.098331 
L 369.876248 160.29517 
L 370.894187 160.301303 
L 371.912125 160.11807 
L 372.930064 159.747338 
L 373.948002 159.191437 
L 374.965941 158.453117 
L 375.98388 157.535509 
L 377.001818 156.442112 
L 377.001818 156.442112 
" clip-path="url(#p3974aa1130)" style="fill: none; stroke: #808080; stroke-width: 1.5; stroke-linecap: square"/>
   </g>
   <g id="line2d_34">
    <path d="M 72.638182 122.110125 
L 76.709936 117.482107 
L 78.745813 115.69954 
L 79.763752 115.035426 
L 80.78169 114.532945 
L 81.799629 114.191479 
L 82.817568 114.005925 
L 83.835506 113.968255 
L 84.853445 114.068841 
L 85.871383 114.297523 
L 87.907261 115.100472 
L 89.943138 116.309967 
L 91.979015 117.878988 
L 94.014892 119.779048 
L 96.050769 121.992773 
L 98.086646 124.504364 
L 100.122524 127.290823 
L 103.176339 131.901826 
L 108.266032 140.219071 
L 112.337787 146.694254 
L 114.373664 149.618949 
L 116.409541 152.215053 
L 118.445418 154.399316 
L 120.481295 156.095465 
L 121.499234 156.738726 
L 122.517172 157.234828 
L 123.535111 157.576466 
L 124.55305 157.756894 
L 125.570988 157.769978 
L 126.588927 157.610249 
L 127.606865 157.272979 
L 128.624804 156.754276 
L 129.642742 156.051185 
L 130.660681 155.161811 
L 131.67862 154.085446 
L 132.696558 152.822701 
L 134.732435 149.747887 
L 136.768313 145.973241 
L 138.80419 141.562163 
L 140.840067 136.605893 
L 143.893883 128.409415 
L 153.05533 102.847061 
L 155.091207 97.862963 
L 157.127084 93.381544 
L 159.162961 89.488409 
L 161.198839 86.255468 
L 162.216777 84.905947 
L 163.234716 83.743567 
L 164.252654 82.7746 
L 165.270593 82.00488 
L 166.288531 81.439822 
L 167.30647 81.084416 
L 168.324409 80.943187 
L 169.342347 81.020137 
L 170.360286 81.31864 
L 171.378224 81.841329 
L 172.396163 82.589934 
L 173.414102 83.565118 
L 174.43204 84.766282 
L 175.449979 86.19137 
L 176.467917 87.83668 
L 178.503794 91.763889 
L 180.539672 96.479527 
L 182.575549 101.881906 
L 184.611426 107.837892 
L 187.665242 117.459057 
L 193.772873 137.01757 
L 196.826689 145.869732 
L 198.862566 151.132716 
L 200.898443 155.774581 
L 202.93432 159.720669 
L 204.970198 162.909616 
L 205.988136 164.203628 
L 207.006075 165.289382 
L 208.024013 166.161322 
L 209.041952 166.814171 
L 210.059891 167.24292 
L 211.077829 167.442864 
L 212.095768 167.409664 
L 213.113706 167.139452 
L 214.131645 166.628973 
L 215.149583 165.875762 
L 216.167522 164.878357 
L 217.185461 163.636531 
L 218.203399 162.151543 
L 219.221338 160.426388 
L 221.257215 156.277663 
L 223.293092 151.257275 
L 225.328969 145.470552 
L 227.364846 139.060116 
L 230.418662 128.659322 
L 236.526294 107.420842 
L 239.580109 97.776734 
L 241.615987 92.025237 
L 243.651864 86.929805 
L 245.687741 82.564791 
L 247.723618 78.989692 
L 248.741557 77.514181 
L 249.759495 76.254325 
L 250.777434 75.215528 
L 251.795372 74.403032 
L 252.813311 73.821947 
L 253.83125 73.477245 
L 254.849188 73.373715 
L 255.867127 73.515871 
L 256.885065 73.907821 
L 257.903004 74.553083 
L 258.920943 75.454367 
L 259.938881 76.613315 
L 260.95682 78.030209 
L 261.974758 79.703673 
L 262.992697 81.630366 
L 265.028574 86.218574 
L 267.064451 91.719169 
L 269.100328 98.013001 
L 272.154144 108.580683 
L 281.315591 142.010114 
L 283.351469 148.576562 
L 285.387346 154.524031 
L 287.423223 159.76356 
L 289.4591 164.22706 
L 291.494977 167.860935 
L 292.512916 169.352485 
L 293.530854 170.620109 
L 294.548793 171.658729 
L 295.566732 172.46331 
L 296.58467 173.028827 
L 297.602609 173.35027 
L 298.620547 173.4227 
L 299.638486 173.24135 
L 300.656424 172.801776 
L 301.674363 172.10006 
L 302.692302 171.133061 
L 303.71024 169.898708 
L 304.728179 168.39633 
L 305.746117 166.627 
L 306.764056 164.593891 
L 308.799933 159.761434 
L 310.83581 153.977404 
L 312.871687 147.367793 
L 315.925503 136.289794 
L 325.08695 101.459949 
L 327.122828 94.662294 
L 329.158705 88.516884 
L 331.194582 83.109987 
L 333.230459 78.506022 
L 335.266336 74.754746 
L 336.284275 73.212066 
L 337.302213 71.897889 
L 338.320152 70.817034 
L 339.338091 69.974362 
L 340.356029 69.374818 
L 341.373968 69.023434 
L 342.391906 68.925275 
L 343.409845 69.085341 
L 344.427784 69.508413 
L 345.445722 70.198844 
L 346.463661 71.160296 
L 347.481599 72.395427 
L 348.499538 73.905544 
L 349.517476 75.690217 
L 350.535415 77.746898 
L 352.571292 82.653314 
L 354.607169 88.549301 
L 356.643047 95.308934 
L 359.696862 106.674842 
L 368.85831 142.55927 
L 370.894187 149.578694 
L 372.930064 155.931877 
L 374.965941 161.532182 
L 377.001818 166.316246 
L 377.001818 166.316246 
" clip-path="url(#p3974aa1130)" style="fill: none; stroke: #808080; stroke-width: 1.5; stroke-linecap: square"/>
   </g>
   <g id="line2d_35">
    <path d="M 72.638182 122.110125 
L 73.65612 122.022621 
L 74.674059 122.380856 
L 76.709936 123.710111 
L 78.745813 125.125191 
L 80.78169 126.203089 
L 82.817568 126.825214 
L 84.853445 127.014834 
L 86.889322 126.841567 
L 88.925199 126.37278 
L 90.961076 125.655017 
L 92.996953 124.712714 
L 95.032831 123.555321 
L 97.068708 122.187014 
L 99.104585 120.615548 
L 102.158401 117.919518 
L 106.230155 113.88846 
L 111.319848 108.793347 
L 114.373664 106.123276 
L 116.409541 104.652622 
L 118.445418 103.505793 
L 120.481295 102.739954 
L 122.517172 102.402496 
L 123.535111 102.406046 
L 124.55305 102.529021 
L 125.570988 102.773744 
L 126.588927 103.141606 
L 128.624804 104.247477 
L 130.660681 105.83822 
L 132.696558 107.889662 
L 134.732435 110.362458 
L 136.768313 113.203395 
L 139.822128 118.009928 
L 143.893883 125.027931 
L 148.983576 133.83111 
L 152.037391 138.63023 
L 154.073268 141.46872 
L 156.109146 143.938425 
L 158.145023 145.977736 
L 160.1809 147.532008 
L 161.198839 148.112333 
L 162.216777 148.55462 
L 163.234716 148.854545 
L 164.252654 149.0085 
L 165.270593 149.013656 
L 166.288531 148.868031 
L 167.30647 148.570549 
L 168.324409 148.121099 
L 169.342347 147.520571 
L 170.360286 146.7709 
L 172.396163 144.837154 
L 174.43204 142.356435 
L 176.467917 139.381515 
L 178.503794 135.979752 
L 181.55761 130.253271 
L 185.629365 121.932929 
L 190.719057 111.505617 
L 193.772873 105.780005 
L 195.80875 102.353224 
L 197.844628 99.321897 
L 199.880505 96.750029 
L 201.916382 94.695152 
L 202.93432 93.877691 
L 203.952259 93.207848 
L 204.970198 92.690661 
L 205.988136 92.330546 
L 207.006075 92.131212 
L 208.024013 92.095587 
L 209.041952 92.225735 
L 210.059891 92.522771 
L 211.077829 92.986796 
L 212.095768 93.616833 
L 213.113706 94.410781 
L 214.131645 95.36539 
L 216.167522 97.737799 
L 218.203399 100.685183 
L 220.239276 104.141655 
L 222.275154 108.02659 
L 225.328969 114.453286 
L 235.508355 136.920364 
L 237.544232 140.87532 
L 239.580109 144.453737 
L 241.615987 147.585694 
L 243.651864 150.20783 
L 245.687741 152.26308 
L 246.70568 153.062115 
L 247.723618 153.701174 
L 248.741557 154.175274 
L 249.759495 154.480097 
L 250.777434 154.612077 
L 251.795372 154.5685 
L 252.813311 154.347602 
L 253.83125 153.948659 
L 254.849188 153.372064 
L 255.867127 152.619397 
L 256.885065 151.693462 
L 257.903004 150.598315 
L 259.938881 147.922821 
L 261.974758 144.649771 
L 264.010635 140.85379 
L 266.046513 136.624506 
L 269.100328 129.691263 
L 278.261776 108.082905 
L 281.315591 101.757705 
L 283.351469 98.036827 
L 285.387346 94.795004 
L 287.423223 92.095376 
L 289.4591 89.995068 
L 290.477039 89.185778 
L 291.494977 88.544733 
L 292.512916 88.076982 
L 293.530854 87.7869 
L 294.548793 87.678084 
L 295.566732 87.753238 
L 296.58467 88.014066 
L 297.602609 88.461171 
L 298.620547 89.093966 
L 299.638486 89.910607 
L 300.656424 90.90795 
L 301.674363 92.081527 
L 303.71024 94.932965 
L 305.746117 98.403553 
L 307.781995 102.413463 
L 309.817872 106.867468 
L 312.871687 114.145588 
L 322.033135 136.693687 
L 325.08695 143.266502 
L 327.122828 147.130808 
L 329.158705 150.4986 
L 331.194582 153.306619 
L 333.230459 155.497344 
L 334.248398 156.344867 
L 335.266336 157.019314 
L 336.284275 157.515476 
L 337.302213 157.828801 
L 338.320152 157.955513 
L 339.338091 157.892731 
L 340.356029 157.638593 
L 341.373968 157.192361 
L 342.391906 156.554525 
L 343.409845 155.726871 
L 344.427784 154.712537 
L 345.445722 153.516032 
L 347.481599 150.601349 
L 349.517476 147.045525 
L 351.553354 142.930437 
L 353.589231 138.353965 
L 356.643047 130.866644 
L 365.804494 107.613714 
L 368.85831 100.811011 
L 370.894187 96.79946 
L 372.930064 93.289967 
L 374.965941 90.346286 
L 377.001818 88.026611 
L 377.001818 88.026611 
" clip-path="url(#p3974aa1130)" style="fill: none; stroke: #808080; stroke-width: 1.5; stroke-linecap: square"/>
   </g>
   <g id="line2d_36">
    <path d="M 72.638182 122.110125 
L 73.65612 123.43524 
L 74.674059 124.266049 
L 75.691998 124.716343 
L 76.709936 124.884358 
L 77.727875 124.853349 
L 79.763752 124.458395 
L 82.817568 123.715152 
L 84.853445 123.429635 
L 86.889322 123.414467 
L 88.925199 123.674169 
L 90.961076 124.169275 
L 94.014892 125.213681 
L 101.140462 127.899589 
L 104.194278 128.764213 
L 107.248094 129.345485 
L 110.301909 129.638655 
L 113.355725 129.670554 
L 116.409541 129.481397 
L 120.481295 128.952827 
L 124.55305 128.170161 
L 128.624804 127.171273 
L 133.714497 125.654332 
L 139.822128 123.546167 
L 147.965637 120.700074 
L 152.037391 119.487472 
L 156.109146 118.527087 
L 159.162961 118.007992 
L 162.216777 117.683035 
L 165.270593 117.568435 
L 168.324409 117.677057 
L 171.378224 118.015785 
L 174.43204 118.581119 
L 177.485856 119.354421 
L 181.55761 120.643157 
L 195.80875 125.510071 
L 198.862566 126.253393 
L 201.916382 126.809552 
L 204.970198 127.157711 
L 208.024013 127.280111 
L 211.077829 127.161677 
L 214.131645 126.792695 
L 217.185461 126.174099 
L 220.239276 125.323621 
L 224.311031 123.898904 
L 238.562171 118.489985 
L 241.615987 117.657844 
L 244.669802 117.026293 
L 247.723618 116.615285 
L 250.777434 116.442429 
L 253.83125 116.524177 
L 256.885065 116.873316 
L 259.938881 117.493094 
L 262.992697 118.369696 
L 266.046513 119.466228 
L 270.118267 121.162558 
L 278.261776 124.64546 
L 282.33353 126.092314 
L 285.387346 126.957988 
L 288.441161 127.607814 
L 291.494977 128.02367 
L 294.548793 128.18858 
L 297.602609 128.085566 
L 300.656424 127.700709 
L 303.71024 127.029972 
L 306.764056 126.087847 
L 309.817872 124.914199 
L 313.889626 123.106369 
L 322.033135 119.425841 
L 326.104889 117.910749 
L 329.158705 117.007864 
L 332.212521 116.331063 
L 335.266336 115.897052 
L 338.320152 115.722191 
L 341.373968 115.823842 
L 344.427784 116.217151 
L 347.481599 116.907698 
L 350.535415 117.882013 
L 353.589231 119.099829 
L 357.660985 120.980847 
L 365.804494 124.817991 
L 368.85831 126.035904 
L 371.912125 127.05309 
L 374.965941 127.844074 
L 377.001818 128.237291 
L 377.001818 128.237291 
" clip-path="url(#p3974aa1130)" style="fill: none; stroke: #2ca02c; stroke-width: 1.5; stroke-linecap: square"/>
   </g>
   <g id="patch_3">
    <path d="M 57.42 232.990125 
L 57.42 11.230125 
" style="fill: none; stroke: #000000; stroke-width: 0.8; stroke-linejoin: miter; stroke-linecap: square"/>
   </g>
   <g id="patch_4">
    <path d="M 392.22 232.990125 
L 392.22 11.230125 
" style="fill: none; stroke: #000000; stroke-width: 0.8; stroke-linejoin: miter; stroke-linecap: square"/>
   </g>
   <g id="patch_5">
    <path d="M 57.42 232.990125 
L 392.22 232.990125 
" style="fill: none; stroke: #000000; stroke-width: 0.8; stroke-linejoin: miter; stroke-linecap: square"/>
   </g>
   <g id="patch_6">
    <path d="M 57.42 11.230125 
L 392.22 11.230125 
" style="fill: none; stroke: #000000; stroke-width: 0.8; stroke-linejoin: miter; stroke-linecap: square"/>
   </g>
   <g id="text_19">
    <text style="font-size: 12px; font-family: 'DejaVu Sans', 'Bitstream Vera Sans', 'Computer Modern Sans Serif', 'Lucida Grande', 'Verdana', 'Geneva', 'Lucid', 'Arial', 'Helvetica', 'Avant Garde', sans-serif; text-anchor: start" x="7.2" y="16.318125" transform="rotate(-0 7.2 16.318125)">B</text>
   </g>
   <g id="legend_1">
    <g id="patch_7">
     <path d="M 193.34 232.990125 
L 308.994688 232.990125 
Q 310.994688 232.990125 310.994688 230.990125 
L 310.994688 202.633875 
Q 310.994688 200.633875 308.994688 200.633875 
L 193.34 200.633875 
Q 191.34 200.633875 191.34 202.633875 
L 191.34 230.990125 
Q 191.34 232.990125 193.34 232.990125 
z
" style="fill: #ffffff; opacity: 0.8; stroke: #cccccc; stroke-linejoin: miter"/>
    </g>
    <g id="patch_8">
     <path d="M 195.34 212.232312 
L 215.34 212.232312 
L 215.34 205.232312 
L 195.34 205.232312 
z
" style="fill: #2ca02c; fill-opacity: 0.3; stroke: #2ca02c; stroke-opacity: 0.3; stroke-linejoin: miter"/>
    </g>
    <g id="text_20">
     <text style="font-size: 10px; font-family: 'DejaVu Sans', 'Bitstream Vera Sans', 'Computer Modern Sans Serif', 'Lucida Grande', 'Verdana', 'Geneva', 'Lucid', 'Arial', 'Helvetica', 'Avant Garde', sans-serif; text-anchor: start" x="223.34" y="212.232312" transform="rotate(-0 223.34 212.232312)">goal evaluation</text>
    </g>
    <g id="patch_9">
     <path d="M 195.34 226.910437 
L 215.34 226.910437 
L 215.34 219.910437 
L 195.34 219.910437 
z
" style="fill: #adff2f; fill-opacity: 0.5; stroke: #adff2f; stroke-opacity: 0.5; stroke-linejoin: miter"/>
    </g>
    <g id="text_21">
     <text style="font-size: 10px; font-family: 'DejaVu Sans', 'Bitstream Vera Sans', 'Computer Modern Sans Serif', 'Lucida Grande', 'Verdana', 'Geneva', 'Lucid', 'Arial', 'Helvetica', 'Avant Garde', sans-serif; text-anchor: start" x="223.34" y="226.910437" transform="rotate(-0 223.34 226.910437)">proxy evaluation</text>
    </g>
   </g>
  </g>
 </g>
 <defs>
  <clipPath id="p3974aa1130">
   <rect x="57.42" y="11.230125" width="334.8" height="221.76"/>
  </clipPath>
 </defs>
</svg>
