<?xml version="1.0" encoding="utf-8" standalone="no"?>
<!DOCTYPE svg PUBLIC "-//W3C//DTD SVG 1.1//EN"
  "http://www.w3.org/Graphics/SVG/1.1/DTD/svg11.dtd">
<svg xmlns:xlink="http://www.w3.org/1999/xlink" width="410.067187pt" height="304.459225pt" viewBox="0 0 410.067187 304.459225" xmlns="http://www.w3.org/2000/svg" version="1.1">
 <metadata>
  <rdf:RDF xmlns:dc="http://purl.org/dc/elements/1.1/" xmlns:cc="http://creativecommons.org/ns#" xmlns:rdf="http://www.w3.org/1999/02/22-rdf-syntax-ns#">
   <cc:Work>
    <dc:type rdf:resource="http://purl.org/dc/dcmitype/StillImage"/>
    <dc:date>2026-06-03T20:58:07.319116</dc:date>
    <dc:format>image/svg+xml</dc:format>
    <dc:creator>
     <cc:Agent>
      <dc:title>Matplotlib v3.10.8, https://matplotlib.org/</dc:title>
     </cc:Agent>
    </dc:creator>
   </cc:Work>
  </rdf:RDF>
 </metadata>
 <defs>
  <style type="text/css">*{stroke-linejoin: round; stroke-linecap: butt}</style>
 </defs>
 <g id="figure_1">
  <g id="patch_1">
   <path d="M 0 304.459225 
L 410.067187 304.459225 
L 410.067187 0 
L 0 0 
L 0 304.459225 
z
" style="fill: none"/>
  </g>
  <g id="axes_1">
   <g id="patch_2">
    <path d="M 58.523438 266.902975 
L 393.323438 266.902975 
L 393.323438 45.142975 
L 58.523438 45.142975 
L 58.523438 266.902975 
z
" style="fill: none"/>
   </g>
   <g id="FillBetweenPolyCollection_1">
    <defs>
     <path id="mc8fbe0cc49" d="M 225.923438 -259.31625 
L 225.923438 -37.55625 
L 229.271438 -37.55625 
L 232.619438 -37.55625 
L 235.967438 -37.55625 
L 239.315438 -37.55625 
L 242.663438 -37.55625 
L 246.011438 -37.55625 
L 249.359438 -37.55625 
L 252.707438 -37.55625 
L 256.055438 -37.55625 
L 259.403438 -37.55625 
L 262.751438 -37.55625 
L 266.099438 -37.55625 
L 269.447438 -37.55625 
L 272.795438 -37.55625 
L 276.143438 -37.55625 
L 279.491438 -37.55625 
L 282.839438 -37.55625 
L 286.187438 -37.55625 
L 289.535438 -37.55625 
L 292.883438 -37.55625 
L 296.231438 -37.55625 
L 299.579438 -37.55625 
L 302.927438 -37.55625 
L 306.275438 -37.55625 
L 309.623438 -37.55625 
L 312.971438 -37.55625 
L 316.319438 -37.55625 
L 319.667438 -37.55625 
L 323.015438 -37.55625 
L 326.363438 -37.55625 
L 329.711438 -37.55625 
L 333.059438 -37.55625 
L 336.407438 -37.55625 
L 339.755438 -37.55625 
L 343.103438 -37.55625 
L 346.451438 -37.55625 
L 349.799438 -37.55625 
L 353.147438 -37.55625 
L 356.495438 -37.55625 
L 359.843438 -37.55625 
L 363.191438 -37.55625 
L 366.539438 -37.55625 
L 369.887438 -37.55625 
L 373.235438 -37.55625 
L 376.583438 -37.55625 
L 379.931438 -37.55625 
L 383.279438 -37.55625 
L 386.627438 -37.55625 
L 389.975438 -37.55625 
L 389.975438 -259.31625 
L 389.975438 -259.31625 
L 386.627438 -259.31625 
L 383.279438 -259.31625 
L 379.931438 -259.31625 
L 376.583438 -259.31625 
L 373.235438 -259.31625 
L 369.887438 -259.31625 
L 366.539438 -259.31625 
L 363.191438 -259.31625 
L 359.843438 -259.31625 
L 356.495438 -259.31625 
L 353.147438 -259.31625 
L 349.799438 -259.31625 
L 346.451438 -259.31625 
L 343.103438 -259.31625 
L 339.755438 -259.31625 
L 336.407438 -259.31625 
L 333.059438 -259.31625 
L 329.711438 -259.31625 
L 326.363438 -259.31625 
L 323.015438 -259.31625 
L 319.667438 -259.31625 
L 316.319438 -259.31625 
L 312.971438 -259.31625 
L 309.623438 -259.31625 
L 306.275438 -259.31625 
L 302.927438 -259.31625 
L 299.579438 -259.31625 
L 296.231438 -259.31625 
L 292.883438 -259.31625 
L 289.535438 -259.31625 
L 286.187438 -259.31625 
L 282.839438 -259.31625 
L 279.491438 -259.31625 
L 276.143438 -259.31625 
L 272.795438 -259.31625 
L 269.447438 -259.31625 
L 266.099438 -259.31625 
L 262.751438 -259.31625 
L 259.403438 -259.31625 
L 256.055438 -259.31625 
L 252.707438 -259.31625 
L 249.359438 -259.31625 
L 246.011438 -259.31625 
L 242.663438 -259.31625 
L 239.315438 -259.31625 
L 235.967438 -259.31625 
L 232.619438 -259.31625 
L 229.271438 -259.31625 
L 225.923438 -259.31625 
z
" style="stroke: #2ca02c; stroke-opacity: 0.3"/>
    </defs>
    <g clip-path="url(#p0ebf16d211)">
     <use xlink:href="#mc8fbe0cc49" x="0" y="304.459225" style="fill: #2ca02c; fill-opacity: 0.3; stroke: #2ca02c; stroke-opacity: 0.3"/>
    </g>
   </g>
   <g id="FillBetweenPolyCollection_2">
    <path d="M 225.923438 45.142975 
L 225.923438 266.902975 
L 229.271438 266.902975 
L 232.619438 266.902975 
L 235.967438 266.902975 
L 239.315438 266.902975 
L 242.663438 266.902975 
L 246.011438 266.902975 
L 249.359438 266.902975 
L 252.707438 266.902975 
L 256.055438 266.902975 
L 259.403438 266.902975 
L 262.751438 266.902975 
L 266.099438 266.902975 
L 269.447438 266.902975 
L 272.795438 266.902975 
L 276.143438 266.902975 
L 279.491438 266.902975 
L 282.839438 266.902975 
L 286.187438 266.902975 
L 289.535438 266.902975 
L 292.883438 266.902975 
L 296.231438 266.902975 
L 299.579438 266.902975 
L 302.927438 266.902975 
L 306.275438 266.902975 
L 309.623438 266.902975 
L 312.971438 266.902975 
L 316.319438 266.902975 
L 319.667438 266.902975 
L 323.015438 266.902975 
L 326.363438 266.902975 
L 329.711438 266.902975 
L 333.059438 266.902975 
L 336.407438 266.902975 
L 339.755438 266.902975 
L 343.103438 266.902975 
L 346.451438 266.902975 
L 349.799438 266.902975 
L 353.147438 266.902975 
L 356.495438 266.902975 
L 359.843438 266.902975 
L 363.191438 266.902975 
L 366.539438 266.902975 
L 369.887438 266.902975 
L 373.235438 266.902975 
L 376.583438 266.902975 
L 379.931438 266.902975 
L 383.279438 266.902975 
L 386.627438 266.902975 
L 389.975438 266.902975 
L 389.975438 45.142975 
L 389.975438 45.142975 
L 386.627438 45.142975 
L 383.279438 45.142975 
L 379.931438 45.142975 
L 376.583438 45.142975 
L 373.235438 45.142975 
L 369.887438 45.142975 
L 366.539438 45.142975 
L 363.191438 45.142975 
L 359.843438 45.142975 
L 356.495438 45.142975 
L 353.147438 45.142975 
L 349.799438 45.142975 
L 346.451438 45.142975 
L 343.103438 45.142975 
L 339.755438 45.142975 
L 336.407438 45.142975 
L 333.059438 45.142975 
L 329.711438 45.142975 
L 326.363438 45.142975 
L 323.015438 45.142975 
L 319.667438 45.142975 
L 316.319438 45.142975 
L 312.971438 45.142975 
L 309.623438 45.142975 
L 306.275438 45.142975 
L 302.927438 45.142975 
L 299.579438 45.142975 
L 296.231438 45.142975 
L 292.883438 45.142975 
L 289.535438 45.142975 
L 286.187438 45.142975 
L 282.839438 45.142975 
L 279.491438 45.142975 
L 276.143438 45.142975 
L 272.795438 45.142975 
L 269.447438 45.142975 
L 266.099438 45.142975 
L 262.751438 45.142975 
L 259.403438 45.142975 
L 256.055438 45.142975 
L 252.707438 45.142975 
L 249.359438 45.142975 
L 246.011438 45.142975 
L 242.663438 45.142975 
L 239.315438 45.142975 
L 235.967438 45.142975 
L 232.619438 45.142975 
L 229.271438 45.142975 
L 225.923438 45.142975 
z
" clip-path="url(#p0ebf16d211)" style="fill: url(#h32833d4a96); stroke: #adff2f; stroke-opacity: 0.5"/>
   </g>
   <g id="FillBetweenPolyCollection_3"/>
   <g id="matplotlib.axis_1">
    <g id="xtick_1">
     <g id="line2d_1">
      <defs>
       <path id="m4b63b23544" d="M 0 0 
L 0 3.5 
" style="stroke: #000000; stroke-width: 0.8"/>
      </defs>
      <g>
       <use xlink:href="#m4b63b23544" x="58.523438" y="266.902975" style="stroke: #000000; stroke-width: 0.8"/>
      </g>
     </g>
     <g id="text_1">
      <!-- 0 -->
      <g transform="translate(55.342188 281.501412) scale(0.1 -0.1)">
       <defs>
        <path id="DejaVuSans-30" d="M 2034 4250 
Q 1547 4250 1301 3770 
Q 1056 3291 1056 2328 
Q 1056 1369 1301 889 
Q 1547 409 2034 409 
Q 2525 409 2770 889 
Q 3016 1369 3016 2328 
Q 3016 3291 2770 3770 
Q 2525 4250 2034 4250 
z
M 2034 4750 
Q 2819 4750 3233 4129 
Q 3647 3509 3647 2328 
Q 3647 1150 3233 529 
Q 2819 -91 2034 -91 
Q 1250 -91 836 529 
Q 422 1150 422 2328 
Q 422 3509 836 4129 
Q 1250 4750 2034 4750 
z
" transform="scale(0.015625)"/>
       </defs>
       <use xlink:href="#DejaVuSans-30"/>
      </g>
     </g>
    </g>
    <g id="xtick_2">
     <g id="line2d_2">
      <g>
       <use xlink:href="#m4b63b23544" x="125.483438" y="266.902975" style="stroke: #000000; stroke-width: 0.8"/>
      </g>
     </g>
     <g id="text_2">
      <!-- 20 -->
      <g transform="translate(119.120938 281.501412) scale(0.1 -0.1)">
       <defs>
        <path id="DejaVuSans-32" d="M 1228 531 
L 3431 531 
L 3431 0 
L 469 0 
L 469 531 
Q 828 903 1448 1529 
Q 2069 2156 2228 2338 
Q 2531 2678 2651 2914 
Q 2772 3150 2772 3378 
Q 2772 3750 2511 3984 
Q 2250 4219 1831 4219 
Q 1534 4219 1204 4116 
Q 875 4013 500 3803 
L 500 4441 
Q 881 4594 1212 4672 
Q 1544 4750 1819 4750 
Q 2544 4750 2975 4387 
Q 3406 4025 3406 3419 
Q 3406 3131 3298 2873 
Q 3191 2616 2906 2266 
Q 2828 2175 2409 1742 
Q 1991 1309 1228 531 
z
" transform="scale(0.015625)"/>
       </defs>
       <use xlink:href="#DejaVuSans-32"/>
       <use xlink:href="#DejaVuSans-30" transform="translate(63.623047 0)"/>
      </g>
     </g>
    </g>
    <g id="xtick_3">
     <g id="line2d_3">
      <g>
       <use xlink:href="#m4b63b23544" x="192.443438" y="266.902975" style="stroke: #000000; stroke-width: 0.8"/>
      </g>
     </g>
     <g id="text_3">
      <!-- 40 -->
      <g transform="translate(186.080938 281.501412) scale(0.1 -0.1)">
       <defs>
        <path id="DejaVuSans-34" d="M 2419 4116 
L 825 1625 
L 2419 1625 
L 2419 4116 
z
M 2253 4666 
L 3047 4666 
L 3047 1625 
L 3713 1625 
L 3713 1100 
L 3047 1100 
L 3047 0 
L 2419 0 
L 2419 1100 
L 313 1100 
L 313 1709 
L 2253 4666 
z
" transform="scale(0.015625)"/>
       </defs>
       <use xlink:href="#DejaVuSans-34"/>
       <use xlink:href="#DejaVuSans-30" transform="translate(63.623047 0)"/>
      </g>
     </g>
    </g>
    <g id="xtick_4">
     <g id="line2d_4">
      <g>
       <use xlink:href="#m4b63b23544" x="259.403438" y="266.902975" style="stroke: #000000; stroke-width: 0.8"/>
      </g>
     </g>
     <g id="text_4">
      <!-- 60 -->
      <g transform="translate(253.040938 281.501412) scale(0.1 -0.1)">
       <defs>
        <path id="DejaVuSans-36" d="M 2113 2584 
Q 1688 2584 1439 2293 
Q 1191 2003 1191 1497 
Q 1191 994 1439 701 
Q 1688 409 2113 409 
Q 2538 409 2786 701 
Q 3034 994 3034 1497 
Q 3034 2003 2786 2293 
Q 2538 2584 2113 2584 
z
M 3366 4563 
L 3366 3988 
Q 3128 4100 2886 4159 
Q 2644 4219 2406 4219 
Q 1781 4219 1451 3797 
Q 1122 3375 1075 2522 
Q 1259 2794 1537 2939 
Q 1816 3084 2150 3084 
Q 2853 3084 3261 2657 
Q 3669 2231 3669 1497 
Q 3669 778 3244 343 
Q 2819 -91 2113 -91 
Q 1303 -91 875 529 
Q 447 1150 447 2328 
Q 447 3434 972 4092 
Q 1497 4750 2381 4750 
Q 2619 4750 2861 4703 
Q 3103 4656 3366 4563 
z
" transform="scale(0.015625)"/>
       </defs>
       <use xlink:href="#DejaVuSans-36"/>
       <use xlink:href="#DejaVuSans-30" transform="translate(63.623047 0)"/>
      </g>
     </g>
    </g>
    <g id="xtick_5">
     <g id="line2d_5">
      <g>
       <use xlink:href="#m4b63b23544" x="326.363438" y="266.902975" style="stroke: #000000; stroke-width: 0.8"/>
      </g>
     </g>
     <g id="text_5">
      <!-- 80 -->
      <g transform="translate(320.000938 281.501412) scale(0.1 -0.1)">
       <defs>
        <path id="DejaVuSans-38" d="M 2034 2216 
Q 1584 2216 1326 1975 
Q 1069 1734 1069 1313 
Q 1069 891 1326 650 
Q 1584 409 2034 409 
Q 2484 409 2743 651 
Q 3003 894 3003 1313 
Q 3003 1734 2745 1975 
Q 2488 2216 2034 2216 
z
M 1403 2484 
Q 997 2584 770 2862 
Q 544 3141 544 3541 
Q 544 4100 942 4425 
Q 1341 4750 2034 4750 
Q 2731 4750 3128 4425 
Q 3525 4100 3525 3541 
Q 3525 3141 3298 2862 
Q 3072 2584 2669 2484 
Q 3125 2378 3379 2068 
Q 3634 1759 3634 1313 
Q 3634 634 3220 271 
Q 2806 -91 2034 -91 
Q 1263 -91 848 271 
Q 434 634 434 1313 
Q 434 1759 690 2068 
Q 947 2378 1403 2484 
z
M 1172 3481 
Q 1172 3119 1398 2916 
Q 1625 2713 2034 2713 
Q 2441 2713 2670 2916 
Q 2900 3119 2900 3481 
Q 2900 3844 2670 4047 
Q 2441 4250 2034 4250 
Q 1625 4250 1398 4047 
Q 1172 3844 1172 3481 
z
" transform="scale(0.015625)"/>
       </defs>
       <use xlink:href="#DejaVuSans-38"/>
       <use xlink:href="#DejaVuSans-30" transform="translate(63.623047 0)"/>
      </g>
     </g>
    </g>
    <g id="xtick_6">
     <g id="line2d_6">
      <g>
       <use xlink:href="#m4b63b23544" x="393.323438" y="266.902975" style="stroke: #000000; stroke-width: 0.8"/>
      </g>
     </g>
     <g id="text_6">
      <!-- 100 -->
      <g transform="translate(383.779688 281.501412) scale(0.1 -0.1)">
       <defs>
        <path id="DejaVuSans-31" d="M 794 531 
L 1825 531 
L 1825 4091 
L 703 3866 
L 703 4441 
L 1819 4666 
L 2450 4666 
L 2450 531 
L 3481 531 
L 3481 0 
L 794 0 
L 794 531 
z
" transform="scale(0.015625)"/>
       </defs>
       <use xlink:href="#DejaVuSans-31"/>
       <use xlink:href="#DejaVuSans-30" transform="translate(63.623047 0)"/>
       <use xlink:href="#DejaVuSans-30" transform="translate(127.246094 0)"/>
      </g>
     </g>
    </g>
    <g id="text_7">
     <!-- time steps -->
     <g transform="translate(199.617969 295.179537) scale(0.1 -0.1)">
      <defs>
       <path id="DejaVuSans-74" d="M 1172 4494 
L 1172 3500 
L 2356 3500 
L 2356 3053 
L 1172 3053 
L 1172 1153 
Q 1172 725 1289 603 
Q 1406 481 1766 481 
L 2356 481 
L 2356 0 
L 1766 0 
Q 1100 0 847 248 
Q 594 497 594 1153 
L 594 3053 
L 172 3053 
L 172 3500 
L 594 3500 
L 594 4494 
L 1172 4494 
z
" transform="scale(0.015625)"/>
       <path id="DejaVuSans-69" d="M 603 3500 
L 1178 3500 
L 1178 0 
L 603 0 
L 603 3500 
z
M 603 4863 
L 1178 4863 
L 1178 4134 
L 603 4134 
L 603 4863 
z
" transform="scale(0.015625)"/>
       <path id="DejaVuSans-6d" d="M 3328 2828 
Q 3544 3216 3844 3400 
Q 4144 3584 4550 3584 
Q 5097 3584 5394 3201 
Q 5691 2819 5691 2113 
L 5691 0 
L 5113 0 
L 5113 2094 
Q 5113 2597 4934 2840 
Q 4756 3084 4391 3084 
Q 3944 3084 3684 2787 
Q 3425 2491 3425 1978 
L 3425 0 
L 2847 0 
L 2847 2094 
Q 2847 2600 2669 2842 
Q 2491 3084 2119 3084 
Q 1678 3084 1418 2786 
Q 1159 2488 1159 1978 
L 1159 0 
L 581 0 
L 581 3500 
L 1159 3500 
L 1159 2956 
Q 1356 3278 1631 3431 
Q 1906 3584 2284 3584 
Q 2666 3584 2933 3390 
Q 3200 3197 3328 2828 
z
" transform="scale(0.015625)"/>
       <path id="DejaVuSans-65" d="M 3597 1894 
L 3597 1613 
L 953 1613 
Q 991 1019 1311 708 
Q 1631 397 2203 397 
Q 2534 397 2845 478 
Q 3156 559 3463 722 
L 3463 178 
Q 3153 47 2828 -22 
Q 2503 -91 2169 -91 
Q 1331 -91 842 396 
Q 353 884 353 1716 
Q 353 2575 817 3079 
Q 1281 3584 2069 3584 
Q 2775 3584 3186 3129 
Q 3597 2675 3597 1894 
z
M 3022 2063 
Q 3016 2534 2758 2815 
Q 2500 3097 2075 3097 
Q 1594 3097 1305 2825 
Q 1016 2553 972 2059 
L 3022 2063 
z
" transform="scale(0.015625)"/>
       <path id="DejaVuSans-20" transform="scale(0.015625)"/>
       <path id="DejaVuSans-73" d="M 2834 3397 
L 2834 2853 
Q 2591 2978 2328 3040 
Q 2066 3103 1784 3103 
Q 1356 3103 1142 2972 
Q 928 2841 928 2578 
Q 928 2378 1081 2264 
Q 1234 2150 1697 2047 
L 1894 2003 
Q 2506 1872 2764 1633 
Q 3022 1394 3022 966 
Q 3022 478 2636 193 
Q 2250 -91 1575 -91 
Q 1294 -91 989 -36 
Q 684 19 347 128 
L 347 722 
Q 666 556 975 473 
Q 1284 391 1588 391 
Q 1994 391 2212 530 
Q 2431 669 2431 922 
Q 2431 1156 2273 1281 
Q 2116 1406 1581 1522 
L 1381 1569 
Q 847 1681 609 1914 
Q 372 2147 372 2553 
Q 372 3047 722 3315 
Q 1072 3584 1716 3584 
Q 2034 3584 2315 3537 
Q 2597 3491 2834 3397 
z
" transform="scale(0.015625)"/>
       <path id="DejaVuSans-70" d="M 1159 525 
L 1159 -1331 
L 581 -1331 
L 581 3500 
L 1159 3500 
L 1159 2969 
Q 1341 3281 1617 3432 
Q 1894 3584 2278 3584 
Q 2916 3584 3314 3078 
Q 3713 2572 3713 1747 
Q 3713 922 3314 415 
Q 2916 -91 2278 -91 
Q 1894 -91 1617 61 
Q 1341 213 1159 525 
z
M 3116 1747 
Q 3116 2381 2855 2742 
Q 2594 3103 2138 3103 
Q 1681 3103 1420 2742 
Q 1159 2381 1159 1747 
Q 1159 1113 1420 752 
Q 1681 391 2138 391 
Q 2594 391 2855 752 
Q 3116 1113 3116 1747 
z
" transform="scale(0.015625)"/>
      </defs>
      <use xlink:href="#DejaVuSans-74"/>
      <use xlink:href="#DejaVuSans-69" transform="translate(39.208984 0)"/>
      <use xlink:href="#DejaVuSans-6d" transform="translate(66.992188 0)"/>
      <use xlink:href="#DejaVuSans-65" transform="translate(164.404297 0)"/>
      <use xlink:href="#DejaVuSans-20" transform="translate(225.927734 0)"/>
      <use xlink:href="#DejaVuSans-73" transform="translate(257.714844 0)"/>
      <use xlink:href="#DejaVuSans-74" transform="translate(309.814453 0)"/>
      <use xlink:href="#DejaVuSans-65" transform="translate(349.023438 0)"/>
      <use xlink:href="#DejaVuSans-70" transform="translate(410.546875 0)"/>
      <use xlink:href="#DejaVuSans-73" transform="translate(474.023438 0)"/>
     </g>
    </g>
   </g>
   <g id="matplotlib.axis_2">
    <g id="ytick_1">
     <g id="line2d_7">
      <defs>
       <path id="m6385dc5f94" d="M 0 0 
L -3.5 0 
" style="stroke: #000000; stroke-width: 0.8"/>
      </defs>
      <g>
       <use xlink:href="#m6385dc5f94" x="58.523438" y="266.902975" style="stroke: #000000; stroke-width: 0.8"/>
      </g>
     </g>
     <g id="text_8">
      <!-- −1.00 -->
      <g transform="translate(20.878125 270.702194) scale(0.1 -0.1)">
       <defs>
        <path id="DejaVuSans-2212" d="M 678 2272 
L 4684 2272 
L 4684 1741 
L 678 1741 
L 678 2272 
z
" transform="scale(0.015625)"/>
        <path id="DejaVuSans-2e" d="M 684 794 
L 1344 794 
L 1344 0 
L 684 0 
L 684 794 
z
" transform="scale(0.015625)"/>
       </defs>
       <use xlink:href="#DejaVuSans-2212"/>
       <use xlink:href="#DejaVuSans-31" transform="translate(83.789062 0)"/>
       <use xlink:href="#DejaVuSans-2e" transform="translate(147.412109 0)"/>
       <use xlink:href="#DejaVuSans-30" transform="translate(179.199219 0)"/>
       <use xlink:href="#DejaVuSans-30" transform="translate(242.822266 0)"/>
      </g>
     </g>
    </g>
    <g id="ytick_2">
     <g id="line2d_8">
      <g>
       <use xlink:href="#m6385dc5f94" x="58.523438" y="239.182975" style="stroke: #000000; stroke-width: 0.8"/>
      </g>
     </g>
     <g id="text_9">
      <!-- −0.75 -->
      <g transform="translate(20.878125 242.982194) scale(0.1 -0.1)">
       <defs>
        <path id="DejaVuSans-37" d="M 525 4666 
L 3525 4666 
L 3525 4397 
L 1831 0 
L 1172 0 
L 2766 4134 
L 525 4134 
L 525 4666 
z
" transform="scale(0.015625)"/>
        <path id="DejaVuSans-35" d="M 691 4666 
L 3169 4666 
L 3169 4134 
L 1269 4134 
L 1269 2991 
Q 1406 3038 1543 3061 
Q 1681 3084 1819 3084 
Q 2600 3084 3056 2656 
Q 3513 2228 3513 1497 
Q 3513 744 3044 326 
Q 2575 -91 1722 -91 
Q 1428 -91 1123 -41 
Q 819 9 494 109 
L 494 744 
Q 775 591 1075 516 
Q 1375 441 1709 441 
Q 2250 441 2565 725 
Q 2881 1009 2881 1497 
Q 2881 1984 2565 2268 
Q 2250 2553 1709 2553 
Q 1456 2553 1204 2497 
Q 953 2441 691 2322 
L 691 4666 
z
" transform="scale(0.015625)"/>
       </defs>
       <use xlink:href="#DejaVuSans-2212"/>
       <use xlink:href="#DejaVuSans-30" transform="translate(83.789062 0)"/>
       <use xlink:href="#DejaVuSans-2e" transform="translate(147.412109 0)"/>
       <use xlink:href="#DejaVuSans-37" transform="translate(179.199219 0)"/>
       <use xlink:href="#DejaVuSans-35" transform="translate(242.822266 0)"/>
      </g>
     </g>
    </g>
    <g id="ytick_3">
     <g id="line2d_9">
      <g>
       <use xlink:href="#m6385dc5f94" x="58.523438" y="211.462975" style="stroke: #000000; stroke-width: 0.8"/>
      </g>
     </g>
     <g id="text_10">
      <!-- −0.50 -->
      <g transform="translate(20.878125 215.262194) scale(0.1 -0.1)">
       <use xlink:href="#DejaVuSans-2212"/>
       <use xlink:href="#DejaVuSans-30" transform="translate(83.789062 0)"/>
       <use xlink:href="#DejaVuSans-2e" transform="translate(147.412109 0)"/>
       <use xlink:href="#DejaVuSans-35" transform="translate(179.199219 0)"/>
       <use xlink:href="#DejaVuSans-30" transform="translate(242.822266 0)"/>
      </g>
     </g>
    </g>
    <g id="ytick_4">
     <g id="line2d_10">
      <g>
       <use xlink:href="#m6385dc5f94" x="58.523438" y="183.742975" style="stroke: #000000; stroke-width: 0.8"/>
      </g>
     </g>
     <g id="text_11">
      <!-- −0.25 -->
      <g transform="translate(20.878125 187.542194) scale(0.1 -0.1)">
       <use xlink:href="#DejaVuSans-2212"/>
       <use xlink:href="#DejaVuSans-30" transform="translate(83.789062 0)"/>
       <use xlink:href="#DejaVuSans-2e" transform="translate(147.412109 0)"/>
       <use xlink:href="#DejaVuSans-32" transform="translate(179.199219 0)"/>
       <use xlink:href="#DejaVuSans-35" transform="translate(242.822266 0)"/>
      </g>
     </g>
    </g>
    <g id="ytick_5">
     <g id="line2d_11">
      <g>
       <use xlink:href="#m6385dc5f94" x="58.523438" y="156.022975" style="stroke: #000000; stroke-width: 0.8"/>
      </g>
     </g>
     <g id="text_12">
      <!-- 0.00 -->
      <g transform="translate(29.257813 159.822194) scale(0.1 -0.1)">
       <use xlink:href="#DejaVuSans-30"/>
       <use xlink:href="#DejaVuSans-2e" transform="translate(63.623047 0)"/>
       <use xlink:href="#DejaVuSans-30" transform="translate(95.410156 0)"/>
       <use xlink:href="#DejaVuSans-30" transform="translate(159.033203 0)"/>
      </g>
     </g>
    </g>
    <g id="ytick_6">
     <g id="line2d_12">
      <g>
       <use xlink:href="#m6385dc5f94" x="58.523438" y="128.302975" style="stroke: #000000; stroke-width: 0.8"/>
      </g>
     </g>
     <g id="text_13">
      <!-- 0.25 -->
      <g transform="translate(29.257813 132.102194) scale(0.1 -0.1)">
       <use xlink:href="#DejaVuSans-30"/>
       <use xlink:href="#DejaVuSans-2e" transform="translate(63.623047 0)"/>
       <use xlink:href="#DejaVuSans-32" transform="translate(95.410156 0)"/>
       <use xlink:href="#DejaVuSans-35" transform="translate(159.033203 0)"/>
      </g>
     </g>
    </g>
    <g id="ytick_7">
     <g id="line2d_13">
      <g>
       <use xlink:href="#m6385dc5f94" x="58.523438" y="100.582975" style="stroke: #000000; stroke-width: 0.8"/>
      </g>
     </g>
     <g id="text_14">
      <!-- 0.50 -->
      <g transform="translate(29.257813 104.382194) scale(0.1 -0.1)">
       <use xlink:href="#DejaVuSans-30"/>
       <use xlink:href="#DejaVuSans-2e" transform="translate(63.623047 0)"/>
       <use xlink:href="#DejaVuSans-35" transform="translate(95.410156 0)"/>
       <use xlink:href="#DejaVuSans-30" transform="translate(159.033203 0)"/>
      </g>
     </g>
    </g>
    <g id="ytick_8">
     <g id="line2d_14">
      <g>
       <use xlink:href="#m6385dc5f94" x="58.523438" y="72.862975" style="stroke: #000000; stroke-width: 0.8"/>
      </g>
     </g>
     <g id="text_15">
      <!-- 0.75 -->
      <g transform="translate(29.257813 76.662194) scale(0.1 -0.1)">
       <use xlink:href="#DejaVuSans-30"/>
       <use xlink:href="#DejaVuSans-2e" transform="translate(63.623047 0)"/>
       <use xlink:href="#DejaVuSans-37" transform="translate(95.410156 0)"/>
       <use xlink:href="#DejaVuSans-35" transform="translate(159.033203 0)"/>
      </g>
     </g>
    </g>
    <g id="ytick_9">
     <g id="line2d_15">
      <g>
       <use xlink:href="#m6385dc5f94" x="58.523438" y="45.142975" style="stroke: #000000; stroke-width: 0.8"/>
      </g>
     </g>
     <g id="text_16">
      <!-- 1.00 -->
      <g transform="translate(29.257813 48.942194) scale(0.1 -0.1)">
       <use xlink:href="#DejaVuSans-31"/>
       <use xlink:href="#DejaVuSans-2e" transform="translate(63.623047 0)"/>
       <use xlink:href="#DejaVuSans-30" transform="translate(95.410156 0)"/>
       <use xlink:href="#DejaVuSans-30" transform="translate(159.033203 0)"/>
      </g>
     </g>
    </g>
    <g id="text_17">
     <!-- activation -->
     <g transform="translate(14.798438 180.786256) rotate(-90) scale(0.1 -0.1)">
      <defs>
       <path id="DejaVuSans-61" d="M 2194 1759 
Q 1497 1759 1228 1600 
Q 959 1441 959 1056 
Q 959 750 1161 570 
Q 1363 391 1709 391 
Q 2188 391 2477 730 
Q 2766 1069 2766 1631 
L 2766 1759 
L 2194 1759 
z
M 3341 1997 
L 3341 0 
L 2766 0 
L 2766 531 
Q 2569 213 2275 61 
Q 1981 -91 1556 -91 
Q 1019 -91 701 211 
Q 384 513 384 1019 
Q 384 1609 779 1909 
Q 1175 2209 1959 2209 
L 2766 2209 
L 2766 2266 
Q 2766 2663 2505 2880 
Q 2244 3097 1772 3097 
Q 1472 3097 1187 3025 
Q 903 2953 641 2809 
L 641 3341 
Q 956 3463 1253 3523 
Q 1550 3584 1831 3584 
Q 2591 3584 2966 3190 
Q 3341 2797 3341 1997 
z
" transform="scale(0.015625)"/>
       <path id="DejaVuSans-63" d="M 3122 3366 
L 3122 2828 
Q 2878 2963 2633 3030 
Q 2388 3097 2138 3097 
Q 1578 3097 1268 2742 
Q 959 2388 959 1747 
Q 959 1106 1268 751 
Q 1578 397 2138 397 
Q 2388 397 2633 464 
Q 2878 531 3122 666 
L 3122 134 
Q 2881 22 2623 -34 
Q 2366 -91 2075 -91 
Q 1284 -91 818 406 
Q 353 903 353 1747 
Q 353 2603 823 3093 
Q 1294 3584 2113 3584 
Q 2378 3584 2631 3529 
Q 2884 3475 3122 3366 
z
" transform="scale(0.015625)"/>
       <path id="DejaVuSans-76" d="M 191 3500 
L 800 3500 
L 1894 563 
L 2988 3500 
L 3597 3500 
L 2284 0 
L 1503 0 
L 191 3500 
z
" transform="scale(0.015625)"/>
       <path id="DejaVuSans-6f" d="M 1959 3097 
Q 1497 3097 1228 2736 
Q 959 2375 959 1747 
Q 959 1119 1226 758 
Q 1494 397 1959 397 
Q 2419 397 2687 759 
Q 2956 1122 2956 1747 
Q 2956 2369 2687 2733 
Q 2419 3097 1959 3097 
z
M 1959 3584 
Q 2709 3584 3137 3096 
Q 3566 2609 3566 1747 
Q 3566 888 3137 398 
Q 2709 -91 1959 -91 
Q 1206 -91 779 398 
Q 353 888 353 1747 
Q 353 2609 779 3096 
Q 1206 3584 1959 3584 
z
" transform="scale(0.015625)"/>
       <path id="DejaVuSans-6e" d="M 3513 2113 
L 3513 0 
L 2938 0 
L 2938 2094 
Q 2938 2591 2744 2837 
Q 2550 3084 2163 3084 
Q 1697 3084 1428 2787 
Q 1159 2491 1159 1978 
L 1159 0 
L 581 0 
L 581 3500 
L 1159 3500 
L 1159 2956 
Q 1366 3272 1645 3428 
Q 1925 3584 2291 3584 
Q 2894 3584 3203 3211 
Q 3513 2838 3513 2113 
z
" transform="scale(0.015625)"/>
      </defs>
      <use xlink:href="#DejaVuSans-61"/>
      <use xlink:href="#DejaVuSans-63" transform="translate(61.279297 0)"/>
      <use xlink:href="#DejaVuSans-74" transform="translate(116.259766 0)"/>
      <use xlink:href="#DejaVuSans-69" transform="translate(155.46875 0)"/>
      <use xlink:href="#DejaVuSans-76" transform="translate(183.251953 0)"/>
      <use xlink:href="#DejaVuSans-61" transform="translate(242.431641 0)"/>
      <use xlink:href="#DejaVuSans-74" transform="translate(303.710938 0)"/>
      <use xlink:href="#DejaVuSans-69" transform="translate(342.919922 0)"/>
      <use xlink:href="#DejaVuSans-6f" transform="translate(370.703125 0)"/>
      <use xlink:href="#DejaVuSans-6e" transform="translate(431.884766 0)"/>
     </g>
    </g>
   </g>
   <g id="line2d_16">
    <path d="M 58.523438 156.022975 
L 61.871438 156.903395 
L 65.219438 157.512765 
L 68.567438 157.903699 
L 71.915438 158.118978 
L 75.263438 158.192779 
L 78.611438 158.151864 
L 81.959438 158.016716 
L 85.307438 157.802591 
L 88.655438 157.520485 
L 92.003438 157.178014 
L 95.351438 156.780194 
L 98.699438 156.330126 
L 102.047438 155.829585 
L 105.395438 155.279519 
L 108.743438 154.68046 
L 112.091438 154.032847 
L 115.439438 153.337287 
L 118.787438 152.594728 
L 122.135438 151.806587 
L 125.483438 150.974815 
L 128.831438 150.101925 
L 132.179438 149.190976 
L 135.527438 148.245529 
L 138.875438 147.269585 
L 142.223438 146.267503 
L 145.571438 145.243908 
L 148.919438 144.203599 
L 152.267438 143.151448 
L 155.615438 142.092315 
L 158.963438 141.030956 
L 162.311438 139.971949 
L 165.659438 138.919626 
L 169.007438 137.878019 
L 172.355438 136.850812 
L 175.703438 135.841314 
L 179.051438 134.852435 
L 182.399438 133.886674 
L 185.747438 132.946124 
L 189.095438 132.032475 
L 192.443438 131.147033 
L 195.791438 130.290743 
L 199.139438 129.464216 
L 202.487438 128.667761 
L 205.835438 127.90142 
L 209.183438 127.165006 
L 212.531438 126.45814 
L 215.879438 125.780286 
L 219.227438 125.130793 
L 222.575438 124.508924 
L 225.923438 123.913895 
L 229.271438 123.344898 
L 232.619438 122.801137 
L 235.967438 122.281843 
L 239.315438 121.786301 
L 242.663438 121.313868 
L 246.011438 120.863983 
L 249.359438 120.436181 
L 252.707438 120.030102 
L 256.055438 119.645495 
L 259.403438 119.28222 
L 262.751438 118.940252 
L 266.099438 118.619678 
L 269.447438 118.320693 
L 272.795438 118.043596 
L 276.143438 117.788785 
L 279.491438 117.556748 
L 282.839438 117.34806 
L 286.187438 117.163366 
L 289.535438 117.003382 
L 292.883438 116.868876 
L 296.231438 116.760667 
L 299.579438 116.679609 
L 302.927438 116.626582 
L 306.275438 116.602485 
L 309.623438 116.608223 
L 312.971438 116.644696 
L 316.319438 116.712795 
L 319.667438 116.813384 
L 323.015438 116.947298 
L 326.363438 117.115327 
L 329.711438 117.318213 
L 333.059438 117.556634 
L 336.407438 117.831204 
L 339.755438 118.142455 
L 343.103438 118.490835 
L 346.451438 118.876701 
L 349.799438 119.300306 
L 353.147438 119.7618 
L 356.495438 120.261217 
L 359.843438 120.798474 
L 363.191438 121.373366 
L 366.539438 121.985559 
L 369.887438 122.63459 
L 373.235438 123.319866 
L 376.583438 124.040661 
L 379.931438 124.796114 
L 383.279438 125.585236 
L 386.627438 126.406905 
L 389.975438 127.259876 
" clip-path="url(#p0ebf16d211)" style="fill: none; stroke: #808080; stroke-width: 1.5; stroke-linecap: square"/>
   </g>
   <g id="line2d_17">
    <path d="M 58.523438 156.022975 
L 61.871438 156.022975 
L 65.219438 155.997975 
L 68.567438 155.967159 
L 71.915438 155.947482 
L 75.263438 155.95326 
L 78.611438 155.995936 
L 81.959438 156.083945 
L 85.307438 156.222641 
L 88.655438 156.414312 
L 92.003438 156.658276 
L 95.351438 156.951068 
L 98.699438 157.286708 
L 102.047438 157.657039 
L 105.395438 158.052115 
L 108.743438 158.460611 
L 112.091438 158.870251 
L 115.439438 159.268222 
L 118.787438 159.641555 
L 122.135438 159.977485 
L 125.483438 160.263754 
L 128.831438 160.488871 
L 132.179438 160.642334 
L 135.527438 160.714792 
L 138.875438 160.698177 
L 142.223438 160.585792 
L 145.571438 160.372369 
L 148.919438 160.054091 
L 152.267438 159.628593 
L 155.615438 159.094935 
L 158.963438 158.453554 
L 162.311438 157.706196 
L 165.659438 156.855831 
L 169.007438 155.906554 
L 172.355438 154.863472 
L 175.703438 153.732577 
L 179.051438 152.52062 
L 182.399438 151.23497 
L 185.747438 149.883481 
L 189.095438 148.474358 
L 192.443438 147.01602 
L 195.791438 145.516982 
L 199.139438 143.985737 
L 202.487438 142.430655 
L 205.835438 140.859888 
L 209.183438 139.281295 
L 212.531438 137.702376 
L 215.879438 136.130219 
L 219.227438 134.571462 
L 222.575438 133.032262 
L 225.923438 131.518284 
L 229.271438 130.034687 
L 232.619438 128.586131 
L 235.967438 127.176781 
L 239.315438 125.810323 
L 242.663438 124.489983 
L 246.011438 123.218547 
L 249.359438 121.998385 
L 252.707438 120.831483 
L 256.055438 119.719465 
L 259.403438 118.663621 
L 262.751438 117.664938 
L 266.099438 116.724125 
L 269.447438 115.841639 
L 272.795438 115.017709 
L 276.143438 114.252365 
L 279.491438 113.545454 
L 282.839438 112.896665 
L 286.187438 112.305546 
L 289.535438 111.771525 
L 292.883438 111.293925 
L 296.231438 110.871976 
L 299.579438 110.504836 
L 302.927438 110.191595 
L 306.275438 109.93129 
L 309.623438 109.722918 
L 312.971438 109.565436 
L 316.319438 109.457776 
L 319.667438 109.398848 
L 323.015438 109.387545 
L 326.363438 109.422748 
L 329.711438 109.503329 
L 333.059438 109.628156 
L 336.407438 109.796088 
L 339.755438 110.005986 
L 343.103438 110.256703 
L 346.451438 110.547092 
L 349.799438 110.876002 
L 353.147438 111.242277 
L 356.495438 111.644753 
L 359.843438 112.082259 
L 363.191438 112.553616 
L 366.539438 113.05763 
L 369.887438 113.593092 
L 373.235438 114.158778 
L 376.583438 114.753443 
L 379.931438 115.375819 
L 383.279438 116.024616 
L 386.627438 116.698516 
L 389.975438 117.39617 
" clip-path="url(#p0ebf16d211)" style="fill: none; stroke: #808080; stroke-width: 1.5; stroke-linecap: square"/>
   </g>
   <g id="line2d_18">
    <path d="M 58.523438 156.022975 
L 61.871438 156.022975 
L 65.219438 156.764863 
L 68.567438 158.042705 
L 71.915438 159.690459 
L 75.263438 161.577087 
L 78.611438 163.600865 
L 81.959438 165.683948 
L 85.307438 167.767571 
L 88.655438 169.808054 
L 92.003438 171.773541 
L 95.351438 173.641394 
L 98.699438 175.396145 
L 102.047438 177.027872 
L 105.395438 178.530944 
L 108.743438 179.903032 
L 112.091438 181.144348 
L 115.439438 182.257035 
L 118.787438 183.244706 
L 122.135438 184.11207 
L 125.483438 184.864637 
L 128.831438 185.508487 
L 132.179438 186.050081 
L 135.527438 186.496112 
L 138.875438 186.853376 
L 142.223438 187.128678 
L 145.571438 187.328745 
L 148.919438 187.46016 
L 152.267438 187.529303 
L 155.615438 187.54231 
L 158.963438 187.50503 
L 162.311438 187.422996 
L 165.659438 187.301403 
L 169.007438 187.145089 
L 172.355438 186.95852 
L 175.703438 186.74579 
L 179.051438 186.510612 
L 182.399438 186.256328 
L 185.747438 185.985911 
L 189.095438 185.701984 
L 192.443438 185.40683 
L 195.791438 185.102417 
L 199.139438 184.790421 
L 202.487438 184.472246 
L 205.835438 184.149059 
L 209.183438 183.821817 
L 212.531438 183.491294 
L 215.879438 183.158112 
L 219.227438 182.822776 
L 222.575438 182.485694 
L 225.923438 182.147211 
L 229.271438 181.807632 
L 232.619438 181.467245 
L 235.967438 181.126341 
L 239.315438 180.785233 
L 242.663438 180.444271 
L 246.011438 180.103852 
L 249.359438 179.764431 
L 252.707438 179.426527 
L 256.055438 179.090724 
L 259.403438 178.757675 
L 262.751438 178.428098 
L 266.099438 178.102774 
L 269.447438 177.782543 
L 272.795438 177.468292 
L 276.143438 177.160953 
L 279.491438 176.861491 
L 282.839438 176.570896 
L 286.187438 176.290172 
L 289.535438 176.020329 
L 292.883438 175.76237 
L 296.231438 175.517286 
L 299.579438 175.286042 
L 302.927438 175.069573 
L 306.275438 174.868774 
L 309.623438 174.684491 
L 312.971438 174.517517 
L 316.319438 174.368586 
L 319.667438 174.238366 
L 323.015438 174.127454 
L 326.363438 174.036377 
L 329.711438 173.965579 
L 333.059438 173.915429 
L 336.407438 173.886209 
L 339.755438 173.878118 
L 343.103438 173.891268 
L 346.451438 173.925681 
L 349.799438 173.98129 
L 353.147438 174.057937 
L 356.495438 174.155373 
L 359.843438 174.273255 
L 363.191438 174.41115 
L 366.539438 174.568532 
L 369.887438 174.744784 
L 373.235438 174.939198 
L 376.583438 175.150978 
L 379.931438 175.379241 
L 383.279438 175.623017 
L 386.627438 175.881256 
L 389.975438 176.152829 
" clip-path="url(#p0ebf16d211)" style="fill: none; stroke: #808080; stroke-width: 1.5; stroke-linecap: square"/>
   </g>
   <g id="line2d_19">
    <path d="M 58.523438 156.022975 
L 61.871438 156.022975 
L 65.219438 156.336573 
L 68.567438 156.86369 
L 71.915438 157.524795 
L 75.263438 158.257354 
L 78.611438 159.012727 
L 81.959438 159.753601 
L 85.307438 160.451875 
L 88.655438 161.086956 
L 92.003438 161.644375 
L 95.351438 162.11465 
L 98.699438 162.492352 
L 102.047438 162.775326 
L 105.395438 162.964037 
L 108.743438 163.061015 
L 112.091438 163.070391 
L 115.439438 162.997498 
L 118.787438 162.848535 
L 122.135438 162.630288 
L 125.483438 162.34989 
L 128.831438 162.014627 
L 132.179438 161.631778 
L 135.527438 161.208485 
L 138.875438 160.751649 
L 142.223438 160.267853 
L 145.571438 159.763298 
L 148.919438 159.243763 
L 152.267438 158.714573 
L 155.615438 158.180582 
L 158.963438 157.646165 
L 162.311438 157.115215 
L 165.659438 156.591147 
L 169.007438 156.076912 
L 172.355438 155.575007 
L 175.703438 155.08749 
L 179.051438 154.616002 
L 182.399438 154.161787 
L 185.747438 153.725713 
L 189.095438 153.308297 
L 192.443438 152.909729 
L 195.791438 152.529896 
L 199.139438 152.168414 
L 202.487438 151.824649 
L 205.835438 151.497747 
L 209.183438 151.186664 
L 212.531438 150.89019 
L 215.879438 150.606979 
L 219.227438 150.335572 
L 222.575438 150.074432 
L 225.923438 149.821958 
L 229.271438 149.576517 
L 232.619438 149.336465 
L 235.967438 149.100164 
L 239.315438 148.866005 
L 242.663438 148.632425 
L 246.011438 148.397919 
L 249.359438 148.161056 
L 252.707438 147.920488 
L 256.055438 147.67496 
L 259.403438 147.423317 
L 262.751438 147.16451 
L 266.099438 146.897595 
L 269.447438 146.621741 
L 272.795438 146.336228 
L 276.143438 146.040443 
L 279.491438 145.733884 
L 282.839438 145.416152 
L 286.187438 145.086949 
L 289.535438 144.746077 
L 292.883438 144.393426 
L 296.231438 144.028976 
L 299.579438 143.652786 
L 302.927438 143.264991 
L 306.275438 142.865795 
L 309.623438 142.455467 
L 312.971438 142.034329 
L 316.319438 141.602757 
L 319.667438 141.161172 
L 323.015438 140.710031 
L 326.363438 140.249827 
L 329.711438 139.78108 
L 333.059438 139.30433 
L 336.407438 138.820138 
L 339.755438 138.329074 
L 343.103438 137.831718 
L 346.451438 137.328651 
L 349.799438 136.820457 
L 353.147438 136.307714 
L 356.495438 135.790995 
L 359.843438 135.270861 
L 363.191438 134.747863 
L 366.539438 134.22254 
L 369.887438 133.695414 
L 373.235438 133.166991 
L 376.583438 132.637762 
L 379.931438 132.108202 
L 383.279438 131.578767 
L 386.627438 131.0499 
L 389.975438 130.522029 
" clip-path="url(#p0ebf16d211)" style="fill: none; stroke: #808080; stroke-width: 1.5; stroke-linecap: square"/>
   </g>
   <g id="line2d_20">
    <path d="M 58.523438 156.022975 
L 61.871438 160.603143 
L 65.219438 164.543375 
L 68.567438 167.894782 
L 71.915438 170.709137 
L 75.263438 173.037597 
L 78.611438 174.929754 
L 81.959438 176.432944 
L 85.307438 177.591774 
L 88.655438 178.447809 
L 92.003438 179.039405 
L 95.351438 179.401642 
L 98.699438 179.56634 
L 102.047438 179.562155 
L 105.395438 179.414715 
L 108.743438 179.146803 
L 112.091438 178.778561 
L 115.439438 178.327721 
L 118.787438 177.809827 
L 122.135438 177.238474 
L 125.483438 176.625524 
L 128.831438 175.981322 
L 132.179438 175.31489 
L 135.527438 174.634103 
L 138.875438 173.945847 
L 142.223438 173.256157 
L 145.571438 172.570334 
L 148.919438 171.893046 
L 152.267438 171.22841 
L 155.615438 170.580058 
L 158.963438 169.951194 
L 162.311438 169.344635 
L 165.659438 168.762847 
L 169.007438 168.20797 
L 172.355438 167.681837 
L 175.703438 167.185997 
L 179.051438 166.721724 
L 182.399438 166.290029 
L 185.747438 165.891676 
L 189.095438 165.527189 
L 192.443438 165.196866 
L 195.791438 164.900789 
L 199.139438 164.638843 
L 202.487438 164.410723 
L 205.835438 164.215953 
L 209.183438 164.053902 
L 212.531438 163.923799 
L 215.879438 163.824753 
L 219.227438 163.755765 
L 222.575438 163.71575 
L 225.923438 163.70355 
L 229.271438 163.717953 
L 232.619438 163.757706 
L 235.967438 163.82153 
L 239.315438 163.908133 
L 242.663438 164.016221 
L 246.011438 164.14451 
L 249.359438 164.291732 
L 252.707438 164.456645 
L 256.055438 164.638039 
L 259.403438 164.834739 
L 262.751438 165.04561 
L 266.099438 165.269557 
L 269.447438 165.50553 
L 272.795438 165.752521 
L 276.143438 166.009564 
L 279.491438 166.275737 
L 282.839438 166.550154 
L 286.187438 166.831972 
L 289.535438 167.120381 
L 292.883438 167.414604 
L 296.231438 167.713898 
L 299.579438 168.017546 
L 302.927438 168.324856 
L 306.275438 168.635164 
L 309.623438 168.947823 
L 312.971438 169.262208 
L 316.319438 169.57771 
L 319.667438 169.893736 
L 323.015438 170.209707 
L 326.363438 170.525057 
L 329.711438 170.839229 
L 333.059438 171.151679 
L 336.407438 171.461868 
L 339.755438 171.76927 
L 343.103438 172.07336 
L 346.451438 172.373626 
L 349.799438 172.669556 
L 353.147438 172.960647 
L 356.495438 173.246399 
L 359.843438 173.526318 
L 363.191438 173.799914 
L 366.539438 174.0667 
L 369.887438 174.326195 
L 373.235438 174.57792 
L 376.583438 174.821403 
L 379.931438 175.056172 
L 383.279438 175.281766 
L 386.627438 175.497723 
L 389.975438 175.70359 
" clip-path="url(#p0ebf16d211)" style="fill: none; stroke: #808080; stroke-width: 1.5; stroke-linecap: square"/>
   </g>
   <g id="line2d_21">
    <path d="M 58.523438 156.022975 
L 61.871438 161.475338 
L 65.219438 166.132983 
L 68.567438 170.066843 
L 71.915438 173.34222 
L 75.263438 176.019593 
L 78.611438 178.155076 
L 81.959438 179.800725 
L 85.307438 181.004802 
L 88.655438 181.812025 
L 92.003438 182.263817 
L 95.351438 182.398562 
L 98.699438 182.25185 
L 102.047438 181.856704 
L 105.395438 181.2438 
L 108.743438 180.44165 
L 112.091438 179.47677 
L 115.439438 178.373817 
L 118.787438 177.155702 
L 122.135438 175.843682 
L 125.483438 174.45744 
L 128.831438 173.015138 
L 132.179438 171.533473 
L 135.527438 170.027718 
L 138.875438 168.511761 
L 142.223438 166.998139 
L 145.571438 165.498084 
L 148.919438 164.021551 
L 152.267438 162.577269 
L 155.615438 161.172779 
L 158.963438 159.814489 
L 162.311438 158.507721 
L 165.659438 157.256769 
L 169.007438 156.06496 
L 172.355438 154.93471 
L 175.703438 153.867598 
L 179.051438 152.864425 
L 182.399438 151.925287 
L 185.747438 151.049645 
L 189.095438 150.236392 
L 192.443438 149.483927 
L 195.791438 148.790226 
L 199.139438 148.152908 
L 202.487438 147.569302 
L 205.835438 147.036517 
L 209.183438 146.551499 
L 212.531438 146.11109 
L 215.879438 145.712085 
L 219.227438 145.35128 
L 222.575438 145.02552 
L 225.923438 144.731736 
L 229.271438 144.466983 
L 232.619438 144.228466 
L 235.967438 144.01357 
L 239.315438 143.819878 
L 242.663438 143.645183 
L 246.011438 143.487502 
L 249.359438 143.345081 
L 252.707438 143.216396 
L 256.055438 143.100156 
L 259.403438 142.995294 
L 262.751438 142.900963 
L 266.099438 142.816528 
L 269.447438 142.741553 
L 272.795438 142.675793 
L 276.143438 142.619174 
L 279.491438 142.571787 
L 282.839438 142.533868 
L 286.187438 142.505784 
L 289.535438 142.488019 
L 292.883438 142.481157 
L 296.231438 142.485867 
L 299.579438 142.502887 
L 302.927438 142.53301 
L 306.275438 142.577066 
L 309.623438 142.635911 
L 312.971438 142.710409 
L 316.319438 142.801417 
L 319.667438 142.909772 
L 323.015438 143.036279 
L 326.363438 143.181692 
L 329.711438 143.346706 
L 333.059438 143.531942 
L 336.407438 143.737934 
L 339.755438 143.96512 
L 343.103438 144.213828 
L 346.451438 144.484272 
L 349.799438 144.776536 
L 353.147438 145.09057 
L 356.495438 145.426186 
L 359.843438 145.78305 
L 363.191438 146.160676 
L 366.539438 146.55843 
L 369.887438 146.975526 
L 373.235438 147.411027 
L 376.583438 147.863846 
L 379.931438 148.332757 
L 383.279438 148.816393 
L 386.627438 149.313257 
L 389.975438 149.821733 
" clip-path="url(#p0ebf16d211)" style="fill: none; stroke: #2ca02c; stroke-width: 1.5; stroke-linecap: square"/>
   </g>
   <g id="line2d_22">
    <path d="M 58.523438 156.022975 
L 61.871438 156.022975 
L 65.219438 156.302053 
L 68.567438 156.783271 
L 71.915438 157.40185 
L 75.263438 158.104519 
L 78.611438 158.848609 
L 81.959438 159.600961 
L 85.307438 160.336726 
L 88.655438 161.038132 
L 92.003438 161.693271 
L 95.351438 162.294962 
L 98.699438 162.839709 
L 102.047438 163.326786 
L 105.395438 163.757449 
L 108.743438 164.13427 
L 112.091438 164.460607 
L 115.439438 164.740177 
L 118.787438 164.97673 
L 122.135438 165.173823 
L 125.483438 165.334653 
L 128.831438 165.461972 
L 132.179438 165.558035 
L 135.527438 165.624599 
L 138.875438 165.662954 
L 142.223438 165.673962 
L 145.571438 165.658132 
L 148.919438 165.615684 
L 152.267438 165.546628 
L 155.615438 165.450841 
L 158.963438 165.32814 
L 162.311438 165.178348 
L 165.659438 165.001354 
L 169.007438 164.797166 
L 172.355438 164.565952 
L 175.703438 164.308074 
L 179.051438 164.024109 
L 182.399438 163.714865 
L 185.747438 163.381387 
L 189.095438 163.024953 
L 192.443438 162.647064 
L 195.791438 162.249429 
L 199.139438 161.833949 
L 202.487438 161.402684 
L 205.835438 160.957834 
L 209.183438 160.501703 
L 212.531438 160.036674 
L 215.879438 159.565176 
L 219.227438 159.089654 
L 222.575438 158.612541 
L 225.923438 158.136228 
L 229.271438 157.663046 
L 232.619438 157.195234 
L 235.967438 156.734925 
L 239.315438 156.284129 
L 242.663438 155.844713 
L 246.011438 155.418395 
L 249.359438 155.006733 
L 252.707438 154.611118 
L 256.055438 154.23277 
L 259.403438 153.872737 
L 262.751438 153.531897 
L 266.099438 153.210959 
L 269.447438 152.910467 
L 272.795438 152.63081 
L 276.143438 152.372223 
L 279.491438 152.134799 
L 282.839438 151.918501 
L 286.187438 151.723166 
L 289.535438 151.54852 
L 292.883438 151.394187 
L 296.231438 151.2597 
L 299.579438 151.144515 
L 302.927438 151.048016 
L 306.275438 150.969531 
L 309.623438 150.908339 
L 312.971438 150.863683 
L 316.319438 150.834774 
L 319.667438 150.820806 
L 323.015438 150.820958 
L 326.363438 150.834408 
L 329.711438 150.860331 
L 333.059438 150.897914 
L 336.407438 150.946355 
L 339.755438 151.00487 
L 343.103438 151.072697 
L 346.451438 151.149099 
L 349.799438 151.233366 
L 353.147438 151.324818 
L 356.495438 151.422807 
L 359.843438 151.526715 
L 363.191438 151.635961 
L 366.539438 151.749993 
L 369.887438 151.868294 
L 373.235438 151.99038 
L 376.583438 152.115798 
L 379.931438 152.244126 
L 383.279438 152.374972 
L 386.627438 152.507972 
L 389.975438 152.64279 
" clip-path="url(#p0ebf16d211)" style="fill: none; stroke: #adff2f; stroke-width: 1.5; stroke-linecap: square"/>
   </g>
   <g id="patch_3">
    <path d="M 58.523438 266.902975 
L 58.523438 45.142975 
" style="fill: none; stroke: #000000; stroke-width: 0.8; stroke-linejoin: miter; stroke-linecap: square"/>
   </g>
   <g id="patch_4">
    <path d="M 393.323438 266.902975 
L 393.323438 45.142975 
" style="fill: none; stroke: #000000; stroke-width: 0.8; stroke-linejoin: miter; stroke-linecap: square"/>
   </g>
   <g id="patch_5">
    <path d="M 58.523438 266.902975 
L 393.323438 266.902975 
" style="fill: none; stroke: #000000; stroke-width: 0.8; stroke-linejoin: miter; stroke-linecap: square"/>
   </g>
   <g id="patch_6">
    <path d="M 58.523438 45.142975 
L 393.323438 45.142975 
" style="fill: none; stroke: #000000; stroke-width: 0.8; stroke-linejoin: miter; stroke-linecap: square"/>
   </g>
   <g id="patch_7">
    <path d="M 225.923438 27.455136 
Q 225.923437 29.754445 225.923437 32.053754 
" style="fill: none; stroke: #000000; stroke-width: 2; stroke-linecap: round"/>
    <path d="M 225.923437 39.053754 
L 225.923437 32.053754 
L 225.923437 32.053754 
L 225.923437 39.053754 
" style="fill: none; stroke: #000000; stroke-width: 2; stroke-linecap: round"/>
   </g>
   <g id="text_18">
    <g id="patch_8">
     <path d="M 209.473438 24.949375 
L 242.373438 24.949375 
L 242.373438 3 
L 209.473438 3 
z
" style="fill: #ffffff; stroke: #ffffff; stroke-linejoin: miter"/>
    </g>
    <!-- $D$:0 -->
    <g transform="translate(213.673438 17.837812) scale(0.14 -0.14)">
     <defs>
      <path id="DejaVuSans-Oblique-44" d="M 1081 4666 
L 2438 4666 
Q 3519 4666 4070 4208 
Q 4622 3750 4622 2847 
Q 4622 2250 4412 1698 
Q 4203 1147 3834 769 
Q 3463 381 2891 190 
Q 2319 0 1538 0 
L 172 0 
L 1081 4666 
z
M 1613 4147 
L 909 519 
L 1734 519 
Q 2794 519 3375 1128 
Q 3956 1738 3956 2847 
Q 3956 3519 3581 3833 
Q 3206 4147 2406 4147 
L 1613 4147 
z
" transform="scale(0.015625)"/>
      <path id="DejaVuSans-3a" d="M 750 794 
L 1409 794 
L 1409 0 
L 750 0 
L 750 794 
z
M 750 3309 
L 1409 3309 
L 1409 2516 
L 750 2516 
L 750 3309 
z
" transform="scale(0.015625)"/>
     </defs>
     <use xlink:href="#DejaVuSans-Oblique-44" transform="translate(0 0.78125)"/>
     <use xlink:href="#DejaVuSans-3a" transform="translate(77.001953 0.78125)"/>
     <use xlink:href="#DejaVuSans-30" transform="translate(110.693359 0.78125)"/>
    </g>
   </g>
  </g>
 </g>
 <defs>
  <clipPath id="p0ebf16d211">
   <rect x="58.523438" y="45.142975" width="334.8" height="221.76"/>
  </clipPath>
 </defs>
 <defs>
  <pattern id="h32833d4a96" patternUnits="userSpaceOnUse" x="0" y="0" width="72" height="72">
   <rect x="0" y="0" width="73" height="73" fill="none"/>
   <path d="M -36 36 
L 36 -36 
M -24 48 
L 48 -24 
M -12 60 
L 60 -12 
M 0 72 
L 72 0 
M 12 84 
L 84 12 
M 24 96 
L 96 24 
M 36 108 
L 108 36 
" style="fill: #adff2f; stroke: #adff2f; stroke-width: 8.0; stroke-linecap: butt; stroke-linejoin: miter; stroke-opacity: 0.5"/>
  </pattern>
 </defs>
</svg>
