<?xml version="1.0" encoding="utf-8" standalone="no"?>
<!DOCTYPE svg PUBLIC "-//W3C//DTD SVG 1.1//EN"
  "http://www.w3.org/Graphics/SVG/1.1/DTD/svg11.dtd">
<svg xmlns:xlink="http://www.w3.org/1999/xlink" width="410.067187pt" height="304.459225pt" viewBox="0 0 410.067187 304.459225" xmlns="http://www.w3.org/2000/svg" version="1.1">
 <metadata>
  <rdf:RDF xmlns:dc="http://purl.org/dc/elements/1.1/" xmlns:cc="http://creativecommons.org/ns#" xmlns:rdf="http://www.w3.org/1999/02/22-rdf-syntax-ns#">
   <cc:Work>
    <dc:type rdf:resource="http://purl.org/dc/dcmitype/StillImage"/>
    <dc:date>2026-06-01T15:46:30.533663</dc:date>
    <dc:format>image/svg+xml</dc:format>
    <dc:creator>
     <cc:Agent>
      <dc:title>Matplotlib v3.10.8, https://matplotlib.org/</dc:title>
     </cc:Agent>
    </dc:creator>
   </cc:Work>
  </rdf:RDF>
 </metadata>
 <defs>
  <style type="text/css">*{stroke-linejoin: round; stroke-linecap: butt}</style>
 </defs>
 <g id="figure_1">
  <g id="patch_1">
   <path d="M 0 304.459225 
L 410.067187 304.459225 
L 410.067187 0 
L 0 0 
L 0 304.459225 
z
" style="fill: none"/>
  </g>
  <g id="axes_1">
   <g id="patch_2">
    <path d="M 58.523438 266.902975 
L 393.323438 266.902975 
L 393.323438 45.142975 
L 58.523438 45.142975 
L 58.523438 266.902975 
z
" style="fill: none"/>
   </g>
   <g id="FillBetweenPolyCollection_1">
    <defs>
     <path id="md366bb6739" d="M 225.923438 -259.31625 
L 225.923438 -37.55625 
L 229.271438 -37.55625 
L 232.619438 -37.55625 
L 235.967438 -37.55625 
L 239.315438 -37.55625 
L 242.663438 -37.55625 
L 246.011438 -37.55625 
L 249.359438 -37.55625 
L 252.707438 -37.55625 
L 256.055438 -37.55625 
L 259.403438 -37.55625 
L 262.751438 -37.55625 
L 266.099438 -37.55625 
L 269.447438 -37.55625 
L 272.795438 -37.55625 
L 276.143438 -37.55625 
L 279.491438 -37.55625 
L 282.839438 -37.55625 
L 286.187438 -37.55625 
L 289.535438 -37.55625 
L 292.883438 -37.55625 
L 296.231438 -37.55625 
L 299.579438 -37.55625 
L 302.927438 -37.55625 
L 306.275438 -37.55625 
L 309.623438 -37.55625 
L 312.971438 -37.55625 
L 316.319438 -37.55625 
L 319.667438 -37.55625 
L 323.015438 -37.55625 
L 326.363438 -37.55625 
L 329.711438 -37.55625 
L 333.059438 -37.55625 
L 336.407438 -37.55625 
L 339.755438 -37.55625 
L 343.103438 -37.55625 
L 346.451438 -37.55625 
L 349.799438 -37.55625 
L 353.147438 -37.55625 
L 356.495438 -37.55625 
L 359.843438 -37.55625 
L 363.191438 -37.55625 
L 366.539438 -37.55625 
L 369.887438 -37.55625 
L 373.235438 -37.55625 
L 376.583438 -37.55625 
L 379.931438 -37.55625 
L 383.279438 -37.55625 
L 386.627438 -37.55625 
L 389.975438 -37.55625 
L 389.975438 -259.31625 
L 389.975438 -259.31625 
L 386.627438 -259.31625 
L 383.279438 -259.31625 
L 379.931438 -259.31625 
L 376.583438 -259.31625 
L 373.235438 -259.31625 
L 369.887438 -259.31625 
L 366.539438 -259.31625 
L 363.191438 -259.31625 
L 359.843438 -259.31625 
L 356.495438 -259.31625 
L 353.147438 -259.31625 
L 349.799438 -259.31625 
L 346.451438 -259.31625 
L 343.103438 -259.31625 
L 339.755438 -259.31625 
L 336.407438 -259.31625 
L 333.059438 -259.31625 
L 329.711438 -259.31625 
L 326.363438 -259.31625 
L 323.015438 -259.31625 
L 319.667438 -259.31625 
L 316.319438 -259.31625 
L 312.971438 -259.31625 
L 309.623438 -259.31625 
L 306.275438 -259.31625 
L 302.927438 -259.31625 
L 299.579438 -259.31625 
L 296.231438 -259.31625 
L 292.883438 -259.31625 
L 289.535438 -259.31625 
L 286.187438 -259.31625 
L 282.839438 -259.31625 
L 279.491438 -259.31625 
L 276.143438 -259.31625 
L 272.795438 -259.31625 
L 269.447438 -259.31625 
L 266.099438 -259.31625 
L 262.751438 -259.31625 
L 259.403438 -259.31625 
L 256.055438 -259.31625 
L 252.707438 -259.31625 
L 249.359438 -259.31625 
L 246.011438 -259.31625 
L 242.663438 -259.31625 
L 239.315438 -259.31625 
L 235.967438 -259.31625 
L 232.619438 -259.31625 
L 229.271438 -259.31625 
L 225.923438 -259.31625 
z
" style="stroke: #2ca02c; stroke-opacity: 0.3"/>
    </defs>
    <g clip-path="url(#p5aed3b4a9a)">
     <use xlink:href="#md366bb6739" x="0" y="304.459225" style="fill: #2ca02c; fill-opacity: 0.3; stroke: #2ca02c; stroke-opacity: 0.3"/>
    </g>
   </g>
   <g id="FillBetweenPolyCollection_2">
    <path d="M 225.923438 45.142975 
L 225.923438 266.902975 
L 229.271438 266.902975 
L 232.619438 266.902975 
L 235.967438 266.902975 
L 239.315438 266.902975 
L 242.663438 266.902975 
L 246.011438 266.902975 
L 249.359438 266.902975 
L 252.707438 266.902975 
L 256.055438 266.902975 
L 259.403438 266.902975 
L 262.751438 266.902975 
L 266.099438 266.902975 
L 269.447438 266.902975 
L 272.795438 266.902975 
L 276.143438 266.902975 
L 279.491438 266.902975 
L 282.839438 266.902975 
L 286.187438 266.902975 
L 289.535438 266.902975 
L 292.883438 266.902975 
L 296.231438 266.902975 
L 299.579438 266.902975 
L 302.927438 266.902975 
L 306.275438 266.902975 
L 309.623438 266.902975 
L 312.971438 266.902975 
L 316.319438 266.902975 
L 319.667438 266.902975 
L 323.015438 266.902975 
L 326.363438 266.902975 
L 329.711438 266.902975 
L 333.059438 266.902975 
L 336.407438 266.902975 
L 339.755438 266.902975 
L 343.103438 266.902975 
L 346.451438 266.902975 
L 349.799438 266.902975 
L 353.147438 266.902975 
L 356.495438 266.902975 
L 359.843438 266.902975 
L 363.191438 266.902975 
L 366.539438 266.902975 
L 369.887438 266.902975 
L 373.235438 266.902975 
L 376.583438 266.902975 
L 379.931438 266.902975 
L 383.279438 266.902975 
L 386.627438 266.902975 
L 389.975438 266.902975 
L 389.975438 45.142975 
L 389.975438 45.142975 
L 386.627438 45.142975 
L 383.279438 45.142975 
L 379.931438 45.142975 
L 376.583438 45.142975 
L 373.235438 45.142975 
L 369.887438 45.142975 
L 366.539438 45.142975 
L 363.191438 45.142975 
L 359.843438 45.142975 
L 356.495438 45.142975 
L 353.147438 45.142975 
L 349.799438 45.142975 
L 346.451438 45.142975 
L 343.103438 45.142975 
L 339.755438 45.142975 
L 336.407438 45.142975 
L 333.059438 45.142975 
L 329.711438 45.142975 
L 326.363438 45.142975 
L 323.015438 45.142975 
L 319.667438 45.142975 
L 316.319438 45.142975 
L 312.971438 45.142975 
L 309.623438 45.142975 
L 306.275438 45.142975 
L 302.927438 45.142975 
L 299.579438 45.142975 
L 296.231438 45.142975 
L 292.883438 45.142975 
L 289.535438 45.142975 
L 286.187438 45.142975 
L 282.839438 45.142975 
L 279.491438 45.142975 
L 276.143438 45.142975 
L 272.795438 45.142975 
L 269.447438 45.142975 
L 266.099438 45.142975 
L 262.751438 45.142975 
L 259.403438 45.142975 
L 256.055438 45.142975 
L 252.707438 45.142975 
L 249.359438 45.142975 
L 246.011438 45.142975 
L 242.663438 45.142975 
L 239.315438 45.142975 
L 235.967438 45.142975 
L 232.619438 45.142975 
L 229.271438 45.142975 
L 225.923438 45.142975 
z
" clip-path="url(#p5aed3b4a9a)" style="fill: url(#h66e71df4d6); stroke: #adff2f; stroke-opacity: 0.5"/>
   </g>
   <g id="FillBetweenPolyCollection_3"/>
   <g id="matplotlib.axis_1">
    <g id="xtick_1">
     <g id="line2d_1">
      <defs>
       <path id="m072b079b04" d="M 0 0 
L 0 3.5 
" style="stroke: #000000; stroke-width: 0.8"/>
      </defs>
      <g>
       <use xlink:href="#m072b079b04" x="58.523438" y="266.902975" style="stroke: #000000; stroke-width: 0.8"/>
      </g>
     </g>
     <g id="text_1">
      <!-- 0 -->
      <g transform="translate(55.342188 281.501412) scale(0.1 -0.1)">
       <defs>
        <path id="DejaVuSans-30" d="M 2034 4250 
Q 1547 4250 1301 3770 
Q 1056 3291 1056 2328 
Q 1056 1369 1301 889 
Q 1547 409 2034 409 
Q 2525 409 2770 889 
Q 3016 1369 3016 2328 
Q 3016 3291 2770 3770 
Q 2525 4250 2034 4250 
z
M 2034 4750 
Q 2819 4750 3233 4129 
Q 3647 3509 3647 2328 
Q 3647 1150 3233 529 
Q 2819 -91 2034 -91 
Q 1250 -91 836 529 
Q 422 1150 422 2328 
Q 422 3509 836 4129 
Q 1250 4750 2034 4750 
z
" transform="scale(0.015625)"/>
       </defs>
       <use xlink:href="#DejaVuSans-30"/>
      </g>
     </g>
    </g>
    <g id="xtick_2">
     <g id="line2d_2">
      <g>
       <use xlink:href="#m072b079b04" x="125.483438" y="266.902975" style="stroke: #000000; stroke-width: 0.8"/>
      </g>
     </g>
     <g id="text_2">
      <!-- 20 -->
      <g transform="translate(119.120938 281.501412) scale(0.1 -0.1)">
       <defs>
        <path id="DejaVuSans-32" d="M 1228 531 
L 3431 531 
L 3431 0 
L 469 0 
L 469 531 
Q 828 903 1448 1529 
Q 2069 2156 2228 2338 
Q 2531 2678 2651 2914 
Q 2772 3150 2772 3378 
Q 2772 3750 2511 3984 
Q 2250 4219 1831 4219 
Q 1534 4219 1204 4116 
Q 875 4013 500 3803 
L 500 4441 
Q 881 4594 1212 4672 
Q 1544 4750 1819 4750 
Q 2544 4750 2975 4387 
Q 3406 4025 3406 3419 
Q 3406 3131 3298 2873 
Q 3191 2616 2906 2266 
Q 2828 2175 2409 1742 
Q 1991 1309 1228 531 
z
" transform="scale(0.015625)"/>
       </defs>
       <use xlink:href="#DejaVuSans-32"/>
       <use xlink:href="#DejaVuSans-30" transform="translate(63.623047 0)"/>
      </g>
     </g>
    </g>
    <g id="xtick_3">
     <g id="line2d_3">
      <g>
       <use xlink:href="#m072b079b04" x="192.443438" y="266.902975" style="stroke: #000000; stroke-width: 0.8"/>
      </g>
     </g>
     <g id="text_3">
      <!-- 40 -->
      <g transform="translate(186.080938 281.501412) scale(0.1 -0.1)">
       <defs>
        <path id="DejaVuSans-34" d="M 2419 4116 
L 825 1625 
L 2419 1625 
L 2419 4116 
z
M 2253 4666 
L 3047 4666 
L 3047 1625 
L 3713 1625 
L 3713 1100 
L 3047 1100 
L 3047 0 
L 2419 0 
L 2419 1100 
L 313 1100 
L 313 1709 
L 2253 4666 
z
" transform="scale(0.015625)"/>
       </defs>
       <use xlink:href="#DejaVuSans-34"/>
       <use xlink:href="#DejaVuSans-30" transform="translate(63.623047 0)"/>
      </g>
     </g>
    </g>
    <g id="xtick_4">
     <g id="line2d_4">
      <g>
       <use xlink:href="#m072b079b04" x="259.403438" y="266.902975" style="stroke: #000000; stroke-width: 0.8"/>
      </g>
     </g>
     <g id="text_4">
      <!-- 60 -->
      <g transform="translate(253.040938 281.501412) scale(0.1 -0.1)">
       <defs>
        <path id="DejaVuSans-36" d="M 2113 2584 
Q 1688 2584 1439 2293 
Q 1191 2003 1191 1497 
Q 1191 994 1439 701 
Q 1688 409 2113 409 
Q 2538 409 2786 701 
Q 3034 994 3034 1497 
Q 3034 2003 2786 2293 
Q 2538 2584 2113 2584 
z
M 3366 4563 
L 3366 3988 
Q 3128 4100 2886 4159 
Q 2644 4219 2406 4219 
Q 1781 4219 1451 3797 
Q 1122 3375 1075 2522 
Q 1259 2794 1537 2939 
Q 1816 3084 2150 3084 
Q 2853 3084 3261 2657 
Q 3669 2231 3669 1497 
Q 3669 778 3244 343 
Q 2819 -91 2113 -91 
Q 1303 -91 875 529 
Q 447 1150 447 2328 
Q 447 3434 972 4092 
Q 1497 4750 2381 4750 
Q 2619 4750 2861 4703 
Q 3103 4656 3366 4563 
z
" transform="scale(0.015625)"/>
       </defs>
       <use xlink:href="#DejaVuSans-36"/>
       <use xlink:href="#DejaVuSans-30" transform="translate(63.623047 0)"/>
      </g>
     </g>
    </g>
    <g id="xtick_5">
     <g id="line2d_5">
      <g>
       <use xlink:href="#m072b079b04" x="326.363438" y="266.902975" style="stroke: #000000; stroke-width: 0.8"/>
      </g>
     </g>
     <g id="text_5">
      <!-- 80 -->
      <g transform="translate(320.000938 281.501412) scale(0.1 -0.1)">
       <defs>
        <path id="DejaVuSans-38" d="M 2034 2216 
Q 1584 2216 1326 1975 
Q 1069 1734 1069 1313 
Q 1069 891 1326 650 
Q 1584 409 2034 409 
Q 2484 409 2743 651 
Q 3003 894 3003 1313 
Q 3003 1734 2745 1975 
Q 2488 2216 2034 2216 
z
M 1403 2484 
Q 997 2584 770 2862 
Q 544 3141 544 3541 
Q 544 4100 942 4425 
Q 1341 4750 2034 4750 
Q 2731 4750 3128 4425 
Q 3525 4100 3525 3541 
Q 3525 3141 3298 2862 
Q 3072 2584 2669 2484 
Q 3125 2378 3379 2068 
Q 3634 1759 3634 1313 
Q 3634 634 3220 271 
Q 2806 -91 2034 -91 
Q 1263 -91 848 271 
Q 434 634 434 1313 
Q 434 1759 690 2068 
Q 947 2378 1403 2484 
z
M 1172 3481 
Q 1172 3119 1398 2916 
Q 1625 2713 2034 2713 
Q 2441 2713 2670 2916 
Q 2900 3119 2900 3481 
Q 2900 3844 2670 4047 
Q 2441 4250 2034 4250 
Q 1625 4250 1398 4047 
Q 1172 3844 1172 3481 
z
" transform="scale(0.015625)"/>
       </defs>
       <use xlink:href="#DejaVuSans-38"/>
       <use xlink:href="#DejaVuSans-30" transform="translate(63.623047 0)"/>
      </g>
     </g>
    </g>
    <g id="xtick_6">
     <g id="line2d_6">
      <g>
       <use xlink:href="#m072b079b04" x="393.323438" y="266.902975" style="stroke: #000000; stroke-width: 0.8"/>
      </g>
     </g>
     <g id="text_6">
      <!-- 100 -->
      <g transform="translate(383.779688 281.501412) scale(0.1 -0.1)">
       <defs>
        <path id="DejaVuSans-31" d="M 794 531 
L 1825 531 
L 1825 4091 
L 703 3866 
L 703 4441 
L 1819 4666 
L 2450 4666 
L 2450 531 
L 3481 531 
L 3481 0 
L 794 0 
L 794 531 
z
" transform="scale(0.015625)"/>
       </defs>
       <use xlink:href="#DejaVuSans-31"/>
       <use xlink:href="#DejaVuSans-30" transform="translate(63.623047 0)"/>
       <use xlink:href="#DejaVuSans-30" transform="translate(127.246094 0)"/>
      </g>
     </g>
    </g>
    <g id="text_7">
     <!-- time steps -->
     <g transform="translate(199.617969 295.179537) scale(0.1 -0.1)">
      <defs>
       <path id="DejaVuSans-74" d="M 1172 4494 
L 1172 3500 
L 2356 3500 
L 2356 3053 
L 1172 3053 
L 1172 1153 
Q 1172 725 1289 603 
Q 1406 481 1766 481 
L 2356 481 
L 2356 0 
L 1766 0 
Q 1100 0 847 248 
Q 594 497 594 1153 
L 594 3053 
L 172 3053 
L 172 3500 
L 594 3500 
L 594 4494 
L 1172 4494 
z
" transform="scale(0.015625)"/>
       <path id="DejaVuSans-69" d="M 603 3500 
L 1178 3500 
L 1178 0 
L 603 0 
L 603 3500 
z
M 603 4863 
L 1178 4863 
L 1178 4134 
L 603 4134 
L 603 4863 
z
" transform="scale(0.015625)"/>
       <path id="DejaVuSans-6d" d="M 3328 2828 
Q 3544 3216 3844 3400 
Q 4144 3584 4550 3584 
Q 5097 3584 5394 3201 
Q 5691 2819 5691 2113 
L 5691 0 
L 5113 0 
L 5113 2094 
Q 5113 2597 4934 2840 
Q 4756 3084 4391 3084 
Q 3944 3084 3684 2787 
Q 3425 2491 3425 1978 
L 3425 0 
L 2847 0 
L 2847 2094 
Q 2847 2600 2669 2842 
Q 2491 3084 2119 3084 
Q 1678 3084 1418 2786 
Q 1159 2488 1159 1978 
L 1159 0 
L 581 0 
L 581 3500 
L 1159 3500 
L 1159 2956 
Q 1356 3278 1631 3431 
Q 1906 3584 2284 3584 
Q 2666 3584 2933 3390 
Q 3200 3197 3328 2828 
z
" transform="scale(0.015625)"/>
       <path id="DejaVuSans-65" d="M 3597 1894 
L 3597 1613 
L 953 1613 
Q 991 1019 1311 708 
Q 1631 397 2203 397 
Q 2534 397 2845 478 
Q 3156 559 3463 722 
L 3463 178 
Q 3153 47 2828 -22 
Q 2503 -91 2169 -91 
Q 1331 -91 842 396 
Q 353 884 353 1716 
Q 353 2575 817 3079 
Q 1281 3584 2069 3584 
Q 2775 3584 3186 3129 
Q 3597 2675 3597 1894 
z
M 3022 2063 
Q 3016 2534 2758 2815 
Q 2500 3097 2075 3097 
Q 1594 3097 1305 2825 
Q 1016 2553 972 2059 
L 3022 2063 
z
" transform="scale(0.015625)"/>
       <path id="DejaVuSans-20" transform="scale(0.015625)"/>
       <path id="DejaVuSans-73" d="M 2834 3397 
L 2834 2853 
Q 2591 2978 2328 3040 
Q 2066 3103 1784 3103 
Q 1356 3103 1142 2972 
Q 928 2841 928 2578 
Q 928 2378 1081 2264 
Q 1234 2150 1697 2047 
L 1894 2003 
Q 2506 1872 2764 1633 
Q 3022 1394 3022 966 
Q 3022 478 2636 193 
Q 2250 -91 1575 -91 
Q 1294 -91 989 -36 
Q 684 19 347 128 
L 347 722 
Q 666 556 975 473 
Q 1284 391 1588 391 
Q 1994 391 2212 530 
Q 2431 669 2431 922 
Q 2431 1156 2273 1281 
Q 2116 1406 1581 1522 
L 1381 1569 
Q 847 1681 609 1914 
Q 372 2147 372 2553 
Q 372 3047 722 3315 
Q 1072 3584 1716 3584 
Q 2034 3584 2315 3537 
Q 2597 3491 2834 3397 
z
" transform="scale(0.015625)"/>
       <path id="DejaVuSans-70" d="M 1159 525 
L 1159 -1331 
L 581 -1331 
L 581 3500 
L 1159 3500 
L 1159 2969 
Q 1341 3281 1617 3432 
Q 1894 3584 2278 3584 
Q 2916 3584 3314 3078 
Q 3713 2572 3713 1747 
Q 3713 922 3314 415 
Q 2916 -91 2278 -91 
Q 1894 -91 1617 61 
Q 1341 213 1159 525 
z
M 3116 1747 
Q 3116 2381 2855 2742 
Q 2594 3103 2138 3103 
Q 1681 3103 1420 2742 
Q 1159 2381 1159 1747 
Q 1159 1113 1420 752 
Q 1681 391 2138 391 
Q 2594 391 2855 752 
Q 3116 1113 3116 1747 
z
" transform="scale(0.015625)"/>
      </defs>
      <use xlink:href="#DejaVuSans-74"/>
      <use xlink:href="#DejaVuSans-69" transform="translate(39.208984 0)"/>
      <use xlink:href="#DejaVuSans-6d" transform="translate(66.992188 0)"/>
      <use xlink:href="#DejaVuSans-65" transform="translate(164.404297 0)"/>
      <use xlink:href="#DejaVuSans-20" transform="translate(225.927734 0)"/>
      <use xlink:href="#DejaVuSans-73" transform="translate(257.714844 0)"/>
      <use xlink:href="#DejaVuSans-74" transform="translate(309.814453 0)"/>
      <use xlink:href="#DejaVuSans-65" transform="translate(349.023438 0)"/>
      <use xlink:href="#DejaVuSans-70" transform="translate(410.546875 0)"/>
      <use xlink:href="#DejaVuSans-73" transform="translate(474.023438 0)"/>
     </g>
    </g>
   </g>
   <g id="matplotlib.axis_2">
    <g id="ytick_1">
     <g id="line2d_7">
      <defs>
       <path id="m345ef31c93" d="M 0 0 
L -3.5 0 
" style="stroke: #000000; stroke-width: 0.8"/>
      </defs>
      <g>
       <use xlink:href="#m345ef31c93" x="58.523438" y="266.902975" style="stroke: #000000; stroke-width: 0.8"/>
      </g>
     </g>
     <g id="text_8">
      <!-- −1.00 -->
      <g transform="translate(20.878125 270.702194) scale(0.1 -0.1)">
       <defs>
        <path id="DejaVuSans-2212" d="M 678 2272 
L 4684 2272 
L 4684 1741 
L 678 1741 
L 678 2272 
z
" transform="scale(0.015625)"/>
        <path id="DejaVuSans-2e" d="M 684 794 
L 1344 794 
L 1344 0 
L 684 0 
L 684 794 
z
" transform="scale(0.015625)"/>
       </defs>
       <use xlink:href="#DejaVuSans-2212"/>
       <use xlink:href="#DejaVuSans-31" transform="translate(83.789062 0)"/>
       <use xlink:href="#DejaVuSans-2e" transform="translate(147.412109 0)"/>
       <use xlink:href="#DejaVuSans-30" transform="translate(179.199219 0)"/>
       <use xlink:href="#DejaVuSans-30" transform="translate(242.822266 0)"/>
      </g>
     </g>
    </g>
    <g id="ytick_2">
     <g id="line2d_8">
      <g>
       <use xlink:href="#m345ef31c93" x="58.523438" y="239.182975" style="stroke: #000000; stroke-width: 0.8"/>
      </g>
     </g>
     <g id="text_9">
      <!-- −0.75 -->
      <g transform="translate(20.878125 242.982194) scale(0.1 -0.1)">
       <defs>
        <path id="DejaVuSans-37" d="M 525 4666 
L 3525 4666 
L 3525 4397 
L 1831 0 
L 1172 0 
L 2766 4134 
L 525 4134 
L 525 4666 
z
" transform="scale(0.015625)"/>
        <path id="DejaVuSans-35" d="M 691 4666 
L 3169 4666 
L 3169 4134 
L 1269 4134 
L 1269 2991 
Q 1406 3038 1543 3061 
Q 1681 3084 1819 3084 
Q 2600 3084 3056 2656 
Q 3513 2228 3513 1497 
Q 3513 744 3044 326 
Q 2575 -91 1722 -91 
Q 1428 -91 1123 -41 
Q 819 9 494 109 
L 494 744 
Q 775 591 1075 516 
Q 1375 441 1709 441 
Q 2250 441 2565 725 
Q 2881 1009 2881 1497 
Q 2881 1984 2565 2268 
Q 2250 2553 1709 2553 
Q 1456 2553 1204 2497 
Q 953 2441 691 2322 
L 691 4666 
z
" transform="scale(0.015625)"/>
       </defs>
       <use xlink:href="#DejaVuSans-2212"/>
       <use xlink:href="#DejaVuSans-30" transform="translate(83.789062 0)"/>
       <use xlink:href="#DejaVuSans-2e" transform="translate(147.412109 0)"/>
       <use xlink:href="#DejaVuSans-37" transform="translate(179.199219 0)"/>
       <use xlink:href="#DejaVuSans-35" transform="translate(242.822266 0)"/>
      </g>
     </g>
    </g>
    <g id="ytick_3">
     <g id="line2d_9">
      <g>
       <use xlink:href="#m345ef31c93" x="58.523438" y="211.462975" style="stroke: #000000; stroke-width: 0.8"/>
      </g>
     </g>
     <g id="text_10">
      <!-- −0.50 -->
      <g transform="translate(20.878125 215.262194) scale(0.1 -0.1)">
       <use xlink:href="#DejaVuSans-2212"/>
       <use xlink:href="#DejaVuSans-30" transform="translate(83.789062 0)"/>
       <use xlink:href="#DejaVuSans-2e" transform="translate(147.412109 0)"/>
       <use xlink:href="#DejaVuSans-35" transform="translate(179.199219 0)"/>
       <use xlink:href="#DejaVuSans-30" transform="translate(242.822266 0)"/>
      </g>
     </g>
    </g>
    <g id="ytick_4">
     <g id="line2d_10">
      <g>
       <use xlink:href="#m345ef31c93" x="58.523438" y="183.742975" style="stroke: #000000; stroke-width: 0.8"/>
      </g>
     </g>
     <g id="text_11">
      <!-- −0.25 -->
      <g transform="translate(20.878125 187.542194) scale(0.1 -0.1)">
       <use xlink:href="#DejaVuSans-2212"/>
       <use xlink:href="#DejaVuSans-30" transform="translate(83.789062 0)"/>
       <use xlink:href="#DejaVuSans-2e" transform="translate(147.412109 0)"/>
       <use xlink:href="#DejaVuSans-32" transform="translate(179.199219 0)"/>
       <use xlink:href="#DejaVuSans-35" transform="translate(242.822266 0)"/>
      </g>
     </g>
    </g>
    <g id="ytick_5">
     <g id="line2d_11">
      <g>
       <use xlink:href="#m345ef31c93" x="58.523438" y="156.022975" style="stroke: #000000; stroke-width: 0.8"/>
      </g>
     </g>
     <g id="text_12">
      <!-- 0.00 -->
      <g transform="translate(29.257813 159.822194) scale(0.1 -0.1)">
       <use xlink:href="#DejaVuSans-30"/>
       <use xlink:href="#DejaVuSans-2e" transform="translate(63.623047 0)"/>
       <use xlink:href="#DejaVuSans-30" transform="translate(95.410156 0)"/>
       <use xlink:href="#DejaVuSans-30" transform="translate(159.033203 0)"/>
      </g>
     </g>
    </g>
    <g id="ytick_6">
     <g id="line2d_12">
      <g>
       <use xlink:href="#m345ef31c93" x="58.523438" y="128.302975" style="stroke: #000000; stroke-width: 0.8"/>
      </g>
     </g>
     <g id="text_13">
      <!-- 0.25 -->
      <g transform="translate(29.257813 132.102194) scale(0.1 -0.1)">
       <use xlink:href="#DejaVuSans-30"/>
       <use xlink:href="#DejaVuSans-2e" transform="translate(63.623047 0)"/>
       <use xlink:href="#DejaVuSans-32" transform="translate(95.410156 0)"/>
       <use xlink:href="#DejaVuSans-35" transform="translate(159.033203 0)"/>
      </g>
     </g>
    </g>
    <g id="ytick_7">
     <g id="line2d_13">
      <g>
       <use xlink:href="#m345ef31c93" x="58.523438" y="100.582975" style="stroke: #000000; stroke-width: 0.8"/>
      </g>
     </g>
     <g id="text_14">
      <!-- 0.50 -->
      <g transform="translate(29.257813 104.382194) scale(0.1 -0.1)">
       <use xlink:href="#DejaVuSans-30"/>
       <use xlink:href="#DejaVuSans-2e" transform="translate(63.623047 0)"/>
       <use xlink:href="#DejaVuSans-35" transform="translate(95.410156 0)"/>
       <use xlink:href="#DejaVuSans-30" transform="translate(159.033203 0)"/>
      </g>
     </g>
    </g>
    <g id="ytick_8">
     <g id="line2d_14">
      <g>
       <use xlink:href="#m345ef31c93" x="58.523438" y="72.862975" style="stroke: #000000; stroke-width: 0.8"/>
      </g>
     </g>
     <g id="text_15">
      <!-- 0.75 -->
      <g transform="translate(29.257813 76.662194) scale(0.1 -0.1)">
       <use xlink:href="#DejaVuSans-30"/>
       <use xlink:href="#DejaVuSans-2e" transform="translate(63.623047 0)"/>
       <use xlink:href="#DejaVuSans-37" transform="translate(95.410156 0)"/>
       <use xlink:href="#DejaVuSans-35" transform="translate(159.033203 0)"/>
      </g>
     </g>
    </g>
    <g id="ytick_9">
     <g id="line2d_15">
      <g>
       <use xlink:href="#m345ef31c93" x="58.523438" y="45.142975" style="stroke: #000000; stroke-width: 0.8"/>
      </g>
     </g>
     <g id="text_16">
      <!-- 1.00 -->
      <g transform="translate(29.257813 48.942194) scale(0.1 -0.1)">
       <use xlink:href="#DejaVuSans-31"/>
       <use xlink:href="#DejaVuSans-2e" transform="translate(63.623047 0)"/>
       <use xlink:href="#DejaVuSans-30" transform="translate(95.410156 0)"/>
       <use xlink:href="#DejaVuSans-30" transform="translate(159.033203 0)"/>
      </g>
     </g>
    </g>
    <g id="text_17">
     <!-- activation -->
     <g transform="translate(14.798438 180.786256) rotate(-90) scale(0.1 -0.1)">
      <defs>
       <path id="DejaVuSans-61" d="M 2194 1759 
Q 1497 1759 1228 1600 
Q 959 1441 959 1056 
Q 959 750 1161 570 
Q 1363 391 1709 391 
Q 2188 391 2477 730 
Q 2766 1069 2766 1631 
L 2766 1759 
L 2194 1759 
z
M 3341 1997 
L 3341 0 
L 2766 0 
L 2766 531 
Q 2569 213 2275 61 
Q 1981 -91 1556 -91 
Q 1019 -91 701 211 
Q 384 513 384 1019 
Q 384 1609 779 1909 
Q 1175 2209 1959 2209 
L 2766 2209 
L 2766 2266 
Q 2766 2663 2505 2880 
Q 2244 3097 1772 3097 
Q 1472 3097 1187 3025 
Q 903 2953 641 2809 
L 641 3341 
Q 956 3463 1253 3523 
Q 1550 3584 1831 3584 
Q 2591 3584 2966 3190 
Q 3341 2797 3341 1997 
z
" transform="scale(0.015625)"/>
       <path id="DejaVuSans-63" d="M 3122 3366 
L 3122 2828 
Q 2878 2963 2633 3030 
Q 2388 3097 2138 3097 
Q 1578 3097 1268 2742 
Q 959 2388 959 1747 
Q 959 1106 1268 751 
Q 1578 397 2138 397 
Q 2388 397 2633 464 
Q 2878 531 3122 666 
L 3122 134 
Q 2881 22 2623 -34 
Q 2366 -91 2075 -91 
Q 1284 -91 818 406 
Q 353 903 353 1747 
Q 353 2603 823 3093 
Q 1294 3584 2113 3584 
Q 2378 3584 2631 3529 
Q 2884 3475 3122 3366 
z
" transform="scale(0.015625)"/>
       <path id="DejaVuSans-76" d="M 191 3500 
L 800 3500 
L 1894 563 
L 2988 3500 
L 3597 3500 
L 2284 0 
L 1503 0 
L 191 3500 
z
" transform="scale(0.015625)"/>
       <path id="DejaVuSans-6f" d="M 1959 3097 
Q 1497 3097 1228 2736 
Q 959 2375 959 1747 
Q 959 1119 1226 758 
Q 1494 397 1959 397 
Q 2419 397 2687 759 
Q 2956 1122 2956 1747 
Q 2956 2369 2687 2733 
Q 2419 3097 1959 3097 
z
M 1959 3584 
Q 2709 3584 3137 3096 
Q 3566 2609 3566 1747 
Q 3566 888 3137 398 
Q 2709 -91 1959 -91 
Q 1206 -91 779 398 
Q 353 888 353 1747 
Q 353 2609 779 3096 
Q 1206 3584 1959 3584 
z
" transform="scale(0.015625)"/>
       <path id="DejaVuSans-6e" d="M 3513 2113 
L 3513 0 
L 2938 0 
L 2938 2094 
Q 2938 2591 2744 2837 
Q 2550 3084 2163 3084 
Q 1697 3084 1428 2787 
Q 1159 2491 1159 1978 
L 1159 0 
L 581 0 
L 581 3500 
L 1159 3500 
L 1159 2956 
Q 1366 3272 1645 3428 
Q 1925 3584 2291 3584 
Q 2894 3584 3203 3211 
Q 3513 2838 3513 2113 
z
" transform="scale(0.015625)"/>
      </defs>
      <use xlink:href="#DejaVuSans-61"/>
      <use xlink:href="#DejaVuSans-63" transform="translate(61.279297 0)"/>
      <use xlink:href="#DejaVuSans-74" transform="translate(116.259766 0)"/>
      <use xlink:href="#DejaVuSans-69" transform="translate(155.46875 0)"/>
      <use xlink:href="#DejaVuSans-76" transform="translate(183.251953 0)"/>
      <use xlink:href="#DejaVuSans-61" transform="translate(242.431641 0)"/>
      <use xlink:href="#DejaVuSans-74" transform="translate(303.710938 0)"/>
      <use xlink:href="#DejaVuSans-69" transform="translate(342.919922 0)"/>
      <use xlink:href="#DejaVuSans-6f" transform="translate(370.703125 0)"/>
      <use xlink:href="#DejaVuSans-6e" transform="translate(431.884766 0)"/>
     </g>
    </g>
   </g>
   <g id="line2d_16">
    <path d="M 58.523438 156.022975 
L 61.871438 157.783755 
L 65.219438 159.04205 
L 68.567438 159.891951 
L 71.915438 160.411266 
L 75.263438 160.663419 
L 78.611438 160.699521 
L 81.959438 160.560413 
L 85.307438 160.278556 
L 88.655438 159.879712 
L 92.003438 159.384367 
L 95.351438 158.808936 
L 98.699438 158.166723 
L 102.047438 157.468693 
L 105.395438 156.724061 
L 108.743438 155.940739 
L 112.091438 155.125651 
L 115.439438 154.284964 
L 118.787438 153.424227 
L 122.135438 152.548466 
L 125.483438 151.662229 
L 128.831438 150.769609 
L 132.179438 149.874241 
L 135.527438 148.979303 
L 138.875438 148.087502 
L 142.223438 147.201074 
L 145.571438 146.321783 
L 148.919438 145.450931 
L 152.267438 144.589376 
L 155.615438 143.737563 
L 158.963438 142.895559 
L 162.311438 142.063096 
L 165.659438 141.239626 
L 169.007438 140.424373 
L 172.355438 139.616395 
L 175.703438 138.814639 
L 179.051438 138.018005 
L 182.399438 137.225402 
L 185.747438 136.435798 
L 189.095438 135.64827 
L 192.443438 134.862045 
L 195.791438 134.076535 
L 199.139438 133.291363 
L 202.487438 132.506384 
L 205.835438 131.721697 
L 209.183438 130.937645 
L 212.531438 130.15482 
L 215.879438 129.374049 
L 219.227438 128.596383 
L 222.575438 127.823077 
L 225.923438 127.055574 
L 229.271438 126.295475 
L 232.619438 125.54452 
L 235.967438 124.80456 
L 239.315438 124.07753 
L 242.663438 123.36543 
L 246.011438 122.670297 
L 249.359438 121.994183 
L 252.707438 121.339142 
L 256.055438 120.707202 
L 259.403438 120.10036 
L 262.751438 119.52056 
L 266.099438 118.969686 
L 269.447438 118.449549 
L 272.795438 117.961883 
L 276.143438 117.508334 
L 279.491438 117.090454 
L 282.839438 116.709702 
L 286.187438 116.367434 
L 289.535438 116.0649 
L 292.883438 115.803247 
L 296.231438 115.583508 
L 299.579438 115.406606 
L 302.927438 115.273347 
L 306.275438 115.184421 
L 309.623438 115.140394 
L 312.971438 115.141711 
L 316.319438 115.188688 
L 319.667438 115.281513 
L 323.015438 115.420239 
L 326.363438 115.604782 
L 329.711438 115.834922 
L 333.059438 116.110294 
L 336.407438 116.43039 
L 339.755438 116.794557 
L 343.103438 117.201998 
L 346.451438 117.651768 
L 349.799438 118.142778 
L 353.147438 118.673797 
L 356.495438 119.243456 
L 359.843438 119.850252 
L 363.191438 120.492552 
L 366.539438 121.168604 
L 369.887438 121.876544 
L 373.235438 122.614405 
L 376.583438 123.380126 
L 379.931438 124.171568 
L 383.279438 124.986523 
L 386.627438 125.822728 
L 389.975438 126.677878 
" clip-path="url(#p5aed3b4a9a)" style="fill: none; stroke: #808080; stroke-width: 1.5; stroke-linecap: square"/>
   </g>
   <g id="line2d_17">
    <path d="M 58.523438 156.022975 
L 61.871438 158.217142 
L 65.219438 160.01177 
L 68.567438 161.505859 
L 71.915438 162.773659 
L 75.263438 163.86963 
L 78.611438 164.833018 
L 81.959438 165.691809 
L 85.307438 166.465963 
L 88.655438 167.169976 
L 92.003438 167.814821 
L 95.351438 168.409377 
L 98.699438 168.961433 
L 102.047438 169.478349 
L 105.395438 169.967463 
L 108.743438 170.436285 
L 112.091438 170.892564 
L 115.439438 171.344234 
L 118.787438 171.799309 
L 122.135438 172.265727 
L 125.483438 172.751179 
L 128.831438 173.262943 
L 132.179438 173.807716 
L 135.527438 174.391478 
L 138.875438 175.019371 
L 142.223438 175.695615 
L 145.571438 176.423448 
L 148.919438 177.205102 
L 152.267438 178.041799 
L 155.615438 178.933784 
L 158.963438 179.880373 
L 162.311438 180.880022 
L 165.659438 181.930414 
L 169.007438 183.028549 
L 172.355438 184.170852 
L 175.703438 185.353274 
L 179.051438 186.571396 
L 182.399438 187.820529 
L 185.747438 189.095811 
L 189.095438 190.392289 
L 192.443438 191.705002 
L 195.791438 193.029044 
L 199.139438 194.359623 
L 202.487438 195.692108 
L 205.835438 197.022067 
L 209.183438 198.345298 
L 212.531438 199.657843 
L 215.879438 200.956007 
L 219.227438 202.236362 
L 222.575438 203.495748 
L 225.923438 204.731271 
L 229.271438 205.940295 
L 232.619438 207.120432 
L 235.967438 208.269533 
L 239.315438 209.385669 
L 242.663438 210.467123 
L 246.011438 211.51237 
L 249.359438 212.520066 
L 252.707438 213.489031 
L 256.055438 214.418234 
L 259.403438 215.306779 
L 262.751438 216.153893 
L 266.099438 216.95891 
L 269.447438 217.721263 
L 272.795438 218.440468 
L 276.143438 219.116116 
L 279.491438 219.747859 
L 282.839438 220.335406 
L 286.187438 220.87851 
L 289.535438 221.376958 
L 292.883438 221.83057 
L 296.231438 222.239184 
L 299.579438 222.602654 
L 302.927438 222.920841 
L 306.275438 223.193611 
L 309.623438 223.420825 
L 312.971438 223.60234 
L 316.319438 223.738 
L 319.667438 223.827636 
L 323.015438 223.871061 
L 326.363438 223.868072 
L 329.711438 223.818444 
L 333.059438 223.721931 
L 336.407438 223.578269 
L 339.755438 223.387174 
L 343.103438 223.148345 
L 346.451438 222.861468 
L 349.799438 222.526219 
L 353.147438 222.14227 
L 356.495438 221.709294 
L 359.843438 221.226971 
L 363.191438 220.695 
L 366.539438 220.113101 
L 369.887438 219.481033 
L 373.235438 218.798597 
L 376.583438 218.065651 
L 379.931438 217.282121 
L 383.279438 216.448011 
L 386.627438 215.563418 
L 389.975438 214.628541 
" clip-path="url(#p5aed3b4a9a)" style="fill: none; stroke: #808080; stroke-width: 1.5; stroke-linecap: square"/>
   </g>
   <g id="line2d_18">
    <path d="M 58.523438 156.022975 
L 61.871438 156.022975 
L 65.219438 155.940042 
L 68.567438 155.70896 
L 71.915438 155.293969 
L 75.263438 154.682175 
L 78.611438 153.877631 
L 81.959438 152.896242 
L 85.307438 151.76151 
L 88.655438 150.501122 
L 92.003438 149.144321 
L 95.351438 147.719986 
L 98.699438 146.255298 
L 102.047438 144.774893 
L 105.395438 143.300392 
L 108.743438 141.85021 
L 112.091438 140.43957 
L 115.439438 139.080648 
L 118.787438 137.782804 
L 122.135438 136.552869 
L 125.483438 135.395445 
L 128.831438 134.31321 
L 132.179438 133.307221 
L 135.527438 132.377185 
L 138.875438 131.521722 
L 142.223438 130.738585 
L 145.571438 130.024874 
L 148.919438 129.377205 
L 152.267438 128.791862 
L 155.615438 128.264928 
L 158.963438 127.79239 
L 162.311438 127.370225 
L 165.659438 126.994471 
L 169.007438 126.661282 
L 172.355438 126.366969 
L 175.703438 126.108035 
L 179.051438 125.881196 
L 182.399438 125.683397 
L 185.747438 125.511821 
L 189.095438 125.363896 
L 192.443438 125.237293 
L 195.791438 125.129928 
L 199.139438 125.039953 
L 202.487438 124.965755 
L 205.835438 124.905942 
L 209.183438 124.859336 
L 212.531438 124.824963 
L 215.879438 124.802039 
L 219.227438 124.789959 
L 222.575438 124.788285 
L 225.923438 124.796727 
L 229.271438 124.815135 
L 232.619438 124.843483 
L 235.967438 124.881853 
L 239.315438 124.930423 
L 242.663438 124.989453 
L 246.011438 125.059272 
L 249.359438 125.140268 
L 252.707438 125.23287 
L 256.055438 125.337545 
L 259.403438 125.454783 
L 262.751438 125.58509 
L 266.099438 125.728978 
L 269.447438 125.886959 
L 272.795438 126.059537 
L 276.143438 126.247203 
L 279.491438 126.45043 
L 282.839438 126.669669 
L 286.187438 126.905341 
L 289.535438 127.15784 
L 292.883438 127.427523 
L 296.231438 127.714714 
L 299.579438 128.019696 
L 302.927438 128.342713 
L 306.275438 128.683968 
L 309.623438 129.043619 
L 312.971438 129.421782 
L 316.319438 129.818526 
L 319.667438 130.233877 
L 323.015438 130.667813 
L 326.363438 131.120267 
L 329.711438 131.591128 
L 333.059438 132.080236 
L 336.407438 132.58739 
L 339.755438 133.112341 
L 343.103438 133.654799 
L 346.451438 134.21443 
L 349.799438 134.790859 
L 353.147438 135.383669 
L 356.495438 135.992406 
L 359.843438 136.616577 
L 363.191438 137.255653 
L 366.539438 137.909073 
L 369.887438 138.576239 
L 373.235438 139.256526 
L 376.583438 139.949279 
L 379.931438 140.653818 
L 383.279438 141.369436 
L 386.627438 142.095408 
L 389.975438 142.830987 
" clip-path="url(#p5aed3b4a9a)" style="fill: none; stroke: #808080; stroke-width: 1.5; stroke-linecap: square"/>
   </g>
   <g id="line2d_19">
    <path d="M 58.523438 156.022975 
L 61.871438 156.903395 
L 65.219438 157.512765 
L 68.567438 157.903699 
L 71.915438 158.118978 
L 75.263438 158.192779 
L 78.611438 158.151864 
L 81.959438 158.016716 
L 85.307438 157.802591 
L 88.655438 157.520485 
L 92.003438 157.178014 
L 95.351438 156.780194 
L 98.699438 156.330126 
L 102.047438 155.829585 
L 105.395438 155.279519 
L 108.743438 154.68046 
L 112.091438 154.032847 
L 115.439438 153.337287 
L 118.787438 152.594728 
L 122.135438 151.806587 
L 125.483438 150.974815 
L 128.831438 150.101925 
L 132.179438 149.190976 
L 135.527438 148.245529 
L 138.875438 147.269585 
L 142.223438 146.267503 
L 145.571438 145.243908 
L 148.919438 144.203599 
L 152.267438 143.151448 
L 155.615438 142.092315 
L 158.963438 141.030956 
L 162.311438 139.971949 
L 165.659438 138.919626 
L 169.007438 137.878019 
L 172.355438 136.850812 
L 175.703438 135.841314 
L 179.051438 134.852435 
L 182.399438 133.886674 
L 185.747438 132.946124 
L 189.095438 132.032475 
L 192.443438 131.147033 
L 195.791438 130.290743 
L 199.139438 129.464216 
L 202.487438 128.667761 
L 205.835438 127.90142 
L 209.183438 127.165006 
L 212.531438 126.45814 
L 215.879438 125.780286 
L 219.227438 125.130793 
L 222.575438 124.508924 
L 225.923438 123.913895 
L 229.271438 123.344898 
L 232.619438 122.801137 
L 235.967438 122.281843 
L 239.315438 121.786301 
L 242.663438 121.313868 
L 246.011438 120.863983 
L 249.359438 120.436181 
L 252.707438 120.030102 
L 256.055438 119.645495 
L 259.403438 119.28222 
L 262.751438 118.940252 
L 266.099438 118.619678 
L 269.447438 118.320693 
L 272.795438 118.043596 
L 276.143438 117.788785 
L 279.491438 117.556748 
L 282.839438 117.34806 
L 286.187438 117.163366 
L 289.535438 117.003382 
L 292.883438 116.868876 
L 296.231438 116.760667 
L 299.579438 116.679609 
L 302.927438 116.626582 
L 306.275438 116.602485 
L 309.623438 116.608223 
L 312.971438 116.644696 
L 316.319438 116.712795 
L 319.667438 116.813384 
L 323.015438 116.947298 
L 326.363438 117.115327 
L 329.711438 117.318213 
L 333.059438 117.556634 
L 336.407438 117.831204 
L 339.755438 118.142455 
L 343.103438 118.490835 
L 346.451438 118.876701 
L 349.799438 119.300306 
L 353.147438 119.7618 
L 356.495438 120.261217 
L 359.843438 120.798474 
L 363.191438 121.373366 
L 366.539438 121.985559 
L 369.887438 122.63459 
L 373.235438 123.319866 
L 376.583438 124.040661 
L 379.931438 124.796114 
L 383.279438 125.585236 
L 386.627438 126.406905 
L 389.975438 127.259876 
" clip-path="url(#p5aed3b4a9a)" style="fill: none; stroke: #808080; stroke-width: 1.5; stroke-linecap: square"/>
   </g>
   <g id="line2d_20">
    <path d="M 58.523438 156.022975 
L 61.871438 156.022975 
L 65.219438 156.165859 
L 68.567438 156.413694 
L 71.915438 156.728977 
L 75.263438 157.075697 
L 78.611438 157.420619 
L 81.959438 157.734372 
L 85.307438 157.99215 
L 88.655438 158.17403 
L 92.003438 158.264954 
L 95.351438 158.254475 
L 98.699438 158.136336 
L 102.047438 157.907951 
L 105.395438 157.569837 
L 108.743438 157.12504 
L 112.091438 156.578575 
L 115.439438 155.936905 
L 118.787438 155.207469 
L 122.135438 154.398272 
L 125.483438 153.517532 
L 128.831438 152.573395 
L 132.179438 151.573714 
L 135.527438 150.52588 
L 138.875438 149.436708 
L 142.223438 148.312372 
L 145.571438 147.158376 
L 148.919438 145.979562 
L 152.267438 144.780133 
L 155.615438 143.563712 
L 158.963438 142.333397 
L 162.311438 141.091839 
L 165.659438 139.84131 
L 169.007438 138.583785 
L 172.355438 137.32101 
L 175.703438 136.054571 
L 179.051438 134.785952 
L 182.399438 133.516587 
L 185.747438 132.247909 
L 189.095438 130.981373 
L 192.443438 129.718495 
L 195.791438 128.460856 
L 199.139438 127.210123 
L 202.487438 125.968042 
L 205.835438 124.736441 
L 209.183438 123.51722 
L 212.531438 122.312336 
L 215.879438 121.123794 
L 219.227438 119.953626 
L 222.575438 118.803873 
L 225.923438 117.676572 
L 229.271438 116.573733 
L 232.619438 115.497328 
L 235.967438 114.449273 
L 239.315438 113.431417 
L 242.663438 112.445536 
L 246.011438 111.493315 
L 249.359438 110.576353 
L 252.707438 109.696155 
L 256.055438 108.85413 
L 259.403438 108.051593 
L 262.751438 107.28977 
L 266.099438 106.569801 
L 269.447438 105.892746 
L 272.795438 105.259593 
L 276.143438 104.671268 
L 279.491438 104.128641 
L 282.839438 103.632539 
L 286.187438 103.183756 
L 289.535438 102.783064 
L 292.883438 102.431222 
L 296.231438 102.128989 
L 299.579438 101.877132 
L 302.927438 101.676438 
L 306.275438 101.527723 
L 309.623438 101.431838 
L 312.971438 101.38968 
L 316.319438 101.402196 
L 319.667438 101.470388 
L 323.015438 101.595319 
L 326.363438 101.778114 
L 329.711438 102.019958 
L 333.059438 102.322097 
L 336.407438 102.685834 
L 339.755438 103.112522 
L 343.103438 103.603556 
L 346.451438 104.160363 
L 349.799438 104.784386 
L 353.147438 105.477067 
L 356.495438 106.239832 
L 359.843438 107.074065 
L 363.191438 107.981082 
L 366.539438 108.962107 
L 369.887438 110.018239 
L 373.235438 111.150423 
L 376.583438 112.359413 
L 379.931438 113.645739 
L 383.279438 115.009674 
L 386.627438 116.451196 
L 389.975438 117.969959 
" clip-path="url(#p5aed3b4a9a)" style="fill: none; stroke: #808080; stroke-width: 1.5; stroke-linecap: square"/>
   </g>
   <g id="line2d_21">
    <path d="M 58.523438 156.022975 
L 61.871438 161.475338 
L 65.219438 166.132983 
L 68.567438 170.066843 
L 71.915438 173.34222 
L 75.263438 176.019593 
L 78.611438 178.155076 
L 81.959438 179.800725 
L 85.307438 181.004802 
L 88.655438 181.812025 
L 92.003438 182.263817 
L 95.351438 182.398562 
L 98.699438 182.25185 
L 102.047438 181.856704 
L 105.395438 181.2438 
L 108.743438 180.44165 
L 112.091438 179.47677 
L 115.439438 178.373817 
L 118.787438 177.155702 
L 122.135438 175.843682 
L 125.483438 174.45744 
L 128.831438 173.015138 
L 132.179438 171.533473 
L 135.527438 170.027718 
L 138.875438 168.511761 
L 142.223438 166.998139 
L 145.571438 165.498084 
L 148.919438 164.021551 
L 152.267438 162.577269 
L 155.615438 161.172779 
L 158.963438 159.814489 
L 162.311438 158.507721 
L 165.659438 157.256769 
L 169.007438 156.06496 
L 172.355438 154.93471 
L 175.703438 153.867598 
L 179.051438 152.864425 
L 182.399438 151.925287 
L 185.747438 151.049645 
L 189.095438 150.236392 
L 192.443438 149.483927 
L 195.791438 148.790226 
L 199.139438 148.152908 
L 202.487438 147.569302 
L 205.835438 147.036517 
L 209.183438 146.551499 
L 212.531438 146.11109 
L 215.879438 145.712085 
L 219.227438 145.35128 
L 222.575438 145.02552 
L 225.923438 144.731736 
L 229.271438 144.466983 
L 232.619438 144.228466 
L 235.967438 144.01357 
L 239.315438 143.819878 
L 242.663438 143.645183 
L 246.011438 143.487502 
L 249.359438 143.345081 
L 252.707438 143.216396 
L 256.055438 143.100156 
L 259.403438 142.995294 
L 262.751438 142.900963 
L 266.099438 142.816528 
L 269.447438 142.741553 
L 272.795438 142.675793 
L 276.143438 142.619174 
L 279.491438 142.571787 
L 282.839438 142.533868 
L 286.187438 142.505784 
L 289.535438 142.488019 
L 292.883438 142.481157 
L 296.231438 142.485867 
L 299.579438 142.502887 
L 302.927438 142.53301 
L 306.275438 142.577066 
L 309.623438 142.635911 
L 312.971438 142.710409 
L 316.319438 142.801417 
L 319.667438 142.909772 
L 323.015438 143.036279 
L 326.363438 143.181692 
L 329.711438 143.346706 
L 333.059438 143.531942 
L 336.407438 143.737934 
L 339.755438 143.96512 
L 343.103438 144.213828 
L 346.451438 144.484272 
L 349.799438 144.776536 
L 353.147438 145.09057 
L 356.495438 145.426186 
L 359.843438 145.78305 
L 363.191438 146.160676 
L 366.539438 146.55843 
L 369.887438 146.975526 
L 373.235438 147.411027 
L 376.583438 147.863846 
L 379.931438 148.332757 
L 383.279438 148.816393 
L 386.627438 149.313257 
L 389.975438 149.821733 
" clip-path="url(#p5aed3b4a9a)" style="fill: none; stroke: #2ca02c; stroke-width: 1.5; stroke-linecap: square"/>
   </g>
   <g id="patch_3">
    <path d="M 58.523438 266.902975 
L 58.523438 45.142975 
" style="fill: none; stroke: #000000; stroke-width: 0.8; stroke-linejoin: miter; stroke-linecap: square"/>
   </g>
   <g id="patch_4">
    <path d="M 393.323438 266.902975 
L 393.323438 45.142975 
" style="fill: none; stroke: #000000; stroke-width: 0.8; stroke-linejoin: miter; stroke-linecap: square"/>
   </g>
   <g id="patch_5">
    <path d="M 58.523438 266.902975 
L 393.323438 266.902975 
" style="fill: none; stroke: #000000; stroke-width: 0.8; stroke-linejoin: miter; stroke-linecap: square"/>
   </g>
   <g id="patch_6">
    <path d="M 58.523438 45.142975 
L 393.323438 45.142975 
" style="fill: none; stroke: #000000; stroke-width: 0.8; stroke-linejoin: miter; stroke-linecap: square"/>
   </g>
   <g id="patch_7">
    <path d="M 225.923438 27.455136 
Q 225.923437 29.754445 225.923437 32.053754 
" style="fill: none; stroke: #000000; stroke-width: 2; stroke-linecap: round"/>
    <path d="M 225.923437 39.053754 
L 225.923437 32.053754 
L 225.923437 32.053754 
L 225.923437 39.053754 
" style="fill: none; stroke: #000000; stroke-width: 2; stroke-linecap: round"/>
   </g>
   <g id="text_18">
    <g id="patch_8">
     <path d="M 209.473438 24.949375 
L 242.373438 24.949375 
L 242.373438 3 
L 209.473438 3 
z
" style="fill: #ffffff; stroke: #ffffff; stroke-linejoin: miter"/>
    </g>
    <!-- $D$:0 -->
    <g transform="translate(213.673438 17.837812) scale(0.14 -0.14)">
     <defs>
      <path id="DejaVuSans-Oblique-44" d="M 1081 4666 
L 2438 4666 
Q 3519 4666 4070 4208 
Q 4622 3750 4622 2847 
Q 4622 2250 4412 1698 
Q 4203 1147 3834 769 
Q 3463 381 2891 190 
Q 2319 0 1538 0 
L 172 0 
L 1081 4666 
z
M 1613 4147 
L 909 519 
L 1734 519 
Q 2794 519 3375 1128 
Q 3956 1738 3956 2847 
Q 3956 3519 3581 3833 
Q 3206 4147 2406 4147 
L 1613 4147 
z
" transform="scale(0.015625)"/>
      <path id="DejaVuSans-3a" d="M 750 794 
L 1409 794 
L 1409 0 
L 750 0 
L 750 794 
z
M 750 3309 
L 1409 3309 
L 1409 2516 
L 750 2516 
L 750 3309 
z
" transform="scale(0.015625)"/>
     </defs>
     <use xlink:href="#DejaVuSans-Oblique-44" transform="translate(0 0.78125)"/>
     <use xlink:href="#DejaVuSans-3a" transform="translate(77.001953 0.78125)"/>
     <use xlink:href="#DejaVuSans-30" transform="translate(110.693359 0.78125)"/>
    </g>
   </g>
  </g>
 </g>
 <defs>
  <clipPath id="p5aed3b4a9a">
   <rect x="58.523438" y="45.142975" width="334.8" height="221.76"/>
  </clipPath>
 </defs>
 <defs>
  <pattern id="h66e71df4d6" patternUnits="userSpaceOnUse" x="0" y="0" width="72" height="72">
   <rect x="0" y="0" width="73" height="73" fill="none"/>
   <path d="M -36 36 
L 36 -36 
M -24 48 
L 48 -24 
M -12 60 
L 60 -12 
M 0 72 
L 72 0 
M 12 84 
L 84 12 
M 24 96 
L 96 24 
M 36 108 
L 108 36 
" style="fill: #adff2f; stroke: #adff2f; stroke-width: 8.0; stroke-linecap: butt; stroke-linejoin: miter; stroke-opacity: 0.5"/>
  </pattern>
 </defs>
</svg>
