<?xml version="1.0" encoding="utf-8" standalone="no"?>
<!DOCTYPE svg PUBLIC "-//W3C//DTD SVG 1.1//EN"
  "http://www.w3.org/Graphics/SVG/1.1/DTD/svg11.dtd">
<svg xmlns:xlink="http://www.w3.org/1999/xlink" width="396.389063pt" height="304.459225pt" viewBox="0 0 396.389063 304.459225" xmlns="http://www.w3.org/2000/svg" version="1.1">
 <metadata>
  <rdf:RDF xmlns:dc="http://purl.org/dc/elements/1.1/" xmlns:cc="http://creativecommons.org/ns#" xmlns:rdf="http://www.w3.org/1999/02/22-rdf-syntax-ns#">
   <cc:Work>
    <dc:type rdf:resource="http://purl.org/dc/dcmitype/StillImage"/>
    <dc:date>2026-06-01T15:46:52.079776</dc:date>
    <dc:format>image/svg+xml</dc:format>
    <dc:creator>
     <cc:Agent>
      <dc:title>Matplotlib v3.10.8, https://matplotlib.org/</dc:title>
     </cc:Agent>
    </dc:creator>
   </cc:Work>
  </rdf:RDF>
 </metadata>
 <defs>
  <style type="text/css">*{stroke-linejoin: round; stroke-linecap: butt}</style>
 </defs>
 <g id="figure_1">
  <g id="patch_1">
   <path d="M 0 304.459225 
L 396.389063 304.459225 
L 396.389063 0 
L 0 0 
L 0 304.459225 
z
" style="fill: none"/>
  </g>
  <g id="axes_1">
   <g id="patch_2">
    <path d="M 44.845313 266.902975 
L 379.645313 266.902975 
L 379.645313 45.142975 
L 44.845313 45.142975 
L 44.845313 266.902975 
z
" style="fill: none"/>
   </g>
   <g id="FillBetweenPolyCollection_1">
    <defs>
     <path id="mb85162a4b4" d="M 346.165313 -259.31625 
L 346.165313 -37.55625 
L 346.834913 -37.55625 
L 347.504513 -37.55625 
L 348.174113 -37.55625 
L 348.843713 -37.55625 
L 349.513313 -37.55625 
L 350.182913 -37.55625 
L 350.852513 -37.55625 
L 351.522113 -37.55625 
L 352.191713 -37.55625 
L 352.861313 -37.55625 
L 353.530913 -37.55625 
L 354.200513 -37.55625 
L 354.870113 -37.55625 
L 355.539713 -37.55625 
L 356.209313 -37.55625 
L 356.878913 -37.55625 
L 357.548513 -37.55625 
L 358.218113 -37.55625 
L 358.887713 -37.55625 
L 359.557313 -37.55625 
L 360.226913 -37.55625 
L 360.896513 -37.55625 
L 361.566113 -37.55625 
L 362.235713 -37.55625 
L 362.905313 -37.55625 
L 363.574913 -37.55625 
L 364.244513 -37.55625 
L 364.914113 -37.55625 
L 365.583713 -37.55625 
L 366.253313 -37.55625 
L 366.922913 -37.55625 
L 367.592513 -37.55625 
L 368.262113 -37.55625 
L 368.931713 -37.55625 
L 369.601313 -37.55625 
L 370.270913 -37.55625 
L 370.940513 -37.55625 
L 371.610113 -37.55625 
L 372.279713 -37.55625 
L 372.949313 -37.55625 
L 373.618913 -37.55625 
L 374.288513 -37.55625 
L 374.958113 -37.55625 
L 375.627713 -37.55625 
L 376.297313 -37.55625 
L 376.966913 -37.55625 
L 377.636513 -37.55625 
L 378.306113 -37.55625 
L 378.975713 -37.55625 
L 378.975713 -259.31625 
L 378.975713 -259.31625 
L 378.306113 -259.31625 
L 377.636513 -259.31625 
L 376.966913 -259.31625 
L 376.297313 -259.31625 
L 375.627713 -259.31625 
L 374.958113 -259.31625 
L 374.288513 -259.31625 
L 373.618913 -259.31625 
L 372.949313 -259.31625 
L 372.279713 -259.31625 
L 371.610113 -259.31625 
L 370.940513 -259.31625 
L 370.270913 -259.31625 
L 369.601313 -259.31625 
L 368.931713 -259.31625 
L 368.262113 -259.31625 
L 367.592513 -259.31625 
L 366.922913 -259.31625 
L 366.253313 -259.31625 
L 365.583713 -259.31625 
L 364.914113 -259.31625 
L 364.244513 -259.31625 
L 363.574913 -259.31625 
L 362.905313 -259.31625 
L 362.235713 -259.31625 
L 361.566113 -259.31625 
L 360.896513 -259.31625 
L 360.226913 -259.31625 
L 359.557313 -259.31625 
L 358.887713 -259.31625 
L 358.218113 -259.31625 
L 357.548513 -259.31625 
L 356.878913 -259.31625 
L 356.209313 -259.31625 
L 355.539713 -259.31625 
L 354.870113 -259.31625 
L 354.200513 -259.31625 
L 353.530913 -259.31625 
L 352.861313 -259.31625 
L 352.191713 -259.31625 
L 351.522113 -259.31625 
L 350.852513 -259.31625 
L 350.182913 -259.31625 
L 349.513313 -259.31625 
L 348.843713 -259.31625 
L 348.174113 -259.31625 
L 347.504513 -259.31625 
L 346.834913 -259.31625 
L 346.165313 -259.31625 
z
" style="stroke: #2ca02c; stroke-opacity: 0.3"/>
    </defs>
    <g clip-path="url(#p51bba42eb1)">
     <use xlink:href="#mb85162a4b4" x="0" y="304.459225" style="fill: #2ca02c; fill-opacity: 0.3; stroke: #2ca02c; stroke-opacity: 0.3"/>
    </g>
   </g>
   <g id="FillBetweenPolyCollection_2">
    <defs>
     <path id="m61701f23c8" d="M 78.325313 -259.31625 
L 78.325313 -37.55625 
L 78.994913 -37.55625 
L 79.664513 -37.55625 
L 80.334113 -37.55625 
L 81.003713 -37.55625 
L 81.673313 -37.55625 
L 82.342913 -37.55625 
L 83.012513 -37.55625 
L 83.682113 -37.55625 
L 84.351713 -37.55625 
L 85.021313 -37.55625 
L 85.690913 -37.55625 
L 86.360513 -37.55625 
L 87.030113 -37.55625 
L 87.699713 -37.55625 
L 88.369313 -37.55625 
L 89.038913 -37.55625 
L 89.708513 -37.55625 
L 90.378113 -37.55625 
L 91.047713 -37.55625 
L 91.717313 -37.55625 
L 92.386913 -37.55625 
L 93.056513 -37.55625 
L 93.726113 -37.55625 
L 94.395713 -37.55625 
L 95.065313 -37.55625 
L 95.734913 -37.55625 
L 96.404513 -37.55625 
L 97.074113 -37.55625 
L 97.743713 -37.55625 
L 98.413313 -37.55625 
L 99.082913 -37.55625 
L 99.752513 -37.55625 
L 100.422113 -37.55625 
L 101.091713 -37.55625 
L 101.761313 -37.55625 
L 102.430913 -37.55625 
L 103.100513 -37.55625 
L 103.770113 -37.55625 
L 104.439713 -37.55625 
L 105.109313 -37.55625 
L 105.778913 -37.55625 
L 106.448513 -37.55625 
L 107.118113 -37.55625 
L 107.787713 -37.55625 
L 108.457313 -37.55625 
L 109.126913 -37.55625 
L 109.796513 -37.55625 
L 110.466113 -37.55625 
L 111.135713 -37.55625 
L 111.135713 -259.31625 
L 111.135713 -259.31625 
L 110.466113 -259.31625 
L 109.796513 -259.31625 
L 109.126913 -259.31625 
L 108.457313 -259.31625 
L 107.787713 -259.31625 
L 107.118113 -259.31625 
L 106.448513 -259.31625 
L 105.778913 -259.31625 
L 105.109313 -259.31625 
L 104.439713 -259.31625 
L 103.770113 -259.31625 
L 103.100513 -259.31625 
L 102.430913 -259.31625 
L 101.761313 -259.31625 
L 101.091713 -259.31625 
L 100.422113 -259.31625 
L 99.752513 -259.31625 
L 99.082913 -259.31625 
L 98.413313 -259.31625 
L 97.743713 -259.31625 
L 97.074113 -259.31625 
L 96.404513 -259.31625 
L 95.734913 -259.31625 
L 95.065313 -259.31625 
L 94.395713 -259.31625 
L 93.726113 -259.31625 
L 93.056513 -259.31625 
L 92.386913 -259.31625 
L 91.717313 -259.31625 
L 91.047713 -259.31625 
L 90.378113 -259.31625 
L 89.708513 -259.31625 
L 89.038913 -259.31625 
L 88.369313 -259.31625 
L 87.699713 -259.31625 
L 87.030113 -259.31625 
L 86.360513 -259.31625 
L 85.690913 -259.31625 
L 85.021313 -259.31625 
L 84.351713 -259.31625 
L 83.682113 -259.31625 
L 83.012513 -259.31625 
L 82.342913 -259.31625 
L 81.673313 -259.31625 
L 81.003713 -259.31625 
L 80.334113 -259.31625 
L 79.664513 -259.31625 
L 78.994913 -259.31625 
L 78.325313 -259.31625 
z
" style="stroke: #adff2f; stroke-opacity: 0.5"/>
    </defs>
    <g clip-path="url(#p51bba42eb1)">
     <use xlink:href="#m61701f23c8" x="0" y="304.459225" style="fill: #adff2f; fill-opacity: 0.5; stroke: #adff2f; stroke-opacity: 0.5"/>
    </g>
   </g>
   <g id="matplotlib.axis_1">
    <g id="xtick_1">
     <g id="line2d_1">
      <defs>
       <path id="mf7c64a00ba" d="M 0 0 
L 0 3.5 
" style="stroke: #000000; stroke-width: 0.8"/>
      </defs>
      <g>
       <use xlink:href="#mf7c64a00ba" x="44.845313" y="266.902975" style="stroke: #000000; stroke-width: 0.8"/>
      </g>
     </g>
     <g id="text_1">
      <!-- 0 -->
      <g transform="translate(41.664063 281.501412) scale(0.1 -0.1)">
       <defs>
        <path id="DejaVuSans-30" d="M 2034 4250 
Q 1547 4250 1301 3770 
Q 1056 3291 1056 2328 
Q 1056 1369 1301 889 
Q 1547 409 2034 409 
Q 2525 409 2770 889 
Q 3016 1369 3016 2328 
Q 3016 3291 2770 3770 
Q 2525 4250 2034 4250 
z
M 2034 4750 
Q 2819 4750 3233 4129 
Q 3647 3509 3647 2328 
Q 3647 1150 3233 529 
Q 2819 -91 2034 -91 
Q 1250 -91 836 529 
Q 422 1150 422 2328 
Q 422 3509 836 4129 
Q 1250 4750 2034 4750 
z
" transform="scale(0.015625)"/>
       </defs>
       <use xlink:href="#DejaVuSans-30"/>
      </g>
     </g>
    </g>
    <g id="xtick_2">
     <g id="line2d_2">
      <g>
       <use xlink:href="#mf7c64a00ba" x="111.805313" y="266.902975" style="stroke: #000000; stroke-width: 0.8"/>
      </g>
     </g>
     <g id="text_2">
      <!-- 100 -->
      <g transform="translate(102.261563 281.501412) scale(0.1 -0.1)">
       <defs>
        <path id="DejaVuSans-31" d="M 794 531 
L 1825 531 
L 1825 4091 
L 703 3866 
L 703 4441 
L 1819 4666 
L 2450 4666 
L 2450 531 
L 3481 531 
L 3481 0 
L 794 0 
L 794 531 
z
" transform="scale(0.015625)"/>
       </defs>
       <use xlink:href="#DejaVuSans-31"/>
       <use xlink:href="#DejaVuSans-30" transform="translate(63.623047 0)"/>
       <use xlink:href="#DejaVuSans-30" transform="translate(127.246094 0)"/>
      </g>
     </g>
    </g>
    <g id="xtick_3">
     <g id="line2d_3">
      <g>
       <use xlink:href="#mf7c64a00ba" x="178.765313" y="266.902975" style="stroke: #000000; stroke-width: 0.8"/>
      </g>
     </g>
     <g id="text_3">
      <!-- 200 -->
      <g transform="translate(169.221563 281.501412) scale(0.1 -0.1)">
       <defs>
        <path id="DejaVuSans-32" d="M 1228 531 
L 3431 531 
L 3431 0 
L 469 0 
L 469 531 
Q 828 903 1448 1529 
Q 2069 2156 2228 2338 
Q 2531 2678 2651 2914 
Q 2772 3150 2772 3378 
Q 2772 3750 2511 3984 
Q 2250 4219 1831 4219 
Q 1534 4219 1204 4116 
Q 875 4013 500 3803 
L 500 4441 
Q 881 4594 1212 4672 
Q 1544 4750 1819 4750 
Q 2544 4750 2975 4387 
Q 3406 4025 3406 3419 
Q 3406 3131 3298 2873 
Q 3191 2616 2906 2266 
Q 2828 2175 2409 1742 
Q 1991 1309 1228 531 
z
" transform="scale(0.015625)"/>
       </defs>
       <use xlink:href="#DejaVuSans-32"/>
       <use xlink:href="#DejaVuSans-30" transform="translate(63.623047 0)"/>
       <use xlink:href="#DejaVuSans-30" transform="translate(127.246094 0)"/>
      </g>
     </g>
    </g>
    <g id="xtick_4">
     <g id="line2d_4">
      <g>
       <use xlink:href="#mf7c64a00ba" x="245.725313" y="266.902975" style="stroke: #000000; stroke-width: 0.8"/>
      </g>
     </g>
     <g id="text_4">
      <!-- 300 -->
      <g transform="translate(236.181563 281.501412) scale(0.1 -0.1)">
       <defs>
        <path id="DejaVuSans-33" d="M 2597 2516 
Q 3050 2419 3304 2112 
Q 3559 1806 3559 1356 
Q 3559 666 3084 287 
Q 2609 -91 1734 -91 
Q 1441 -91 1130 -33 
Q 819 25 488 141 
L 488 750 
Q 750 597 1062 519 
Q 1375 441 1716 441 
Q 2309 441 2620 675 
Q 2931 909 2931 1356 
Q 2931 1769 2642 2001 
Q 2353 2234 1838 2234 
L 1294 2234 
L 1294 2753 
L 1863 2753 
Q 2328 2753 2575 2939 
Q 2822 3125 2822 3475 
Q 2822 3834 2567 4026 
Q 2313 4219 1838 4219 
Q 1578 4219 1281 4162 
Q 984 4106 628 3988 
L 628 4550 
Q 988 4650 1302 4700 
Q 1616 4750 1894 4750 
Q 2613 4750 3031 4423 
Q 3450 4097 3450 3541 
Q 3450 3153 3228 2886 
Q 3006 2619 2597 2516 
z
" transform="scale(0.015625)"/>
       </defs>
       <use xlink:href="#DejaVuSans-33"/>
       <use xlink:href="#DejaVuSans-30" transform="translate(63.623047 0)"/>
       <use xlink:href="#DejaVuSans-30" transform="translate(127.246094 0)"/>
      </g>
     </g>
    </g>
    <g id="xtick_5">
     <g id="line2d_5">
      <g>
       <use xlink:href="#mf7c64a00ba" x="312.685313" y="266.902975" style="stroke: #000000; stroke-width: 0.8"/>
      </g>
     </g>
     <g id="text_5">
      <!-- 400 -->
      <g transform="translate(303.141563 281.501412) scale(0.1 -0.1)">
       <defs>
        <path id="DejaVuSans-34" d="M 2419 4116 
L 825 1625 
L 2419 1625 
L 2419 4116 
z
M 2253 4666 
L 3047 4666 
L 3047 1625 
L 3713 1625 
L 3713 1100 
L 3047 1100 
L 3047 0 
L 2419 0 
L 2419 1100 
L 313 1100 
L 313 1709 
L 2253 4666 
z
" transform="scale(0.015625)"/>
       </defs>
       <use xlink:href="#DejaVuSans-34"/>
       <use xlink:href="#DejaVuSans-30" transform="translate(63.623047 0)"/>
       <use xlink:href="#DejaVuSans-30" transform="translate(127.246094 0)"/>
      </g>
     </g>
    </g>
    <g id="xtick_6">
     <g id="line2d_6">
      <g>
       <use xlink:href="#mf7c64a00ba" x="379.645313" y="266.902975" style="stroke: #000000; stroke-width: 0.8"/>
      </g>
     </g>
     <g id="text_6">
      <!-- 500 -->
      <g transform="translate(370.101563 281.501412) scale(0.1 -0.1)">
       <defs>
        <path id="DejaVuSans-35" d="M 691 4666 
L 3169 4666 
L 3169 4134 
L 1269 4134 
L 1269 2991 
Q 1406 3038 1543 3061 
Q 1681 3084 1819 3084 
Q 2600 3084 3056 2656 
Q 3513 2228 3513 1497 
Q 3513 744 3044 326 
Q 2575 -91 1722 -91 
Q 1428 -91 1123 -41 
Q 819 9 494 109 
L 494 744 
Q 775 591 1075 516 
Q 1375 441 1709 441 
Q 2250 441 2565 725 
Q 2881 1009 2881 1497 
Q 2881 1984 2565 2268 
Q 2250 2553 1709 2553 
Q 1456 2553 1204 2497 
Q 953 2441 691 2322 
L 691 4666 
z
" transform="scale(0.015625)"/>
       </defs>
       <use xlink:href="#DejaVuSans-35"/>
       <use xlink:href="#DejaVuSans-30" transform="translate(63.623047 0)"/>
       <use xlink:href="#DejaVuSans-30" transform="translate(127.246094 0)"/>
      </g>
     </g>
    </g>
    <g id="text_7">
     <!-- time steps -->
     <g transform="translate(185.939844 295.179537) scale(0.1 -0.1)">
      <defs>
       <path id="DejaVuSans-74" d="M 1172 4494 
L 1172 3500 
L 2356 3500 
L 2356 3053 
L 1172 3053 
L 1172 1153 
Q 1172 725 1289 603 
Q 1406 481 1766 481 
L 2356 481 
L 2356 0 
L 1766 0 
Q 1100 0 847 248 
Q 594 497 594 1153 
L 594 3053 
L 172 3053 
L 172 3500 
L 594 3500 
L 594 4494 
L 1172 4494 
z
" transform="scale(0.015625)"/>
       <path id="DejaVuSans-69" d="M 603 3500 
L 1178 3500 
L 1178 0 
L 603 0 
L 603 3500 
z
M 603 4863 
L 1178 4863 
L 1178 4134 
L 603 4134 
L 603 4863 
z
" transform="scale(0.015625)"/>
       <path id="DejaVuSans-6d" d="M 3328 2828 
Q 3544 3216 3844 3400 
Q 4144 3584 4550 3584 
Q 5097 3584 5394 3201 
Q 5691 2819 5691 2113 
L 5691 0 
L 5113 0 
L 5113 2094 
Q 5113 2597 4934 2840 
Q 4756 3084 4391 3084 
Q 3944 3084 3684 2787 
Q 3425 2491 3425 1978 
L 3425 0 
L 2847 0 
L 2847 2094 
Q 2847 2600 2669 2842 
Q 2491 3084 2119 3084 
Q 1678 3084 1418 2786 
Q 1159 2488 1159 1978 
L 1159 0 
L 581 0 
L 581 3500 
L 1159 3500 
L 1159 2956 
Q 1356 3278 1631 3431 
Q 1906 3584 2284 3584 
Q 2666 3584 2933 3390 
Q 3200 3197 3328 2828 
z
" transform="scale(0.015625)"/>
       <path id="DejaVuSans-65" d="M 3597 1894 
L 3597 1613 
L 953 1613 
Q 991 1019 1311 708 
Q 1631 397 2203 397 
Q 2534 397 2845 478 
Q 3156 559 3463 722 
L 3463 178 
Q 3153 47 2828 -22 
Q 2503 -91 2169 -91 
Q 1331 -91 842 396 
Q 353 884 353 1716 
Q 353 2575 817 3079 
Q 1281 3584 2069 3584 
Q 2775 3584 3186 3129 
Q 3597 2675 3597 1894 
z
M 3022 2063 
Q 3016 2534 2758 2815 
Q 2500 3097 2075 3097 
Q 1594 3097 1305 2825 
Q 1016 2553 972 2059 
L 3022 2063 
z
" transform="scale(0.015625)"/>
       <path id="DejaVuSans-20" transform="scale(0.015625)"/>
       <path id="DejaVuSans-73" d="M 2834 3397 
L 2834 2853 
Q 2591 2978 2328 3040 
Q 2066 3103 1784 3103 
Q 1356 3103 1142 2972 
Q 928 2841 928 2578 
Q 928 2378 1081 2264 
Q 1234 2150 1697 2047 
L 1894 2003 
Q 2506 1872 2764 1633 
Q 3022 1394 3022 966 
Q 3022 478 2636 193 
Q 2250 -91 1575 -91 
Q 1294 -91 989 -36 
Q 684 19 347 128 
L 347 722 
Q 666 556 975 473 
Q 1284 391 1588 391 
Q 1994 391 2212 530 
Q 2431 669 2431 922 
Q 2431 1156 2273 1281 
Q 2116 1406 1581 1522 
L 1381 1569 
Q 847 1681 609 1914 
Q 372 2147 372 2553 
Q 372 3047 722 3315 
Q 1072 3584 1716 3584 
Q 2034 3584 2315 3537 
Q 2597 3491 2834 3397 
z
" transform="scale(0.015625)"/>
       <path id="DejaVuSans-70" d="M 1159 525 
L 1159 -1331 
L 581 -1331 
L 581 3500 
L 1159 3500 
L 1159 2969 
Q 1341 3281 1617 3432 
Q 1894 3584 2278 3584 
Q 2916 3584 3314 3078 
Q 3713 2572 3713 1747 
Q 3713 922 3314 415 
Q 2916 -91 2278 -91 
Q 1894 -91 1617 61 
Q 1341 213 1159 525 
z
M 3116 1747 
Q 3116 2381 2855 2742 
Q 2594 3103 2138 3103 
Q 1681 3103 1420 2742 
Q 1159 2381 1159 1747 
Q 1159 1113 1420 752 
Q 1681 391 2138 391 
Q 2594 391 2855 752 
Q 3116 1113 3116 1747 
z
" transform="scale(0.015625)"/>
      </defs>
      <use xlink:href="#DejaVuSans-74"/>
      <use xlink:href="#DejaVuSans-69" transform="translate(39.208984 0)"/>
      <use xlink:href="#DejaVuSans-6d" transform="translate(66.992188 0)"/>
      <use xlink:href="#DejaVuSans-65" transform="translate(164.404297 0)"/>
      <use xlink:href="#DejaVuSans-20" transform="translate(225.927734 0)"/>
      <use xlink:href="#DejaVuSans-73" transform="translate(257.714844 0)"/>
      <use xlink:href="#DejaVuSans-74" transform="translate(309.814453 0)"/>
      <use xlink:href="#DejaVuSans-65" transform="translate(349.023438 0)"/>
      <use xlink:href="#DejaVuSans-70" transform="translate(410.546875 0)"/>
      <use xlink:href="#DejaVuSans-73" transform="translate(474.023438 0)"/>
     </g>
    </g>
   </g>
   <g id="matplotlib.axis_2">
    <g id="ytick_1">
     <g id="line2d_7">
      <defs>
       <path id="m4a87f3c559" d="M 0 0 
L -3.5 0 
" style="stroke: #000000; stroke-width: 0.8"/>
      </defs>
      <g>
       <use xlink:href="#m4a87f3c559" x="44.845313" y="266.902975" style="stroke: #000000; stroke-width: 0.8"/>
      </g>
     </g>
     <g id="text_8">
      <!-- −1.00 -->
      <g transform="translate(7.2 270.702194) scale(0.1 -0.1)">
       <defs>
        <path id="DejaVuSans-2212" d="M 678 2272 
L 4684 2272 
L 4684 1741 
L 678 1741 
L 678 2272 
z
" transform="scale(0.015625)"/>
        <path id="DejaVuSans-2e" d="M 684 794 
L 1344 794 
L 1344 0 
L 684 0 
L 684 794 
z
" transform="scale(0.015625)"/>
       </defs>
       <use xlink:href="#DejaVuSans-2212"/>
       <use xlink:href="#DejaVuSans-31" transform="translate(83.789062 0)"/>
       <use xlink:href="#DejaVuSans-2e" transform="translate(147.412109 0)"/>
       <use xlink:href="#DejaVuSans-30" transform="translate(179.199219 0)"/>
       <use xlink:href="#DejaVuSans-30" transform="translate(242.822266 0)"/>
      </g>
     </g>
    </g>
    <g id="ytick_2">
     <g id="line2d_8">
      <g>
       <use xlink:href="#m4a87f3c559" x="44.845313" y="239.182975" style="stroke: #000000; stroke-width: 0.8"/>
      </g>
     </g>
     <g id="text_9">
      <!-- −0.75 -->
      <g transform="translate(7.2 242.982194) scale(0.1 -0.1)">
       <defs>
        <path id="DejaVuSans-37" d="M 525 4666 
L 3525 4666 
L 3525 4397 
L 1831 0 
L 1172 0 
L 2766 4134 
L 525 4134 
L 525 4666 
z
" transform="scale(0.015625)"/>
       </defs>
       <use xlink:href="#DejaVuSans-2212"/>
       <use xlink:href="#DejaVuSans-30" transform="translate(83.789062 0)"/>
       <use xlink:href="#DejaVuSans-2e" transform="translate(147.412109 0)"/>
       <use xlink:href="#DejaVuSans-37" transform="translate(179.199219 0)"/>
       <use xlink:href="#DejaVuSans-35" transform="translate(242.822266 0)"/>
      </g>
     </g>
    </g>
    <g id="ytick_3">
     <g id="line2d_9">
      <g>
       <use xlink:href="#m4a87f3c559" x="44.845313" y="211.462975" style="stroke: #000000; stroke-width: 0.8"/>
      </g>
     </g>
     <g id="text_10">
      <!-- −0.50 -->
      <g transform="translate(7.2 215.262194) scale(0.1 -0.1)">
       <use xlink:href="#DejaVuSans-2212"/>
       <use xlink:href="#DejaVuSans-30" transform="translate(83.789062 0)"/>
       <use xlink:href="#DejaVuSans-2e" transform="translate(147.412109 0)"/>
       <use xlink:href="#DejaVuSans-35" transform="translate(179.199219 0)"/>
       <use xlink:href="#DejaVuSans-30" transform="translate(242.822266 0)"/>
      </g>
     </g>
    </g>
    <g id="ytick_4">
     <g id="line2d_10">
      <g>
       <use xlink:href="#m4a87f3c559" x="44.845313" y="183.742975" style="stroke: #000000; stroke-width: 0.8"/>
      </g>
     </g>
     <g id="text_11">
      <!-- −0.25 -->
      <g transform="translate(7.2 187.542194) scale(0.1 -0.1)">
       <use xlink:href="#DejaVuSans-2212"/>
       <use xlink:href="#DejaVuSans-30" transform="translate(83.789062 0)"/>
       <use xlink:href="#DejaVuSans-2e" transform="translate(147.412109 0)"/>
       <use xlink:href="#DejaVuSans-32" transform="translate(179.199219 0)"/>
       <use xlink:href="#DejaVuSans-35" transform="translate(242.822266 0)"/>
      </g>
     </g>
    </g>
    <g id="ytick_5">
     <g id="line2d_11">
      <g>
       <use xlink:href="#m4a87f3c559" x="44.845313" y="156.022975" style="stroke: #000000; stroke-width: 0.8"/>
      </g>
     </g>
     <g id="text_12">
      <!-- 0.00 -->
      <g transform="translate(15.579688 159.822194) scale(0.1 -0.1)">
       <use xlink:href="#DejaVuSans-30"/>
       <use xlink:href="#DejaVuSans-2e" transform="translate(63.623047 0)"/>
       <use xlink:href="#DejaVuSans-30" transform="translate(95.410156 0)"/>
       <use xlink:href="#DejaVuSans-30" transform="translate(159.033203 0)"/>
      </g>
     </g>
    </g>
    <g id="ytick_6">
     <g id="line2d_12">
      <g>
       <use xlink:href="#m4a87f3c559" x="44.845313" y="128.302975" style="stroke: #000000; stroke-width: 0.8"/>
      </g>
     </g>
     <g id="text_13">
      <!-- 0.25 -->
      <g transform="translate(15.579688 132.102194) scale(0.1 -0.1)">
       <use xlink:href="#DejaVuSans-30"/>
       <use xlink:href="#DejaVuSans-2e" transform="translate(63.623047 0)"/>
       <use xlink:href="#DejaVuSans-32" transform="translate(95.410156 0)"/>
       <use xlink:href="#DejaVuSans-35" transform="translate(159.033203 0)"/>
      </g>
     </g>
    </g>
    <g id="ytick_7">
     <g id="line2d_13">
      <g>
       <use xlink:href="#m4a87f3c559" x="44.845313" y="100.582975" style="stroke: #000000; stroke-width: 0.8"/>
      </g>
     </g>
     <g id="text_14">
      <!-- 0.50 -->
      <g transform="translate(15.579688 104.382194) scale(0.1 -0.1)">
       <use xlink:href="#DejaVuSans-30"/>
       <use xlink:href="#DejaVuSans-2e" transform="translate(63.623047 0)"/>
       <use xlink:href="#DejaVuSans-35" transform="translate(95.410156 0)"/>
       <use xlink:href="#DejaVuSans-30" transform="translate(159.033203 0)"/>
      </g>
     </g>
    </g>
    <g id="ytick_8">
     <g id="line2d_14">
      <g>
       <use xlink:href="#m4a87f3c559" x="44.845313" y="72.862975" style="stroke: #000000; stroke-width: 0.8"/>
      </g>
     </g>
     <g id="text_15">
      <!-- 0.75 -->
      <g transform="translate(15.579688 76.662194) scale(0.1 -0.1)">
       <use xlink:href="#DejaVuSans-30"/>
       <use xlink:href="#DejaVuSans-2e" transform="translate(63.623047 0)"/>
       <use xlink:href="#DejaVuSans-37" transform="translate(95.410156 0)"/>
       <use xlink:href="#DejaVuSans-35" transform="translate(159.033203 0)"/>
      </g>
     </g>
    </g>
    <g id="ytick_9">
     <g id="line2d_15">
      <g>
       <use xlink:href="#m4a87f3c559" x="44.845313" y="45.142975" style="stroke: #000000; stroke-width: 0.8"/>
      </g>
     </g>
     <g id="text_16">
      <!-- 1.00 -->
      <g transform="translate(15.579688 48.942194) scale(0.1 -0.1)">
       <use xlink:href="#DejaVuSans-31"/>
       <use xlink:href="#DejaVuSans-2e" transform="translate(63.623047 0)"/>
       <use xlink:href="#DejaVuSans-30" transform="translate(95.410156 0)"/>
       <use xlink:href="#DejaVuSans-30" transform="translate(159.033203 0)"/>
      </g>
     </g>
    </g>
   </g>
   <g id="line2d_16">
    <path d="M 44.845313 156.022975 
L 45.514913 161.394016 
L 46.184513 164.809873 
L 46.854113 166.47399 
L 47.523713 166.596445 
L 48.193313 165.375645 
L 48.862913 163.013321 
L 49.532513 159.736077 
L 50.871713 151.432892 
L 53.550113 133.8115 
L 54.219713 130.288678 
L 54.889313 127.543892 
L 55.558913 125.823049 
L 56.228513 125.328588 
L 56.898113 126.101937 
L 57.567713 127.915045 
L 58.906913 132.99902 
L 60.915713 141.374685 
L 62.254913 148.212231 
L 62.924513 152.481409 
L 64.263713 163.197077 
L 65.602913 176.386178 
L 68.281313 203.432591 
L 69.620513 214.765962 
L 70.959713 224.27799 
L 72.298913 232.14425 
L 73.638113 238.600618 
L 74.977313 243.878609 
L 76.316513 248.186579 
L 77.655713 251.700615 
L 78.994913 254.563199 
L 80.334113 256.890906 
L 81.673313 258.780929 
L 83.012513 260.314252 
L 84.351713 261.557559 
L 85.690913 262.565196 
L 87.699713 263.728685 
L 89.708513 264.572828 
L 91.717313 265.17341 
L 93.726113 265.558222 
L 95.065313 265.662684 
L 96.404513 265.518731 
L 97.074113 265.243447 
L 97.743713 264.684221 
L 98.413313 263.595251 
L 99.082913 261.517488 
L 99.752513 257.687816 
L 100.422113 251.140845 
L 101.091713 241.265498 
L 102.430913 214.039353 
L 104.439713 171.60248 
L 105.778913 148.107401 
L 107.118113 128.764795 
L 108.457313 112.997372 
L 109.796513 100.192788 
L 111.135713 89.816672 
L 112.474913 81.426816 
L 113.814113 74.664512 
L 115.153313 69.236163 
L 116.492513 64.887559 
L 117.831713 61.390044 
L 119.170913 58.546737 
L 120.510113 56.201341 
L 121.849313 54.244849 
L 123.188513 52.612466 
L 124.527713 51.261362 
L 125.866913 50.151439 
L 127.875713 48.852186 
L 129.884513 47.890946 
L 131.893313 47.185286 
L 133.902113 46.682857 
L 135.910913 46.358154 
L 137.919713 46.215923 
L 139.928513 46.314109 
L 141.267713 46.614711 
L 141.937313 46.903938 
L 142.606913 47.36079 
L 143.276513 48.093204 
L 143.946113 49.275036 
L 144.615713 51.165368 
L 145.285313 54.114893 
L 145.954913 58.542202 
L 146.624513 64.861868 
L 147.294113 73.358945 
L 148.633313 96.453678 
L 151.311713 148.930029 
L 152.650913 170.729169 
L 153.990113 188.745282 
L 155.329313 203.462238 
L 156.668513 215.436225 
L 158.007713 225.164159 
L 159.346913 233.061683 
L 160.686113 239.469949 
L 162.025313 244.667973 
L 163.364513 248.883661 
L 164.703713 252.302175 
L 166.042913 255.073472 
L 167.382113 257.319355 
L 168.721313 259.139016 
L 170.060513 260.613124 
L 171.399713 261.807174 
L 172.738913 262.774291 
L 174.747713 263.891467 
L 176.756513 264.705879 
L 178.765313 265.29988 
L 181.443713 265.849916 
L 184.791713 266.278782 
L 188.139713 266.513163 
L 190.148513 266.468688 
L 190.818113 266.30846 
L 191.487713 265.918908 
L 192.157313 265.027027 
L 192.826913 263.062439 
L 193.496513 258.981177 
L 194.166113 251.431821 
L 194.835713 239.828453 
L 198.853313 154.680095 
L 200.192513 133.95376 
L 201.531713 117.102183 
L 202.870913 103.436118 
L 204.210113 92.362232 
L 205.549313 83.391143 
L 206.888513 76.124183 
L 208.227713 70.237825 
L 209.566913 65.469833 
L 210.906113 61.607743 
L 212.245313 58.479445 
L 213.584513 55.945521 
L 214.923713 53.893043 
L 216.262913 52.230537 
L 217.602113 50.883913 
L 218.941313 49.793166 
L 220.950113 48.533102 
L 222.958913 47.614813 
L 224.967713 46.946008 
L 227.646113 46.32897 
L 230.994113 45.853955 
L 234.342113 45.623643 
L 236.350913 45.66271 
L 237.690113 45.881648 
L 239.029313 46.448388 
L 239.698913 46.939711 
L 240.368513 47.602605 
L 241.707713 49.402854 
L 243.716513 52.405446 
L 245.055713 53.924311 
L 246.394913 54.968926 
L 248.403713 56.045252 
L 249.742913 56.614419 
L 251.082113 56.963309 
L 252.421313 56.980539 
L 255.099713 56.657549 
L 255.769313 56.831249 
L 256.438913 57.274664 
L 257.108513 58.087419 
L 257.778113 59.329619 
L 259.117313 62.845158 
L 260.456513 66.372793 
L 261.126113 67.583283 
L 261.795713 68.26485 
L 262.465313 68.412932 
L 263.134913 68.088365 
L 263.804513 67.385919 
L 265.143713 65.258427 
L 268.491713 59.161252 
L 269.830913 57.166931 
L 271.170113 55.574865 
L 272.509313 54.456303 
L 273.178913 54.130201 
L 273.848513 54.022669 
L 274.518113 54.204646 
L 275.187713 54.752867 
L 275.857313 55.723289 
L 276.526913 57.122526 
L 277.196513 58.907053 
L 278.535713 63.434117 
L 279.874913 69.218966 
L 281.214113 76.609825 
L 282.553313 86.200038 
L 283.892513 98.619497 
L 285.231713 113.858999 
L 287.240513 138.045998 
L 288.579713 151.08906 
L 289.249313 155.671484 
L 289.918913 158.437512 
L 290.588513 158.963926 
L 291.258113 156.989201 
L 291.927713 152.668676 
L 293.266913 139.500014 
L 295.275713 117.601034 
L 296.614913 104.886589 
L 297.954113 94.200104 
L 299.293313 85.444397 
L 300.632513 78.407394 
L 301.971713 72.8164 
L 303.310913 68.456231 
L 303.980513 66.726675 
L 304.650113 65.336506 
L 305.319713 64.352951 
L 305.989313 63.86847 
L 306.658913 63.988755 
L 307.328513 64.826787 
L 307.998113 66.511541 
L 308.667713 69.206127 
L 309.337313 73.114064 
L 310.006913 78.448468 
L 310.676513 85.357736 
L 312.015713 103.67901 
L 314.024513 137.52332 
L 316.033313 170.10935 
L 317.372513 188.172446 
L 318.711713 203.054186 
L 320.050913 215.168114 
L 321.390113 224.993685 
L 322.729313 232.955366 
L 324.068513 239.405048 
L 325.407713 244.629493 
L 326.746913 248.861361 
L 328.086113 252.289201 
L 329.425313 255.065762 
L 330.764513 257.31478 
L 332.103713 259.136479 
L 333.442913 260.612042 
L 334.782113 261.807209 
L 336.121313 262.775197 
L 338.130113 263.892981 
L 340.138913 264.705267 
L 342.147713 265.289229 
L 344.826113 265.806739 
L 348.174113 266.192396 
L 352.861313 266.488557 
L 356.878913 266.544709 
L 358.887713 266.4103 
L 360.226913 266.180316 
L 361.566113 265.764146 
L 362.905313 265.081491 
L 364.244513 264.057438 
L 365.583713 262.66079 
L 366.922913 260.916927 
L 370.940513 254.925935 
L 373.618913 250.882127 
L 374.958113 249.287753 
L 375.627713 248.71445 
L 376.297313 248.314965 
L 376.966913 248.097585 
L 377.636513 248.062502 
L 378.306113 248.20132 
L 378.975713 248.49778 
L 378.975713 248.49778 
" clip-path="url(#p51bba42eb1)" style="fill: none; stroke: #808080; stroke-width: 1.5; stroke-linecap: square"/>
   </g>
   <g id="line2d_17">
    <path d="M 44.845313 156.022975 
L 45.514913 159.742616 
L 46.184513 162.006345 
L 46.854113 162.38345 
L 47.523713 160.679921 
L 48.193313 156.964065 
L 48.862913 151.544842 
L 50.202113 137.503604 
L 52.210913 115.090225 
L 53.550113 102.183085 
L 54.889313 91.455227 
L 56.228513 82.693732 
L 57.567713 75.576825 
L 58.906913 69.80602 
L 60.246113 65.130232 
L 61.585313 61.343689 
L 62.924513 58.279112 
L 64.263713 55.801566 
L 65.602913 53.805033 
L 66.942113 52.215518 
L 68.281313 51.018878 
L 68.950913 50.606485 
L 69.620513 50.390869 
L 70.290113 50.500411 
L 70.959713 51.167437 
L 71.629313 52.756835 
L 72.298913 55.734281 
L 72.968513 60.521427 
L 73.638113 67.281763 
L 74.977313 85.625588 
L 78.325313 137.678677 
L 79.664513 155.55878 
L 81.003713 170.994137 
L 82.342913 183.692933 
L 83.682113 193.218094 
L 84.351713 196.629589 
L 85.021313 199.044827 
L 85.690913 200.415443 
L 86.360513 200.755777 
L 87.030113 200.170064 
L 87.699713 198.842912 
L 89.038913 194.826159 
L 91.047713 187.531472 
L 92.386913 181.976003 
L 93.056513 178.66037 
L 93.726113 174.733671 
L 94.395713 169.999423 
L 95.734913 157.731969 
L 97.743713 134.839909 
L 99.752513 113.030754 
L 101.091713 100.834791 
L 102.430913 90.622885 
L 103.770113 82.191998 
L 105.109313 75.278536 
L 106.448513 69.63095 
L 107.787713 65.033486 
L 109.126913 61.306574 
L 110.466113 58.298107 
L 111.805313 55.87613 
L 113.144513 53.929498 
L 114.483713 52.37363 
L 115.822913 51.143866 
L 117.162113 50.184799 
L 118.501313 49.451086 
L 119.840513 48.908585 
L 121.849313 48.398998 
L 123.188513 48.246276 
L 124.527713 48.281971 
L 125.866913 48.634451 
L 126.536513 49.015578 
L 127.206113 49.611856 
L 127.875713 50.509383 
L 128.545313 51.824101 
L 129.214913 53.716386 
L 129.884513 56.411358 
L 130.554113 60.198641 
L 131.223713 65.3633 
L 131.893313 72.051815 
L 133.232513 89.401795 
L 136.580513 137.772407 
L 137.919713 153.253108 
L 139.258913 165.443589 
L 139.928513 170.107968 
L 140.598113 173.585951 
L 141.267713 175.651542 
L 141.937313 176.123093 
L 142.606913 174.910449 
L 143.276513 172.010435 
L 143.946113 167.494408 
L 144.615713 161.533032 
L 145.954913 146.646026 
L 147.963713 123.098784 
L 149.302913 109.428073 
L 150.642113 97.881262 
L 151.981313 88.29239 
L 153.320513 80.390526 
L 154.659713 73.905047 
L 155.998913 68.591699 
L 157.338113 64.246709 
L 158.677313 60.70421 
L 160.016513 57.826755 
L 161.355713 55.504916 
L 162.694913 53.665071 
L 164.034113 52.270456 
L 165.373313 51.290293 
L 166.712513 50.63809 
L 170.730113 49.064834 
L 174.078113 47.615082 
L 176.086913 46.967201 
L 178.765313 46.35577 
L 182.113313 45.877807 
L 186.130913 45.570884 
L 192.826913 45.367585 
L 204.879713 45.186024 
L 226.306913 45.159057 
L 235.681313 45.320712 
L 237.690113 45.508552 
L 239.029313 45.892549 
L 239.698913 46.253372 
L 240.368513 46.792417 
L 241.038113 47.574125 
L 241.707713 48.675333 
L 242.377313 50.18418 
L 243.046913 52.195323 
L 243.716513 54.797835 
L 244.386113 58.053736 
L 245.725313 66.492106 
L 247.064513 76.82894 
L 249.742913 99.69641 
L 252.421313 124.897816 
L 253.760513 137.325983 
L 254.430113 142.703499 
L 255.099713 147.126383 
L 255.769313 150.30586 
L 256.438913 151.963402 
L 257.108513 151.857424 
L 257.778113 149.857901 
L 258.447713 146.043222 
L 259.117313 140.739245 
L 261.126113 120.796308 
L 262.465313 107.815359 
L 263.804513 96.48373 
L 265.143713 86.943679 
L 266.482913 79.069877 
L 267.822113 72.643979 
L 269.161313 67.424569 
L 270.500513 63.192648 
L 271.839713 59.763645 
L 273.178913 56.985856 
L 274.518113 54.735769 
L 275.857313 52.913177 
L 277.196513 51.436879 
L 278.535713 50.241105 
L 279.874913 49.272642 
L 281.883713 48.155337 
L 283.892513 47.365177 
L 285.231713 47.099399 
L 285.901313 47.20256 
L 286.570913 47.763747 
L 287.240513 49.421823 
L 287.910113 53.467658 
L 288.579713 61.588869 
L 289.249313 74.211177 
L 291.927713 135.023231 
L 293.266913 159.746552 
L 294.606113 179.970201 
L 295.945313 196.416298 
L 297.284513 209.76816 
L 298.623713 220.601377 
L 299.962913 229.386811 
L 301.302113 236.508436 
L 302.641313 242.279543 
L 303.980513 246.955329 
L 305.319713 250.743364 
L 306.658913 253.812311 
L 307.998113 256.298821 
L 309.337313 258.313323 
L 310.676513 259.94525 
L 312.015713 261.267174 
L 313.354913 262.337955 
L 315.363713 263.575058 
L 317.372513 264.476912 
L 319.381313 265.134367 
L 322.059713 265.742583 
L 325.407713 266.217766 
L 329.425313 266.538814 
L 335.451713 266.761566 
L 342.817313 266.822608 
L 346.165313 266.667455 
L 348.174113 266.284641 
L 349.513313 265.791832 
L 350.852513 265.003947 
L 352.191713 263.777759 
L 352.861313 262.939104 
L 353.530913 261.908877 
L 354.870113 259.170885 
L 356.209313 255.575476 
L 360.226913 243.852512 
L 360.896513 242.43384 
L 361.566113 241.372421 
L 362.235713 240.727517 
L 362.905313 240.520796 
L 363.574913 240.733263 
L 364.244513 241.315242 
L 364.914113 242.20286 
L 366.253313 244.635914 
L 370.270913 253.01307 
L 371.610113 255.172569 
L 372.949313 256.889666 
L 374.288513 258.232066 
L 375.627713 259.252947 
L 376.966913 259.950888 
L 378.306113 260.266523 
L 378.975713 260.243413 
L 378.975713 260.243413 
" clip-path="url(#p51bba42eb1)" style="fill: none; stroke: #808080; stroke-width: 1.5; stroke-linecap: square"/>
   </g>
   <g id="line2d_18">
    <path d="M 44.845313 156.022975 
L 45.514913 153.626064 
L 46.184513 151.670656 
L 46.854113 150.407026 
L 47.523713 150.03328 
L 48.193313 150.689562 
L 48.862913 152.425607 
L 49.532513 155.164342 
L 50.871713 162.712913 
L 52.210913 170.875402 
L 52.880513 174.413907 
L 53.550113 177.254964 
L 54.219713 179.210184 
L 54.889313 180.155853 
L 55.558913 180.04834 
L 56.228513 178.93377 
L 56.898113 176.937982 
L 57.567713 174.238312 
L 58.906913 167.513779 
L 63.594113 141.769484 
L 64.933313 132.209052 
L 70.290113 89.902966 
L 71.629313 81.87718 
L 72.968513 75.192375 
L 74.307713 69.695743 
L 75.646913 65.213464 
L 76.986113 61.583951 
L 78.325313 58.6671 
L 79.664513 56.343695 
L 81.003713 54.505706 
L 82.342913 53.037792 
L 84.351713 51.26477 
L 86.360513 49.812683 
L 88.369313 48.649982 
L 90.378113 47.74879 
L 92.386913 47.068372 
L 95.065313 46.431961 
L 97.743713 46.036902 
L 100.422113 45.893372 
L 102.430913 46.065752 
L 103.770113 46.415462 
L 105.109313 47.062545 
L 105.778913 47.546934 
L 106.448513 48.181894 
L 107.118113 49.019693 
L 107.787713 50.137751 
L 108.457313 51.644786 
L 109.126913 53.678428 
L 109.796513 56.392121 
L 110.466113 59.936182 
L 111.135713 64.431781 
L 111.805313 69.928813 
L 113.144513 83.53085 
L 117.162113 128.10936 
L 118.501313 140.373354 
L 119.840513 151.072362 
L 121.179713 160.253405 
L 123.858113 177.920463 
L 125.866913 193.646651 
L 127.875713 209.446846 
L 129.214913 218.69337 
L 130.554113 226.366524 
L 131.893313 232.194718 
L 132.562913 234.321329 
L 133.232513 235.837425 
L 133.902113 236.64803 
L 134.571713 236.64082 
L 135.241313 235.708785 
L 135.910913 233.788012 
L 136.580513 230.903233 
L 137.919713 222.994348 
L 139.258913 214.805729 
L 139.928513 211.848183 
L 140.598113 210.24565 
L 141.267713 210.230107 
L 141.937313 211.747801 
L 142.606913 214.472498 
L 143.946113 221.760045 
L 145.954913 232.82601 
L 147.294113 239.029058 
L 148.633313 244.183061 
L 149.972513 248.405438 
L 151.311713 251.843073 
L 152.650913 254.633058 
L 153.990113 256.892227 
L 155.329313 258.717231 
L 156.668513 260.185713 
L 158.007713 261.355464 
L 159.346913 262.261627 
L 160.686113 262.919275 
L 162.025313 263.33817 
L 163.364513 263.512376 
L 164.703713 263.369309 
L 165.373313 263.119148 
L 166.042913 262.683079 
L 166.712513 261.969278 
L 167.382113 260.837179 
L 168.051713 259.097406 
L 168.721313 256.528961 
L 169.390913 252.912969 
L 170.060513 248.113962 
L 171.399713 235.393111 
L 174.078113 206.527153 
L 175.417313 194.844769 
L 176.086913 190.372594 
L 176.756513 187.034461 
L 177.426113 184.923534 
L 178.095713 184.012046 
L 178.765313 184.145991 
L 179.434913 185.090292 
L 180.104513 186.589593 
L 184.122113 197.411923 
L 184.791713 198.679519 
L 185.461313 199.695843 
L 186.130913 200.452994 
L 186.800513 200.956584 
L 187.470113 201.230136 
L 188.139713 201.316719 
L 189.478913 201.173775 
L 190.818113 201.055839 
L 191.487713 201.146551 
L 192.157313 201.378406 
L 192.826913 201.756307 
L 194.166113 202.888431 
L 196.174913 205.109693 
L 198.183713 207.296256 
L 199.522913 208.513489 
L 200.862113 209.517667 
L 202.201313 210.210762 
L 202.870913 210.319249 
L 203.540513 210.137867 
L 204.210113 209.516158 
L 204.879713 208.268145 
L 205.549313 206.201022 
L 206.218913 203.163085 
L 206.888513 199.091376 
L 208.227713 188.140949 
L 210.236513 167.638869 
L 212.245313 147.170711 
L 213.584513 135.264809 
L 214.923713 125.231669 
L 216.262913 117.182063 
L 217.602113 111.197015 
L 218.271713 109.024205 
L 218.941313 107.421915 
L 219.610913 106.38948 
L 220.280513 105.893351 
L 220.950113 105.856452 
L 221.619713 106.160019 
L 223.628513 107.67574 
L 224.298113 107.94529 
L 224.967713 107.924387 
L 225.637313 107.536142 
L 226.306913 106.721332 
L 226.976513 105.443488 
L 227.646113 103.696304 
L 228.315713 101.508437 
L 229.654913 96.074813 
L 232.333313 83.255168 
L 234.342113 74.122251 
L 235.681313 68.95422 
L 237.020513 64.60114 
L 238.359713 60.994078 
L 239.698913 58.032422 
L 241.038113 55.613713 
L 242.377313 53.644452 
L 243.716513 52.043642 
L 245.055713 50.743265 
L 246.394913 49.687389 
L 248.403713 48.465023 
L 250.412513 47.573345 
L 252.421313 46.92441 
L 255.099713 46.329142 
L 257.778113 45.952732 
L 261.795713 45.636479 
L 267.152513 45.464652 
L 281.214113 45.435837 
L 283.892513 45.600658 
L 285.901313 45.988896 
L 287.240513 46.475698 
L 288.579713 47.166968 
L 290.588513 48.483197 
L 292.597313 49.762411 
L 293.936513 50.214481 
L 295.275713 50.200094 
L 296.614913 49.835438 
L 299.293313 48.688948 
L 301.971713 47.577686 
L 304.650113 46.753927 
L 307.328513 46.200986 
L 310.676513 45.767817 
L 315.363713 45.441846 
L 322.059713 45.247189 
L 332.773313 45.183091 
L 334.782113 45.310504 
L 336.121313 45.600732 
L 336.790913 45.873929 
L 337.460513 46.292716 
L 338.130113 46.938553 
L 338.799713 47.947686 
L 339.469313 49.544916 
L 340.138913 52.072419 
L 340.808513 55.960156 
L 341.478113 61.574764 
L 342.147713 68.998 
L 343.486913 87.814439 
L 345.495713 117.722099 
L 346.834913 134.500603 
L 348.174113 147.521462 
L 349.513313 157.043711 
L 350.852513 164.218035 
L 354.870113 182.743072 
L 356.209313 188.47157 
L 357.548513 193.312129 
L 358.887713 197.04936 
L 360.226913 199.935065 
L 362.235713 204.008938 
L 363.574913 207.173076 
L 366.253313 213.892165 
L 367.592513 216.540241 
L 368.262113 217.536531 
L 368.931713 218.299804 
L 369.601313 218.847531 
L 370.940513 219.492244 
L 372.279713 219.989126 
L 373.618913 220.753722 
L 374.958113 221.883819 
L 376.966913 224.0109 
L 378.975713 226.089672 
L 378.975713 226.089672 
" clip-path="url(#p51bba42eb1)" style="fill: none; stroke: #808080; stroke-width: 1.5; stroke-linecap: square"/>
   </g>
   <g id="line2d_19">
    <path d="M 44.845313 156.022975 
L 47.523713 156.106932 
L 48.193313 155.699196 
L 48.862913 154.539522 
L 49.532513 152.340799 
L 50.202113 148.971731 
L 50.871713 144.507603 
L 52.210913 133.409822 
L 54.219713 116.046752 
L 55.558913 106.175195 
L 56.898113 98.311994 
L 57.567713 95.226374 
L 58.237313 92.778414 
L 58.906913 91.065895 
L 59.576513 90.239664 
L 60.246113 90.514345 
L 60.915713 92.165397 
L 61.585313 95.494754 
L 62.254913 100.744071 
L 62.924513 107.963645 
L 64.263713 127.06295 
L 66.942113 168.659734 
L 68.281313 185.93974 
L 69.620513 200.234432 
L 70.959713 211.775094 
L 72.298913 220.744557 
L 72.968513 224.262946 
L 73.638113 227.093691 
L 74.307713 229.170524 
L 74.977313 230.40484 
L 75.646913 230.699713 
L 76.316513 229.969065 
L 76.986113 228.153964 
L 77.655713 225.230555 
L 78.325313 221.213071 
L 78.994913 216.160672 
L 80.334113 203.493579 
L 83.682113 168.825876 
L 84.351713 163.555645 
L 85.021313 159.281832 
L 85.690913 156.071688 
L 86.360513 153.926625 
L 87.030113 152.785563 
L 87.699713 152.528651 
L 88.369313 152.985442 
L 89.038913 153.954841 
L 90.378113 156.656418 
L 91.717313 159.43906 
L 93.056513 161.73779 
L 94.395713 163.469758 
L 96.404513 165.475935 
L 97.743713 166.86305 
L 99.082913 168.706454 
L 99.752513 169.960731 
L 100.422113 171.547657 
L 101.091713 173.552282 
L 101.761313 176.042925 
L 102.430913 179.055708 
L 103.770113 186.585002 
L 105.109313 195.656952 
L 108.457313 219.564736 
L 109.796513 227.734371 
L 111.135713 234.664447 
L 112.474913 240.410074 
L 113.814113 245.116816 
L 115.153313 248.94704 
L 116.492513 252.044797 
L 117.831713 254.538003 
L 119.170913 256.536542 
L 120.510113 258.119404 
L 121.849313 259.327236 
L 123.188513 260.16209 
L 124.527713 260.609295 
L 125.866913 260.665799 
L 126.536513 260.526223 
L 127.206113 260.224674 
L 127.875713 259.675137 
L 128.545313 258.734868 
L 129.214913 257.196171 
L 129.884513 254.798785 
L 130.554113 251.273807 
L 131.223713 246.414913 
L 131.893313 240.153932 
L 133.232513 224.022503 
L 139.258913 142.168536 
L 140.598113 127.56753 
L 141.937313 114.966219 
L 143.276513 104.391783 
L 144.615713 95.693548 
L 145.954913 88.575121 
L 147.294113 82.751607 
L 148.633313 78.182182 
L 149.302913 76.422124 
L 149.972513 75.033449 
L 150.642113 74.012759 
L 151.311713 73.348414 
L 151.981313 73.030829 
L 152.650913 73.061227 
L 153.320513 73.458304 
L 153.990113 74.261839 
L 154.659713 75.532223 
L 155.329313 77.345946 
L 155.998913 79.787445 
L 156.668513 82.937854 
L 157.338113 86.862097 
L 158.007713 91.597106 
L 159.346913 103.464059 
L 160.686113 118.056468 
L 166.042913 180.794257 
L 167.382113 193.569445 
L 168.721313 204.890805 
L 170.060513 214.830389 
L 171.399713 223.406132 
L 172.738913 230.668277 
L 174.078113 236.713992 
L 175.417313 241.650852 
L 176.756513 245.551513 
L 178.095713 248.414816 
L 178.765313 249.42143 
L 179.434913 250.102423 
L 180.104513 250.415249 
L 180.774113 250.317601 
L 181.443713 249.777174 
L 182.113313 248.782136 
L 182.782913 247.351554 
L 184.122113 243.454163 
L 186.130913 236.907808 
L 186.800513 235.14479 
L 187.470113 233.806015 
L 188.139713 232.951227 
L 188.809313 232.576245 
L 189.478913 232.623485 
L 190.148513 233.00667 
L 190.818113 233.635736 
L 192.157313 235.335691 
L 194.835713 239.352602 
L 197.514113 243.663073 
L 204.210113 254.82291 
L 205.549313 256.699782 
L 206.888513 258.304037 
L 208.227713 259.658551 
L 209.566913 260.7916 
L 210.906113 261.71894 
L 212.245313 262.443472 
L 213.584513 262.940104 
L 214.923713 263.107156 
L 215.593313 262.998068 
L 216.262913 262.70366 
L 216.932513 262.16737 
L 217.602113 261.320103 
L 218.271713 260.081939 
L 218.941313 258.3691 
L 219.610913 256.105693 
L 220.280513 253.23777 
L 220.950113 249.74646 
L 222.289313 241.037926 
L 224.298113 225.205383 
L 226.306913 209.2958 
L 227.646113 200.102919 
L 228.985313 192.577977 
L 230.324513 186.90974 
L 230.994113 184.804488 
L 231.663713 183.202459 
L 232.333313 182.120696 
L 233.002913 181.581282 
L 233.672513 181.61188 
L 234.342113 182.242913 
L 235.011713 183.497852 
L 235.681313 185.376968 
L 236.350913 187.842146 
L 237.690113 194.173445 
L 242.377313 219.338244 
L 243.716513 225.297 
L 245.055713 230.516228 
L 246.394913 235.030774 
L 247.734113 238.877831 
L 249.073313 242.075172 
L 250.412513 244.601161 
L 251.751713 246.413341 
L 252.421313 247.048121 
L 253.090913 247.510115 
L 253.760513 247.812796 
L 254.430113 247.975408 
L 255.769313 247.986063 
L 257.778113 247.780712 
L 258.447713 247.840213 
L 259.117313 248.034557 
L 259.786913 248.382404 
L 261.126113 249.503729 
L 263.134913 251.817143 
L 266.482913 255.763888 
L 268.491713 257.74998 
L 269.830913 258.819418 
L 271.170113 259.670015 
L 273.178913 260.636344 
L 278.535713 262.78582 
L 281.214113 263.592177 
L 283.222913 263.96083 
L 285.231713 264.095625 
L 287.240513 263.968258 
L 289.249313 263.528316 
L 291.258113 262.799694 
L 297.284513 260.161602 
L 301.302113 258.187747 
L 302.641313 257.814087 
L 303.310913 257.765687 
L 303.980513 257.832078 
L 305.319713 258.313832 
L 306.658913 259.156546 
L 310.676513 262.078618 
L 312.685313 263.189486 
L 314.694113 263.984199 
L 316.702913 264.493727 
L 318.711713 264.74014 
L 320.720513 264.728129 
L 326.746913 264.375521 
L 328.755713 264.594587 
L 338.799713 266.138986 
L 342.147713 266.29946 
L 344.826113 266.182823 
L 350.852513 265.670749 
L 355.539713 265.677513 
L 359.557313 265.941327 
L 366.253313 266.452039 
L 370.270913 266.542612 
L 372.949313 266.385359 
L 374.958113 265.984923 
L 378.975713 264.804595 
L 378.975713 264.804595 
" clip-path="url(#p51bba42eb1)" style="fill: none; stroke: #808080; stroke-width: 1.5; stroke-linecap: square"/>
   </g>
   <g id="line2d_20">
    <path d="M 44.845313 156.022975 
L 45.514913 155.750016 
L 47.523713 155.351489 
L 48.862913 155.004668 
L 49.532513 155.060869 
L 50.202113 155.427446 
L 50.871713 156.138845 
L 52.210913 158.253134 
L 53.550113 160.205076 
L 54.219713 160.725795 
L 54.889313 160.792297 
L 55.558913 160.337715 
L 56.228513 159.340078 
L 56.898113 157.829782 
L 58.237313 153.652292 
L 60.246113 146.634592 
L 61.585313 142.944155 
L 62.254913 141.769719 
L 62.924513 141.283225 
L 63.594113 141.701543 
L 64.263713 143.23141 
L 64.933313 146.025895 
L 65.602913 150.139435 
L 66.272513 155.48839 
L 67.611713 168.849792 
L 70.290113 197.156954 
L 71.629313 209.149374 
L 72.968513 219.301132 
L 74.307713 227.784265 
L 75.646913 234.842099 
L 76.986113 240.698558 
L 78.325313 245.537715 
L 79.664513 249.516285 
L 81.003713 252.773137 
L 82.342913 255.430425 
L 83.682113 257.593264 
L 85.021313 259.350729 
L 86.360513 260.777196 
L 87.699713 261.933816 
L 89.038913 262.87024 
L 91.047713 263.946122 
L 93.056513 264.709693 
L 95.065313 265.219973 
L 97.074113 265.506256 
L 99.082913 265.55732 
L 101.091713 265.365083 
L 103.100513 264.977808 
L 104.439713 264.582406 
L 105.778913 263.959579 
L 106.448513 263.499602 
L 107.118113 262.893204 
L 107.787713 262.100681 
L 108.457313 261.085723 
L 109.126913 259.823224 
L 110.466113 256.560432 
L 112.474913 250.497647 
L 114.483713 244.686278 
L 115.822913 241.45025 
L 118.501313 235.503494 
L 119.840513 231.750736 
L 120.510113 229.385487 
L 121.179713 226.541124 
L 121.849313 223.062202 
L 122.518913 218.761446 
L 123.188513 213.453387 
L 123.858113 207.019517 
L 125.197313 190.975956 
L 129.884513 127.517306 
L 131.223713 112.877287 
L 132.562913 100.497679 
L 133.902113 90.233568 
L 135.241313 81.815599 
L 136.580513 74.94751 
L 137.919713 69.35399 
L 139.258913 64.802305 
L 140.598113 61.104274 
L 141.937313 58.105439 
L 143.276513 55.678701 
L 144.615713 53.720906 
L 145.954913 52.150395 
L 147.294113 50.907084 
L 148.633313 49.956741 
L 149.972513 49.299183 
L 151.311713 48.975743 
L 151.981313 48.963626 
L 152.650913 49.070006 
L 153.320513 49.319394 
L 153.990113 49.761221 
L 154.659713 50.492478 
L 155.329313 51.681365 
L 155.998913 53.591081 
L 156.668513 56.597251 
L 157.338113 61.165114 
L 158.007713 67.730095 
L 158.677313 76.469566 
L 160.016513 99.020872 
L 162.694913 147.010445 
L 164.034113 167.112377 
L 165.373313 183.874947 
L 166.712513 197.362336 
L 167.382113 202.854686 
L 168.051713 207.427876 
L 168.721313 210.972022 
L 169.390913 213.356609 
L 170.060513 214.431245 
L 170.730113 214.020382 
L 171.399713 211.929052 
L 172.069313 207.97722 
L 172.738913 202.074872 
L 173.408513 194.319889 
L 174.747713 174.802104 
L 176.756513 143.489837 
L 178.095713 125.35608 
L 179.434913 110.256495 
L 180.774113 97.921752 
L 182.113313 87.904758 
L 183.452513 79.783863 
L 184.791713 73.203674 
L 186.130913 67.872914 
L 187.470113 63.55468 
L 188.809313 60.056771 
L 190.148513 57.223398 
L 191.487713 54.928332 
L 192.826913 53.069313 
L 194.166113 51.563509 
L 195.505313 50.343831 
L 196.844513 49.355944 
L 198.853313 48.214797 
L 200.862113 47.383225 
L 202.870913 46.777554 
L 205.549313 46.218517 
L 208.897313 45.783871 
L 212.914913 45.494903 
L 218.941313 45.315481 
L 225.637313 45.32687 
L 228.985313 45.467631 
L 230.324513 45.637847 
L 231.663713 46.06011 
L 232.333313 46.493266 
L 233.002913 47.219841 
L 233.672513 48.42822 
L 234.342113 50.381858 
L 235.011713 53.403929 
L 235.681313 57.819907 
L 236.350913 63.850569 
L 237.020513 71.500899 
L 238.359713 90.538339 
L 241.707713 142.279909 
L 243.046913 160.238356 
L 244.386113 176.127353 
L 245.725313 190.066376 
L 247.064513 202.192759 
L 248.403713 212.632288 
L 249.742913 221.493629 
L 251.082113 228.894469 
L 252.421313 234.973982 
L 253.760513 239.867473 
L 255.099713 243.664141 
L 256.438913 246.396225 
L 257.108513 247.363847 
L 257.778113 248.061065 
L 258.447713 248.476571 
L 259.117313 248.588847 
L 259.786913 248.362941 
L 260.456513 247.745761 
L 261.126113 246.656708 
L 261.795713 244.970528 
L 262.465313 242.495893 
L 263.134913 238.975015 
L 263.804513 234.147147 
L 264.474113 227.869846 
L 265.813313 211.397254 
L 268.491713 171.393919 
L 270.500513 143.491104 
L 271.839713 127.770184 
L 273.178913 114.504184 
L 274.518113 103.45381 
L 275.857313 94.212916 
L 277.196513 86.350848 
L 278.535713 79.566759 
L 279.874913 73.74831 
L 281.214113 68.851434 
L 282.553313 64.803611 
L 283.892513 61.512643 
L 285.231713 58.89635 
L 286.570913 56.895113 
L 287.910113 55.469782 
L 289.249313 54.592036 
L 290.588513 54.216326 
L 291.927713 54.262792 
L 293.266913 54.711262 
L 293.936513 55.132344 
L 294.606113 55.720742 
L 295.275713 56.488216 
L 296.614913 58.507253 
L 299.293313 63.150605 
L 299.962913 63.984948 
L 300.632513 64.509809 
L 301.302113 64.677273 
L 301.971713 64.490104 
L 302.641313 63.99509 
L 303.310913 63.26201 
L 304.650113 61.364434 
L 308.667713 55.279709 
L 310.676513 52.780934 
L 312.015713 51.397519 
L 313.354913 50.240168 
L 315.363713 48.877811 
L 317.372513 47.874004 
L 319.381313 47.138412 
L 322.059713 46.456935 
L 324.738113 46.013344 
L 328.086113 45.711375 
L 330.094913 45.735907 
L 331.434113 46.005406 
L 332.103713 46.321945 
L 332.773313 46.864626 
L 333.442913 47.768851 
L 334.112513 49.238126 
L 334.782113 51.558709 
L 335.451713 55.082721 
L 336.121313 60.14704 
L 336.790913 66.932933 
L 338.130113 85.063187 
L 342.147713 146.51934 
L 343.486913 162.607245 
L 344.826113 176.404604 
L 346.165313 188.497846 
L 347.504513 199.06338 
L 348.843713 207.824005 
L 349.513313 211.374837 
L 350.182913 214.269663 
L 350.852513 216.44085 
L 351.522113 217.867029 
L 352.191713 218.59991 
L 352.861313 218.747896 
L 353.530913 218.424919 
L 354.200513 217.717045 
L 354.870113 216.681472 
L 355.539713 215.356949 
L 356.878913 211.957153 
L 358.218113 207.754388 
L 360.896513 198.852501 
L 361.566113 197.311244 
L 362.235713 196.493278 
L 362.905313 196.621426 
L 363.574913 197.805857 
L 364.244513 199.999301 
L 364.914113 203.022624 
L 366.253313 210.589767 
L 368.931713 226.520198 
L 370.270913 233.364565 
L 371.610113 239.200503 
L 372.949313 244.081171 
L 374.288513 248.115146 
L 375.627713 251.421487 
L 376.966913 254.115751 
L 378.306113 256.3079 
L 378.975713 257.248739 
L 378.975713 257.248739 
" clip-path="url(#p51bba42eb1)" style="fill: none; stroke: #808080; stroke-width: 1.5; stroke-linecap: square"/>
   </g>
   <g id="line2d_21">
    <path d="M 44.845313 156.022975 
L 45.514913 157.145751 
L 46.184513 156.671772 
L 47.523713 154.814113 
L 48.193313 154.505035 
L 48.862913 154.830942 
L 49.532513 155.682815 
L 50.871713 157.952954 
L 51.541313 158.757167 
L 52.210913 158.926696 
L 52.880513 158.18359 
L 53.550113 156.315724 
L 54.219713 153.221769 
L 54.889313 148.949869 
L 56.228513 137.765627 
L 59.576513 107.318988 
L 60.915713 97.545413 
L 62.254913 89.962295 
L 62.924513 87.227642 
L 63.594113 85.43878 
L 64.263713 84.884923 
L 64.933313 85.940596 
L 65.602913 89.000059 
L 66.272513 94.334134 
L 66.942113 101.929342 
L 68.281313 122.251234 
L 70.959713 166.956222 
L 72.298913 185.590841 
L 73.638113 200.969142 
L 74.977313 213.484444 
L 76.316513 223.631938 
L 77.655713 231.853058 
L 78.994913 238.512457 
L 80.334113 243.906631 
L 81.673313 248.275927 
L 83.012513 251.815062 
L 84.351713 254.681764 
L 85.690913 257.003792 
L 87.030113 258.884636 
L 88.369313 260.40812 
L 89.708513 261.642141 
L 91.047713 262.641698 
L 93.056513 263.796499 
L 95.065313 264.638344 
L 97.074113 265.252036 
L 99.752513 265.819723 
L 103.100513 266.263036 
L 107.118113 266.561552 
L 112.474913 266.740468 
L 115.153313 266.706905 
L 116.492513 266.518934 
L 117.162113 266.29285 
L 117.831713 265.899987 
L 118.501313 265.246523 
L 119.170913 264.205771 
L 119.840513 262.617767 
L 120.510113 260.285271 
L 121.179713 256.962413 
L 121.849313 252.356785 
L 122.518913 246.177171 
L 123.188513 238.235027 
L 124.527713 217.462846 
L 127.875713 158.367526 
L 129.214913 139.187929 
L 130.554113 123.813537 
L 131.223713 117.666873 
L 131.893313 112.690536 
L 132.562913 109.088264 
L 133.232513 107.145796 
L 133.902113 107.178182 
L 134.571713 109.404824 
L 135.241313 113.79428 
L 135.910913 120.000273 
L 137.250113 135.592144 
L 139.258913 159.758479 
L 140.598113 173.830042 
L 142.606913 191.936556 
L 144.615713 207.978067 
L 146.624513 222.427643 
L 147.963713 230.602554 
L 149.302913 237.412761 
L 150.642113 242.985661 
L 151.981313 247.517398 
L 153.320513 251.194552 
L 154.659713 254.175895 
L 155.998913 256.592262 
L 157.338113 258.550363 
L 158.677313 260.136886 
L 160.016513 261.422194 
L 161.355713 262.463401 
L 163.364513 263.666414 
L 165.373313 264.543459 
L 167.382113 265.182847 
L 170.060513 265.774368 
L 173.408513 266.236527 
L 177.426113 266.548792 
L 183.452513 266.765755 
L 194.166113 266.877479 
L 200.192513 266.840063 
L 201.531713 266.679182 
L 202.201313 266.489911 
L 202.870913 266.173794 
L 203.540513 265.683823 
L 204.210113 264.981595 
L 204.879713 264.050906 
L 206.218913 261.574119 
L 207.558113 258.528208 
L 209.566913 253.272869 
L 210.906113 248.971738 
L 211.575713 246.248679 
L 212.245313 242.832272 
L 212.914913 238.382056 
L 213.584513 232.520752 
L 214.254113 224.955204 
L 215.593313 204.851187 
L 218.941313 147.165973 
L 220.280513 128.30047 
L 221.619713 112.668297 
L 222.958913 99.894599 
L 224.298113 89.512592 
L 225.637313 81.091157 
L 226.976513 74.265215 
L 228.315713 68.734241 
L 229.654913 64.25324 
L 230.994113 60.6232 
L 232.333313 57.682715 
L 233.672513 55.301007 
L 235.011713 53.372258 
L 236.350913 51.811075 
L 237.690113 50.548769 
L 239.029313 49.52976 
L 241.038113 48.359458 
L 243.046913 47.512713 
L 245.055713 46.896876 
L 247.734113 46.32332 
L 250.412513 45.954857 
L 253.090913 45.794822 
L 254.430113 45.870861 
L 255.769313 46.210698 
L 256.438913 46.565653 
L 257.108513 47.115762 
L 257.778113 47.928906 
L 258.447713 49.075068 
L 259.117313 50.611854 
L 259.786913 52.566878 
L 261.126113 57.625173 
L 263.134913 66.980608 
L 265.143713 77.494191 
L 266.482913 85.612144 
L 267.822113 95.380142 
L 269.161313 107.136344 
L 274.518113 158.494911 
L 275.857313 168.518701 
L 276.526913 172.581397 
L 277.196513 175.843758 
L 277.866113 178.15713 
L 278.535713 179.380814 
L 279.205313 179.436701 
L 279.874913 178.353409 
L 280.544513 176.272392 
L 281.214113 173.417711 
L 282.553313 166.344646 
L 283.892513 158.242375 
L 285.231713 148.751028 
L 287.240513 131.886006 
L 289.249313 114.934261 
L 290.588513 105.104729 
L 291.927713 96.977551 
L 293.266913 90.858376 
L 293.936513 88.654366 
L 294.606113 87.074692 
L 295.275713 86.149016 
L 295.945313 85.888871 
L 296.614913 86.282023 
L 297.284513 87.291151 
L 297.954113 88.855205 
L 298.623713 90.890526 
L 299.962913 95.942422 
L 303.980513 113.021519 
L 304.650113 116.546544 
L 305.319713 120.737424 
L 305.989313 125.781891 
L 307.328513 138.69744 
L 309.337313 162.931006 
L 311.346113 186.987464 
L 312.685313 200.844543 
L 314.024513 212.613699 
L 315.363713 222.384905 
L 316.702913 230.37393 
L 318.042113 236.805124 
L 319.381313 241.837349 
L 320.720513 245.50864 
L 321.390113 246.80142 
L 322.059713 247.694842 
L 322.729313 248.152757 
L 323.398913 248.137938 
L 324.068513 247.617806 
L 324.738113 246.57158 
L 325.407713 244.998649 
L 326.077313 242.927104 
L 327.416513 237.585753 
L 330.094913 225.87634 
L 331.434113 221.556728 
L 332.103713 219.990093 
L 333.442913 217.738919 
L 335.451713 214.903451 
L 336.790913 212.609801 
L 339.469313 207.342045 
L 340.138913 206.586924 
L 340.808513 206.449901 
L 341.478113 207.051712 
L 342.147713 208.396958 
L 342.817313 210.384417 
L 344.156513 215.594611 
L 346.165313 223.932955 
L 347.504513 228.483811 
L 348.174113 230.237389 
L 348.843713 231.558006 
L 349.513313 232.376801 
L 350.182913 232.617673 
L 350.852513 232.194312 
L 351.522113 231.006403 
L 352.191713 228.936244 
L 352.861313 225.846597 
L 353.530913 221.582576 
L 354.200513 215.991261 
L 354.870113 208.980854 
L 356.209313 191.157742 
L 359.557313 141.38248 
L 360.896513 124.66544 
L 362.235713 110.461953 
L 363.574913 98.590832 
L 364.914113 88.772752 
L 366.253313 80.708415 
L 367.592513 74.113244 
L 368.931713 68.735795 
L 370.270913 64.358398 
L 371.610113 60.790203 
L 372.949313 57.878866 
L 374.288513 55.506589 
L 375.627713 53.578107 
L 376.966913 52.013534 
L 378.306113 50.74527 
L 378.975713 50.204344 
L 378.975713 50.204344 
" clip-path="url(#p51bba42eb1)" style="fill: none; stroke: #2ca02c; stroke-width: 1.5; stroke-linecap: square"/>
   </g>
   <g id="patch_3">
    <path d="M 44.845313 266.902975 
L 44.845313 45.142975 
" style="fill: none; stroke: #000000; stroke-width: 0.8; stroke-linejoin: miter; stroke-linecap: square"/>
   </g>
   <g id="patch_4">
    <path d="M 379.645313 266.902975 
L 379.645313 45.142975 
" style="fill: none; stroke: #000000; stroke-width: 0.8; stroke-linejoin: miter; stroke-linecap: square"/>
   </g>
   <g id="patch_5">
    <path d="M 44.845313 266.902975 
L 379.645313 266.902975 
" style="fill: none; stroke: #000000; stroke-width: 0.8; stroke-linejoin: miter; stroke-linecap: square"/>
   </g>
   <g id="patch_6">
    <path d="M 44.845313 45.142975 
L 379.645313 45.142975 
" style="fill: none; stroke: #000000; stroke-width: 0.8; stroke-linejoin: miter; stroke-linecap: square"/>
   </g>
   <g id="patch_7">
    <path d="M 212.245313 27.455136 
Q 212.245313 29.754445 212.245313 32.053754 
" style="fill: none; stroke: #000000; stroke-width: 2; stroke-linecap: round"/>
    <path d="M 68.245313 39.053754 
L 68.245313 32.053754 
L 356.245313 32.053754 
L 356.245313 39.053754 
" style="fill: none; stroke: #000000; stroke-width: 2; stroke-linecap: round"/>
   </g>
   <g id="text_17">
    <g id="patch_8">
     <path d="M 186.905313 24.949375 
L 237.585313 24.949375 
L 237.585313 3 
L 186.905313 3 
z
" style="fill: #ffffff; stroke: #ffffff; stroke-linejoin: miter"/>
    </g>
    <!-- $D$:400 -->
    <g transform="translate(191.105313 17.837812) scale(0.14 -0.14)">
     <defs>
      <path id="DejaVuSans-Oblique-44" d="M 1081 4666 
L 2438 4666 
Q 3519 4666 4070 4208 
Q 4622 3750 4622 2847 
Q 4622 2250 4412 1698 
Q 4203 1147 3834 769 
Q 3463 381 2891 190 
Q 2319 0 1538 0 
L 172 0 
L 1081 4666 
z
M 1613 4147 
L 909 519 
L 1734 519 
Q 2794 519 3375 1128 
Q 3956 1738 3956 2847 
Q 3956 3519 3581 3833 
Q 3206 4147 2406 4147 
L 1613 4147 
z
" transform="scale(0.015625)"/>
      <path id="DejaVuSans-3a" d="M 750 794 
L 1409 794 
L 1409 0 
L 750 0 
L 750 794 
z
M 750 3309 
L 1409 3309 
L 1409 2516 
L 750 2516 
L 750 3309 
z
" transform="scale(0.015625)"/>
     </defs>
     <use xlink:href="#DejaVuSans-Oblique-44" transform="translate(0 0.78125)"/>
     <use xlink:href="#DejaVuSans-3a" transform="translate(77.001953 0.78125)"/>
     <use xlink:href="#DejaVuSans-34" transform="translate(110.693359 0.78125)"/>
     <use xlink:href="#DejaVuSans-30" transform="translate(174.316406 0.78125)"/>
     <use xlink:href="#DejaVuSans-30" transform="translate(237.939453 0.78125)"/>
    </g>
   </g>
  </g>
 </g>
 <defs>
  <clipPath id="p51bba42eb1">
   <rect x="44.845313" y="45.142975" width="334.8" height="221.76"/>
  </clipPath>
 </defs>
</svg>
