<?xml version="1.0" encoding="utf-8" standalone="no"?>
<!DOCTYPE svg PUBLIC "-//W3C//DTD SVG 1.1//EN"
  "http://www.w3.org/Graphics/SVG/1.1/DTD/svg11.dtd">
<svg xmlns:xlink="http://www.w3.org/1999/xlink" width="396.389062pt" height="304.459225pt" viewBox="0 0 396.389062 304.459225" xmlns="http://www.w3.org/2000/svg" version="1.1">
 <metadata>
  <rdf:RDF xmlns:dc="http://purl.org/dc/elements/1.1/" xmlns:cc="http://creativecommons.org/ns#" xmlns:rdf="http://www.w3.org/1999/02/22-rdf-syntax-ns#">
   <cc:Work>
    <dc:type rdf:resource="http://purl.org/dc/dcmitype/StillImage"/>
    <dc:date>2026-06-01T15:46:31.787432</dc:date>
    <dc:format>image/svg+xml</dc:format>
    <dc:creator>
     <cc:Agent>
      <dc:title>Matplotlib v3.10.8, https://matplotlib.org/</dc:title>
     </cc:Agent>
    </dc:creator>
   </cc:Work>
  </rdf:RDF>
 </metadata>
 <defs>
  <style type="text/css">*{stroke-linejoin: round; stroke-linecap: butt}</style>
 </defs>
 <g id="figure_1">
  <g id="patch_1">
   <path d="M 0 304.459225 
L 396.389062 304.459225 
L 396.389062 0 
L 0 0 
L 0 304.459225 
z
" style="fill: none"/>
  </g>
  <g id="axes_1">
   <g id="patch_2">
    <path d="M 44.845313 266.902975 
L 379.645313 266.902975 
L 379.645313 45.142975 
L 44.845313 45.142975 
L 44.845313 266.902975 
z
" style="fill: none"/>
   </g>
   <g id="FillBetweenPolyCollection_1">
    <defs>
     <path id="m744529b706" d="M 323.845313 -259.31625 
L 323.845313 -37.55625 
L 324.961313 -37.55625 
L 326.077313 -37.55625 
L 327.193313 -37.55625 
L 328.309313 -37.55625 
L 329.425313 -37.55625 
L 330.541313 -37.55625 
L 331.657313 -37.55625 
L 332.773313 -37.55625 
L 333.889313 -37.55625 
L 335.005313 -37.55625 
L 336.121313 -37.55625 
L 337.237313 -37.55625 
L 338.353313 -37.55625 
L 339.469313 -37.55625 
L 340.585313 -37.55625 
L 341.701313 -37.55625 
L 342.817313 -37.55625 
L 343.933313 -37.55625 
L 345.049313 -37.55625 
L 346.165313 -37.55625 
L 347.281313 -37.55625 
L 348.397313 -37.55625 
L 349.513313 -37.55625 
L 350.629313 -37.55625 
L 351.745313 -37.55625 
L 352.861313 -37.55625 
L 353.977313 -37.55625 
L 355.093313 -37.55625 
L 356.209313 -37.55625 
L 357.325313 -37.55625 
L 358.441313 -37.55625 
L 359.557313 -37.55625 
L 360.673313 -37.55625 
L 361.789313 -37.55625 
L 362.905313 -37.55625 
L 364.021313 -37.55625 
L 365.137313 -37.55625 
L 366.253313 -37.55625 
L 367.369313 -37.55625 
L 368.485313 -37.55625 
L 369.601313 -37.55625 
L 370.717313 -37.55625 
L 371.833313 -37.55625 
L 372.949313 -37.55625 
L 374.065313 -37.55625 
L 375.181313 -37.55625 
L 376.297313 -37.55625 
L 377.413313 -37.55625 
L 378.529313 -37.55625 
L 378.529313 -259.31625 
L 378.529313 -259.31625 
L 377.413313 -259.31625 
L 376.297313 -259.31625 
L 375.181313 -259.31625 
L 374.065313 -259.31625 
L 372.949313 -259.31625 
L 371.833313 -259.31625 
L 370.717313 -259.31625 
L 369.601313 -259.31625 
L 368.485313 -259.31625 
L 367.369313 -259.31625 
L 366.253313 -259.31625 
L 365.137313 -259.31625 
L 364.021313 -259.31625 
L 362.905313 -259.31625 
L 361.789313 -259.31625 
L 360.673313 -259.31625 
L 359.557313 -259.31625 
L 358.441313 -259.31625 
L 357.325313 -259.31625 
L 356.209313 -259.31625 
L 355.093313 -259.31625 
L 353.977313 -259.31625 
L 352.861313 -259.31625 
L 351.745313 -259.31625 
L 350.629313 -259.31625 
L 349.513313 -259.31625 
L 348.397313 -259.31625 
L 347.281313 -259.31625 
L 346.165313 -259.31625 
L 345.049313 -259.31625 
L 343.933313 -259.31625 
L 342.817313 -259.31625 
L 341.701313 -259.31625 
L 340.585313 -259.31625 
L 339.469313 -259.31625 
L 338.353313 -259.31625 
L 337.237313 -259.31625 
L 336.121313 -259.31625 
L 335.005313 -259.31625 
L 333.889313 -259.31625 
L 332.773313 -259.31625 
L 331.657313 -259.31625 
L 330.541313 -259.31625 
L 329.425313 -259.31625 
L 328.309313 -259.31625 
L 327.193313 -259.31625 
L 326.077313 -259.31625 
L 324.961313 -259.31625 
L 323.845313 -259.31625 
z
" style="stroke: #2ca02c; stroke-opacity: 0.3"/>
    </defs>
    <g clip-path="url(#pd68e22652d)">
     <use xlink:href="#m744529b706" x="0" y="304.459225" style="fill: #2ca02c; fill-opacity: 0.3; stroke: #2ca02c; stroke-opacity: 0.3"/>
    </g>
   </g>
   <g id="FillBetweenPolyCollection_2">
    <defs>
     <path id="m6c215a6dc9" d="M 100.645313 -259.31625 
L 100.645313 -37.55625 
L 101.761313 -37.55625 
L 102.877313 -37.55625 
L 103.993313 -37.55625 
L 105.109313 -37.55625 
L 106.225313 -37.55625 
L 107.341313 -37.55625 
L 108.457313 -37.55625 
L 109.573313 -37.55625 
L 110.689313 -37.55625 
L 111.805313 -37.55625 
L 112.921313 -37.55625 
L 114.037313 -37.55625 
L 115.153313 -37.55625 
L 116.269313 -37.55625 
L 117.385313 -37.55625 
L 118.501313 -37.55625 
L 119.617313 -37.55625 
L 120.733313 -37.55625 
L 121.849313 -37.55625 
L 122.965313 -37.55625 
L 124.081313 -37.55625 
L 125.197313 -37.55625 
L 126.313313 -37.55625 
L 127.429313 -37.55625 
L 128.545313 -37.55625 
L 129.661313 -37.55625 
L 130.777313 -37.55625 
L 131.893313 -37.55625 
L 133.009313 -37.55625 
L 134.125313 -37.55625 
L 135.241313 -37.55625 
L 136.357313 -37.55625 
L 137.473313 -37.55625 
L 138.589313 -37.55625 
L 139.705313 -37.55625 
L 140.821313 -37.55625 
L 141.937313 -37.55625 
L 143.053313 -37.55625 
L 144.169313 -37.55625 
L 145.285313 -37.55625 
L 146.401313 -37.55625 
L 147.517313 -37.55625 
L 148.633313 -37.55625 
L 149.749313 -37.55625 
L 150.865313 -37.55625 
L 151.981313 -37.55625 
L 153.097313 -37.55625 
L 154.213313 -37.55625 
L 155.329313 -37.55625 
L 155.329313 -259.31625 
L 155.329313 -259.31625 
L 154.213313 -259.31625 
L 153.097313 -259.31625 
L 151.981313 -259.31625 
L 150.865313 -259.31625 
L 149.749313 -259.31625 
L 148.633313 -259.31625 
L 147.517313 -259.31625 
L 146.401313 -259.31625 
L 145.285313 -259.31625 
L 144.169313 -259.31625 
L 143.053313 -259.31625 
L 141.937313 -259.31625 
L 140.821313 -259.31625 
L 139.705313 -259.31625 
L 138.589313 -259.31625 
L 137.473313 -259.31625 
L 136.357313 -259.31625 
L 135.241313 -259.31625 
L 134.125313 -259.31625 
L 133.009313 -259.31625 
L 131.893313 -259.31625 
L 130.777313 -259.31625 
L 129.661313 -259.31625 
L 128.545313 -259.31625 
L 127.429313 -259.31625 
L 126.313313 -259.31625 
L 125.197313 -259.31625 
L 124.081313 -259.31625 
L 122.965313 -259.31625 
L 121.849313 -259.31625 
L 120.733313 -259.31625 
L 119.617313 -259.31625 
L 118.501313 -259.31625 
L 117.385313 -259.31625 
L 116.269313 -259.31625 
L 115.153313 -259.31625 
L 114.037313 -259.31625 
L 112.921313 -259.31625 
L 111.805313 -259.31625 
L 110.689313 -259.31625 
L 109.573313 -259.31625 
L 108.457313 -259.31625 
L 107.341313 -259.31625 
L 106.225313 -259.31625 
L 105.109313 -259.31625 
L 103.993313 -259.31625 
L 102.877313 -259.31625 
L 101.761313 -259.31625 
L 100.645313 -259.31625 
z
" style="stroke: #adff2f; stroke-opacity: 0.5"/>
    </defs>
    <g clip-path="url(#pd68e22652d)">
     <use xlink:href="#m6c215a6dc9" x="0" y="304.459225" style="fill: #adff2f; fill-opacity: 0.5; stroke: #adff2f; stroke-opacity: 0.5"/>
    </g>
   </g>
   <g id="matplotlib.axis_1">
    <g id="xtick_1">
     <g id="line2d_1">
      <defs>
       <path id="mb0b4aba3ae" d="M 0 0 
L 0 3.5 
" style="stroke: #000000; stroke-width: 0.8"/>
      </defs>
      <g>
       <use xlink:href="#mb0b4aba3ae" x="44.845313" y="266.902975" style="stroke: #000000; stroke-width: 0.8"/>
      </g>
     </g>
     <g id="text_1">
      <!-- 0 -->
      <g transform="translate(41.664063 281.501412) scale(0.1 -0.1)">
       <defs>
        <path id="DejaVuSans-30" d="M 2034 4250 
Q 1547 4250 1301 3770 
Q 1056 3291 1056 2328 
Q 1056 1369 1301 889 
Q 1547 409 2034 409 
Q 2525 409 2770 889 
Q 3016 1369 3016 2328 
Q 3016 3291 2770 3770 
Q 2525 4250 2034 4250 
z
M 2034 4750 
Q 2819 4750 3233 4129 
Q 3647 3509 3647 2328 
Q 3647 1150 3233 529 
Q 2819 -91 2034 -91 
Q 1250 -91 836 529 
Q 422 1150 422 2328 
Q 422 3509 836 4129 
Q 1250 4750 2034 4750 
z
" transform="scale(0.015625)"/>
       </defs>
       <use xlink:href="#DejaVuSans-30"/>
      </g>
     </g>
    </g>
    <g id="xtick_2">
     <g id="line2d_2">
      <g>
       <use xlink:href="#mb0b4aba3ae" x="100.645313" y="266.902975" style="stroke: #000000; stroke-width: 0.8"/>
      </g>
     </g>
     <g id="text_2">
      <!-- 50 -->
      <g transform="translate(94.282813 281.501412) scale(0.1 -0.1)">
       <defs>
        <path id="DejaVuSans-35" d="M 691 4666 
L 3169 4666 
L 3169 4134 
L 1269 4134 
L 1269 2991 
Q 1406 3038 1543 3061 
Q 1681 3084 1819 3084 
Q 2600 3084 3056 2656 
Q 3513 2228 3513 1497 
Q 3513 744 3044 326 
Q 2575 -91 1722 -91 
Q 1428 -91 1123 -41 
Q 819 9 494 109 
L 494 744 
Q 775 591 1075 516 
Q 1375 441 1709 441 
Q 2250 441 2565 725 
Q 2881 1009 2881 1497 
Q 2881 1984 2565 2268 
Q 2250 2553 1709 2553 
Q 1456 2553 1204 2497 
Q 953 2441 691 2322 
L 691 4666 
z
" transform="scale(0.015625)"/>
       </defs>
       <use xlink:href="#DejaVuSans-35"/>
       <use xlink:href="#DejaVuSans-30" transform="translate(63.623047 0)"/>
      </g>
     </g>
    </g>
    <g id="xtick_3">
     <g id="line2d_3">
      <g>
       <use xlink:href="#mb0b4aba3ae" x="156.445313" y="266.902975" style="stroke: #000000; stroke-width: 0.8"/>
      </g>
     </g>
     <g id="text_3">
      <!-- 100 -->
      <g transform="translate(146.901563 281.501412) scale(0.1 -0.1)">
       <defs>
        <path id="DejaVuSans-31" d="M 794 531 
L 1825 531 
L 1825 4091 
L 703 3866 
L 703 4441 
L 1819 4666 
L 2450 4666 
L 2450 531 
L 3481 531 
L 3481 0 
L 794 0 
L 794 531 
z
" transform="scale(0.015625)"/>
       </defs>
       <use xlink:href="#DejaVuSans-31"/>
       <use xlink:href="#DejaVuSans-30" transform="translate(63.623047 0)"/>
       <use xlink:href="#DejaVuSans-30" transform="translate(127.246094 0)"/>
      </g>
     </g>
    </g>
    <g id="xtick_4">
     <g id="line2d_4">
      <g>
       <use xlink:href="#mb0b4aba3ae" x="212.245313" y="266.902975" style="stroke: #000000; stroke-width: 0.8"/>
      </g>
     </g>
     <g id="text_4">
      <!-- 150 -->
      <g transform="translate(202.701563 281.501412) scale(0.1 -0.1)">
       <use xlink:href="#DejaVuSans-31"/>
       <use xlink:href="#DejaVuSans-35" transform="translate(63.623047 0)"/>
       <use xlink:href="#DejaVuSans-30" transform="translate(127.246094 0)"/>
      </g>
     </g>
    </g>
    <g id="xtick_5">
     <g id="line2d_5">
      <g>
       <use xlink:href="#mb0b4aba3ae" x="268.045313" y="266.902975" style="stroke: #000000; stroke-width: 0.8"/>
      </g>
     </g>
     <g id="text_5">
      <!-- 200 -->
      <g transform="translate(258.501563 281.501412) scale(0.1 -0.1)">
       <defs>
        <path id="DejaVuSans-32" d="M 1228 531 
L 3431 531 
L 3431 0 
L 469 0 
L 469 531 
Q 828 903 1448 1529 
Q 2069 2156 2228 2338 
Q 2531 2678 2651 2914 
Q 2772 3150 2772 3378 
Q 2772 3750 2511 3984 
Q 2250 4219 1831 4219 
Q 1534 4219 1204 4116 
Q 875 4013 500 3803 
L 500 4441 
Q 881 4594 1212 4672 
Q 1544 4750 1819 4750 
Q 2544 4750 2975 4387 
Q 3406 4025 3406 3419 
Q 3406 3131 3298 2873 
Q 3191 2616 2906 2266 
Q 2828 2175 2409 1742 
Q 1991 1309 1228 531 
z
" transform="scale(0.015625)"/>
       </defs>
       <use xlink:href="#DejaVuSans-32"/>
       <use xlink:href="#DejaVuSans-30" transform="translate(63.623047 0)"/>
       <use xlink:href="#DejaVuSans-30" transform="translate(127.246094 0)"/>
      </g>
     </g>
    </g>
    <g id="xtick_6">
     <g id="line2d_6">
      <g>
       <use xlink:href="#mb0b4aba3ae" x="323.845313" y="266.902975" style="stroke: #000000; stroke-width: 0.8"/>
      </g>
     </g>
     <g id="text_6">
      <!-- 250 -->
      <g transform="translate(314.301563 281.501412) scale(0.1 -0.1)">
       <use xlink:href="#DejaVuSans-32"/>
       <use xlink:href="#DejaVuSans-35" transform="translate(63.623047 0)"/>
       <use xlink:href="#DejaVuSans-30" transform="translate(127.246094 0)"/>
      </g>
     </g>
    </g>
    <g id="xtick_7">
     <g id="line2d_7">
      <g>
       <use xlink:href="#mb0b4aba3ae" x="379.645313" y="266.902975" style="stroke: #000000; stroke-width: 0.8"/>
      </g>
     </g>
     <g id="text_7">
      <!-- 300 -->
      <g transform="translate(370.101563 281.501412) scale(0.1 -0.1)">
       <defs>
        <path id="DejaVuSans-33" d="M 2597 2516 
Q 3050 2419 3304 2112 
Q 3559 1806 3559 1356 
Q 3559 666 3084 287 
Q 2609 -91 1734 -91 
Q 1441 -91 1130 -33 
Q 819 25 488 141 
L 488 750 
Q 750 597 1062 519 
Q 1375 441 1716 441 
Q 2309 441 2620 675 
Q 2931 909 2931 1356 
Q 2931 1769 2642 2001 
Q 2353 2234 1838 2234 
L 1294 2234 
L 1294 2753 
L 1863 2753 
Q 2328 2753 2575 2939 
Q 2822 3125 2822 3475 
Q 2822 3834 2567 4026 
Q 2313 4219 1838 4219 
Q 1578 4219 1281 4162 
Q 984 4106 628 3988 
L 628 4550 
Q 988 4650 1302 4700 
Q 1616 4750 1894 4750 
Q 2613 4750 3031 4423 
Q 3450 4097 3450 3541 
Q 3450 3153 3228 2886 
Q 3006 2619 2597 2516 
z
" transform="scale(0.015625)"/>
       </defs>
       <use xlink:href="#DejaVuSans-33"/>
       <use xlink:href="#DejaVuSans-30" transform="translate(63.623047 0)"/>
       <use xlink:href="#DejaVuSans-30" transform="translate(127.246094 0)"/>
      </g>
     </g>
    </g>
    <g id="text_8">
     <!-- time steps -->
     <g transform="translate(185.939844 295.179537) scale(0.1 -0.1)">
      <defs>
       <path id="DejaVuSans-74" d="M 1172 4494 
L 1172 3500 
L 2356 3500 
L 2356 3053 
L 1172 3053 
L 1172 1153 
Q 1172 725 1289 603 
Q 1406 481 1766 481 
L 2356 481 
L 2356 0 
L 1766 0 
Q 1100 0 847 248 
Q 594 497 594 1153 
L 594 3053 
L 172 3053 
L 172 3500 
L 594 3500 
L 594 4494 
L 1172 4494 
z
" transform="scale(0.015625)"/>
       <path id="DejaVuSans-69" d="M 603 3500 
L 1178 3500 
L 1178 0 
L 603 0 
L 603 3500 
z
M 603 4863 
L 1178 4863 
L 1178 4134 
L 603 4134 
L 603 4863 
z
" transform="scale(0.015625)"/>
       <path id="DejaVuSans-6d" d="M 3328 2828 
Q 3544 3216 3844 3400 
Q 4144 3584 4550 3584 
Q 5097 3584 5394 3201 
Q 5691 2819 5691 2113 
L 5691 0 
L 5113 0 
L 5113 2094 
Q 5113 2597 4934 2840 
Q 4756 3084 4391 3084 
Q 3944 3084 3684 2787 
Q 3425 2491 3425 1978 
L 3425 0 
L 2847 0 
L 2847 2094 
Q 2847 2600 2669 2842 
Q 2491 3084 2119 3084 
Q 1678 3084 1418 2786 
Q 1159 2488 1159 1978 
L 1159 0 
L 581 0 
L 581 3500 
L 1159 3500 
L 1159 2956 
Q 1356 3278 1631 3431 
Q 1906 3584 2284 3584 
Q 2666 3584 2933 3390 
Q 3200 3197 3328 2828 
z
" transform="scale(0.015625)"/>
       <path id="DejaVuSans-65" d="M 3597 1894 
L 3597 1613 
L 953 1613 
Q 991 1019 1311 708 
Q 1631 397 2203 397 
Q 2534 397 2845 478 
Q 3156 559 3463 722 
L 3463 178 
Q 3153 47 2828 -22 
Q 2503 -91 2169 -91 
Q 1331 -91 842 396 
Q 353 884 353 1716 
Q 353 2575 817 3079 
Q 1281 3584 2069 3584 
Q 2775 3584 3186 3129 
Q 3597 2675 3597 1894 
z
M 3022 2063 
Q 3016 2534 2758 2815 
Q 2500 3097 2075 3097 
Q 1594 3097 1305 2825 
Q 1016 2553 972 2059 
L 3022 2063 
z
" transform="scale(0.015625)"/>
       <path id="DejaVuSans-20" transform="scale(0.015625)"/>
       <path id="DejaVuSans-73" d="M 2834 3397 
L 2834 2853 
Q 2591 2978 2328 3040 
Q 2066 3103 1784 3103 
Q 1356 3103 1142 2972 
Q 928 2841 928 2578 
Q 928 2378 1081 2264 
Q 1234 2150 1697 2047 
L 1894 2003 
Q 2506 1872 2764 1633 
Q 3022 1394 3022 966 
Q 3022 478 2636 193 
Q 2250 -91 1575 -91 
Q 1294 -91 989 -36 
Q 684 19 347 128 
L 347 722 
Q 666 556 975 473 
Q 1284 391 1588 391 
Q 1994 391 2212 530 
Q 2431 669 2431 922 
Q 2431 1156 2273 1281 
Q 2116 1406 1581 1522 
L 1381 1569 
Q 847 1681 609 1914 
Q 372 2147 372 2553 
Q 372 3047 722 3315 
Q 1072 3584 1716 3584 
Q 2034 3584 2315 3537 
Q 2597 3491 2834 3397 
z
" transform="scale(0.015625)"/>
       <path id="DejaVuSans-70" d="M 1159 525 
L 1159 -1331 
L 581 -1331 
L 581 3500 
L 1159 3500 
L 1159 2969 
Q 1341 3281 1617 3432 
Q 1894 3584 2278 3584 
Q 2916 3584 3314 3078 
Q 3713 2572 3713 1747 
Q 3713 922 3314 415 
Q 2916 -91 2278 -91 
Q 1894 -91 1617 61 
Q 1341 213 1159 525 
z
M 3116 1747 
Q 3116 2381 2855 2742 
Q 2594 3103 2138 3103 
Q 1681 3103 1420 2742 
Q 1159 2381 1159 1747 
Q 1159 1113 1420 752 
Q 1681 391 2138 391 
Q 2594 391 2855 752 
Q 3116 1113 3116 1747 
z
" transform="scale(0.015625)"/>
      </defs>
      <use xlink:href="#DejaVuSans-74"/>
      <use xlink:href="#DejaVuSans-69" transform="translate(39.208984 0)"/>
      <use xlink:href="#DejaVuSans-6d" transform="translate(66.992188 0)"/>
      <use xlink:href="#DejaVuSans-65" transform="translate(164.404297 0)"/>
      <use xlink:href="#DejaVuSans-20" transform="translate(225.927734 0)"/>
      <use xlink:href="#DejaVuSans-73" transform="translate(257.714844 0)"/>
      <use xlink:href="#DejaVuSans-74" transform="translate(309.814453 0)"/>
      <use xlink:href="#DejaVuSans-65" transform="translate(349.023438 0)"/>
      <use xlink:href="#DejaVuSans-70" transform="translate(410.546875 0)"/>
      <use xlink:href="#DejaVuSans-73" transform="translate(474.023438 0)"/>
     </g>
    </g>
   </g>
   <g id="matplotlib.axis_2">
    <g id="ytick_1">
     <g id="line2d_8">
      <defs>
       <path id="m4a26ea712c" d="M 0 0 
L -3.5 0 
" style="stroke: #000000; stroke-width: 0.8"/>
      </defs>
      <g>
       <use xlink:href="#m4a26ea712c" x="44.845313" y="266.902975" style="stroke: #000000; stroke-width: 0.8"/>
      </g>
     </g>
     <g id="text_9">
      <!-- −1.00 -->
      <g transform="translate(7.2 270.702194) scale(0.1 -0.1)">
       <defs>
        <path id="DejaVuSans-2212" d="M 678 2272 
L 4684 2272 
L 4684 1741 
L 678 1741 
L 678 2272 
z
" transform="scale(0.015625)"/>
        <path id="DejaVuSans-2e" d="M 684 794 
L 1344 794 
L 1344 0 
L 684 0 
L 684 794 
z
" transform="scale(0.015625)"/>
       </defs>
       <use xlink:href="#DejaVuSans-2212"/>
       <use xlink:href="#DejaVuSans-31" transform="translate(83.789062 0)"/>
       <use xlink:href="#DejaVuSans-2e" transform="translate(147.412109 0)"/>
       <use xlink:href="#DejaVuSans-30" transform="translate(179.199219 0)"/>
       <use xlink:href="#DejaVuSans-30" transform="translate(242.822266 0)"/>
      </g>
     </g>
    </g>
    <g id="ytick_2">
     <g id="line2d_9">
      <g>
       <use xlink:href="#m4a26ea712c" x="44.845313" y="239.182975" style="stroke: #000000; stroke-width: 0.8"/>
      </g>
     </g>
     <g id="text_10">
      <!-- −0.75 -->
      <g transform="translate(7.2 242.982194) scale(0.1 -0.1)">
       <defs>
        <path id="DejaVuSans-37" d="M 525 4666 
L 3525 4666 
L 3525 4397 
L 1831 0 
L 1172 0 
L 2766 4134 
L 525 4134 
L 525 4666 
z
" transform="scale(0.015625)"/>
       </defs>
       <use xlink:href="#DejaVuSans-2212"/>
       <use xlink:href="#DejaVuSans-30" transform="translate(83.789062 0)"/>
       <use xlink:href="#DejaVuSans-2e" transform="translate(147.412109 0)"/>
       <use xlink:href="#DejaVuSans-37" transform="translate(179.199219 0)"/>
       <use xlink:href="#DejaVuSans-35" transform="translate(242.822266 0)"/>
      </g>
     </g>
    </g>
    <g id="ytick_3">
     <g id="line2d_10">
      <g>
       <use xlink:href="#m4a26ea712c" x="44.845313" y="211.462975" style="stroke: #000000; stroke-width: 0.8"/>
      </g>
     </g>
     <g id="text_11">
      <!-- −0.50 -->
      <g transform="translate(7.2 215.262194) scale(0.1 -0.1)">
       <use xlink:href="#DejaVuSans-2212"/>
       <use xlink:href="#DejaVuSans-30" transform="translate(83.789062 0)"/>
       <use xlink:href="#DejaVuSans-2e" transform="translate(147.412109 0)"/>
       <use xlink:href="#DejaVuSans-35" transform="translate(179.199219 0)"/>
       <use xlink:href="#DejaVuSans-30" transform="translate(242.822266 0)"/>
      </g>
     </g>
    </g>
    <g id="ytick_4">
     <g id="line2d_11">
      <g>
       <use xlink:href="#m4a26ea712c" x="44.845313" y="183.742975" style="stroke: #000000; stroke-width: 0.8"/>
      </g>
     </g>
     <g id="text_12">
      <!-- −0.25 -->
      <g transform="translate(7.2 187.542194) scale(0.1 -0.1)">
       <use xlink:href="#DejaVuSans-2212"/>
       <use xlink:href="#DejaVuSans-30" transform="translate(83.789062 0)"/>
       <use xlink:href="#DejaVuSans-2e" transform="translate(147.412109 0)"/>
       <use xlink:href="#DejaVuSans-32" transform="translate(179.199219 0)"/>
       <use xlink:href="#DejaVuSans-35" transform="translate(242.822266 0)"/>
      </g>
     </g>
    </g>
    <g id="ytick_5">
     <g id="line2d_12">
      <g>
       <use xlink:href="#m4a26ea712c" x="44.845313" y="156.022975" style="stroke: #000000; stroke-width: 0.8"/>
      </g>
     </g>
     <g id="text_13">
      <!-- 0.00 -->
      <g transform="translate(15.579688 159.822194) scale(0.1 -0.1)">
       <use xlink:href="#DejaVuSans-30"/>
       <use xlink:href="#DejaVuSans-2e" transform="translate(63.623047 0)"/>
       <use xlink:href="#DejaVuSans-30" transform="translate(95.410156 0)"/>
       <use xlink:href="#DejaVuSans-30" transform="translate(159.033203 0)"/>
      </g>
     </g>
    </g>
    <g id="ytick_6">
     <g id="line2d_13">
      <g>
       <use xlink:href="#m4a26ea712c" x="44.845313" y="128.302975" style="stroke: #000000; stroke-width: 0.8"/>
      </g>
     </g>
     <g id="text_14">
      <!-- 0.25 -->
      <g transform="translate(15.579688 132.102194) scale(0.1 -0.1)">
       <use xlink:href="#DejaVuSans-30"/>
       <use xlink:href="#DejaVuSans-2e" transform="translate(63.623047 0)"/>
       <use xlink:href="#DejaVuSans-32" transform="translate(95.410156 0)"/>
       <use xlink:href="#DejaVuSans-35" transform="translate(159.033203 0)"/>
      </g>
     </g>
    </g>
    <g id="ytick_7">
     <g id="line2d_14">
      <g>
       <use xlink:href="#m4a26ea712c" x="44.845313" y="100.582975" style="stroke: #000000; stroke-width: 0.8"/>
      </g>
     </g>
     <g id="text_15">
      <!-- 0.50 -->
      <g transform="translate(15.579688 104.382194) scale(0.1 -0.1)">
       <use xlink:href="#DejaVuSans-30"/>
       <use xlink:href="#DejaVuSans-2e" transform="translate(63.623047 0)"/>
       <use xlink:href="#DejaVuSans-35" transform="translate(95.410156 0)"/>
       <use xlink:href="#DejaVuSans-30" transform="translate(159.033203 0)"/>
      </g>
     </g>
    </g>
    <g id="ytick_8">
     <g id="line2d_15">
      <g>
       <use xlink:href="#m4a26ea712c" x="44.845313" y="72.862975" style="stroke: #000000; stroke-width: 0.8"/>
      </g>
     </g>
     <g id="text_16">
      <!-- 0.75 -->
      <g transform="translate(15.579688 76.662194) scale(0.1 -0.1)">
       <use xlink:href="#DejaVuSans-30"/>
       <use xlink:href="#DejaVuSans-2e" transform="translate(63.623047 0)"/>
       <use xlink:href="#DejaVuSans-37" transform="translate(95.410156 0)"/>
       <use xlink:href="#DejaVuSans-35" transform="translate(159.033203 0)"/>
      </g>
     </g>
    </g>
    <g id="ytick_9">
     <g id="line2d_16">
      <g>
       <use xlink:href="#m4a26ea712c" x="44.845313" y="45.142975" style="stroke: #000000; stroke-width: 0.8"/>
      </g>
     </g>
     <g id="text_17">
      <!-- 1.00 -->
      <g transform="translate(15.579688 48.942194) scale(0.1 -0.1)">
       <use xlink:href="#DejaVuSans-31"/>
       <use xlink:href="#DejaVuSans-2e" transform="translate(63.623047 0)"/>
       <use xlink:href="#DejaVuSans-30" transform="translate(95.410156 0)"/>
       <use xlink:href="#DejaVuSans-30" transform="translate(159.033203 0)"/>
      </g>
     </g>
    </g>
   </g>
   <g id="line2d_17">
    <path d="M 44.845313 156.022975 
L 45.961313 154.603054 
L 47.077313 153.467469 
L 48.193313 152.618889 
L 49.309313 152.057142 
L 50.425313 151.765494 
L 51.541313 151.70697 
L 53.773313 152.055447 
L 56.005313 152.546256 
L 57.121313 152.671288 
L 58.237313 152.646315 
L 59.353313 152.442311 
L 60.469313 152.051509 
L 61.585313 151.48704 
L 63.817313 149.980324 
L 66.049313 148.34123 
L 67.165313 147.641124 
L 68.281313 147.116281 
L 69.397313 146.835143 
L 70.513313 146.858747 
L 71.629313 147.237017 
L 72.745313 148.005929 
L 73.861313 149.18593 
L 74.977313 150.781659 
L 76.093313 152.782664 
L 77.209313 155.164782 
L 78.325313 157.891956 
L 80.557313 164.191153 
L 83.905313 174.905492 
L 87.253313 185.78548 
L 89.485313 192.513069 
L 91.717313 198.518011 
L 93.949313 203.624474 
L 95.065313 205.797491 
L 96.181313 207.695482 
L 97.297313 209.301141 
L 98.413313 210.594997 
L 99.529313 211.554749 
L 100.645313 212.155148 
L 101.761313 212.368627 
L 102.877313 212.16686 
L 103.993313 211.523241 
L 105.109313 210.416097 
L 106.225313 208.8321 
L 107.341313 206.769093 
L 108.457313 204.237553 
L 109.573313 201.260247 
L 110.689313 197.870267 
L 112.921313 190.018735 
L 115.153313 181.045494 
L 118.501313 166.284082 
L 125.197313 136.0748 
L 128.545313 122.239845 
L 130.777313 113.763394 
L 133.009313 105.935204 
L 135.241313 98.782766 
L 137.473313 92.319806 
L 139.705313 86.548451 
L 141.937313 81.478704 
L 144.169313 77.140395 
L 146.401313 73.568771 
L 147.517313 72.077637 
L 148.633313 70.784577 
L 149.749313 69.690608 
L 150.865313 68.798166 
L 151.981313 68.112749 
L 153.097313 67.644682 
L 154.213313 67.41083 
L 155.329313 67.436025 
L 156.445313 67.753781 
L 157.561313 68.405802 
L 158.677313 69.439769 
L 159.793313 70.90517 
L 160.909313 72.847422 
L 162.025313 75.301158 
L 163.141313 78.284066 
L 164.257313 81.792792 
L 165.373313 85.801958 
L 167.605313 95.126539 
L 169.837313 105.758339 
L 173.185313 123.010362 
L 179.881313 157.796984 
L 183.229313 173.849487 
L 185.461313 183.735156 
L 187.693313 192.85461 
L 189.925313 201.13898 
L 192.157313 208.555028 
L 194.389313 215.109227 
L 196.621313 220.843752 
L 198.853313 225.826363 
L 201.085313 230.137577 
L 203.317313 233.859422 
L 205.549313 237.068158 
L 207.781313 239.830771 
L 210.013313 242.204316 
L 212.245313 244.237352 
L 214.477313 245.972493 
L 216.709313 247.449001 
L 218.941313 248.704572 
L 222.289313 250.253587 
L 225.637313 251.503389 
L 230.101313 252.868736 
L 235.681313 254.297873 
L 241.261313 255.503571 
L 245.725313 256.27672 
L 250.189313 256.862096 
L 255.769313 257.362757 
L 262.465313 257.725012 
L 266.929313 257.810111 
L 270.277313 257.675395 
L 272.509313 257.404025 
L 274.741313 256.908036 
L 276.973313 256.107661 
L 279.205313 254.929284 
L 281.437313 253.325891 
L 283.669313 251.286711 
L 285.901313 248.834119 
L 288.133313 246.024355 
L 292.597313 239.811906 
L 294.829313 236.805978 
L 297.061313 234.166127 
L 299.293313 231.967964 
L 302.641313 228.937501 
L 303.757313 227.732058 
L 304.873313 226.306144 
L 305.989313 224.605821 
L 307.105313 222.601479 
L 308.221313 220.289389 
L 310.453313 214.835839 
L 312.685313 208.568463 
L 319.381313 188.977854 
L 321.613313 183.318231 
L 323.845313 178.432145 
L 326.077313 174.312231 
L 328.309313 170.767234 
L 331.657313 165.667305 
L 332.773313 163.756386 
L 333.889313 161.615071 
L 335.005313 159.173869 
L 336.121313 156.377291 
L 337.237313 153.191459 
L 338.353313 149.609461 
L 340.585313 141.368998 
L 343.933313 127.28194 
L 347.281313 113.054294 
L 349.513313 104.397318 
L 351.745313 96.771415 
L 353.977313 90.297064 
L 356.209313 84.977392 
L 357.325313 82.73152 
L 358.441313 80.745833 
L 359.557313 79.006209 
L 360.673313 77.497245 
L 361.789313 76.202596 
L 362.905313 75.10531 
L 364.021313 74.18822 
L 365.137313 73.434413 
L 366.253313 72.827713 
L 368.485313 71.996962 
L 370.717313 71.59302 
L 372.949313 71.535192 
L 375.181313 71.762925 
L 377.413313 72.238869 
L 378.529313 72.567759 
L 378.529313 72.567759 
" clip-path="url(#pd68e22652d)" style="fill: none; stroke: #808080; stroke-width: 1.5; stroke-linecap: square"/>
   </g>
   <g id="line2d_18">
    <path d="M 44.845313 156.022975 
L 47.077313 156.10687 
L 50.425313 156.439399 
L 51.541313 156.32529 
L 52.657313 155.991024 
L 53.773313 155.398397 
L 54.889313 154.524196 
L 56.005313 153.353694 
L 57.121313 151.874022 
L 58.237313 150.069859 
L 59.353313 147.923239 
L 60.469313 145.417989 
L 61.585313 142.547618 
L 63.817313 135.782233 
L 66.049313 128.005876 
L 70.513313 112.13839 
L 72.745313 105.320629 
L 73.861313 102.379096 
L 74.977313 99.790421 
L 76.093313 97.575504 
L 77.209313 95.749814 
L 78.325313 94.325772 
L 79.441313 93.315353 
L 80.557313 92.732839 
L 81.673313 92.597543 
L 82.789313 92.936155 
L 83.905313 93.784264 
L 85.021313 95.186531 
L 86.137313 97.195052 
L 87.253313 99.865539 
L 88.369313 103.2511 
L 89.485313 107.393686 
L 90.601313 112.313742 
L 91.717313 117.999466 
L 93.949313 131.4131 
L 96.181313 146.721369 
L 100.645313 177.943796 
L 102.877313 191.882094 
L 105.109313 204.07116 
L 107.341313 214.436636 
L 109.573313 223.075203 
L 111.805313 230.15905 
L 114.037313 235.876509 
L 115.153313 238.278132 
L 116.269313 240.401332 
L 117.385313 242.263484 
L 118.501313 243.879893 
L 119.617313 245.263596 
L 120.733313 246.425093 
L 121.849313 247.372088 
L 122.965313 248.109379 
L 124.081313 248.63909 
L 125.197313 248.961438 
L 126.313313 249.076032 
L 127.429313 248.983387 
L 128.545313 248.686018 
L 129.661313 248.188605 
L 130.777313 247.497232 
L 131.893313 246.618368 
L 133.009313 245.558337 
L 134.125313 244.323729 
L 136.357313 241.366751 
L 138.589313 237.863036 
L 145.285313 226.527894 
L 147.517313 223.432658 
L 149.749313 220.955484 
L 151.981313 219.02785 
L 155.329313 216.679253 
L 157.561313 215.037265 
L 158.677313 214.071991 
L 159.793313 212.956092 
L 160.909313 211.650172 
L 162.025313 210.117814 
L 163.141313 208.327442 
L 164.257313 206.254078 
L 165.373313 203.880769 
L 166.489313 201.199579 
L 168.721313 194.930028 
L 170.953313 187.575192 
L 173.185313 179.406703 
L 180.997313 149.777703 
L 183.229313 142.391397 
L 185.461313 135.970534 
L 186.577313 133.193964 
L 187.693313 130.741489 
L 188.809313 128.636239 
L 189.925313 126.8988 
L 191.041313 125.547465 
L 192.157313 124.59865 
L 193.273313 124.067313 
L 194.389313 123.967167 
L 195.505313 124.310544 
L 196.621313 125.107788 
L 197.737313 126.366132 
L 198.853313 128.088086 
L 199.969313 130.269497 
L 201.085313 132.897539 
L 202.201313 135.949014 
L 204.433313 143.172803 
L 206.665313 151.538495 
L 214.477313 182.550868 
L 216.709313 190.297079 
L 218.941313 197.208259 
L 221.173313 203.272029 
L 223.405313 208.533282 
L 225.637313 213.06587 
L 227.869313 216.952813 
L 230.101313 220.274478 
L 232.333313 223.105639 
L 234.565313 225.521094 
L 236.797313 227.602814 
L 240.145313 230.294942 
L 249.073313 237.012313 
L 251.305313 239.009702 
L 254.653313 242.339686 
L 261.349313 249.200528 
L 264.697313 252.209928 
L 266.929313 253.973958 
L 269.161313 255.540681 
L 272.509313 257.54929 
L 275.857313 259.209692 
L 279.205313 260.59509 
L 282.553313 261.764405 
L 287.017313 263.046929 
L 291.481313 264.044477 
L 295.945313 264.764908 
L 299.293313 265.115267 
L 302.641313 265.258262 
L 304.873313 265.181734 
L 307.105313 264.905205 
L 309.337313 264.365456 
L 311.569313 263.466198 
L 312.685313 262.829569 
L 313.801313 262.026223 
L 314.917313 261.015027 
L 316.033313 259.746945 
L 317.149313 258.164466 
L 318.265313 256.200976 
L 319.381313 253.781075 
L 320.497313 250.823106 
L 321.613313 247.245071 
L 322.729313 242.974565 
L 323.845313 237.962163 
L 324.961313 232.195691 
L 327.193313 218.59294 
L 329.425313 202.990954 
L 335.005313 162.750197 
L 337.237313 148.216904 
L 339.469313 134.99263 
L 341.701313 123.024818 
L 343.933313 112.199238 
L 346.165313 102.434762 
L 348.397313 93.702172 
L 350.629313 85.989348 
L 352.861313 79.26559 
L 355.093313 73.47368 
L 357.325313 68.542747 
L 359.557313 64.397359 
L 361.789313 60.954874 
L 364.021313 58.125994 
L 366.253313 55.822472 
L 368.485313 53.964805 
L 370.717313 52.486631 
L 372.949313 51.335718 
L 375.181313 50.471309 
L 377.413313 49.858526 
L 378.529313 49.636088 
L 378.529313 49.636088 
" clip-path="url(#pd68e22652d)" style="fill: none; stroke: #808080; stroke-width: 1.5; stroke-linecap: square"/>
   </g>
   <g id="line2d_19">
    <path d="M 44.845313 156.022975 
L 45.961313 156.899763 
L 47.077313 157.497954 
L 49.309313 158.264617 
L 51.541313 159.036486 
L 52.657313 159.610752 
L 53.773313 160.382366 
L 54.889313 161.373912 
L 57.121313 163.928952 
L 59.353313 166.717124 
L 60.469313 167.880096 
L 61.585313 168.682826 
L 62.701313 168.972387 
L 63.817313 168.617007 
L 64.933313 167.521546 
L 66.049313 165.637296 
L 67.165313 162.962747 
L 68.281313 159.53669 
L 69.397313 155.429308 
L 71.629313 145.571787 
L 74.977313 128.566223 
L 78.325313 111.750004 
L 80.557313 101.656972 
L 82.789313 92.739084 
L 85.021313 85.026056 
L 87.253313 78.450484 
L 89.485313 72.899562 
L 91.717313 68.24569 
L 93.949313 64.363648 
L 96.181313 61.139787 
L 98.413313 58.476415 
L 100.645313 56.292143 
L 102.877313 54.5173 
L 105.109313 53.085803 
L 107.341313 51.930689 
L 109.573313 50.988435 
L 112.921313 49.864336 
L 116.269313 48.991325 
L 119.617313 48.311492 
L 124.081313 47.660877 
L 127.429313 47.369658 
L 130.777313 47.32038 
L 133.009313 47.468736 
L 136.357313 47.975038 
L 139.705313 48.735956 
L 150.865313 51.622726 
L 153.097313 52.361125 
L 155.329313 53.316127 
L 157.561313 54.590278 
L 159.793313 56.278756 
L 162.025313 58.44353 
L 164.257313 61.083228 
L 166.489313 64.104577 
L 172.069313 71.997224 
L 174.301313 74.79393 
L 177.649313 78.510866 
L 179.881313 80.93949 
L 182.113313 83.733691 
L 183.229313 85.419751 
L 184.345313 87.396262 
L 185.461313 89.746038 
L 186.577313 92.557058 
L 187.693313 95.918102 
L 188.809313 99.91153 
L 189.925313 104.603094 
L 191.041313 110.02977 
L 192.157313 116.188104 
L 194.389313 130.445846 
L 197.737313 154.695095 
L 201.085313 178.645139 
L 203.317313 192.952535 
L 205.549313 205.49128 
L 207.781313 216.218864 
L 210.013313 225.251298 
L 212.245313 232.775483 
L 214.477313 238.99809 
L 216.709313 244.119023 
L 218.941313 248.319304 
L 221.173313 251.75676 
L 223.405313 254.565776 
L 225.637313 256.859012 
L 227.869313 258.729923 
L 230.101313 260.255447 
L 232.333313 261.498625 
L 234.565313 262.51101 
L 236.797313 263.33479 
L 240.145313 264.290724 
L 243.493313 264.990228 
L 247.957313 265.638482 
L 252.421313 266.06224 
L 258.001313 266.384735 
L 264.697313 266.566821 
L 272.509313 266.546709 
L 291.481313 266.071027 
L 293.713313 265.881784 
L 295.945313 265.464652 
L 297.061313 265.089057 
L 298.177313 264.525944 
L 299.293313 263.687567 
L 300.409313 262.45522 
L 301.525313 260.677962 
L 302.641313 258.179753 
L 303.757313 254.779339 
L 304.873313 250.322919 
L 305.989313 244.721137 
L 307.105313 237.975347 
L 308.221313 230.181527 
L 310.453313 212.185781 
L 317.149313 154.207432 
L 319.381313 137.464265 
L 321.613313 122.792153 
L 323.845313 110.188973 
L 326.077313 99.510329 
L 328.309313 90.545204 
L 330.541313 83.068454 
L 332.773313 76.876654 
L 335.005313 71.805297 
L 337.237313 67.733531 
L 338.353313 66.047453 
L 339.469313 64.587394 
L 340.585313 63.351631 
L 341.701313 62.340546 
L 342.817313 61.555146 
L 343.933313 60.994927 
L 345.049313 60.65543 
L 346.165313 60.526082 
L 347.281313 60.588783 
L 348.397313 60.817485 
L 350.629313 61.632086 
L 353.977313 63.079652 
L 355.093313 63.427479 
L 356.209313 63.631396 
L 357.325313 63.656184 
L 358.441313 63.479887 
L 359.557313 63.097633 
L 360.673313 62.522938 
L 362.905313 60.923927 
L 370.717313 54.361822 
L 372.949313 52.861042 
L 375.181313 51.592555 
L 377.413313 50.541003 
L 378.529313 50.089816 
L 378.529313 50.089816 
" clip-path="url(#pd68e22652d)" style="fill: none; stroke: #808080; stroke-width: 1.5; stroke-linecap: square"/>
   </g>
   <g id="line2d_20">
    <path d="M 44.845313 156.022975 
L 47.077313 155.986993 
L 49.309313 155.720063 
L 51.541313 155.153622 
L 53.773313 154.600586 
L 54.889313 154.530415 
L 56.005313 154.719304 
L 57.121313 155.238583 
L 58.237313 156.125239 
L 59.353313 157.374464 
L 60.469313 158.942102 
L 62.701313 162.726222 
L 66.049313 168.742653 
L 68.281313 172.221871 
L 70.513313 175.029873 
L 72.745313 177.278807 
L 77.209313 181.459636 
L 79.441313 184.134546 
L 81.673313 187.492172 
L 83.905313 191.514653 
L 86.137313 196.051917 
L 89.485313 203.456227 
L 96.181313 218.580001 
L 98.413313 222.754254 
L 100.645313 226.093939 
L 102.877313 228.829584 
L 107.341313 234.032072 
L 109.573313 236.959098 
L 114.037313 243.358502 
L 117.385313 248.0444 
L 119.617313 250.866369 
L 121.849313 253.364952 
L 124.081313 255.515584 
L 126.313313 257.317943 
L 128.545313 258.782875 
L 130.777313 259.92313 
L 133.009313 260.745594 
L 135.241313 261.244482 
L 137.473313 261.396791 
L 139.705313 261.159026 
L 140.821313 260.873847 
L 141.937313 260.464422 
L 143.053313 259.920144 
L 144.169313 259.231695 
L 145.285313 258.393124 
L 147.517313 256.271429 
L 149.749313 253.642265 
L 153.097313 249.178672 
L 156.445313 244.726847 
L 158.677313 242.026306 
L 160.909313 239.714056 
L 162.025313 238.767939 
L 163.141313 238.001369 
L 164.257313 237.440563 
L 165.373313 237.102534 
L 166.489313 236.990791 
L 167.605313 237.093847 
L 168.721313 237.386878 
L 170.953313 238.4007 
L 177.649313 242.149099 
L 178.765313 242.541185 
L 179.881313 242.793925 
L 180.997313 242.879997 
L 182.113313 242.770708 
L 183.229313 242.435982 
L 184.345313 241.844962 
L 185.461313 240.967299 
L 186.577313 239.775024 
L 187.693313 238.244722 
L 188.809313 236.359452 
L 189.925313 234.109892 
L 191.041313 231.49436 
L 192.157313 228.517842 
L 194.389313 221.526487 
L 196.621313 213.259619 
L 198.853313 203.890759 
L 201.085313 193.650576 
L 205.549313 171.783283 
L 208.897313 155.575192 
L 211.129313 145.517098 
L 213.361313 136.39842 
L 215.593313 128.441995 
L 217.825313 121.792032 
L 218.941313 118.975991 
L 220.057313 116.496604 
L 221.173313 114.344617 
L 222.289313 112.506298 
L 223.405313 110.965033 
L 224.521313 109.703189 
L 225.637313 108.704119 
L 226.753313 107.954179 
L 227.869313 107.444637 
L 228.985313 107.173273 
L 230.101313 107.145453 
L 231.217313 107.374448 
L 232.333313 107.880767 
L 233.449313 108.690377 
L 234.565313 109.831738 
L 235.681313 111.331741 
L 236.797313 113.21087 
L 237.913313 115.478171 
L 239.029313 118.12684 
L 241.261313 124.446542 
L 243.493313 131.742953 
L 246.841313 143.074317 
L 249.073313 149.822896 
L 250.189313 152.695175 
L 251.305313 155.127143 
L 252.421313 157.045483 
L 253.537313 158.382385 
L 254.653313 159.077427 
L 255.769313 159.080968 
L 256.885313 158.35904 
L 258.001313 156.899141 
L 259.117313 154.715596 
L 260.233313 151.852696 
L 261.349313 148.384044 
L 263.581313 140.036947 
L 266.929313 125.729227 
L 270.277313 111.640506 
L 272.509313 103.176617 
L 274.741313 95.684035 
L 276.973313 89.168005 
L 279.205313 83.51925 
L 281.437313 78.584452 
L 283.669313 74.244984 
L 285.901313 70.443068 
L 288.133313 67.159613 
L 290.365313 64.389275 
L 292.597313 62.133375 
L 294.829313 60.409535 
L 295.945313 59.762409 
L 297.061313 59.274533 
L 298.177313 58.965895 
L 299.293313 58.866013 
L 300.409313 59.017403 
L 301.525313 59.478885 
L 302.641313 60.326747 
L 303.757313 61.651078 
L 304.873313 63.545499 
L 305.989313 66.091357 
L 307.105313 69.340793 
L 308.221313 73.304512 
L 309.337313 77.948371 
L 311.569313 88.956228 
L 313.801313 101.532061 
L 321.613313 147.051053 
L 324.961313 164.387564 
L 327.193313 174.970687 
L 329.425313 184.807768 
L 331.657313 193.897969 
L 333.889313 202.183562 
L 336.121313 209.581193 
L 338.353313 216.038249 
L 340.585313 221.576167 
L 342.817313 226.299356 
L 345.049313 230.364804 
L 347.281313 233.925242 
L 349.513313 237.079103 
L 351.745313 239.852767 
L 353.977313 242.211221 
L 356.209313 244.074822 
L 357.325313 244.785618 
L 358.441313 245.32483 
L 359.557313 245.670204 
L 360.673313 245.795713 
L 361.789313 245.671528 
L 362.905313 245.264845 
L 364.021313 244.542089 
L 365.137313 243.472747 
L 366.253313 242.034595 
L 367.369313 240.219384 
L 368.485313 238.037587 
L 369.601313 235.520826 
L 371.833313 229.707903 
L 376.297313 217.181378 
L 378.529313 211.745013 
L 378.529313 211.745013 
" clip-path="url(#pd68e22652d)" style="fill: none; stroke: #808080; stroke-width: 1.5; stroke-linecap: square"/>
   </g>
   <g id="line2d_21">
    <path d="M 44.845313 156.022975 
L 45.961313 156.183457 
L 47.077313 155.334755 
L 48.193313 153.853182 
L 49.309313 151.966862 
L 51.541313 147.415541 
L 53.773313 142.036693 
L 56.005313 135.793223 
L 58.237313 128.643126 
L 60.469313 120.724695 
L 67.165313 96.207443 
L 69.397313 89.10389 
L 71.629313 82.899301 
L 73.861313 77.617897 
L 76.093313 73.211881 
L 78.325313 69.582827 
L 80.557313 66.581539 
L 82.789313 64.029904 
L 85.021313 61.776943 
L 88.369313 58.788229 
L 91.717313 56.219161 
L 93.949313 54.747687 
L 96.181313 53.472708 
L 98.413313 52.389737 
L 100.645313 51.488966 
L 102.877313 50.757671 
L 106.225313 49.947885 
L 109.573313 49.438784 
L 112.921313 49.181821 
L 116.269313 49.14743 
L 119.617313 49.376325 
L 121.849313 49.768379 
L 124.081313 50.4886 
L 125.197313 51.02303 
L 126.313313 51.703505 
L 127.429313 52.550773 
L 128.545313 53.581587 
L 129.661313 54.806541 
L 130.777313 56.228407 
L 133.009313 59.63161 
L 135.241313 63.656759 
L 138.589313 70.411676 
L 146.401313 86.559631 
L 150.865313 95.080331 
L 158.677313 109.315951 
L 162.025313 115.09946 
L 164.257313 118.496659 
L 165.373313 119.944126 
L 166.489313 121.163313 
L 167.605313 122.108435 
L 168.721313 122.738046 
L 169.837313 123.018992 
L 170.953313 122.930059 
L 172.069313 122.46476 
L 173.185313 121.632693 
L 174.301313 120.459063 
L 175.417313 118.982371 
L 177.649313 115.317173 
L 179.881313 111.057397 
L 185.461313 100.032944 
L 188.809313 94.049552 
L 191.041313 90.4437 
L 193.273313 87.141995 
L 195.505313 84.120648 
L 198.853313 80.026641 
L 202.201313 76.301152 
L 207.781313 70.464235 
L 212.245313 66.023278 
L 215.593313 62.973426 
L 218.941313 60.290768 
L 221.173313 58.736455 
L 223.405313 57.373585 
L 225.637313 56.194547 
L 228.985313 54.733971 
L 232.333313 53.568028 
L 236.797313 52.288285 
L 246.841313 49.710849 
L 251.305313 48.738666 
L 255.769313 47.974943 
L 260.233313 47.439664 
L 264.697313 47.127049 
L 269.161313 47.024815 
L 273.625313 47.126353 
L 278.089313 47.434475 
L 282.553313 47.964707 
L 285.901313 48.542348 
L 289.249313 49.350646 
L 291.481313 50.083303 
L 293.713313 51.03169 
L 295.945313 52.236604 
L 298.177313 53.69409 
L 303.757313 57.620686 
L 304.873313 58.192703 
L 305.989313 58.599754 
L 307.105313 58.816085 
L 308.221313 58.834454 
L 309.337313 58.666929 
L 310.453313 58.340579 
L 312.685313 57.352172 
L 322.729313 52.105601 
L 326.077313 50.795768 
L 329.425313 49.732984 
L 332.773313 48.880526 
L 337.237313 48.012431 
L 341.701313 47.395511 
L 346.165313 47.006116 
L 349.513313 46.887459 
L 352.861313 46.947446 
L 356.209313 47.197123 
L 359.557313 47.659575 
L 361.789313 48.121131 
L 364.021313 48.751787 
L 366.253313 49.610525 
L 368.485313 50.771343 
L 370.717313 52.311451 
L 372.949313 54.283982 
L 375.181313 56.686279 
L 377.413313 59.455701 
L 378.529313 60.950553 
L 378.529313 60.950553 
" clip-path="url(#pd68e22652d)" style="fill: none; stroke: #808080; stroke-width: 1.5; stroke-linecap: square"/>
   </g>
   <g id="line2d_22">
    <path d="M 44.845313 156.022975 
L 45.961313 156.022975 
L 47.077313 156.485584 
L 50.425313 158.591135 
L 51.541313 158.74733 
L 52.657313 158.29508 
L 53.773313 157.105376 
L 54.889313 155.117637 
L 56.005313 152.3469 
L 57.121313 148.879338 
L 59.353313 140.445263 
L 63.817313 122.180727 
L 66.049313 114.255593 
L 67.165313 110.80303 
L 68.281313 107.719278 
L 69.397313 105.015553 
L 70.513313 102.700319 
L 71.629313 100.782271 
L 72.745313 99.272058 
L 73.861313 98.183016 
L 74.977313 97.531187 
L 76.093313 97.334832 
L 77.209313 97.613557 
L 78.325313 98.387131 
L 79.441313 99.674044 
L 80.557313 101.489869 
L 81.673313 103.845514 
L 82.789313 106.745447 
L 83.905313 110.18596 
L 85.021313 114.153559 
L 86.137313 118.623582 
L 88.369313 128.91111 
L 90.601313 140.607979 
L 99.529313 189.620739 
L 101.761313 200.277673 
L 103.993313 209.995388 
L 106.225313 218.737098 
L 108.457313 226.470606 
L 110.689313 233.194697 
L 112.921313 238.95118 
L 115.153313 243.817123 
L 117.385313 247.889617 
L 119.617313 251.271898 
L 121.849313 254.064201 
L 124.081313 256.358778 
L 126.313313 258.237386 
L 128.545313 259.77039 
L 130.777313 261.017152 
L 133.009313 262.027147 
L 135.241313 262.841133 
L 138.589313 263.764466 
L 141.937313 264.399319 
L 145.285313 264.792881 
L 148.633313 264.962182 
L 151.981313 264.890279 
L 154.213313 264.673412 
L 156.445313 264.257242 
L 158.677313 263.518074 
L 159.793313 262.956966 
L 160.909313 262.20737 
L 162.025313 261.203373 
L 163.141313 259.859533 
L 164.257313 258.070534 
L 165.373313 255.715182 
L 166.489313 252.666885 
L 167.605313 248.811365 
L 168.721313 244.069229 
L 169.837313 238.417183 
L 170.953313 231.899908 
L 173.185313 216.757891 
L 180.997313 158.982077 
L 183.229313 144.858416 
L 185.461313 132.382918 
L 187.693313 121.516011 
L 189.925313 112.132047 
L 192.157313 104.064099 
L 194.389313 97.12782 
L 196.621313 91.136451 
L 198.853313 85.913833 
L 201.085313 81.306669 
L 203.317313 77.193688 
L 205.549313 73.488775 
L 207.781313 70.137229 
L 210.013313 67.106961 
L 212.245313 64.378009 
L 214.477313 61.933761 
L 216.709313 59.755927 
L 218.941313 57.823335 
L 221.173313 56.113229 
L 223.405313 54.603271 
L 226.753313 52.669665 
L 230.101313 51.082721 
L 233.449313 49.793457 
L 236.797313 48.756931 
L 240.145313 47.931069 
L 244.609313 47.094318 
L 249.073313 46.494395 
L 254.653313 45.989938 
L 261.349313 45.631113 
L 270.277313 45.410765 
L 278.089313 45.416681 
L 282.553313 45.637957 
L 284.785313 45.926446 
L 287.017313 46.462965 
L 288.133313 46.877986 
L 289.249313 47.43337 
L 290.365313 48.17386 
L 291.481313 49.158569 
L 292.597313 50.465095 
L 293.713313 52.193403 
L 294.829313 54.467633 
L 295.945313 57.432675 
L 297.061313 61.241695 
L 298.177313 66.032388 
L 299.293313 71.894948 
L 300.409313 78.841811 
L 301.525313 86.792609 
L 303.757313 104.99151 
L 309.337313 153.638673 
L 311.569313 170.998485 
L 313.801313 186.313186 
L 316.033313 199.54605 
L 318.265313 210.812296 
L 320.497313 220.253609 
L 322.729313 228.008819 
L 323.845313 231.291413 
L 324.961313 234.18824 
L 326.077313 236.696743 
L 327.193313 238.801441 
L 328.309313 240.470157 
L 329.425313 241.651116 
L 330.541313 242.272715 
L 331.657313 242.248346 
L 332.773313 241.488138 
L 333.889313 239.917161 
L 335.005313 237.495898 
L 336.121313 234.236101 
L 337.237313 230.206093 
L 338.353313 225.524068 
L 340.585313 214.83099 
L 345.049313 192.597498 
L 347.281313 182.979429 
L 348.397313 178.786168 
L 349.513313 175.039542 
L 350.629313 171.745162 
L 351.745313 168.89519 
L 352.861313 166.472563 
L 353.977313 164.45578 
L 355.093313 162.823497 
L 356.209313 161.558167 
L 357.325313 160.648215 
L 358.441313 160.088523 
L 359.557313 159.87936 
L 360.673313 160.024088 
L 361.789313 160.5261 
L 362.905313 161.385541 
L 364.021313 162.596312 
L 365.137313 164.143816 
L 366.253313 166.00374 
L 368.485313 170.515741 
L 370.717313 175.765976 
L 375.181313 186.737528 
L 377.413313 191.665863 
L 378.529313 193.859616 
L 378.529313 193.859616 
" clip-path="url(#pd68e22652d)" style="fill: none; stroke: #2ca02c; stroke-width: 1.5; stroke-linecap: square"/>
   </g>
   <g id="patch_3">
    <path d="M 44.845313 266.902975 
L 44.845313 45.142975 
" style="fill: none; stroke: #000000; stroke-width: 0.8; stroke-linejoin: miter; stroke-linecap: square"/>
   </g>
   <g id="patch_4">
    <path d="M 379.645313 266.902975 
L 379.645313 45.142975 
" style="fill: none; stroke: #000000; stroke-width: 0.8; stroke-linejoin: miter; stroke-linecap: square"/>
   </g>
   <g id="patch_5">
    <path d="M 44.845313 266.902975 
L 379.645313 266.902975 
" style="fill: none; stroke: #000000; stroke-width: 0.8; stroke-linejoin: miter; stroke-linecap: square"/>
   </g>
   <g id="patch_6">
    <path d="M 44.845313 45.142975 
L 379.645313 45.142975 
" style="fill: none; stroke: #000000; stroke-width: 0.8; stroke-linejoin: miter; stroke-linecap: square"/>
   </g>
   <g id="patch_7">
    <path d="M 212.245313 27.455136 
Q 212.245313 29.754445 212.245313 32.053754 
" style="fill: none; stroke: #000000; stroke-width: 2; stroke-linecap: round"/>
    <path d="M 92.245312 39.053754 
L 92.245312 32.053754 
L 332.245313 32.053754 
L 332.245313 39.053754 
" style="fill: none; stroke: #000000; stroke-width: 2; stroke-linecap: round"/>
   </g>
   <g id="text_18">
    <g id="patch_8">
     <path d="M 186.905313 24.949375 
L 237.585313 24.949375 
L 237.585313 3 
L 186.905313 3 
z
" style="fill: #ffffff; stroke: #ffffff; stroke-linejoin: miter"/>
    </g>
    <!-- $D$:200 -->
    <g transform="translate(191.105313 17.837812) scale(0.14 -0.14)">
     <defs>
      <path id="DejaVuSans-Oblique-44" d="M 1081 4666 
L 2438 4666 
Q 3519 4666 4070 4208 
Q 4622 3750 4622 2847 
Q 4622 2250 4412 1698 
Q 4203 1147 3834 769 
Q 3463 381 2891 190 
Q 2319 0 1538 0 
L 172 0 
L 1081 4666 
z
M 1613 4147 
L 909 519 
L 1734 519 
Q 2794 519 3375 1128 
Q 3956 1738 3956 2847 
Q 3956 3519 3581 3833 
Q 3206 4147 2406 4147 
L 1613 4147 
z
" transform="scale(0.015625)"/>
      <path id="DejaVuSans-3a" d="M 750 794 
L 1409 794 
L 1409 0 
L 750 0 
L 750 794 
z
M 750 3309 
L 1409 3309 
L 1409 2516 
L 750 2516 
L 750 3309 
z
" transform="scale(0.015625)"/>
     </defs>
     <use xlink:href="#DejaVuSans-Oblique-44" transform="translate(0 0.78125)"/>
     <use xlink:href="#DejaVuSans-3a" transform="translate(77.001953 0.78125)"/>
     <use xlink:href="#DejaVuSans-32" transform="translate(110.693359 0.78125)"/>
     <use xlink:href="#DejaVuSans-30" transform="translate(174.316406 0.78125)"/>
     <use xlink:href="#DejaVuSans-30" transform="translate(237.939453 0.78125)"/>
    </g>
   </g>
  </g>
 </g>
 <defs>
  <clipPath id="pd68e22652d">
   <rect x="44.845313" y="45.142975" width="334.8" height="221.76"/>
  </clipPath>
 </defs>
</svg>
