<?xml version="1.0" encoding="utf-8" standalone="no"?>
<!DOCTYPE svg PUBLIC "-//W3C//DTD SVG 1.1//EN"
  "http://www.w3.org/Graphics/SVG/1.1/DTD/svg11.dtd">
<svg xmlns:xlink="http://www.w3.org/1999/xlink" width="396.389062pt" height="304.459225pt" viewBox="0 0 396.389062 304.459225" xmlns="http://www.w3.org/2000/svg" version="1.1">
 <metadata>
  <rdf:RDF xmlns:dc="http://purl.org/dc/elements/1.1/" xmlns:cc="http://creativecommons.org/ns#" xmlns:rdf="http://www.w3.org/1999/02/22-rdf-syntax-ns#">
   <cc:Work>
    <dc:type rdf:resource="http://purl.org/dc/dcmitype/StillImage"/>
    <dc:date>2026-06-01T15:46:30.783510</dc:date>
    <dc:format>image/svg+xml</dc:format>
    <dc:creator>
     <cc:Agent>
      <dc:title>Matplotlib v3.10.8, https://matplotlib.org/</dc:title>
     </cc:Agent>
    </dc:creator>
   </cc:Work>
  </rdf:RDF>
 </metadata>
 <defs>
  <style type="text/css">*{stroke-linejoin: round; stroke-linecap: butt}</style>
 </defs>
 <g id="figure_1">
  <g id="patch_1">
   <path d="M 0 304.459225 
L 396.389062 304.459225 
L 396.389062 0 
L 0 0 
L 0 304.459225 
z
" style="fill: none"/>
  </g>
  <g id="axes_1">
   <g id="patch_2">
    <path d="M 44.845313 266.902975 
L 379.645313 266.902975 
L 379.645313 45.142975 
L 44.845313 45.142975 
L 44.845313 266.902975 
z
" style="fill: none"/>
   </g>
   <g id="FillBetweenPolyCollection_1">
    <defs>
     <path id="m1bf4161366" d="M 295.945313 -259.31625 
L 295.945313 -37.55625 
L 297.619313 -37.55625 
L 299.293313 -37.55625 
L 300.967313 -37.55625 
L 302.641313 -37.55625 
L 304.315313 -37.55625 
L 305.989313 -37.55625 
L 307.663313 -37.55625 
L 309.337313 -37.55625 
L 311.011313 -37.55625 
L 312.685313 -37.55625 
L 314.359313 -37.55625 
L 316.033313 -37.55625 
L 317.707313 -37.55625 
L 319.381313 -37.55625 
L 321.055313 -37.55625 
L 322.729313 -37.55625 
L 324.403313 -37.55625 
L 326.077313 -37.55625 
L 327.751313 -37.55625 
L 329.425313 -37.55625 
L 331.099313 -37.55625 
L 332.773313 -37.55625 
L 334.447313 -37.55625 
L 336.121313 -37.55625 
L 337.795313 -37.55625 
L 339.469313 -37.55625 
L 341.143313 -37.55625 
L 342.817313 -37.55625 
L 344.491313 -37.55625 
L 346.165313 -37.55625 
L 347.839313 -37.55625 
L 349.513313 -37.55625 
L 351.187313 -37.55625 
L 352.861313 -37.55625 
L 354.535313 -37.55625 
L 356.209313 -37.55625 
L 357.883313 -37.55625 
L 359.557313 -37.55625 
L 361.231313 -37.55625 
L 362.905313 -37.55625 
L 364.579313 -37.55625 
L 366.253313 -37.55625 
L 367.927313 -37.55625 
L 369.601313 -37.55625 
L 371.275313 -37.55625 
L 372.949313 -37.55625 
L 374.623313 -37.55625 
L 376.297313 -37.55625 
L 377.971313 -37.55625 
L 377.971313 -259.31625 
L 377.971313 -259.31625 
L 376.297313 -259.31625 
L 374.623313 -259.31625 
L 372.949313 -259.31625 
L 371.275313 -259.31625 
L 369.601313 -259.31625 
L 367.927313 -259.31625 
L 366.253313 -259.31625 
L 364.579313 -259.31625 
L 362.905313 -259.31625 
L 361.231313 -259.31625 
L 359.557313 -259.31625 
L 357.883313 -259.31625 
L 356.209313 -259.31625 
L 354.535313 -259.31625 
L 352.861313 -259.31625 
L 351.187313 -259.31625 
L 349.513313 -259.31625 
L 347.839313 -259.31625 
L 346.165313 -259.31625 
L 344.491313 -259.31625 
L 342.817313 -259.31625 
L 341.143313 -259.31625 
L 339.469313 -259.31625 
L 337.795313 -259.31625 
L 336.121313 -259.31625 
L 334.447313 -259.31625 
L 332.773313 -259.31625 
L 331.099313 -259.31625 
L 329.425313 -259.31625 
L 327.751313 -259.31625 
L 326.077313 -259.31625 
L 324.403313 -259.31625 
L 322.729313 -259.31625 
L 321.055313 -259.31625 
L 319.381313 -259.31625 
L 317.707313 -259.31625 
L 316.033313 -259.31625 
L 314.359313 -259.31625 
L 312.685313 -259.31625 
L 311.011313 -259.31625 
L 309.337313 -259.31625 
L 307.663313 -259.31625 
L 305.989313 -259.31625 
L 304.315313 -259.31625 
L 302.641313 -259.31625 
L 300.967313 -259.31625 
L 299.293313 -259.31625 
L 297.619313 -259.31625 
L 295.945313 -259.31625 
z
" style="stroke: #2ca02c; stroke-opacity: 0.3"/>
    </defs>
    <g clip-path="url(#p2334654046)">
     <use xlink:href="#m1bf4161366" x="0" y="304.459225" style="fill: #2ca02c; fill-opacity: 0.3; stroke: #2ca02c; stroke-opacity: 0.3"/>
    </g>
   </g>
   <g id="FillBetweenPolyCollection_2">
    <defs>
     <path id="mec73e107ab" d="M 128.545313 -259.31625 
L 128.545313 -37.55625 
L 130.219313 -37.55625 
L 131.893313 -37.55625 
L 133.567313 -37.55625 
L 135.241313 -37.55625 
L 136.915313 -37.55625 
L 138.589313 -37.55625 
L 140.263313 -37.55625 
L 141.937313 -37.55625 
L 143.611313 -37.55625 
L 145.285313 -37.55625 
L 146.959313 -37.55625 
L 148.633313 -37.55625 
L 150.307313 -37.55625 
L 151.981313 -37.55625 
L 153.655313 -37.55625 
L 155.329313 -37.55625 
L 157.003313 -37.55625 
L 158.677313 -37.55625 
L 160.351313 -37.55625 
L 162.025313 -37.55625 
L 163.699313 -37.55625 
L 165.373313 -37.55625 
L 167.047313 -37.55625 
L 168.721313 -37.55625 
L 170.395313 -37.55625 
L 172.069313 -37.55625 
L 173.743313 -37.55625 
L 175.417313 -37.55625 
L 177.091313 -37.55625 
L 178.765313 -37.55625 
L 180.439313 -37.55625 
L 182.113313 -37.55625 
L 183.787313 -37.55625 
L 185.461313 -37.55625 
L 187.135313 -37.55625 
L 188.809313 -37.55625 
L 190.483313 -37.55625 
L 192.157313 -37.55625 
L 193.831313 -37.55625 
L 195.505313 -37.55625 
L 197.179313 -37.55625 
L 198.853313 -37.55625 
L 200.527313 -37.55625 
L 202.201313 -37.55625 
L 203.875313 -37.55625 
L 205.549313 -37.55625 
L 207.223313 -37.55625 
L 208.897313 -37.55625 
L 210.571313 -37.55625 
L 210.571313 -259.31625 
L 210.571313 -259.31625 
L 208.897313 -259.31625 
L 207.223313 -259.31625 
L 205.549313 -259.31625 
L 203.875313 -259.31625 
L 202.201313 -259.31625 
L 200.527313 -259.31625 
L 198.853313 -259.31625 
L 197.179313 -259.31625 
L 195.505313 -259.31625 
L 193.831313 -259.31625 
L 192.157313 -259.31625 
L 190.483313 -259.31625 
L 188.809313 -259.31625 
L 187.135313 -259.31625 
L 185.461313 -259.31625 
L 183.787313 -259.31625 
L 182.113313 -259.31625 
L 180.439313 -259.31625 
L 178.765313 -259.31625 
L 177.091313 -259.31625 
L 175.417313 -259.31625 
L 173.743313 -259.31625 
L 172.069313 -259.31625 
L 170.395313 -259.31625 
L 168.721313 -259.31625 
L 167.047313 -259.31625 
L 165.373313 -259.31625 
L 163.699313 -259.31625 
L 162.025313 -259.31625 
L 160.351313 -259.31625 
L 158.677313 -259.31625 
L 157.003313 -259.31625 
L 155.329313 -259.31625 
L 153.655313 -259.31625 
L 151.981313 -259.31625 
L 150.307313 -259.31625 
L 148.633313 -259.31625 
L 146.959313 -259.31625 
L 145.285313 -259.31625 
L 143.611313 -259.31625 
L 141.937313 -259.31625 
L 140.263313 -259.31625 
L 138.589313 -259.31625 
L 136.915313 -259.31625 
L 135.241313 -259.31625 
L 133.567313 -259.31625 
L 131.893313 -259.31625 
L 130.219313 -259.31625 
L 128.545313 -259.31625 
z
" style="stroke: #adff2f; stroke-opacity: 0.5"/>
    </defs>
    <g clip-path="url(#p2334654046)">
     <use xlink:href="#mec73e107ab" x="0" y="304.459225" style="fill: #adff2f; fill-opacity: 0.5; stroke: #adff2f; stroke-opacity: 0.5"/>
    </g>
   </g>
   <g id="matplotlib.axis_1">
    <g id="xtick_1">
     <g id="line2d_1">
      <defs>
       <path id="mb6c7cab566" d="M 0 0 
L 0 3.5 
" style="stroke: #000000; stroke-width: 0.8"/>
      </defs>
      <g>
       <use xlink:href="#mb6c7cab566" x="44.845313" y="266.902975" style="stroke: #000000; stroke-width: 0.8"/>
      </g>
     </g>
     <g id="text_1">
      <!-- 0 -->
      <g transform="translate(41.664063 281.501412) scale(0.1 -0.1)">
       <defs>
        <path id="DejaVuSans-30" d="M 2034 4250 
Q 1547 4250 1301 3770 
Q 1056 3291 1056 2328 
Q 1056 1369 1301 889 
Q 1547 409 2034 409 
Q 2525 409 2770 889 
Q 3016 1369 3016 2328 
Q 3016 3291 2770 3770 
Q 2525 4250 2034 4250 
z
M 2034 4750 
Q 2819 4750 3233 4129 
Q 3647 3509 3647 2328 
Q 3647 1150 3233 529 
Q 2819 -91 2034 -91 
Q 1250 -91 836 529 
Q 422 1150 422 2328 
Q 422 3509 836 4129 
Q 1250 4750 2034 4750 
z
" transform="scale(0.015625)"/>
       </defs>
       <use xlink:href="#DejaVuSans-30"/>
      </g>
     </g>
    </g>
    <g id="xtick_2">
     <g id="line2d_2">
      <g>
       <use xlink:href="#mb6c7cab566" x="86.695313" y="266.902975" style="stroke: #000000; stroke-width: 0.8"/>
      </g>
     </g>
     <g id="text_2">
      <!-- 25 -->
      <g transform="translate(80.332813 281.501412) scale(0.1 -0.1)">
       <defs>
        <path id="DejaVuSans-32" d="M 1228 531 
L 3431 531 
L 3431 0 
L 469 0 
L 469 531 
Q 828 903 1448 1529 
Q 2069 2156 2228 2338 
Q 2531 2678 2651 2914 
Q 2772 3150 2772 3378 
Q 2772 3750 2511 3984 
Q 2250 4219 1831 4219 
Q 1534 4219 1204 4116 
Q 875 4013 500 3803 
L 500 4441 
Q 881 4594 1212 4672 
Q 1544 4750 1819 4750 
Q 2544 4750 2975 4387 
Q 3406 4025 3406 3419 
Q 3406 3131 3298 2873 
Q 3191 2616 2906 2266 
Q 2828 2175 2409 1742 
Q 1991 1309 1228 531 
z
" transform="scale(0.015625)"/>
        <path id="DejaVuSans-35" d="M 691 4666 
L 3169 4666 
L 3169 4134 
L 1269 4134 
L 1269 2991 
Q 1406 3038 1543 3061 
Q 1681 3084 1819 3084 
Q 2600 3084 3056 2656 
Q 3513 2228 3513 1497 
Q 3513 744 3044 326 
Q 2575 -91 1722 -91 
Q 1428 -91 1123 -41 
Q 819 9 494 109 
L 494 744 
Q 775 591 1075 516 
Q 1375 441 1709 441 
Q 2250 441 2565 725 
Q 2881 1009 2881 1497 
Q 2881 1984 2565 2268 
Q 2250 2553 1709 2553 
Q 1456 2553 1204 2497 
Q 953 2441 691 2322 
L 691 4666 
z
" transform="scale(0.015625)"/>
       </defs>
       <use xlink:href="#DejaVuSans-32"/>
       <use xlink:href="#DejaVuSans-35" transform="translate(63.623047 0)"/>
      </g>
     </g>
    </g>
    <g id="xtick_3">
     <g id="line2d_3">
      <g>
       <use xlink:href="#mb6c7cab566" x="128.545313" y="266.902975" style="stroke: #000000; stroke-width: 0.8"/>
      </g>
     </g>
     <g id="text_3">
      <!-- 50 -->
      <g transform="translate(122.182813 281.501412) scale(0.1 -0.1)">
       <use xlink:href="#DejaVuSans-35"/>
       <use xlink:href="#DejaVuSans-30" transform="translate(63.623047 0)"/>
      </g>
     </g>
    </g>
    <g id="xtick_4">
     <g id="line2d_4">
      <g>
       <use xlink:href="#mb6c7cab566" x="170.395313" y="266.902975" style="stroke: #000000; stroke-width: 0.8"/>
      </g>
     </g>
     <g id="text_4">
      <!-- 75 -->
      <g transform="translate(164.032813 281.501412) scale(0.1 -0.1)">
       <defs>
        <path id="DejaVuSans-37" d="M 525 4666 
L 3525 4666 
L 3525 4397 
L 1831 0 
L 1172 0 
L 2766 4134 
L 525 4134 
L 525 4666 
z
" transform="scale(0.015625)"/>
       </defs>
       <use xlink:href="#DejaVuSans-37"/>
       <use xlink:href="#DejaVuSans-35" transform="translate(63.623047 0)"/>
      </g>
     </g>
    </g>
    <g id="xtick_5">
     <g id="line2d_5">
      <g>
       <use xlink:href="#mb6c7cab566" x="212.245313" y="266.902975" style="stroke: #000000; stroke-width: 0.8"/>
      </g>
     </g>
     <g id="text_5">
      <!-- 100 -->
      <g transform="translate(202.701563 281.501412) scale(0.1 -0.1)">
       <defs>
        <path id="DejaVuSans-31" d="M 794 531 
L 1825 531 
L 1825 4091 
L 703 3866 
L 703 4441 
L 1819 4666 
L 2450 4666 
L 2450 531 
L 3481 531 
L 3481 0 
L 794 0 
L 794 531 
z
" transform="scale(0.015625)"/>
       </defs>
       <use xlink:href="#DejaVuSans-31"/>
       <use xlink:href="#DejaVuSans-30" transform="translate(63.623047 0)"/>
       <use xlink:href="#DejaVuSans-30" transform="translate(127.246094 0)"/>
      </g>
     </g>
    </g>
    <g id="xtick_6">
     <g id="line2d_6">
      <g>
       <use xlink:href="#mb6c7cab566" x="254.095313" y="266.902975" style="stroke: #000000; stroke-width: 0.8"/>
      </g>
     </g>
     <g id="text_6">
      <!-- 125 -->
      <g transform="translate(244.551563 281.501412) scale(0.1 -0.1)">
       <use xlink:href="#DejaVuSans-31"/>
       <use xlink:href="#DejaVuSans-32" transform="translate(63.623047 0)"/>
       <use xlink:href="#DejaVuSans-35" transform="translate(127.246094 0)"/>
      </g>
     </g>
    </g>
    <g id="xtick_7">
     <g id="line2d_7">
      <g>
       <use xlink:href="#mb6c7cab566" x="295.945313" y="266.902975" style="stroke: #000000; stroke-width: 0.8"/>
      </g>
     </g>
     <g id="text_7">
      <!-- 150 -->
      <g transform="translate(286.401563 281.501412) scale(0.1 -0.1)">
       <use xlink:href="#DejaVuSans-31"/>
       <use xlink:href="#DejaVuSans-35" transform="translate(63.623047 0)"/>
       <use xlink:href="#DejaVuSans-30" transform="translate(127.246094 0)"/>
      </g>
     </g>
    </g>
    <g id="xtick_8">
     <g id="line2d_8">
      <g>
       <use xlink:href="#mb6c7cab566" x="337.795313" y="266.902975" style="stroke: #000000; stroke-width: 0.8"/>
      </g>
     </g>
     <g id="text_8">
      <!-- 175 -->
      <g transform="translate(328.251563 281.501412) scale(0.1 -0.1)">
       <use xlink:href="#DejaVuSans-31"/>
       <use xlink:href="#DejaVuSans-37" transform="translate(63.623047 0)"/>
       <use xlink:href="#DejaVuSans-35" transform="translate(127.246094 0)"/>
      </g>
     </g>
    </g>
    <g id="xtick_9">
     <g id="line2d_9">
      <g>
       <use xlink:href="#mb6c7cab566" x="379.645313" y="266.902975" style="stroke: #000000; stroke-width: 0.8"/>
      </g>
     </g>
     <g id="text_9">
      <!-- 200 -->
      <g transform="translate(370.101563 281.501412) scale(0.1 -0.1)">
       <use xlink:href="#DejaVuSans-32"/>
       <use xlink:href="#DejaVuSans-30" transform="translate(63.623047 0)"/>
       <use xlink:href="#DejaVuSans-30" transform="translate(127.246094 0)"/>
      </g>
     </g>
    </g>
    <g id="text_10">
     <!-- time steps -->
     <g transform="translate(185.939844 295.179537) scale(0.1 -0.1)">
      <defs>
       <path id="DejaVuSans-74" d="M 1172 4494 
L 1172 3500 
L 2356 3500 
L 2356 3053 
L 1172 3053 
L 1172 1153 
Q 1172 725 1289 603 
Q 1406 481 1766 481 
L 2356 481 
L 2356 0 
L 1766 0 
Q 1100 0 847 248 
Q 594 497 594 1153 
L 594 3053 
L 172 3053 
L 172 3500 
L 594 3500 
L 594 4494 
L 1172 4494 
z
" transform="scale(0.015625)"/>
       <path id="DejaVuSans-69" d="M 603 3500 
L 1178 3500 
L 1178 0 
L 603 0 
L 603 3500 
z
M 603 4863 
L 1178 4863 
L 1178 4134 
L 603 4134 
L 603 4863 
z
" transform="scale(0.015625)"/>
       <path id="DejaVuSans-6d" d="M 3328 2828 
Q 3544 3216 3844 3400 
Q 4144 3584 4550 3584 
Q 5097 3584 5394 3201 
Q 5691 2819 5691 2113 
L 5691 0 
L 5113 0 
L 5113 2094 
Q 5113 2597 4934 2840 
Q 4756 3084 4391 3084 
Q 3944 3084 3684 2787 
Q 3425 2491 3425 1978 
L 3425 0 
L 2847 0 
L 2847 2094 
Q 2847 2600 2669 2842 
Q 2491 3084 2119 3084 
Q 1678 3084 1418 2786 
Q 1159 2488 1159 1978 
L 1159 0 
L 581 0 
L 581 3500 
L 1159 3500 
L 1159 2956 
Q 1356 3278 1631 3431 
Q 1906 3584 2284 3584 
Q 2666 3584 2933 3390 
Q 3200 3197 3328 2828 
z
" transform="scale(0.015625)"/>
       <path id="DejaVuSans-65" d="M 3597 1894 
L 3597 1613 
L 953 1613 
Q 991 1019 1311 708 
Q 1631 397 2203 397 
Q 2534 397 2845 478 
Q 3156 559 3463 722 
L 3463 178 
Q 3153 47 2828 -22 
Q 2503 -91 2169 -91 
Q 1331 -91 842 396 
Q 353 884 353 1716 
Q 353 2575 817 3079 
Q 1281 3584 2069 3584 
Q 2775 3584 3186 3129 
Q 3597 2675 3597 1894 
z
M 3022 2063 
Q 3016 2534 2758 2815 
Q 2500 3097 2075 3097 
Q 1594 3097 1305 2825 
Q 1016 2553 972 2059 
L 3022 2063 
z
" transform="scale(0.015625)"/>
       <path id="DejaVuSans-20" transform="scale(0.015625)"/>
       <path id="DejaVuSans-73" d="M 2834 3397 
L 2834 2853 
Q 2591 2978 2328 3040 
Q 2066 3103 1784 3103 
Q 1356 3103 1142 2972 
Q 928 2841 928 2578 
Q 928 2378 1081 2264 
Q 1234 2150 1697 2047 
L 1894 2003 
Q 2506 1872 2764 1633 
Q 3022 1394 3022 966 
Q 3022 478 2636 193 
Q 2250 -91 1575 -91 
Q 1294 -91 989 -36 
Q 684 19 347 128 
L 347 722 
Q 666 556 975 473 
Q 1284 391 1588 391 
Q 1994 391 2212 530 
Q 2431 669 2431 922 
Q 2431 1156 2273 1281 
Q 2116 1406 1581 1522 
L 1381 1569 
Q 847 1681 609 1914 
Q 372 2147 372 2553 
Q 372 3047 722 3315 
Q 1072 3584 1716 3584 
Q 2034 3584 2315 3537 
Q 2597 3491 2834 3397 
z
" transform="scale(0.015625)"/>
       <path id="DejaVuSans-70" d="M 1159 525 
L 1159 -1331 
L 581 -1331 
L 581 3500 
L 1159 3500 
L 1159 2969 
Q 1341 3281 1617 3432 
Q 1894 3584 2278 3584 
Q 2916 3584 3314 3078 
Q 3713 2572 3713 1747 
Q 3713 922 3314 415 
Q 2916 -91 2278 -91 
Q 1894 -91 1617 61 
Q 1341 213 1159 525 
z
M 3116 1747 
Q 3116 2381 2855 2742 
Q 2594 3103 2138 3103 
Q 1681 3103 1420 2742 
Q 1159 2381 1159 1747 
Q 1159 1113 1420 752 
Q 1681 391 2138 391 
Q 2594 391 2855 752 
Q 3116 1113 3116 1747 
z
" transform="scale(0.015625)"/>
      </defs>
      <use xlink:href="#DejaVuSans-74"/>
      <use xlink:href="#DejaVuSans-69" transform="translate(39.208984 0)"/>
      <use xlink:href="#DejaVuSans-6d" transform="translate(66.992188 0)"/>
      <use xlink:href="#DejaVuSans-65" transform="translate(164.404297 0)"/>
      <use xlink:href="#DejaVuSans-20" transform="translate(225.927734 0)"/>
      <use xlink:href="#DejaVuSans-73" transform="translate(257.714844 0)"/>
      <use xlink:href="#DejaVuSans-74" transform="translate(309.814453 0)"/>
      <use xlink:href="#DejaVuSans-65" transform="translate(349.023438 0)"/>
      <use xlink:href="#DejaVuSans-70" transform="translate(410.546875 0)"/>
      <use xlink:href="#DejaVuSans-73" transform="translate(474.023438 0)"/>
     </g>
    </g>
   </g>
   <g id="matplotlib.axis_2">
    <g id="ytick_1">
     <g id="line2d_10">
      <defs>
       <path id="mf72ad81466" d="M 0 0 
L -3.5 0 
" style="stroke: #000000; stroke-width: 0.8"/>
      </defs>
      <g>
       <use xlink:href="#mf72ad81466" x="44.845313" y="266.902975" style="stroke: #000000; stroke-width: 0.8"/>
      </g>
     </g>
     <g id="text_11">
      <!-- −1.00 -->
      <g transform="translate(7.2 270.702194) scale(0.1 -0.1)">
       <defs>
        <path id="DejaVuSans-2212" d="M 678 2272 
L 4684 2272 
L 4684 1741 
L 678 1741 
L 678 2272 
z
" transform="scale(0.015625)"/>
        <path id="DejaVuSans-2e" d="M 684 794 
L 1344 794 
L 1344 0 
L 684 0 
L 684 794 
z
" transform="scale(0.015625)"/>
       </defs>
       <use xlink:href="#DejaVuSans-2212"/>
       <use xlink:href="#DejaVuSans-31" transform="translate(83.789062 0)"/>
       <use xlink:href="#DejaVuSans-2e" transform="translate(147.412109 0)"/>
       <use xlink:href="#DejaVuSans-30" transform="translate(179.199219 0)"/>
       <use xlink:href="#DejaVuSans-30" transform="translate(242.822266 0)"/>
      </g>
     </g>
    </g>
    <g id="ytick_2">
     <g id="line2d_11">
      <g>
       <use xlink:href="#mf72ad81466" x="44.845313" y="239.182975" style="stroke: #000000; stroke-width: 0.8"/>
      </g>
     </g>
     <g id="text_12">
      <!-- −0.75 -->
      <g transform="translate(7.2 242.982194) scale(0.1 -0.1)">
       <use xlink:href="#DejaVuSans-2212"/>
       <use xlink:href="#DejaVuSans-30" transform="translate(83.789062 0)"/>
       <use xlink:href="#DejaVuSans-2e" transform="translate(147.412109 0)"/>
       <use xlink:href="#DejaVuSans-37" transform="translate(179.199219 0)"/>
       <use xlink:href="#DejaVuSans-35" transform="translate(242.822266 0)"/>
      </g>
     </g>
    </g>
    <g id="ytick_3">
     <g id="line2d_12">
      <g>
       <use xlink:href="#mf72ad81466" x="44.845313" y="211.462975" style="stroke: #000000; stroke-width: 0.8"/>
      </g>
     </g>
     <g id="text_13">
      <!-- −0.50 -->
      <g transform="translate(7.2 215.262194) scale(0.1 -0.1)">
       <use xlink:href="#DejaVuSans-2212"/>
       <use xlink:href="#DejaVuSans-30" transform="translate(83.789062 0)"/>
       <use xlink:href="#DejaVuSans-2e" transform="translate(147.412109 0)"/>
       <use xlink:href="#DejaVuSans-35" transform="translate(179.199219 0)"/>
       <use xlink:href="#DejaVuSans-30" transform="translate(242.822266 0)"/>
      </g>
     </g>
    </g>
    <g id="ytick_4">
     <g id="line2d_13">
      <g>
       <use xlink:href="#mf72ad81466" x="44.845313" y="183.742975" style="stroke: #000000; stroke-width: 0.8"/>
      </g>
     </g>
     <g id="text_14">
      <!-- −0.25 -->
      <g transform="translate(7.2 187.542194) scale(0.1 -0.1)">
       <use xlink:href="#DejaVuSans-2212"/>
       <use xlink:href="#DejaVuSans-30" transform="translate(83.789062 0)"/>
       <use xlink:href="#DejaVuSans-2e" transform="translate(147.412109 0)"/>
       <use xlink:href="#DejaVuSans-32" transform="translate(179.199219 0)"/>
       <use xlink:href="#DejaVuSans-35" transform="translate(242.822266 0)"/>
      </g>
     </g>
    </g>
    <g id="ytick_5">
     <g id="line2d_14">
      <g>
       <use xlink:href="#mf72ad81466" x="44.845313" y="156.022975" style="stroke: #000000; stroke-width: 0.8"/>
      </g>
     </g>
     <g id="text_15">
      <!-- 0.00 -->
      <g transform="translate(15.579688 159.822194) scale(0.1 -0.1)">
       <use xlink:href="#DejaVuSans-30"/>
       <use xlink:href="#DejaVuSans-2e" transform="translate(63.623047 0)"/>
       <use xlink:href="#DejaVuSans-30" transform="translate(95.410156 0)"/>
       <use xlink:href="#DejaVuSans-30" transform="translate(159.033203 0)"/>
      </g>
     </g>
    </g>
    <g id="ytick_6">
     <g id="line2d_15">
      <g>
       <use xlink:href="#mf72ad81466" x="44.845313" y="128.302975" style="stroke: #000000; stroke-width: 0.8"/>
      </g>
     </g>
     <g id="text_16">
      <!-- 0.25 -->
      <g transform="translate(15.579688 132.102194) scale(0.1 -0.1)">
       <use xlink:href="#DejaVuSans-30"/>
       <use xlink:href="#DejaVuSans-2e" transform="translate(63.623047 0)"/>
       <use xlink:href="#DejaVuSans-32" transform="translate(95.410156 0)"/>
       <use xlink:href="#DejaVuSans-35" transform="translate(159.033203 0)"/>
      </g>
     </g>
    </g>
    <g id="ytick_7">
     <g id="line2d_16">
      <g>
       <use xlink:href="#mf72ad81466" x="44.845313" y="100.582975" style="stroke: #000000; stroke-width: 0.8"/>
      </g>
     </g>
     <g id="text_17">
      <!-- 0.50 -->
      <g transform="translate(15.579688 104.382194) scale(0.1 -0.1)">
       <use xlink:href="#DejaVuSans-30"/>
       <use xlink:href="#DejaVuSans-2e" transform="translate(63.623047 0)"/>
       <use xlink:href="#DejaVuSans-35" transform="translate(95.410156 0)"/>
       <use xlink:href="#DejaVuSans-30" transform="translate(159.033203 0)"/>
      </g>
     </g>
    </g>
    <g id="ytick_8">
     <g id="line2d_17">
      <g>
       <use xlink:href="#mf72ad81466" x="44.845313" y="72.862975" style="stroke: #000000; stroke-width: 0.8"/>
      </g>
     </g>
     <g id="text_18">
      <!-- 0.75 -->
      <g transform="translate(15.579688 76.662194) scale(0.1 -0.1)">
       <use xlink:href="#DejaVuSans-30"/>
       <use xlink:href="#DejaVuSans-2e" transform="translate(63.623047 0)"/>
       <use xlink:href="#DejaVuSans-37" transform="translate(95.410156 0)"/>
       <use xlink:href="#DejaVuSans-35" transform="translate(159.033203 0)"/>
      </g>
     </g>
    </g>
    <g id="ytick_9">
     <g id="line2d_18">
      <g>
       <use xlink:href="#mf72ad81466" x="44.845313" y="45.142975" style="stroke: #000000; stroke-width: 0.8"/>
      </g>
     </g>
     <g id="text_19">
      <!-- 1.00 -->
      <g transform="translate(15.579688 48.942194) scale(0.1 -0.1)">
       <use xlink:href="#DejaVuSans-31"/>
       <use xlink:href="#DejaVuSans-2e" transform="translate(63.623047 0)"/>
       <use xlink:href="#DejaVuSans-30" transform="translate(95.410156 0)"/>
       <use xlink:href="#DejaVuSans-30" transform="translate(159.033203 0)"/>
      </g>
     </g>
    </g>
   </g>
   <g id="line2d_19">
    <path d="M 44.845313 156.022975 
L 46.519313 156.873732 
L 48.193313 157.156689 
L 49.867313 156.933343 
L 51.541313 156.24988 
L 53.215313 155.145536 
L 54.889313 153.658224 
L 56.563313 151.827733 
L 58.237313 149.696933 
L 59.911313 147.311501 
L 63.259313 141.965679 
L 68.281313 133.18513 
L 73.303313 124.392627 
L 76.651313 118.898861 
L 79.999313 113.89286 
L 83.347313 109.512828 
L 85.021313 107.599605 
L 86.695313 105.895031 
L 88.369313 104.419607 
L 90.043313 103.196793 
L 91.717313 102.253895 
L 93.391313 101.622874 
L 95.065313 101.340918 
L 96.739313 101.45051 
L 98.413313 101.998659 
L 100.087313 103.034983 
L 101.761313 104.608408 
L 103.435313 106.762579 
L 105.109313 109.530413 
L 106.783313 112.92859 
L 108.457313 116.953031 
L 110.131313 121.576296 
L 111.805313 126.747565 
L 115.153313 138.432106 
L 118.501313 151.28157 
L 125.197313 177.458562 
L 128.545313 189.622091 
L 131.893313 200.710631 
L 135.241313 210.589813 
L 138.589313 219.241066 
L 140.263313 223.121534 
L 141.937313 226.719493 
L 143.611313 230.047915 
L 145.285313 233.120793 
L 146.959313 235.952621 
L 148.633313 238.557997 
L 150.307313 240.951331 
L 151.981313 243.146626 
L 155.329313 246.996283 
L 158.677313 250.206597 
L 162.025313 252.865677 
L 165.373313 255.049755 
L 168.721313 256.823308 
L 172.069313 258.239441 
L 175.417313 259.340498 
L 178.765313 260.158985 
L 182.113313 260.71888 
L 185.461313 261.037461 
L 188.809313 261.127773 
L 192.157313 261.001851 
L 195.505313 260.674504 
L 198.853313 260.166802 
L 203.875313 259.132774 
L 210.571313 257.443695 
L 222.289313 254.406164 
L 230.659313 252.488721 
L 242.377313 249.842862 
L 247.399313 248.477963 
L 252.421313 246.82593 
L 255.769313 245.522417 
L 259.117313 244.038298 
L 262.465313 242.36988 
L 267.487313 239.547733 
L 272.509313 236.434143 
L 282.553313 230.062119 
L 285.901313 228.151149 
L 289.249313 226.471626 
L 292.597313 225.094615 
L 295.945313 224.083107 
L 299.293313 223.487612 
L 300.967313 223.357054 
L 302.641313 223.341344 
L 304.315313 223.441202 
L 305.989313 223.655805 
L 309.337313 224.418278 
L 312.685313 225.592777 
L 316.033313 227.125128 
L 319.381313 228.951177 
L 322.729313 231.005693 
L 327.751313 234.388122 
L 334.447313 239.21298 
L 344.491313 246.496225 
L 349.513313 249.885832 
L 354.535313 252.960586 
L 357.883313 254.800295 
L 361.231313 256.45979 
L 364.579313 257.937665 
L 367.927313 259.238959 
L 371.275313 260.373451 
L 376.297313 261.791113 
L 377.971313 262.195254 
L 377.971313 262.195254 
" clip-path="url(#p2334654046)" style="fill: none; stroke: #808080; stroke-width: 1.5; stroke-linecap: square"/>
   </g>
   <g id="line2d_20">
    <path d="M 44.845313 156.022975 
L 46.519313 155.114882 
L 48.193313 154.658709 
L 49.867313 154.612078 
L 51.541313 154.909473 
L 53.215313 155.47277 
L 56.563313 157.070502 
L 59.911313 158.794771 
L 61.585313 159.545527 
L 63.259313 160.155305 
L 64.933313 160.585088 
L 66.607313 160.803998 
L 68.281313 160.788627 
L 69.955313 160.522418 
L 71.629313 159.995146 
L 73.303313 159.202516 
L 74.977313 158.145861 
L 76.651313 156.831872 
L 78.325313 155.27232 
L 79.999313 153.483683 
L 81.673313 151.486638 
L 85.021313 146.966918 
L 88.369313 141.934169 
L 100.087313 123.522626 
L 103.435313 118.781835 
L 106.783313 114.488982 
L 110.131313 110.698269 
L 113.479313 107.427918 
L 116.827313 104.663285 
L 120.175313 102.360096 
L 123.523313 100.447901 
L 126.871313 98.834264 
L 131.893313 96.734097 
L 138.589313 93.949954 
L 143.611313 91.528967 
L 148.633313 88.770642 
L 167.047313 78.199921 
L 173.743313 74.778915 
L 182.113313 70.759239 
L 193.831313 65.398448 
L 207.223313 59.492816 
L 213.919313 56.739216 
L 218.941313 54.868444 
L 223.963313 53.216764 
L 228.985313 51.805002 
L 234.007313 50.631452 
L 239.029313 49.679608 
L 244.051313 48.926068 
L 250.747313 48.188353 
L 257.443313 47.713095 
L 264.139313 47.471839 
L 270.835313 47.457046 
L 277.531313 47.675498 
L 284.227313 48.131692 
L 290.923313 48.805861 
L 300.967313 50.094654 
L 316.033313 52.28258 
L 321.055313 53.177246 
L 326.077313 54.31893 
L 329.425313 55.288896 
L 332.773313 56.476619 
L 336.121313 57.91857 
L 339.469313 59.637549 
L 342.817313 61.63645 
L 346.165313 63.895031 
L 351.187313 67.67402 
L 357.883313 73.131212 
L 369.601313 82.723345 
L 377.971313 89.398221 
L 377.971313 89.398221 
" clip-path="url(#p2334654046)" style="fill: none; stroke: #808080; stroke-width: 1.5; stroke-linecap: square"/>
   </g>
   <g id="line2d_21">
    <path d="M 44.845313 156.022975 
L 46.519313 156.022975 
L 48.193313 155.828147 
L 51.541313 155.075337 
L 68.281313 150.346726 
L 71.629313 148.934722 
L 73.303313 148.049912 
L 74.977313 147.026526 
L 76.651313 145.855819 
L 78.325313 144.534209 
L 81.673313 141.449984 
L 85.021313 137.844854 
L 88.369313 133.852148 
L 100.087313 119.310237 
L 103.435313 115.623297 
L 106.783313 112.320542 
L 110.131313 109.429602 
L 113.479313 106.940685 
L 116.827313 104.813515 
L 120.175313 102.984677 
L 125.197313 100.624883 
L 136.915313 95.437594 
L 141.937313 92.892096 
L 150.307313 88.285377 
L 157.003313 84.711767 
L 162.025313 82.334528 
L 165.373313 80.94764 
L 168.721313 79.738339 
L 172.069313 78.716159 
L 175.417313 77.885702 
L 178.765313 77.247103 
L 182.113313 76.796689 
L 185.461313 76.528174 
L 188.809313 76.43422 
L 192.157313 76.507947 
L 195.505313 76.744073 
L 198.853313 77.139633 
L 202.201313 77.694475 
L 205.549313 78.411968 
L 208.897313 79.300387 
L 212.245313 80.375312 
L 215.593313 81.663037 
L 218.941313 83.204678 
L 222.289313 85.060271 
L 225.637313 87.311724 
L 228.985313 90.062964 
L 230.659313 91.663465 
L 232.333313 93.435162 
L 234.007313 95.393947 
L 235.681313 97.554833 
L 237.355313 99.931119 
L 239.029313 102.533451 
L 240.703313 105.368835 
L 242.377313 108.43967 
L 245.725313 115.269299 
L 249.073313 122.922556 
L 252.421313 131.19955 
L 262.465313 156.821283 
L 265.813313 164.623172 
L 269.161313 171.672273 
L 272.509313 177.842887 
L 274.183313 180.577839 
L 275.857313 183.075305 
L 277.531313 185.336145 
L 279.205313 187.363757 
L 280.879313 189.163681 
L 282.553313 190.743238 
L 284.227313 192.111194 
L 285.901313 193.277456 
L 287.575313 194.252802 
L 289.249313 195.04863 
L 290.923313 195.676739 
L 292.597313 196.149126 
L 294.271313 196.477807 
L 295.945313 196.674658 
L 299.293313 196.71884 
L 302.641313 196.369041 
L 305.989313 195.703667 
L 309.337313 194.790947 
L 314.359313 193.083144 
L 319.381313 191.109476 
L 332.773313 185.438527 
L 341.143313 182.059975 
L 349.513313 178.932057 
L 359.557313 175.44367 
L 367.927313 172.783873 
L 374.623313 170.930142 
L 377.971313 170.135202 
L 377.971313 170.135202 
" clip-path="url(#p2334654046)" style="fill: none; stroke: #808080; stroke-width: 1.5; stroke-linecap: square"/>
   </g>
   <g id="line2d_22">
    <path d="M 44.845313 156.022975 
L 46.519313 156.022975 
L 51.541313 156.92647 
L 53.215313 156.868799 
L 54.889313 156.511543 
L 56.563313 155.861968 
L 58.237313 154.95712 
L 59.911313 153.852121 
L 64.933313 149.994589 
L 68.281313 147.630558 
L 69.955313 146.69207 
L 71.629313 145.98679 
L 73.303313 145.56271 
L 74.977313 145.463692 
L 76.651313 145.729041 
L 78.325313 146.39254 
L 79.999313 147.4809 
L 81.673313 149.011721 
L 83.347313 150.991223 
L 85.021313 153.412172 
L 86.695313 156.252524 
L 88.369313 159.475246 
L 90.043313 163.029613 
L 93.391313 170.879192 
L 101.761313 191.599198 
L 105.109313 199.098668 
L 108.457313 205.686452 
L 110.131313 208.583104 
L 111.805313 211.193523 
L 113.479313 213.504582 
L 115.153313 215.504225 
L 116.827313 217.180608 
L 118.501313 218.521487 
L 120.175313 219.513856 
L 121.849313 220.143884 
L 123.523313 220.39716 
L 125.197313 220.259259 
L 126.871313 219.716618 
L 128.545313 218.757707 
L 130.219313 217.37447 
L 131.893313 215.563946 
L 133.567313 213.329983 
L 135.241313 210.684871 
L 136.915313 207.650641 
L 138.589313 204.259808 
L 141.937313 196.589545 
L 145.285313 188.119506 
L 151.981313 170.879377 
L 155.329313 163.083363 
L 157.003313 159.560655 
L 158.677313 156.334167 
L 160.351313 153.42963 
L 162.025313 150.865887 
L 163.699313 148.654918 
L 165.373313 146.801723 
L 167.047313 145.304092 
L 168.721313 144.152339 
L 170.395313 143.329127 
L 172.069313 142.809545 
L 173.743313 142.561574 
L 175.417313 142.547055 
L 177.091313 142.723173 
L 180.439313 143.464802 
L 187.135313 145.330987 
L 190.483313 145.986223 
L 193.831313 146.34415 
L 197.179313 146.456631 
L 205.549313 146.512089 
L 208.897313 146.821476 
L 212.245313 147.459994 
L 215.593313 148.471244 
L 218.941313 149.839538 
L 222.289313 151.492131 
L 232.333313 156.806479 
L 235.681313 158.146183 
L 237.355313 158.641769 
L 239.029313 158.996741 
L 240.703313 159.194964 
L 242.377313 159.222434 
L 244.051313 159.067578 
L 245.725313 158.721515 
L 247.399313 158.178279 
L 249.073313 157.434991 
L 250.747313 156.491946 
L 252.421313 155.352614 
L 254.095313 154.023544 
L 255.769313 152.514162 
L 259.117313 149.004619 
L 262.465313 144.943323 
L 265.813313 140.469061 
L 270.835313 133.292357 
L 280.879313 118.70885 
L 285.901313 111.824365 
L 290.923313 105.391679 
L 294.271313 101.38628 
L 297.619313 97.623691 
L 300.967313 94.117642 
L 304.315313 90.883719 
L 307.663313 87.940624 
L 311.011313 85.311344 
L 314.359313 83.024607 
L 317.707313 81.116693 
L 321.055313 79.633522 
L 322.729313 79.068739 
L 324.403313 78.632831 
L 326.077313 78.335192 
L 327.751313 78.186165 
L 329.425313 78.197051 
L 331.099313 78.380072 
L 332.773313 78.748279 
L 334.447313 79.315381 
L 336.121313 80.095495 
L 337.795313 81.102789 
L 339.469313 82.351028 
L 341.143313 83.853018 
L 342.817313 85.619978 
L 344.491313 87.660857 
L 346.165313 89.981664 
L 347.839313 92.584827 
L 349.513313 95.468681 
L 351.187313 98.627087 
L 354.535313 105.719841 
L 357.883313 113.723411 
L 361.231313 122.437343 
L 366.253313 136.309846 
L 372.949313 154.986758 
L 376.297313 163.897512 
L 377.971313 168.166041 
L 377.971313 168.166041 
" clip-path="url(#p2334654046)" style="fill: none; stroke: #808080; stroke-width: 1.5; stroke-linecap: square"/>
   </g>
   <g id="line2d_23">
    <path d="M 44.845313 156.022975 
L 46.519313 154.899058 
L 48.193313 154.033585 
L 49.867313 153.39119 
L 51.541313 152.939595 
L 53.215313 152.64844 
L 56.563313 152.437328 
L 59.911313 152.577882 
L 63.259313 152.986797 
L 66.607313 153.702025 
L 68.281313 154.21486 
L 69.955313 154.859909 
L 71.629313 155.659148 
L 73.303313 156.632349 
L 74.977313 157.795521 
L 76.651313 159.159937 
L 78.325313 160.731651 
L 79.999313 162.511405 
L 81.673313 164.494749 
L 85.021313 169.030053 
L 88.369313 174.209697 
L 91.717313 179.847283 
L 101.761313 197.232885 
L 105.109313 202.458446 
L 108.457313 207.108204 
L 110.131313 209.177964 
L 111.805313 211.060708 
L 113.479313 212.745828 
L 115.153313 214.224118 
L 116.827313 215.48759 
L 118.501313 216.529324 
L 120.175313 217.343366 
L 121.849313 217.924683 
L 123.523313 218.269159 
L 125.197313 218.373633 
L 126.871313 218.235965 
L 128.545313 217.855114 
L 130.219313 217.231221 
L 131.893313 216.365673 
L 133.567313 215.261153 
L 135.241313 213.921673 
L 136.915313 212.352593 
L 138.589313 210.560638 
L 140.263313 208.553934 
L 141.937313 206.342062 
L 145.285313 201.348955 
L 148.633313 195.690565 
L 151.981313 189.504384 
L 157.003313 179.599423 
L 163.699313 166.204586 
L 167.047313 159.847464 
L 170.395313 153.942576 
L 173.743313 148.627889 
L 177.091313 144.007661 
L 178.765313 141.980228 
L 180.439313 140.148313 
L 182.113313 138.514357 
L 183.787313 137.078736 
L 185.461313 135.840003 
L 187.135313 134.795161 
L 188.809313 133.939947 
L 190.483313 133.269103 
L 192.157313 132.776618 
L 193.831313 132.455925 
L 195.505313 132.300064 
L 197.179313 132.301777 
L 198.853313 132.45358 
L 200.527313 132.747782 
L 202.201313 133.176488 
L 203.875313 133.731586 
L 207.223313 135.187321 
L 210.571313 137.045314 
L 213.919313 139.232623 
L 217.267313 141.674845 
L 222.289313 145.657698 
L 240.703313 160.695734 
L 245.725313 164.432384 
L 250.747313 167.897163 
L 255.769313 171.018129 
L 259.117313 172.866134 
L 262.465313 174.501167 
L 265.813313 175.907322 
L 269.161313 177.078605 
L 272.509313 178.020973 
L 275.857313 178.753211 
L 279.205313 179.306822 
L 284.227313 179.900123 
L 294.271313 180.978279 
L 297.619313 181.567011 
L 300.967313 182.398531 
L 304.315313 183.547664 
L 307.663313 185.08135 
L 311.011313 187.052305 
L 314.359313 189.491718 
L 317.707313 192.401999 
L 321.055313 195.751444 
L 324.403313 199.47317 
L 329.425313 205.535376 
L 339.469313 217.91053 
L 342.817313 221.708758 
L 346.165313 225.208196 
L 349.513313 228.357174 
L 352.861313 231.119693 
L 356.209313 233.470509 
L 359.557313 235.389841 
L 362.905313 236.858066 
L 364.579313 237.415639 
L 366.253313 237.850501 
L 367.927313 238.157923 
L 369.601313 238.332205 
L 371.275313 238.366514 
L 372.949313 238.25272 
L 374.623313 237.981244 
L 376.297313 237.54093 
L 377.971313 236.918953 
L 377.971313 236.918953 
" clip-path="url(#p2334654046)" style="fill: none; stroke: #808080; stroke-width: 1.5; stroke-linecap: square"/>
   </g>
   <g id="line2d_24">
    <path d="M 44.845313 156.022975 
L 46.519313 156.022975 
L 48.193313 155.613798 
L 53.215313 153.920932 
L 54.889313 153.650218 
L 56.563313 153.652793 
L 58.237313 153.956876 
L 59.911313 154.567141 
L 61.585313 155.470322 
L 63.259313 156.64026 
L 64.933313 158.042237 
L 68.281313 161.38113 
L 73.303313 167.100977 
L 78.325313 172.756019 
L 81.673313 176.060299 
L 83.347313 177.492553 
L 85.021313 178.747813 
L 86.695313 179.805917 
L 88.369313 180.64881 
L 90.043313 181.260575 
L 91.717313 181.62753 
L 93.391313 181.738351 
L 95.065313 181.584242 
L 96.739313 181.159141 
L 98.413313 180.459949 
L 100.087313 179.486778 
L 101.761313 178.243166 
L 103.435313 176.736235 
L 105.109313 174.976724 
L 106.783313 172.97887 
L 108.457313 170.760114 
L 111.805313 165.742948 
L 115.153313 160.109724 
L 120.175313 150.940543 
L 130.219313 132.143364 
L 135.241313 123.233615 
L 140.263313 114.825711 
L 145.285313 106.966662 
L 148.633313 102.068916 
L 151.981313 97.480719 
L 155.329313 93.232984 
L 158.677313 89.348436 
L 162.025313 85.837649 
L 165.373313 82.699198 
L 168.721313 79.922477 
L 172.069313 77.491089 
L 175.417313 75.38549 
L 178.765313 73.584584 
L 182.113313 72.066511 
L 185.461313 70.808976 
L 188.809313 69.789376 
L 192.157313 68.984769 
L 195.505313 68.371607 
L 200.527313 67.756306 
L 205.549313 67.424055 
L 212.245313 67.239123 
L 222.289313 66.959562 
L 227.311313 66.604967 
L 232.333313 66.045056 
L 239.029313 65.020224 
L 255.769313 62.213105 
L 260.791313 61.657054 
L 265.813313 61.345491 
L 270.835313 61.304567 
L 275.857313 61.53434 
L 280.879313 62.009807 
L 287.575313 62.941226 
L 307.663313 66.078421 
L 312.685313 66.513688 
L 317.707313 66.686799 
L 322.729313 66.580243 
L 327.751313 66.207476 
L 332.773313 65.607963 
L 339.469313 64.552658 
L 351.187313 62.385601 
L 362.905313 60.268841 
L 372.949313 58.677218 
L 377.971313 57.964973 
L 377.971313 57.964973 
" clip-path="url(#p2334654046)" style="fill: none; stroke: #2ca02c; stroke-width: 1.5; stroke-linecap: square"/>
   </g>
   <g id="patch_3">
    <path d="M 44.845313 266.902975 
L 44.845313 45.142975 
" style="fill: none; stroke: #000000; stroke-width: 0.8; stroke-linejoin: miter; stroke-linecap: square"/>
   </g>
   <g id="patch_4">
    <path d="M 379.645313 266.902975 
L 379.645313 45.142975 
" style="fill: none; stroke: #000000; stroke-width: 0.8; stroke-linejoin: miter; stroke-linecap: square"/>
   </g>
   <g id="patch_5">
    <path d="M 44.845313 266.902975 
L 379.645313 266.902975 
" style="fill: none; stroke: #000000; stroke-width: 0.8; stroke-linejoin: miter; stroke-linecap: square"/>
   </g>
   <g id="patch_6">
    <path d="M 44.845313 45.142975 
L 379.645313 45.142975 
" style="fill: none; stroke: #000000; stroke-width: 0.8; stroke-linejoin: miter; stroke-linecap: square"/>
   </g>
   <g id="patch_7">
    <path d="M 212.245313 27.455136 
Q 212.245313 29.754445 212.245313 32.053754 
" style="fill: none; stroke: #000000; stroke-width: 2; stroke-linecap: round"/>
    <path d="M 122.245313 39.053754 
L 122.245313 32.053754 
L 302.245313 32.053754 
L 302.245313 39.053754 
" style="fill: none; stroke: #000000; stroke-width: 2; stroke-linecap: round"/>
   </g>
   <g id="text_20">
    <g id="patch_8">
     <path d="M 186.905313 24.949375 
L 237.585313 24.949375 
L 237.585313 3 
L 186.905313 3 
z
" style="fill: #ffffff; stroke: #ffffff; stroke-linejoin: miter"/>
    </g>
    <!-- $D$:100 -->
    <g transform="translate(191.105313 17.837812) scale(0.14 -0.14)">
     <defs>
      <path id="DejaVuSans-Oblique-44" d="M 1081 4666 
L 2438 4666 
Q 3519 4666 4070 4208 
Q 4622 3750 4622 2847 
Q 4622 2250 4412 1698 
Q 4203 1147 3834 769 
Q 3463 381 2891 190 
Q 2319 0 1538 0 
L 172 0 
L 1081 4666 
z
M 1613 4147 
L 909 519 
L 1734 519 
Q 2794 519 3375 1128 
Q 3956 1738 3956 2847 
Q 3956 3519 3581 3833 
Q 3206 4147 2406 4147 
L 1613 4147 
z
" transform="scale(0.015625)"/>
      <path id="DejaVuSans-3a" d="M 750 794 
L 1409 794 
L 1409 0 
L 750 0 
L 750 794 
z
M 750 3309 
L 1409 3309 
L 1409 2516 
L 750 2516 
L 750 3309 
z
" transform="scale(0.015625)"/>
     </defs>
     <use xlink:href="#DejaVuSans-Oblique-44" transform="translate(0 0.78125)"/>
     <use xlink:href="#DejaVuSans-3a" transform="translate(77.001953 0.78125)"/>
     <use xlink:href="#DejaVuSans-31" transform="translate(110.693359 0.78125)"/>
     <use xlink:href="#DejaVuSans-30" transform="translate(174.316406 0.78125)"/>
     <use xlink:href="#DejaVuSans-30" transform="translate(237.939453 0.78125)"/>
    </g>
   </g>
  </g>
 </g>
 <defs>
  <clipPath id="p2334654046">
   <rect x="44.845313" y="45.142975" width="334.8" height="221.76"/>
  </clipPath>
 </defs>
</svg>
